<svg width="344" height="259" viewBox="0 0 344 259" fill="none" xmlns="http://www.w3.org/2000/svg">
<g clip-path="url(#clip0_2_247)">
<rect width="344" height="259" rx="16" fill="url(#paint0_linear_2_247)"/>
<path d="M30.12 53.2C29.04 53.2 28.1067 53.0133 27.32 52.64C26.5333 52.2667 25.9267 51.7667 25.5 51.14C25.0867 50.5 24.88 49.8067 24.88 49.06C24.88 48.7667 24.9 48.5133 24.94 48.3C24.98 48.0733 25.04 47.84 25.12 47.6H28.14C28.0867 47.8133 28.0467 48.0067 28.02 48.18C28.0067 48.3533 28 48.5333 28 48.72C28 49.32 28.18 49.82 28.54 50.22C28.9 50.6067 29.4267 50.8 30.12 50.8C30.6533 50.8 31.0733 50.6867 31.38 50.46C31.6867 50.2333 31.9067 49.9267 32.04 49.54C32.1867 49.14 32.26 48.6933 32.26 48.2V45.64C32.26 45.1467 32.1933 44.7067 32.06 44.32C31.94 43.92 31.7333 43.6067 31.44 43.38C31.16 43.14 30.7733 43.02 30.28 43.02C29.92 43.02 29.6067 43.0867 29.34 43.22C29.0733 43.3533 28.8667 43.5533 28.72 43.82C28.5733 44.0733 28.5 44.38 28.5 44.74C28.5 44.8467 28.5067 44.9667 28.52 45.1C28.5333 45.2333 28.5467 45.3733 28.56 45.52H25.54C25.5 45.36 25.4667 45.1867 25.44 45C25.4133 44.8 25.4 44.58 25.4 44.34C25.4 43.5933 25.58 42.9467 25.94 42.4C26.3133 41.84 26.7933 41.4133 27.38 41.12C27.9667 40.8133 28.5867 40.66 29.24 40.66C29.7733 40.66 30.2333 40.7267 30.62 40.86C31.0067 40.98 31.3333 41.1467 31.6 41.36C31.88 41.5733 32.1133 41.8133 32.3 42.08H32.38C32.34 41.84 32.3067 41.56 32.28 41.24C32.2533 40.92 32.24 40.5867 32.24 40.24V38.72H35.26V48.24C35.26 49.2667 35.06 50.1533 34.66 50.9C34.2733 51.6467 33.7 52.22 32.94 52.62C32.18 53.0067 31.24 53.2 30.12 53.2ZM39.1181 53C38.9048 52.44 38.7048 51.8667 38.5181 51.28C38.3448 50.6933 38.1915 50.08 38.0581 49.44C37.9248 48.7867 37.8248 48.1 37.7581 47.38C37.6915 46.6467 37.6581 45.86 37.6581 45.02C37.6581 43.46 37.8781 42.2067 38.3181 41.26C38.7581 40.3 39.3381 39.6067 40.0581 39.18C40.7915 38.74 41.5915 38.52 42.4581 38.52C42.8581 38.52 43.2781 38.58 43.7181 38.7C44.1581 38.82 44.5648 39.0333 44.9381 39.34C45.3115 39.6467 45.6048 40.08 45.8181 40.64H45.8781C46.1048 40.0933 46.4048 39.6667 46.7781 39.36C47.1515 39.0533 47.5581 38.84 47.9981 38.72C48.4381 38.5867 48.8781 38.52 49.3181 38.52C50.1581 38.52 50.9315 38.74 51.6381 39.18C52.3581 39.62 52.9315 40.32 53.3581 41.28C53.7981 42.2267 54.0181 43.4733 54.0181 45.02C54.0181 46.2067 53.9515 47.26 53.8181 48.18C53.6981 49.1 53.5248 49.9467 53.2981 50.72C53.0848 51.48 52.8381 52.24 52.5581 53H49.4381C49.7048 52.24 49.9381 51.4533 50.1381 50.64C50.3515 49.8133 50.5181 48.94 50.6381 48.02C50.7581 47.0867 50.8181 46.0733 50.8181 44.98C50.8181 44.0067 50.7448 43.2333 50.5981 42.66C50.4515 42.0867 50.2448 41.6733 49.9781 41.42C49.7115 41.1667 49.3915 41.04 49.0181 41.04C48.6048 41.04 48.2848 41.1667 48.0581 41.42C47.8315 41.66 47.6715 41.9933 47.5781 42.42C47.4848 42.8333 47.4381 43.2933 47.4381 43.8V48.82H44.2581V43.8C44.2581 43.2133 44.1981 42.7133 44.0781 42.3C43.9715 41.8867 43.7981 41.5733 43.5581 41.36C43.3315 41.1467 43.0248 41.04 42.6381 41.04C42.2781 41.04 41.9581 41.1667 41.6781 41.42C41.4115 41.6733 41.2048 42.0867 41.0581 42.66C40.9115 43.2333 40.8381 44.0067 40.8381 44.98C40.8381 46.0733 40.8981 47.0867 41.0181 48.02C41.1381 48.94 41.3048 49.8067 41.5181 50.62C41.7315 51.4333 41.9715 52.2267 42.2381 53H39.1181ZM61.5738 53.2C59.9204 53.2 58.6471 52.74 57.7538 51.82C56.8604 50.9 56.4137 49.5933 56.4137 47.9V42.8C56.4137 42.0533 56.5271 41.42 56.7538 40.9C56.9804 40.38 57.2871 39.96 57.6738 39.64C58.0738 39.32 58.5204 39.0867 59.0138 38.94C59.5204 38.7933 60.0404 38.72 60.5738 38.72H65.9738V41.2H60.8938C60.4538 41.2 60.1071 41.3067 59.8538 41.52C59.6138 41.7333 59.4938 42.0733 59.4938 42.54V43.02C59.4938 43.2067 59.4804 43.42 59.4538 43.66C59.4271 43.8867 59.3871 44.1067 59.3338 44.32H59.4338C59.6604 44.0267 59.9204 43.78 60.2138 43.58C60.5071 43.3667 60.8471 43.2 61.2338 43.08C61.6338 42.96 62.0871 42.9 62.5938 42.9C63.4604 42.9 64.2204 43.1067 64.8738 43.52C65.5404 43.9333 66.0538 44.52 66.4138 45.28C66.7871 46.04 66.9738 46.94 66.9738 47.98C66.9738 49.0733 66.7538 50.0133 66.3138 50.8C65.8871 51.5733 65.2671 52.1667 64.4538 52.58C63.6538 52.9933 62.6938 53.2 61.5738 53.2ZM61.6138 50.72C62.1471 50.72 62.5804 50.6 62.9138 50.36C63.2471 50.12 63.4871 49.8 63.6338 49.4C63.7938 48.9867 63.8738 48.5333 63.8738 48.04C63.8738 47.5067 63.7871 47.0467 63.6138 46.66C63.4404 46.26 63.1871 45.9533 62.8538 45.74C62.5338 45.5267 62.1404 45.42 61.6738 45.42C61.1004 45.42 60.6404 45.54 60.2938 45.78C59.9604 46.02 59.7138 46.3333 59.5538 46.72C59.4071 47.1067 59.3338 47.5333 59.3338 48V48.32C59.3338 48.7733 59.4138 49.18 59.5738 49.54C59.7471 49.9 60.0004 50.1867 60.3338 50.4C60.6671 50.6133 61.0938 50.72 61.6138 50.72ZM74.0848 53.2C73.0182 53.2 72.0915 53.0067 71.3048 52.62C70.5182 52.2333 69.9115 51.7 69.4848 51.02C69.0582 50.34 68.8448 49.5733 68.8448 48.72C68.8448 48.4 68.8648 48.0933 68.9048 47.8C68.9448 47.5067 69.0115 47.22 69.1048 46.94H72.1848C72.1315 47.1667 72.0848 47.42 72.0448 47.7C72.0182 47.9667 72.0048 48.2133 72.0048 48.44C72.0048 48.8533 72.0782 49.2333 72.2248 49.58C72.3848 49.9133 72.6248 50.18 72.9448 50.38C73.2648 50.58 73.6582 50.68 74.1248 50.68C74.6448 50.68 75.0582 50.5867 75.3648 50.4C75.6715 50.2 75.8915 49.92 76.0248 49.56C76.1582 49.2 76.2248 48.7867 76.2248 48.32V42.98C76.2248 42.3533 76.0515 41.8733 75.7048 41.54C75.3715 41.2067 74.9315 41.04 74.3848 41.04C74.0115 41.04 73.6848 41.1067 73.4048 41.24C73.1248 41.3733 72.9048 41.5733 72.7448 41.84C72.5982 42.1067 72.5248 42.4333 72.5248 42.82C72.5248 42.98 72.5315 43.1667 72.5448 43.38C72.5715 43.58 72.6048 43.7933 72.6448 44.02H69.5648C69.5115 43.7933 69.4582 43.56 69.4048 43.32C69.3648 43.08 69.3448 42.7933 69.3448 42.46C69.3448 41.6067 69.5648 40.8933 70.0048 40.32C70.4448 39.7333 71.0382 39.2867 71.7848 38.98C72.5448 38.6733 73.3915 38.52 74.3248 38.52C75.3248 38.52 76.1915 38.7 76.9248 39.06C77.6582 39.4067 78.2248 39.9067 78.6248 40.56C79.0248 41.2133 79.2248 41.9933 79.2248 42.9V48.36C79.2248 49.36 79.0182 50.2267 78.6048 50.96C78.2048 51.68 77.6248 52.2333 76.8648 52.62C76.1048 53.0067 75.1782 53.2 74.0848 53.2ZM86.883 53.2C86.1363 53.2 85.4363 53.08 84.783 52.84C84.143 52.6 83.5763 52.2533 83.083 51.8C82.603 51.3333 82.223 50.7667 81.943 50.1C81.6763 49.4333 81.543 48.6667 81.543 47.8C81.543 46.6667 81.7696 45.7067 82.223 44.92C82.6763 44.1333 83.303 43.5333 84.103 43.12C84.9163 42.7067 85.863 42.5 86.943 42.5C87.943 42.5 88.843 42.7067 89.643 43.12C90.443 43.5333 91.0763 44.1333 91.543 44.92C92.023 45.7067 92.263 46.6667 92.263 47.8C92.263 48.6667 92.1296 49.44 91.863 50.12C91.6096 50.7867 91.243 51.3533 90.763 51.82C90.2963 52.2733 89.7296 52.62 89.063 52.86C88.4096 53.0867 87.683 53.2 86.883 53.2ZM86.923 50.68C87.3896 50.68 87.783 50.5667 88.103 50.34C88.423 50.1 88.663 49.7667 88.823 49.34C88.9963 48.9 89.083 48.3867 89.083 47.8C89.083 47.2267 88.9963 46.7333 88.823 46.32C88.663 45.9067 88.4163 45.5867 88.083 45.36C87.763 45.1333 87.3696 45.02 86.903 45.02C86.2096 45.02 85.6696 45.2733 85.283 45.78C84.9096 46.2733 84.723 46.9467 84.723 47.8C84.723 48.3867 84.8096 48.9 84.983 49.34C85.1563 49.7667 85.403 50.1 85.723 50.34C86.0563 50.5667 86.4563 50.68 86.923 50.68ZM88.483 43.06L85.583 42.86C85.7163 42.7667 85.8096 42.64 85.863 42.48C85.9163 42.32 85.943 42.1667 85.943 42.02C85.943 41.78 85.863 41.5867 85.703 41.44C85.543 41.28 85.363 41.1333 85.163 41C84.9763 40.88 84.7896 40.7133 84.603 40.5C84.4296 40.2867 84.2896 40.0333 84.183 39.74C84.0763 39.4333 84.0496 39.0933 84.103 38.72H87.023C87.023 38.9733 87.103 39.1867 87.263 39.36C87.423 39.52 87.6296 39.6933 87.883 39.88C88.1763 40.08 88.423 40.3267 88.623 40.62C88.8363 40.9133 88.943 41.26 88.943 41.66C88.943 41.9133 88.903 42.1533 88.823 42.38C88.743 42.5933 88.6296 42.82 88.483 43.06ZM95.2025 53C95.0025 52.3733 94.8225 51.7 94.6625 50.98C94.5025 50.26 94.3758 49.4333 94.2825 48.5C94.1892 47.5533 94.1425 46.4467 94.1425 45.18C94.1425 43.5933 94.3758 42.3133 94.8425 41.34C95.3092 40.3667 95.9425 39.6533 96.7425 39.2C97.5558 38.7467 98.4692 38.52 99.4825 38.52C100.509 38.52 101.423 38.7467 102.223 39.2C103.036 39.6533 103.676 40.3667 104.143 41.34C104.609 42.3133 104.843 43.5933 104.843 45.18C104.843 46.4333 104.796 47.5333 104.703 48.48C104.609 49.4133 104.483 50.2467 104.323 50.98C104.176 51.7 103.996 52.3733 103.783 53H100.703C100.889 52.3733 101.049 51.68 101.183 50.92C101.329 50.16 101.443 49.3067 101.523 48.36C101.616 47.4 101.663 46.32 101.663 45.12C101.663 44.12 101.576 43.3267 101.403 42.74C101.243 42.14 100.996 41.7067 100.663 41.44C100.343 41.1733 99.9492 41.04 99.4825 41.04C99.0292 41.04 98.6358 41.1733 98.3025 41.44C97.9825 41.6933 97.7358 42.12 97.5625 42.72C97.3892 43.32 97.3025 44.12 97.3025 45.12C97.3025 46.3333 97.3425 47.42 97.4225 48.38C97.5158 49.3267 97.6358 50.18 97.7825 50.94C97.9425 51.6867 98.1092 52.3733 98.2825 53H95.2025ZM112.494 53.2C110.801 53.2 109.501 52.74 108.594 51.82C107.687 50.8867 107.234 49.5933 107.234 47.94V38.72H110.254V48.14C110.254 48.66 110.334 49.1133 110.494 49.5C110.667 49.8733 110.921 50.1667 111.254 50.38C111.587 50.58 112.001 50.68 112.494 50.68C112.961 50.68 113.347 50.58 113.654 50.38C113.974 50.18 114.207 49.92 114.354 49.6C114.514 49.2667 114.594 48.9067 114.594 48.52C114.594 47.92 114.487 47.42 114.274 47.02C114.074 46.6067 113.841 46.2133 113.574 45.84C113.294 45.44 113.047 44.9933 112.834 44.5C112.634 44.0067 112.574 43.4067 112.654 42.7H115.794C115.781 43.1933 115.861 43.6067 116.034 43.94C116.207 44.2733 116.427 44.64 116.694 45.04C116.974 45.4533 117.221 45.9133 117.434 46.42C117.661 46.9267 117.774 47.5733 117.774 48.36C117.774 49.32 117.561 50.1667 117.134 50.9C116.707 51.62 116.094 52.1867 115.294 52.6C114.507 53 113.574 53.2 112.494 53.2ZM126.021 53C125.768 52.3067 125.561 51.66 125.401 51.06C125.254 50.4467 125.141 49.8333 125.061 49.22C124.994 48.5933 124.961 47.92 124.961 47.2C124.961 46.04 125.068 45 125.281 44.08C125.494 43.16 125.841 42.3667 126.321 41.7C126.814 41.02 127.474 40.4667 128.301 40.04C129.128 39.6 130.161 39.2867 131.401 39.1C131.828 39.0333 132.281 38.9667 132.761 38.9C133.254 38.8333 133.781 38.7667 134.341 38.7C134.914 38.6333 135.528 38.5667 136.181 38.5L136.521 41.04C136.094 41.0933 135.654 41.1467 135.201 41.2C134.748 41.24 134.301 41.2867 133.861 41.34C133.421 41.3933 133.008 41.4467 132.621 41.5C132.234 41.54 131.894 41.58 131.601 41.62C131.081 41.6867 130.541 41.7933 129.981 41.94C129.434 42.0733 128.934 42.2733 128.481 42.54C128.041 42.8067 127.708 43.1667 127.481 43.62H127.561C127.761 43.4067 127.981 43.24 128.221 43.12C128.461 43 128.714 42.9133 128.981 42.86C129.261 42.8067 129.534 42.78 129.801 42.78C130.521 42.78 131.141 42.9733 131.661 43.36C132.194 43.7333 132.581 44.26 132.821 44.94H132.901C133.154 44.2333 133.568 43.7 134.141 43.34C134.714 42.9667 135.448 42.78 136.341 42.78C137.288 42.78 138.088 43.0067 138.741 43.46C139.408 43.9 139.908 44.5 140.241 45.26C140.588 46.02 140.761 46.88 140.761 47.84C140.761 48.4533 140.721 49.0467 140.641 49.62C140.561 50.18 140.434 50.74 140.261 51.3C140.101 51.8467 139.901 52.4133 139.661 53H136.561C136.894 52.1867 137.154 51.3733 137.341 50.56C137.528 49.7333 137.621 48.8467 137.621 47.9C137.621 47.42 137.568 46.9667 137.461 46.54C137.354 46.1133 137.174 45.7733 136.921 45.52C136.668 45.2533 136.321 45.12 135.881 45.12C135.521 45.12 135.228 45.2267 135.001 45.44C134.774 45.64 134.608 45.92 134.501 46.28C134.394 46.64 134.341 47.04 134.341 47.48V49.92H131.361V47.48C131.361 46.96 131.301 46.5267 131.181 46.18C131.074 45.8333 130.901 45.5733 130.661 45.4C130.434 45.2133 130.148 45.12 129.801 45.12C129.228 45.12 128.794 45.3467 128.501 45.8C128.221 46.2533 128.081 46.9733 128.081 47.96C128.081 48.8533 128.174 49.7133 128.361 50.54C128.548 51.3533 128.808 52.1733 129.141 53H126.021ZM147.483 53.2C146.417 53.2 145.49 53.0067 144.703 52.62C143.917 52.2333 143.31 51.7 142.883 51.02C142.457 50.34 142.243 49.5733 142.243 48.72C142.243 48.4 142.263 48.0933 142.303 47.8C142.343 47.5067 142.41 47.22 142.503 46.94H145.583C145.53 47.1667 145.483 47.42 145.443 47.7C145.417 47.9667 145.403 48.2133 145.403 48.44C145.403 48.8533 145.477 49.2333 145.623 49.58C145.783 49.9133 146.023 50.18 146.343 50.38C146.663 50.58 147.057 50.68 147.523 50.68C148.043 50.68 148.457 50.5867 148.763 50.4C149.07 50.2 149.29 49.92 149.423 49.56C149.557 49.2 149.623 48.7867 149.623 48.32V42.98C149.623 42.3533 149.45 41.8733 149.103 41.54C148.77 41.2067 148.33 41.04 147.783 41.04C147.41 41.04 147.083 41.1067 146.803 41.24C146.523 41.3733 146.303 41.5733 146.143 41.84C145.997 42.1067 145.923 42.4333 145.923 42.82C145.923 42.98 145.93 43.1667 145.943 43.38C145.97 43.58 146.003 43.7933 146.043 44.02H142.963C142.91 43.7933 142.857 43.56 142.803 43.32C142.763 43.08 142.743 42.7933 142.743 42.46C142.743 41.6067 142.963 40.8933 143.403 40.32C143.843 39.7333 144.437 39.2867 145.183 38.98C145.943 38.6733 146.79 38.52 147.723 38.52C148.723 38.52 149.59 38.7 150.323 39.06C151.057 39.4067 151.623 39.9067 152.023 40.56C152.423 41.2133 152.623 41.9933 152.623 42.9V48.36C152.623 49.36 152.417 50.2267 152.003 50.96C151.603 51.68 151.023 52.2333 150.263 52.62C149.503 53.0067 148.577 53.2 147.483 53.2ZM160.161 53.18C159.415 53.18 158.715 53.0667 158.061 52.84C157.421 52.6133 156.855 52.2867 156.361 51.86C155.881 51.42 155.501 50.8933 155.221 50.28C154.955 49.6533 154.821 48.9467 154.821 48.16C154.821 47.1467 155.021 46.2933 155.421 45.6C155.835 44.9067 156.415 44.3667 157.161 43.98C157.908 43.5933 158.775 43.3467 159.761 43.24C160.428 43.1733 160.901 43.0333 161.181 42.82C161.475 42.6067 161.621 42.3 161.621 41.9C161.621 41.5667 161.495 41.3 161.241 41.1C160.988 40.8867 160.635 40.78 160.181 40.78C159.728 40.78 159.368 40.8933 159.101 41.12C158.848 41.3333 158.721 41.62 158.721 41.98C158.721 42.0467 158.728 42.12 158.741 42.2C158.755 42.2667 158.768 42.3533 158.781 42.46H155.801C155.761 42.2733 155.735 42.1133 155.721 41.98C155.708 41.8333 155.701 41.7 155.701 41.58C155.701 40.98 155.888 40.4533 156.261 40C156.648 39.5333 157.175 39.1733 157.841 38.92C158.521 38.6533 159.301 38.52 160.181 38.52C161.115 38.52 161.915 38.6533 162.581 38.92C163.248 39.1867 163.761 39.5533 164.121 40.02C164.481 40.4867 164.661 41.0267 164.661 41.64C164.661 42.12 164.528 42.5733 164.261 43C164.008 43.4267 163.555 43.76 162.901 44V44.08C163.688 44.36 164.321 44.84 164.801 45.52C165.295 46.2 165.541 47.08 165.541 48.16C165.541 48.9467 165.408 49.6533 165.141 50.28C164.888 50.8933 164.521 51.42 164.041 51.86C163.575 52.2867 163.008 52.6133 162.341 52.84C161.688 53.0667 160.961 53.18 160.161 53.18ZM160.201 50.66C160.641 50.66 161.021 50.5533 161.341 50.34C161.661 50.1133 161.908 49.8133 162.081 49.44C162.268 49.0667 162.361 48.64 162.361 48.16C162.361 47.6533 162.268 47.2133 162.081 46.84C161.908 46.4667 161.655 46.18 161.321 45.98C161.001 45.78 160.621 45.68 160.181 45.68C159.741 45.68 159.355 45.7867 159.021 46C158.701 46.2 158.448 46.4867 158.261 46.86C158.088 47.22 158.001 47.6533 158.001 48.16C158.001 48.64 158.088 49.0667 158.261 49.44C158.448 49.8133 158.708 50.1133 159.041 50.34C159.375 50.5533 159.761 50.66 160.201 50.66ZM168.367 53C168.167 52.3733 167.987 51.7 167.827 50.98C167.667 50.26 167.54 49.4333 167.447 48.5C167.353 47.5533 167.307 46.4467 167.307 45.18C167.307 43.5933 167.54 42.3133 168.007 41.34C168.473 40.3667 169.107 39.6533 169.907 39.2C170.72 38.7467 171.633 38.52 172.647 38.52C173.673 38.52 174.587 38.7467 175.387 39.2C176.2 39.6533 176.84 40.3667 177.307 41.34C177.773 42.3133 178.007 43.5933 178.007 45.18C178.007 46.4333 177.96 47.5333 177.867 48.48C177.773 49.4133 177.647 50.2467 177.487 50.98C177.34 51.7 177.16 52.3733 176.947 53H173.867C174.053 52.3733 174.213 51.68 174.347 50.92C174.493 50.16 174.607 49.3067 174.687 48.36C174.78 47.4 174.827 46.32 174.827 45.12C174.827 44.12 174.74 43.3267 174.567 42.74C174.407 42.14 174.16 41.7067 173.827 41.44C173.507 41.1733 173.113 41.04 172.647 41.04C172.193 41.04 171.8 41.1733 171.467 41.44C171.147 41.6933 170.9 42.12 170.727 42.72C170.553 43.32 170.467 44.12 170.467 45.12C170.467 46.3333 170.507 47.42 170.587 48.38C170.68 49.3267 170.8 50.18 170.947 50.94C171.107 51.6867 171.273 52.3733 171.447 53H168.367ZM185.658 53.2C183.965 53.2 182.665 52.74 181.758 51.82C180.851 50.8867 180.398 49.5933 180.398 47.94V38.72H183.418V48.14C183.418 48.66 183.498 49.1133 183.658 49.5C183.831 49.8733 184.085 50.1667 184.418 50.38C184.751 50.58 185.165 50.68 185.658 50.68C186.125 50.68 186.511 50.58 186.818 50.38C187.138 50.18 187.371 49.92 187.518 49.6C187.678 49.2667 187.758 48.9067 187.758 48.52C187.758 47.92 187.651 47.42 187.438 47.02C187.238 46.6067 187.005 46.2133 186.738 45.84C186.458 45.44 186.211 44.9933 185.998 44.5C185.798 44.0067 185.738 43.4067 185.818 42.7H188.958C188.945 43.1933 189.025 43.6067 189.198 43.94C189.371 44.2733 189.591 44.64 189.858 45.04C190.138 45.4533 190.385 45.9133 190.598 46.42C190.825 46.9267 190.938 47.5733 190.938 48.36C190.938 49.32 190.725 50.1667 190.298 50.9C189.871 51.62 189.258 52.1867 188.458 52.6C187.671 53 186.738 53.2 185.658 53.2ZM199.954 53.2C198.808 53.2 197.788 53.0333 196.894 52.7C196.001 52.3533 195.241 51.86 194.614 51.22C194.001 50.58 193.534 49.8133 193.214 48.92C192.894 48.0267 192.734 47.0267 192.734 45.92C192.734 43.9733 193.221 42.3933 194.194 41.18C195.181 39.9533 196.601 39.2133 198.454 38.96C198.428 38.8 198.408 38.66 198.394 38.54C198.394 38.42 198.394 38.3 198.394 38.18V37.94H201.514V38.18C201.514 38.3 201.508 38.42 201.494 38.54C201.494 38.66 201.481 38.7933 201.454 38.94C203.308 39.1933 204.728 39.9267 205.714 41.14C206.701 42.3533 207.194 43.9533 207.194 45.94C207.194 47.02 207.034 48.0067 206.714 48.9C206.394 49.7933 205.921 50.56 205.294 51.2C204.681 51.84 203.921 52.3333 203.014 52.68C202.121 53.0267 201.101 53.2 199.954 53.2ZM199.934 50.64C200.814 50.64 201.548 50.4667 202.134 50.12C202.734 49.7733 203.188 49.2533 203.494 48.56C203.801 47.8533 203.954 46.9733 203.954 45.92C203.954 44.5333 203.728 43.4733 203.274 42.74C202.821 41.9933 202.161 41.52 201.294 41.32C201.321 41.4933 201.354 41.7267 201.394 42.02C201.434 42.3 201.454 42.6667 201.454 43.12V45.98H198.434V43.12C198.434 42.6933 198.448 42.3467 198.474 42.08C198.514 41.8 198.554 41.5467 198.594 41.32C197.714 41.5333 197.054 42.0267 196.614 42.8C196.174 43.5733 195.954 44.6133 195.954 45.92C195.954 46.9733 196.108 47.8533 196.414 48.56C196.734 49.2533 197.188 49.7733 197.774 50.12C198.374 50.4667 199.094 50.64 199.934 50.64ZM210.259 53C210.006 52.3067 209.799 51.66 209.639 51.06C209.493 50.4467 209.379 49.8333 209.299 49.22C209.233 48.5933 209.199 47.92 209.199 47.2C209.199 46.04 209.306 45 209.519 44.08C209.733 43.16 210.079 42.3667 210.559 41.7C211.053 41.02 211.713 40.4667 212.539 40.04C213.366 39.6 214.399 39.2867 215.639 39.1C216.066 39.0333 216.519 38.9667 216.999 38.9C217.493 38.8333 218.019 38.7667 218.579 38.7C219.153 38.6333 219.766 38.5667 220.419 38.5L220.759 41.04C220.333 41.0933 219.893 41.1467 219.439 41.2C218.986 41.24 218.539 41.2867 218.099 41.34C217.659 41.3933 217.246 41.4467 216.859 41.5C216.473 41.54 216.133 41.58 215.839 41.62C215.319 41.6867 214.779 41.7933 214.219 41.94C213.673 42.0733 213.173 42.2733 212.719 42.54C212.279 42.8067 211.946 43.1667 211.719 43.62H211.799C211.999 43.4067 212.219 43.24 212.459 43.12C212.699 43 212.953 42.9133 213.219 42.86C213.499 42.8067 213.773 42.78 214.039 42.78C214.759 42.78 215.379 42.9733 215.899 43.36C216.433 43.7333 216.819 44.26 217.059 44.94H217.139C217.393 44.2333 217.806 43.7 218.379 43.34C218.953 42.9667 219.686 42.78 220.579 42.78C221.526 42.78 222.326 43.0067 222.979 43.46C223.646 43.9 224.146 44.5 224.479 45.26C224.826 46.02 224.999 46.88 224.999 47.84C224.999 48.4533 224.959 49.0467 224.879 49.62C224.799 50.18 224.673 50.74 224.499 51.3C224.339 51.8467 224.139 52.4133 223.899 53H220.799C221.133 52.1867 221.393 51.3733 221.579 50.56C221.766 49.7333 221.859 48.8467 221.859 47.9C221.859 47.42 221.806 46.9667 221.699 46.54C221.593 46.1133 221.413 45.7733 221.159 45.52C220.906 45.2533 220.559 45.12 220.119 45.12C219.759 45.12 219.466 45.2267 219.239 45.44C219.013 45.64 218.846 45.92 218.739 46.28C218.633 46.64 218.579 47.04 218.579 47.48V49.92H215.599V47.48C215.599 46.96 215.539 46.5267 215.419 46.18C215.313 45.8333 215.139 45.5733 214.899 45.4C214.673 45.2133 214.386 45.12 214.039 45.12C213.466 45.12 213.033 45.3467 212.739 45.8C212.459 46.2533 212.319 46.9733 212.319 47.96C212.319 48.8533 212.413 49.7133 212.599 50.54C212.786 51.3533 213.046 52.1733 213.379 53H210.259ZM232.132 53.2C231.052 53.2 230.119 53.0067 229.332 52.62C228.546 52.2333 227.939 51.68 227.512 50.96C227.086 50.24 226.872 49.3867 226.872 48.4C226.872 47.9733 226.906 47.5467 226.972 47.12C227.039 46.6933 227.206 46.1533 227.472 45.5L225.852 45.96H231.652L230.512 45.58C230.299 46.14 230.166 46.6467 230.112 47.1C230.059 47.5533 230.032 47.9267 230.032 48.22C230.032 48.9267 230.206 49.5133 230.552 49.98C230.899 50.4467 231.426 50.68 232.132 50.68C232.639 50.68 233.046 50.5733 233.352 50.36C233.659 50.1333 233.879 49.8267 234.012 49.44C234.159 49.0533 234.232 48.6133 234.232 48.12C234.232 47.5467 234.152 47.0267 233.992 46.56C233.832 46.0933 233.626 45.66 233.372 45.26C233.132 44.8467 232.866 44.46 232.572 44.1C232.159 43.5533 231.772 43.0267 231.412 42.52C231.066 42 230.806 41.44 230.632 40.84C230.459 40.2267 230.426 39.52 230.532 38.72H233.632C233.579 39.2267 233.626 39.7 233.772 40.14C233.919 40.58 234.132 41.0067 234.412 41.42C234.706 41.82 235.012 42.24 235.332 42.68C235.666 43.12 235.992 43.6 236.312 44.12C236.632 44.6267 236.892 45.2 237.092 45.84C237.306 46.48 237.412 47.2133 237.412 48.04C237.412 49.08 237.199 49.9867 236.772 50.76C236.359 51.5333 235.759 52.1333 234.972 52.56C234.186 52.9867 233.239 53.2 232.132 53.2ZM246.014 53.2C244.974 53.2 244.047 53.0533 243.234 52.76C242.421 52.4533 241.727 51.9867 241.154 51.36C240.594 50.7333 240.161 49.9333 239.854 48.96C239.561 47.9733 239.414 46.7933 239.414 45.42C239.414 44.6067 239.474 43.8133 239.594 43.04C239.714 42.2667 239.881 41.52 240.094 40.8C240.321 40.08 240.587 39.3867 240.894 38.72H243.914C243.634 39.44 243.394 40.1467 243.194 40.84C243.007 41.52 242.861 42.2333 242.754 42.98C242.647 43.7133 242.594 44.5267 242.594 45.42C242.594 46.62 242.714 47.6133 242.954 48.4C243.194 49.1733 243.567 49.7467 244.074 50.12C244.581 50.4933 245.234 50.68 246.034 50.68C246.981 50.68 247.701 50.4867 248.194 50.1C248.701 49.7 248.954 49.1533 248.954 48.46C248.954 48.06 248.854 47.7067 248.654 47.4C248.454 47.08 248.161 46.8333 247.774 46.66C247.401 46.4733 246.927 46.38 246.354 46.38H245.674V43.94H246.954C247.327 43.94 247.641 43.9 247.894 43.82C248.161 43.7267 248.361 43.6067 248.494 43.46C248.627 43.3 248.694 43.1133 248.694 42.9C248.694 42.62 248.594 42.38 248.394 42.18C248.194 41.9667 247.974 41.7667 247.734 41.58C247.494 41.38 247.261 41.1667 247.034 40.94C246.807 40.7133 246.627 40.4267 246.494 40.08C246.361 39.72 246.307 39.2667 246.334 38.72H249.414C249.414 39.04 249.521 39.32 249.734 39.56C249.947 39.8 250.181 40.02 250.434 40.22C250.767 40.4733 251.081 40.78 251.374 41.14C251.681 41.5 251.834 42.0067 251.834 42.66C251.834 43.1133 251.734 43.5067 251.534 43.84C251.334 44.1733 251.061 44.4467 250.714 44.66C250.381 44.86 249.987 45 249.534 45.08V45.14C249.987 45.2333 250.407 45.42 250.794 45.7C251.181 45.98 251.494 46.3667 251.734 46.86C251.974 47.3533 252.094 47.96 252.094 48.68C252.094 49.6267 251.827 50.44 251.294 51.12C250.774 51.7867 250.054 52.3 249.134 52.66C248.227 53.02 247.187 53.2 246.014 53.2ZM254.91 53C254.71 52.3733 254.53 51.7 254.37 50.98C254.21 50.26 254.083 49.4333 253.99 48.5C253.896 47.5533 253.85 46.4467 253.85 45.18C253.85 43.5933 254.083 42.3133 254.55 41.34C255.016 40.3667 255.65 39.6533 256.45 39.2C257.263 38.7467 258.176 38.52 259.19 38.52C260.216 38.52 261.13 38.7467 261.93 39.2C262.743 39.6533 263.383 40.3667 263.85 41.34C264.316 42.3133 264.55 43.5933 264.55 45.18C264.55 46.4333 264.503 47.5333 264.41 48.48C264.316 49.4133 264.19 50.2467 264.03 50.98C263.883 51.7 263.703 52.3733 263.49 53H260.41C260.596 52.3733 260.756 51.68 260.89 50.92C261.036 50.16 261.15 49.3067 261.23 48.36C261.323 47.4 261.37 46.32 261.37 45.12C261.37 44.12 261.283 43.3267 261.11 42.74C260.95 42.14 260.703 41.7067 260.37 41.44C260.05 41.1733 259.656 41.04 259.19 41.04C258.736 41.04 258.343 41.1733 258.01 41.44C257.69 41.6933 257.443 42.12 257.27 42.72C257.096 43.32 257.01 44.12 257.01 45.12C257.01 46.3333 257.05 47.42 257.13 48.38C257.223 49.3267 257.343 50.18 257.49 50.94C257.65 51.6867 257.816 52.3733 257.99 53H254.91ZM271.761 53.2C270.681 53.2 269.748 53.0067 268.961 52.62C268.174 52.2333 267.568 51.68 267.141 50.96C266.714 50.24 266.501 49.3867 266.501 48.4C266.501 47.9733 266.534 47.5467 266.601 47.12C266.668 46.6933 266.834 46.1533 267.101 45.5L265.481 45.96H271.281L270.141 45.58C269.928 46.14 269.794 46.6467 269.741 47.1C269.688 47.5533 269.661 47.9267 269.661 48.22C269.661 48.9267 269.834 49.5133 270.181 49.98C270.528 50.4467 271.054 50.68 271.761 50.68C272.268 50.68 272.674 50.5733 272.981 50.36C273.288 50.1333 273.508 49.8267 273.641 49.44C273.788 49.0533 273.861 48.6133 273.861 48.12C273.861 47.5467 273.781 47.0267 273.621 46.56C273.461 46.0933 273.254 45.66 273.001 45.26C272.761 44.8467 272.494 44.46 272.201 44.1C271.788 43.5533 271.401 43.0267 271.041 42.52C270.694 42 270.434 41.44 270.261 40.84C270.088 40.2267 270.054 39.52 270.161 38.72H273.261C273.208 39.2267 273.254 39.7 273.401 40.14C273.548 40.58 273.761 41.0067 274.041 41.42C274.334 41.82 274.641 42.24 274.961 42.68C275.294 43.12 275.621 43.6 275.941 44.12C276.261 44.6267 276.521 45.2 276.721 45.84C276.934 46.48 277.041 47.2133 277.041 48.04C277.041 49.08 276.828 49.9867 276.401 50.76C275.988 51.5333 275.388 52.1333 274.601 52.56C273.814 52.9867 272.868 53.2 271.761 53.2Z" fill="white"/>
<path d="M28.688 84.16C27.9413 84.16 27.28 83.9947 26.704 83.664C26.128 83.3333 25.68 82.8427 25.36 82.192C25.04 81.5307 24.88 80.7093 24.88 79.728C24.88 78.3307 25.2 77.264 25.84 76.528C26.4907 75.792 27.3493 75.424 28.416 75.424C28.864 75.424 29.2533 75.4827 29.584 75.6C29.9147 75.7067 30.2027 75.856 30.448 76.048C30.6933 76.24 30.9013 76.4533 31.072 76.688H31.168C31.1573 76.5707 31.136 76.4053 31.104 76.192C31.0827 75.968 31.072 75.7707 31.072 75.6V74.864C31.072 74.4693 30.9973 74.1173 30.848 73.808C30.6987 73.4987 30.4587 73.2533 30.128 73.072C29.808 72.8907 29.3867 72.8 28.864 72.8C28.4587 72.8 28.1013 72.864 27.792 72.992C27.4827 73.1093 27.2373 73.28 27.056 73.504C26.8853 73.7173 26.8 73.968 26.8 74.256C26.8 74.32 26.8 74.384 26.8 74.448C26.8107 74.512 26.8213 74.576 26.832 74.64H25.472C25.44 74.5333 25.4187 74.432 25.408 74.336C25.3973 74.24 25.392 74.1493 25.392 74.064C25.392 73.5947 25.5467 73.184 25.856 72.832C26.1653 72.4693 26.5813 72.1867 27.104 71.984C27.6373 71.7813 28.224 71.68 28.864 71.68C29.6213 71.68 30.2667 71.8187 30.8 72.096C31.344 72.3733 31.76 72.7627 32.048 73.264C32.336 73.7547 32.48 74.3307 32.48 74.992V79.728C32.48 81.2 32.1547 82.3093 31.504 83.056C30.8533 83.792 29.9147 84.16 28.688 84.16ZM28.688 82.992C29.5627 82.992 30.1813 82.72 30.544 82.176C30.9067 81.632 31.088 80.9067 31.088 80V79.744C31.088 78.7627 30.912 77.9947 30.56 77.44C30.208 76.8747 29.5573 76.592 28.608 76.592C27.8507 76.592 27.28 76.8853 26.896 77.472C26.5227 78.0587 26.336 78.8213 26.336 79.76C26.336 80.784 26.528 81.5787 26.912 82.144C27.296 82.7093 27.888 82.992 28.688 82.992ZM35.5435 84C35.3302 83.4987 35.1488 83.0187 34.9995 82.56C34.8502 82.1013 34.7382 81.632 34.6635 81.152C34.5995 80.6613 34.5675 80.1387 34.5675 79.584C34.5675 78.72 34.6902 77.968 34.9355 77.328C35.1808 76.6773 35.5435 76.1707 36.0235 75.808C36.5035 75.4453 37.1008 75.264 37.8155 75.264C38.4128 75.264 38.8928 75.4027 39.2555 75.68C39.6288 75.9467 39.9008 76.3147 40.0715 76.784H40.1515C40.3328 76.3147 40.6155 75.9467 40.9995 75.68C41.3835 75.4027 41.8582 75.264 42.4235 75.264C43.1382 75.264 43.7355 75.4453 44.2155 75.808C44.6955 76.1707 45.0582 76.6773 45.3035 77.328C45.5488 77.968 45.6715 78.72 45.6715 79.584C45.6715 80.1387 45.6342 80.6613 45.5595 81.152C45.4955 81.632 45.3888 82.1013 45.2395 82.56C45.1008 83.0187 44.9195 83.4987 44.6955 84H43.2555C43.5968 83.2427 43.8422 82.528 43.9915 81.856C44.1515 81.1733 44.2315 80.4107 44.2315 79.568C44.2315 78.8747 44.1568 78.2987 44.0075 77.84C43.8582 77.3707 43.6395 77.0187 43.3515 76.784C43.0742 76.5493 42.7275 76.432 42.3115 76.432C41.8315 76.432 41.4582 76.6133 41.1915 76.976C40.9248 77.3387 40.7915 77.8507 40.7915 78.512V81.088H39.4475V78.512C39.4475 77.9147 39.3248 77.4187 39.0795 77.024C38.8342 76.6293 38.4448 76.432 37.9115 76.432C37.3035 76.432 36.8342 76.6987 36.5035 77.232C36.1728 77.7547 36.0075 78.5333 36.0075 79.568C36.0075 80.1333 36.0395 80.656 36.1035 81.136C36.1782 81.616 36.2848 82.0907 36.4235 82.56C36.5728 83.0187 36.7595 83.4987 36.9835 84H35.5435ZM50.9629 88C50.2375 88 49.5922 87.8453 49.0269 87.536C48.4722 87.2373 48.0402 86.8267 47.7309 86.304C47.4215 85.7813 47.2669 85.1893 47.2669 84.528C47.2669 84.2187 47.2935 83.9307 47.3469 83.664C47.4109 83.3867 47.4802 83.1573 47.5549 82.976H48.8989C48.8455 83.1467 48.7922 83.3707 48.7389 83.648C48.6962 83.9147 48.6749 84.1653 48.6749 84.4C48.6749 84.816 48.7549 85.2053 48.9149 85.568C49.0855 85.9413 49.3415 86.2453 49.6829 86.48C50.0242 86.7147 50.4509 86.832 50.9629 86.832C51.5069 86.832 51.9549 86.7093 52.3069 86.464C52.6589 86.2293 52.9202 85.9093 53.0909 85.504C53.2615 85.0987 53.3469 84.6507 53.3469 84.16C53.3469 83.6267 53.2509 83.152 53.0589 82.736C52.8669 82.3093 52.5842 81.9733 52.2109 81.728C51.8375 81.472 51.3789 81.344 50.8349 81.344H50.2109V80.176H50.9469C51.4589 80.176 51.8695 80.0853 52.1789 79.904C52.4882 79.712 52.7122 79.472 52.8509 79.184C53.0002 78.896 53.0749 78.6027 53.0749 78.304C53.0749 77.9627 53.0002 77.6533 52.8509 77.376C52.7015 77.088 52.4882 76.8587 52.2109 76.688C51.9335 76.5173 51.6029 76.432 51.2189 76.432V75.264C51.8375 75.264 52.3922 75.3973 52.8829 75.664C53.3735 75.92 53.7629 76.2667 54.0509 76.704C54.3389 77.1307 54.4829 77.6 54.4829 78.112C54.4829 78.7733 54.2749 79.3387 53.8589 79.808C53.4535 80.2667 52.9149 80.5707 52.2429 80.72V80.784C52.6909 80.848 53.1069 81.0187 53.4909 81.296C53.8855 81.5627 54.2002 81.9413 54.4349 82.432C54.6802 82.912 54.8029 83.5093 54.8029 84.224C54.8029 84.9813 54.6429 85.6427 54.3229 86.208C54.0029 86.784 53.5549 87.2267 52.9789 87.536C52.4135 87.8453 51.7415 88 50.9629 88ZM66.7774 88C66.532 87.5947 66.2334 87.2373 65.8814 86.928C65.54 86.6293 65.1614 86.3787 64.7454 86.176C64.34 85.9733 63.908 85.8187 63.4494 85.712C62.9907 85.6053 62.5214 85.552 62.0414 85.552C61.5187 85.552 61.0067 85.6213 60.5054 85.76C60.004 85.9093 59.5187 86.1173 59.0494 86.384L58.4894 85.36C58.7134 85.2533 58.9427 85.152 59.1774 85.056C59.4227 84.9707 59.6734 84.896 59.9294 84.832C60.1854 84.7787 60.436 84.7467 60.6814 84.736V84.688C60.1054 84.5067 59.5614 84.2667 59.0494 83.968C58.548 83.6693 58.1054 83.3013 57.7214 82.864C57.3374 82.4267 57.0334 81.9147 56.8094 81.328C56.596 80.7413 56.4894 80.064 56.4894 79.296C56.4894 78.4853 56.6067 77.7813 56.8414 77.184C57.0867 76.576 57.444 76.1067 57.9134 75.776C58.3934 75.4347 58.9747 75.264 59.6574 75.264C60.2547 75.264 60.7347 75.4027 61.0974 75.68C61.4707 75.9467 61.7427 76.3147 61.9134 76.784H61.9934C62.1747 76.3147 62.4574 75.9467 62.8414 75.68C63.236 75.4027 63.7267 75.264 64.3134 75.264C64.9427 75.264 65.444 75.4027 65.8174 75.68C66.1907 75.9467 66.4627 76.3147 66.6334 76.784H66.7134C66.8947 76.3147 67.1774 75.9467 67.5614 75.68C67.9454 75.4027 68.42 75.264 68.9854 75.264C69.6787 75.264 70.26 75.4453 70.7294 75.808C71.1987 76.1707 71.5507 76.6773 71.7854 77.328C72.0307 77.968 72.1534 78.72 72.1534 79.584C72.1534 80.2667 72.0787 80.9013 71.9294 81.488C71.7907 82.0747 71.572 82.6507 71.2734 83.216L70.0574 82.768C70.3027 82.2453 70.4734 81.7387 70.5694 81.248C70.6654 80.7467 70.7134 80.1867 70.7134 79.568C70.7134 78.5333 70.548 77.7547 70.2174 77.232C69.8974 76.6987 69.4494 76.432 68.8734 76.432C68.3934 76.432 68.02 76.6133 67.7534 76.976C67.4867 77.3387 67.3534 77.8507 67.3534 78.512V81.088H66.0094V78.512C66.0094 77.9147 65.876 77.4187 65.6094 77.024C65.3534 76.6293 64.9214 76.432 64.3134 76.432C63.7587 76.432 63.3374 76.6133 63.0494 76.976C62.772 77.3387 62.6334 77.8507 62.6334 78.512V81.088H61.2894V78.512C61.2894 77.9147 61.1667 77.4187 60.9214 77.024C60.676 76.6293 60.2867 76.432 59.7534 76.432C59.188 76.432 58.74 76.6667 58.4094 77.136C58.0894 77.6053 57.9294 78.3253 57.9294 79.296C57.9294 80.0427 58.0467 80.6933 58.2814 81.248C58.5267 81.792 58.8574 82.256 59.2734 82.64C59.6894 83.024 60.1587 83.3387 60.6814 83.584C61.2147 83.8187 61.7694 84 62.3454 84.128C63.0707 84.2773 63.7907 84.48 64.5054 84.736C65.2307 85.0027 65.8867 85.3493 66.4734 85.776C67.0707 86.2133 67.5294 86.7627 67.8494 87.424L66.7774 88ZM77.371 88C76.827 88 76.3257 87.9093 75.867 87.728C75.419 87.5573 75.0297 87.3013 74.699 86.96C74.3683 86.6293 74.1123 86.2293 73.931 85.76C73.7603 85.3013 73.675 84.784 73.675 84.208C73.675 83.8987 73.7017 83.6107 73.755 83.344C73.819 83.0667 73.8883 82.8373 73.963 82.656H75.307C75.2537 82.8267 75.2003 83.0507 75.147 83.328C75.1043 83.5947 75.083 83.8453 75.083 84.08C75.083 84.6027 75.163 85.072 75.323 85.488C75.4937 85.904 75.7497 86.2293 76.091 86.464C76.4323 86.7093 76.859 86.832 77.371 86.832C77.9257 86.832 78.3683 86.7093 78.699 86.464C79.0403 86.2187 79.2857 85.872 79.435 85.424C79.595 84.976 79.675 84.448 79.675 83.84V78.976C79.675 78.1653 79.5097 77.5413 79.179 77.104C78.8483 76.656 78.3363 76.432 77.643 76.432C77.227 76.432 76.859 76.512 76.539 76.672C76.2297 76.832 75.9843 77.0667 75.803 77.376C75.6323 77.6747 75.547 78.0533 75.547 78.512C75.547 78.7467 75.5577 78.9707 75.579 79.184C75.611 79.3867 75.6483 79.5627 75.691 79.712H74.347C74.3043 79.584 74.2563 79.4133 74.203 79.2C74.1603 78.976 74.139 78.7467 74.139 78.512C74.139 77.7973 74.2937 77.2 74.603 76.72C74.923 76.24 75.3443 75.8773 75.867 75.632C76.4003 75.3867 76.9923 75.264 77.643 75.264C78.3363 75.264 78.939 75.408 79.451 75.696C79.9737 75.984 80.3737 76.4 80.651 76.944C80.939 77.4773 81.083 78.1333 81.083 78.912V83.904C81.083 84.768 80.9337 85.504 80.635 86.112C80.347 86.7307 79.9257 87.2 79.371 87.52C78.827 87.84 78.1603 88 77.371 88ZM90.7895 84.16C90.1282 84.16 89.5255 84.0373 88.9815 83.792C88.4482 83.5467 88.0215 83.184 87.7015 82.704C87.3922 82.224 87.2375 81.6267 87.2375 80.912C87.2375 80.6773 87.2588 80.4533 87.3015 80.24C87.3548 80.016 87.4028 79.84 87.4455 79.712H88.7895C88.7468 79.8507 88.7095 80.0267 88.6775 80.24C88.6562 80.4427 88.6455 80.6667 88.6455 80.912C88.6455 81.36 88.7308 81.7387 88.9015 82.048C89.0828 82.3573 89.3335 82.592 89.6535 82.752C89.9842 82.912 90.3628 82.992 90.7895 82.992C91.2268 82.992 91.6002 82.912 91.9095 82.752C92.2188 82.592 92.4588 82.352 92.6295 82.032C92.8002 81.712 92.8855 81.312 92.8855 80.832C92.8855 80.2773 92.7682 79.8293 92.5335 79.488C92.2988 79.136 92.0268 78.8107 91.7175 78.512C91.4615 78.256 91.2055 77.9893 90.9495 77.712C90.7042 77.424 90.4962 77.0987 90.3255 76.736C90.1548 76.3627 90.0695 75.9253 90.0695 75.424H91.4775C91.4775 75.8827 91.6002 76.288 91.8455 76.64C92.1015 76.9813 92.3948 77.3173 92.7255 77.648C92.9922 77.904 93.2482 78.1813 93.4935 78.48C93.7388 78.7787 93.9415 79.12 94.1015 79.504C94.2615 79.8773 94.3415 80.32 94.3415 80.832C94.3415 81.4933 94.1868 82.0747 93.8775 82.576C93.5682 83.0773 93.1468 83.4667 92.6135 83.744C92.0802 84.0213 91.4722 84.16 90.7895 84.16ZM103.507 88C103.272 87.552 102.973 87.1627 102.611 86.832C102.259 86.5013 101.875 86.2453 101.459 86.064C101.053 85.8933 100.643 85.808 100.227 85.808C99.7788 85.808 99.3734 85.856 99.0108 85.952C98.6481 86.048 98.2481 86.1973 97.8108 86.4L97.3307 85.408C97.5761 85.2907 97.8588 85.184 98.1788 85.088C98.5094 84.992 98.9254 84.9333 99.4268 84.912V84.864C98.3174 84.3413 97.4854 83.648 96.9308 82.784C96.3761 81.9093 96.0988 80.8533 96.0988 79.616C96.0988 78.7413 96.2214 77.9787 96.4668 77.328C96.7121 76.6773 97.0748 76.1707 97.5548 75.808C98.0348 75.4453 98.6321 75.264 99.3468 75.264C99.9441 75.264 100.424 75.4027 100.787 75.68C101.16 75.9467 101.432 76.3147 101.603 76.784H101.683C101.864 76.3147 102.147 75.9467 102.531 75.68C102.915 75.4027 103.389 75.264 103.955 75.264C104.669 75.264 105.267 75.4453 105.747 75.808C106.227 76.1707 106.589 76.6773 106.835 77.328C107.08 77.968 107.203 78.72 107.203 79.584C107.203 80.2667 107.128 80.9013 106.979 81.488C106.84 82.0747 106.621 82.6507 106.323 83.216L105.107 82.768C105.352 82.2453 105.523 81.7387 105.619 81.248C105.715 80.7467 105.763 80.1867 105.763 79.568C105.763 78.8747 105.688 78.2987 105.539 77.84C105.389 77.3707 105.171 77.0187 104.883 76.784C104.605 76.5493 104.259 76.432 103.843 76.432C103.363 76.432 102.989 76.6133 102.723 76.976C102.456 77.3387 102.323 77.8507 102.323 78.512V81.088H100.979V78.512C100.979 77.9147 100.856 77.4187 100.611 77.024C100.365 76.6293 99.9761 76.432 99.4427 76.432C98.8348 76.432 98.3654 76.6987 98.0348 77.232C97.7041 77.7547 97.5388 78.5387 97.5388 79.584C97.5388 80.2987 97.6241 80.9227 97.7948 81.456C97.9654 81.9787 98.2001 82.432 98.4988 82.816C98.8081 83.1893 99.1654 83.5093 99.5708 83.776C99.9761 84.0427 100.408 84.2773 100.867 84.48C101.485 84.7467 102.024 85.0027 102.483 85.248C102.941 85.504 103.336 85.7973 103.667 86.128C104.008 86.4693 104.312 86.9013 104.579 87.424L103.507 88ZM113.07 84.16C112.259 84.16 111.571 84 111.006 83.68C110.441 83.3493 110.009 82.8693 109.71 82.24C109.422 81.6 109.278 80.816 109.278 79.888V74.352C109.278 73.744 109.395 73.2427 109.63 72.848C109.865 72.4533 110.174 72.16 110.558 71.968C110.953 71.776 111.379 71.68 111.838 71.68C112.211 71.68 112.585 71.7547 112.958 71.904C113.331 72.0533 113.619 72.368 113.822 72.848H113.87C114.073 72.368 114.334 72.0533 114.654 71.904C114.974 71.7547 115.299 71.68 115.63 71.68C115.939 71.68 116.217 71.712 116.462 71.776C116.707 71.84 116.931 71.9147 117.134 72L116.782 73.072C116.611 73.0187 116.43 72.9653 116.238 72.912C116.046 72.8587 115.849 72.832 115.646 72.832C115.358 72.832 115.097 72.928 114.862 73.12C114.638 73.3013 114.526 73.5733 114.526 73.936V74.704H113.166V73.936C113.166 73.5947 113.054 73.3227 112.83 73.12C112.606 72.9067 112.313 72.8 111.95 72.8C111.694 72.8 111.47 72.864 111.278 72.992C111.086 73.1093 110.937 73.2853 110.83 73.52C110.734 73.7547 110.686 74.0427 110.686 74.384V75.92C110.686 76.0907 110.675 76.288 110.654 76.512C110.633 76.7253 110.611 76.8907 110.59 77.008H110.686C110.867 76.7733 111.075 76.56 111.31 76.368C111.555 76.176 111.843 76.0267 112.174 75.92C112.515 75.8027 112.905 75.744 113.342 75.744C114.057 75.744 114.675 75.9093 115.198 76.24C115.731 76.56 116.142 77.0293 116.43 77.648C116.729 78.2667 116.878 79.0133 116.878 79.888C116.878 80.816 116.718 81.6 116.398 82.24C116.078 82.8693 115.63 83.3493 115.054 83.68C114.489 84 113.827 84.16 113.07 84.16ZM113.07 82.992C113.603 82.992 114.041 82.8693 114.382 82.624C114.734 82.368 114.995 82.0107 115.166 81.552C115.337 81.0933 115.422 80.5493 115.422 79.92C115.422 79.344 115.337 78.832 115.166 78.384C115.006 77.9253 114.755 77.568 114.414 77.312C114.083 77.0453 113.662 76.912 113.15 76.912C112.521 76.912 112.025 77.0347 111.662 77.28C111.299 77.5253 111.043 77.872 110.894 78.32C110.745 78.768 110.67 79.296 110.67 79.904V80.16C110.67 80.9813 110.851 81.6587 111.214 82.192C111.577 82.7253 112.195 82.992 113.07 82.992ZM121.949 88C121.405 88 120.904 87.9093 120.445 87.728C119.997 87.5573 119.608 87.3013 119.277 86.96C118.946 86.6293 118.69 86.2293 118.509 85.76C118.338 85.3013 118.253 84.784 118.253 84.208C118.253 83.8987 118.28 83.6107 118.333 83.344C118.397 83.0667 118.466 82.8373 118.541 82.656H119.885C119.832 82.8267 119.778 83.0507 119.725 83.328C119.682 83.5947 119.661 83.8453 119.661 84.08C119.661 84.6027 119.741 85.072 119.901 85.488C120.072 85.904 120.328 86.2293 120.669 86.464C121.01 86.7093 121.437 86.832 121.949 86.832C122.504 86.832 122.946 86.7093 123.277 86.464C123.618 86.2187 123.864 85.872 124.013 85.424C124.173 84.976 124.253 84.448 124.253 83.84V78.976C124.253 78.1653 124.088 77.5413 123.757 77.104C123.426 76.656 122.914 76.432 122.221 76.432C121.805 76.432 121.437 76.512 121.117 76.672C120.808 76.832 120.562 77.0667 120.381 77.376C120.21 77.6747 120.125 78.0533 120.125 78.512C120.125 78.7467 120.136 78.9707 120.157 79.184C120.189 79.3867 120.226 79.5627 120.269 79.712H118.925C118.882 79.584 118.834 79.4133 118.781 79.2C118.738 78.976 118.717 78.7467 118.717 78.512C118.717 77.7973 118.872 77.2 119.181 76.72C119.501 76.24 119.922 75.8773 120.445 75.632C120.978 75.3867 121.57 75.264 122.221 75.264C122.914 75.264 123.517 75.408 124.029 75.696C124.552 75.984 124.952 76.4 125.229 76.944C125.517 77.4773 125.661 78.1333 125.661 78.912V83.904C125.661 84.768 125.512 85.504 125.213 86.112C124.925 86.7307 124.504 87.2 123.949 87.52C123.405 87.84 122.738 88 121.949 88ZM128.683 84C128.47 83.4987 128.289 83.0187 128.139 82.56C128.001 82.1013 127.899 81.632 127.835 81.152C127.771 80.6613 127.739 80.1387 127.739 79.584V78.976C127.739 77.6533 127.894 76.5387 128.203 75.632C128.513 74.7147 128.982 73.9893 129.611 73.456C130.241 72.912 131.03 72.5387 131.979 72.336C132.577 72.208 133.174 72.0907 133.771 71.984C134.369 71.8773 134.955 71.776 135.531 71.68L135.771 72.912C135.494 72.9547 135.19 73.0027 134.859 73.056C134.539 73.0987 134.219 73.1467 133.899 73.2C133.579 73.2533 133.275 73.3067 132.987 73.36C132.71 73.4027 132.465 73.4507 132.251 73.504C131.814 73.6 131.387 73.7493 130.971 73.952C130.555 74.144 130.182 74.4267 129.851 74.8C129.531 75.1733 129.27 75.6853 129.067 76.336H129.115C129.329 76.0373 129.537 75.8133 129.739 75.664C129.953 75.504 130.166 75.3973 130.379 75.344C130.603 75.2907 130.827 75.264 131.051 75.264C131.595 75.264 132.049 75.4027 132.411 75.68C132.774 75.9467 133.041 76.3147 133.211 76.784H133.291C133.473 76.3147 133.755 75.9467 134.139 75.68C134.523 75.4027 134.998 75.264 135.563 75.264C136.278 75.264 136.875 75.4453 137.355 75.808C137.835 76.1707 138.198 76.6773 138.443 77.328C138.689 77.968 138.811 78.72 138.811 79.584C138.811 80.1387 138.774 80.6613 138.699 81.152C138.635 81.632 138.529 82.1013 138.379 82.56C138.241 83.0187 138.059 83.4987 137.835 84H136.395C136.737 83.2427 136.982 82.528 137.131 81.856C137.291 81.1733 137.371 80.4107 137.371 79.568C137.371 78.8747 137.297 78.2987 137.147 77.84C136.998 77.3707 136.779 77.0187 136.491 76.784C136.214 76.5493 135.867 76.432 135.451 76.432C134.971 76.432 134.598 76.6133 134.331 76.976C134.065 77.3387 133.931 77.8507 133.931 78.512V81.088H132.587V78.512C132.587 77.9147 132.465 77.4187 132.219 77.024C131.974 76.6293 131.585 76.432 131.051 76.432C130.443 76.432 129.974 76.6987 129.643 77.232C129.313 77.7547 129.147 78.5333 129.147 79.568C129.147 80.1333 129.179 80.656 129.243 81.136C129.318 81.616 129.425 82.0907 129.563 82.56C129.713 83.0187 129.899 83.4987 130.123 84H128.683ZM144.04 84.16C143.378 84.16 142.776 84.0373 142.232 83.792C141.698 83.5467 141.272 83.184 140.952 82.704C140.642 82.224 140.488 81.6267 140.488 80.912C140.488 80.6773 140.509 80.4533 140.552 80.24C140.605 80.016 140.653 79.84 140.696 79.712H142.039C141.997 79.8507 141.96 80.0267 141.928 80.24C141.906 80.4427 141.896 80.6667 141.896 80.912C141.896 81.36 141.981 81.7387 142.152 82.048C142.333 82.3573 142.584 82.592 142.904 82.752C143.234 82.912 143.613 82.992 144.04 82.992C144.477 82.992 144.85 82.912 145.16 82.752C145.469 82.592 145.709 82.352 145.88 82.032C146.05 81.712 146.136 81.312 146.136 80.832C146.136 80.2773 146.018 79.8293 145.784 79.488C145.549 79.136 145.277 78.8107 144.968 78.512C144.712 78.256 144.456 77.9893 144.2 77.712C143.954 77.424 143.746 77.0987 143.576 76.736C143.405 76.3627 143.32 75.9253 143.32 75.424H144.728C144.728 75.8827 144.85 76.288 145.096 76.64C145.352 76.9813 145.645 77.3173 145.976 77.648C146.242 77.904 146.498 78.1813 146.744 78.48C146.989 78.7787 147.192 79.12 147.352 79.504C147.512 79.8773 147.592 80.32 147.592 80.832C147.592 81.4933 147.437 82.0747 147.128 82.576C146.818 83.0773 146.397 83.4667 145.864 83.744C145.33 84.0213 144.722 84.16 144.04 84.16Z" fill="white"/>
<g style="mix-blend-mode:soft-light">
<g style="mix-blend-mode:lighten">
<ellipse cx="316.156" cy="132.535" rx="19.0817" ry="19.5142" fill="url(#paint1_linear_2_247)"/>
</g>
<g style="mix-blend-mode:lighten">
<path d="M362.709 209.656C362.709 203.405 361.505 197.214 359.165 191.438C356.826 185.662 353.397 180.414 349.074 175.993C344.751 171.572 339.619 168.065 333.971 165.673C328.323 163.28 322.27 162.049 316.156 162.049C310.043 162.049 303.989 163.28 298.341 165.673C292.693 168.065 287.561 171.572 283.238 175.993C278.916 180.414 275.487 185.662 273.147 191.438C270.808 197.214 269.604 203.405 269.604 209.657L362.709 209.656Z" fill="url(#paint2_linear_2_247)"/>
</g>
</g>
<g style="mix-blend-mode:lighten">
<ellipse cx="259.244" cy="130.378" rx="33.6158" ry="34.3777" fill="url(#paint3_linear_2_247)"/>
</g>
<g style="mix-blend-mode:lighten">
<path d="M341.255 260.176C341.255 249.163 339.134 238.257 335.013 228.081C330.891 217.906 324.85 208.66 317.235 200.872C309.619 193.084 300.579 186.906 290.629 182.691C280.679 178.476 270.014 176.307 259.244 176.307C248.475 176.307 237.81 178.476 227.86 182.691C217.91 186.906 208.869 193.084 201.254 200.872C193.639 208.66 187.598 217.906 183.476 228.081C179.355 238.257 177.234 249.163 177.234 260.177L341.255 260.176Z" fill="url(#paint4_linear_2_247)"/>
</g>
</g>
<defs>
<linearGradient id="paint0_linear_2_247" x1="254.058" y1="-43.1845" x2="77.1521" y2="329.486" gradientUnits="userSpaceOnUse">
<stop stop-color="#F57979"/>
<stop offset="1" stop-color="#A02110"/>
</linearGradient>
<linearGradient id="paint1_linear_2_247" x1="316.156" y1="113.02" x2="316.156" y2="152.049" gradientUnits="userSpaceOnUse">
<stop stop-color="white"/>
<stop offset="1" stop-color="white" stop-opacity="0"/>
</linearGradient>
<linearGradient id="paint2_linear_2_247" x1="316.156" y1="162.049" x2="316.156" y2="209.657" gradientUnits="userSpaceOnUse">
<stop stop-color="white"/>
<stop offset="1" stop-color="white" stop-opacity="0"/>
</linearGradient>
<linearGradient id="paint3_linear_2_247" x1="176.588" y1="79.2153" x2="304.84" y2="177.486" gradientUnits="userSpaceOnUse">
<stop stop-color="white"/>
<stop offset="1" stop-color="white" stop-opacity="0"/>
</linearGradient>
<linearGradient id="paint4_linear_2_247" x1="138.858" y1="149.839" x2="360.603" y2="283.484" gradientUnits="userSpaceOnUse">
<stop stop-color="white"/>
<stop offset="1" stop-color="white" stop-opacity="0"/>
</linearGradient>
<clipPath id="clip0_2_247">
<rect width="344" height="259" rx="16" fill="white"/>
</clipPath>
</defs>
</svg>
