<svg width="344" height="259" viewBox="0 0 344 259" fill="none" xmlns="http://www.w3.org/2000/svg">
<g clip-path="url(#clip0_399_27)">
<rect width="344" height="259" rx="18" fill="url(#paint0_linear_399_27)"/>
<path d="M30.2 53.2C29.0933 53.2 28.14 53.0133 27.34 52.64C26.54 52.2667 25.9267 51.7667 25.5 51.14C25.0867 50.5 24.88 49.8067 24.88 49.06C24.88 48.7667 24.9 48.5133 24.94 48.3C24.98 48.0733 25.04 47.84 25.12 47.6H28.14C28.0867 47.8133 28.0467 48.0067 28.02 48.18C28.0067 48.3533 28 48.5333 28 48.72C28 49.32 28.18 49.82 28.54 50.22C28.9133 50.6067 29.4667 50.8 30.2 50.8C30.7067 50.8 31.1133 50.7 31.42 50.5C31.74 50.2867 31.9733 50.0133 32.12 49.68C32.28 49.3333 32.36 48.96 32.36 48.56C32.36 48.2 32.3 47.8867 32.18 47.62C32.0733 47.34 31.9067 47.1133 31.68 46.94C31.4667 46.7667 31.2067 46.64 30.9 46.56C30.6067 46.4667 30.28 46.42 29.92 46.42H29.08V44.06H30.16C30.5733 44.06 30.9067 44.02 31.16 43.94C31.4133 43.8467 31.5933 43.7267 31.7 43.58C31.82 43.42 31.88 43.2467 31.88 43.06C31.88 42.82 31.82 42.6267 31.7 42.48C31.58 42.32 31.42 42.1867 31.22 42.08C31.02 41.9733 30.8 41.8733 30.56 41.78C30.1867 41.6333 29.8267 41.4333 29.48 41.18C29.1333 40.9267 28.86 40.6 28.66 40.2C28.4733 39.7867 28.4067 39.2933 28.46 38.72H31.64C31.6667 39.04 31.82 39.3067 32.1 39.52C32.38 39.7333 32.7067 39.9267 33.08 40.1C33.4133 40.2467 33.7333 40.44 34.04 40.68C34.36 40.92 34.62 41.22 34.82 41.58C35.02 41.94 35.12 42.3867 35.12 42.92C35.12 43.32 35.0267 43.68 34.84 44C34.6533 44.3067 34.3933 44.5667 34.06 44.78C33.74 44.98 33.3733 45.1333 32.96 45.24V45.3C33.2667 45.38 33.5733 45.5133 33.88 45.7C34.1867 45.8867 34.46 46.1267 34.7 46.42C34.9533 46.7133 35.1533 47.06 35.3 47.46C35.4467 47.8467 35.52 48.2933 35.52 48.8C35.52 49.64 35.3067 50.3933 34.88 51.06C34.4533 51.7267 33.84 52.2533 33.04 52.64C32.2533 53.0133 31.3067 53.2 30.2 53.2ZM38.4642 53C38.2642 52.3733 38.0842 51.7 37.9242 50.98C37.7642 50.26 37.6376 49.4333 37.5442 48.5C37.4509 47.5533 37.4042 46.4467 37.4042 45.18C37.4042 43.5933 37.6376 42.3133 38.1042 41.34C38.5709 40.3667 39.2042 39.6533 40.0042 39.2C40.8176 38.7467 41.7309 38.52 42.7442 38.52C43.7709 38.52 44.6842 38.7467 45.4842 39.2C46.2976 39.6533 46.9376 40.3667 47.4042 41.34C47.8709 42.3133 48.1042 43.5933 48.1042 45.18C48.1042 46.4333 48.0576 47.5333 47.9642 48.48C47.8709 49.4133 47.7442 50.2467 47.5842 50.98C47.4376 51.7 47.2576 52.3733 47.0442 53H43.9642C44.1509 52.3733 44.3109 51.68 44.4442 50.92C44.5909 50.16 44.7042 49.3067 44.7842 48.36C44.8776 47.4 44.9242 46.32 44.9242 45.12C44.9242 44.12 44.8376 43.3267 44.6642 42.74C44.5042 42.14 44.2576 41.7067 43.9242 41.44C43.6042 41.1733 43.2109 41.04 42.7442 41.04C42.2909 41.04 41.8976 41.1733 41.5642 41.44C41.2442 41.6933 40.9976 42.12 40.8242 42.72C40.6509 43.32 40.5642 44.12 40.5642 45.12C40.5642 46.3333 40.6042 47.42 40.6842 48.38C40.7776 49.3267 40.8976 50.18 41.0442 50.94C41.2042 51.6867 41.3709 52.3733 41.5442 53H38.4642ZM51.2358 53C50.9824 52.3067 50.7758 51.66 50.6158 51.06C50.4691 50.4467 50.3558 49.8333 50.2758 49.22C50.2091 48.5933 50.1758 47.92 50.1758 47.2C50.1758 46.04 50.2824 45 50.4958 44.08C50.7091 43.16 51.0558 42.3667 51.5358 41.7C52.0291 41.02 52.6891 40.4667 53.5158 40.04C54.3424 39.6 55.3758 39.2867 56.6158 39.1C57.0424 39.0333 57.4958 38.9667 57.9758 38.9C58.4691 38.8333 58.9958 38.7667 59.5558 38.7C60.1291 38.6333 60.7424 38.5667 61.3958 38.5L61.7358 41.04C61.3091 41.0933 60.8691 41.1467 60.4158 41.2C59.9624 41.24 59.5158 41.2867 59.0758 41.34C58.6358 41.3933 58.2224 41.4467 57.8358 41.5C57.4491 41.54 57.1091 41.58 56.8158 41.62C56.2958 41.6867 55.7558 41.7933 55.1958 41.94C54.6491 42.0733 54.1491 42.2733 53.6958 42.54C53.2558 42.8067 52.9224 43.1667 52.6958 43.62H52.7758C52.9758 43.4067 53.1958 43.24 53.4358 43.12C53.6758 43 53.9291 42.9133 54.1958 42.86C54.4758 42.8067 54.7491 42.78 55.0158 42.78C55.7358 42.78 56.3558 42.9733 56.8758 43.36C57.4091 43.7333 57.7958 44.26 58.0358 44.94H58.1158C58.3691 44.2333 58.7824 43.7 59.3558 43.34C59.9291 42.9667 60.6624 42.78 61.5558 42.78C62.5024 42.78 63.3024 43.0067 63.9558 43.46C64.6224 43.9 65.1224 44.5 65.4558 45.26C65.8024 46.02 65.9758 46.88 65.9758 47.84C65.9758 48.4533 65.9358 49.0467 65.8558 49.62C65.7758 50.18 65.6491 50.74 65.4758 51.3C65.3158 51.8467 65.1158 52.4133 64.8758 53H61.7758C62.1091 52.1867 62.3691 51.3733 62.5558 50.56C62.7424 49.7333 62.8358 48.8467 62.8358 47.9C62.8358 47.42 62.7824 46.9667 62.6758 46.54C62.5691 46.1133 62.3891 45.7733 62.1358 45.52C61.8824 45.2533 61.5358 45.12 61.0958 45.12C60.7358 45.12 60.4424 45.2267 60.2158 45.44C59.9891 45.64 59.8224 45.92 59.7158 46.28C59.6091 46.64 59.5558 47.04 59.5558 47.48V49.92H56.5758V47.48C56.5758 46.96 56.5158 46.5267 56.3958 46.18C56.2891 45.8333 56.1158 45.5733 55.8758 45.4C55.6491 45.2133 55.3624 45.12 55.0158 45.12C54.4424 45.12 54.0091 45.3467 53.7158 45.8C53.4358 46.2533 53.2958 46.9733 53.2958 47.96C53.2958 48.8533 53.3891 49.7133 53.5758 50.54C53.7624 51.3533 54.0224 52.1733 54.3558 53H51.2358ZM69.3134 53C69.1001 52.44 68.9001 51.8667 68.7134 51.28C68.5401 50.6933 68.3868 50.08 68.2534 49.44C68.1201 48.7867 68.0201 48.1 67.9534 47.38C67.8868 46.6467 67.8534 45.86 67.8534 45.02C67.8534 43.46 68.0734 42.2067 68.5134 41.26C68.9534 40.3 69.5334 39.6067 70.2534 39.18C70.9868 38.74 71.7868 38.52 72.6534 38.52C73.0534 38.52 73.4734 38.58 73.9134 38.7C74.3534 38.82 74.7601 39.0333 75.1334 39.34C75.5068 39.6467 75.8001 40.08 76.0134 40.64H76.0734C76.3001 40.0933 76.6001 39.6667 76.9734 39.36C77.3468 39.0533 77.7534 38.84 78.1934 38.72C78.6334 38.5867 79.0734 38.52 79.5134 38.52C80.3534 38.52 81.1268 38.74 81.8334 39.18C82.5534 39.62 83.1268 40.32 83.5534 41.28C83.9934 42.2267 84.2134 43.4733 84.2134 45.02C84.2134 46.2067 84.1468 47.26 84.0134 48.18C83.8934 49.1 83.7201 49.9467 83.4934 50.72C83.2801 51.48 83.0334 52.24 82.7534 53H79.6334C79.9001 52.24 80.1334 51.4533 80.3334 50.64C80.5468 49.8133 80.7134 48.94 80.8334 48.02C80.9534 47.0867 81.0134 46.0733 81.0134 44.98C81.0134 44.0067 80.9401 43.2333 80.7934 42.66C80.6468 42.0867 80.4401 41.6733 80.1734 41.42C79.9068 41.1667 79.5868 41.04 79.2134 41.04C78.8001 41.04 78.4801 41.1667 78.2534 41.42C78.0268 41.66 77.8668 41.9933 77.7734 42.42C77.6801 42.8333 77.6334 43.2933 77.6334 43.8V48.82H74.4534V43.8C74.4534 43.2133 74.3934 42.7133 74.2734 42.3C74.1668 41.8867 73.9934 41.5733 73.7534 41.36C73.5268 41.1467 73.2201 41.04 72.8334 41.04C72.4734 41.04 72.1534 41.1667 71.8734 41.42C71.6068 41.6733 71.4001 42.0867 71.2534 42.66C71.1068 43.2333 71.0334 44.0067 71.0334 44.98C71.0334 46.0733 71.0934 47.0867 71.2134 48.02C71.3334 48.94 71.5001 49.8067 71.7134 50.62C71.9268 51.4333 72.1668 52.2267 72.4334 53H69.3134ZM91.5891 53.2C90.4424 53.2 89.4624 53.0133 88.6491 52.64C87.8491 52.2667 87.2357 51.7667 86.8091 51.14C86.3824 50.5 86.1691 49.8067 86.1691 49.06C86.1691 48.7667 86.1891 48.5133 86.2291 48.3C86.2691 48.0733 86.3291 47.84 86.4091 47.6H89.4291C89.3757 47.8133 89.3357 48.0067 89.3091 48.18C89.2957 48.3533 89.2891 48.5333 89.2891 48.72C89.2891 49.32 89.4757 49.82 89.8491 50.22C90.2357 50.6067 90.8224 50.8 91.6091 50.8C92.1424 50.8 92.5691 50.7067 92.8891 50.52C93.2224 50.32 93.4624 50.06 93.6091 49.74C93.7691 49.42 93.8491 49.0733 93.8491 48.7C93.8491 48.22 93.7491 47.8333 93.5491 47.54C93.3491 47.2333 93.0757 47.0133 92.7291 46.88C92.3824 46.7467 91.9824 46.68 91.5291 46.68H90.7691V44.3H91.5891C92.2691 44.3 92.7557 44.1267 93.0491 43.78C93.3424 43.4333 93.4891 43.02 93.4891 42.54C93.4891 42.22 93.4157 41.94 93.2691 41.7C93.1224 41.46 92.9091 41.2733 92.6291 41.14C92.3624 41.0067 92.0424 40.94 91.6691 40.94C91.2824 40.94 90.9491 41.0067 90.6691 41.14C90.3891 41.26 90.1757 41.44 90.0291 41.68C89.8824 41.9067 89.8091 42.1867 89.8091 42.52C89.8091 42.6667 89.8157 42.8067 89.8291 42.94C89.8424 43.06 89.8624 43.2067 89.8891 43.38H86.8691C86.8024 43.1667 86.7557 42.9733 86.7291 42.8C86.7024 42.6133 86.6891 42.4133 86.6891 42.2C86.6891 41.4533 86.9024 40.8067 87.3291 40.26C87.7691 39.7 88.3624 39.2733 89.1091 38.98C89.8691 38.6733 90.7291 38.52 91.6891 38.52C92.6891 38.52 93.5557 38.6867 94.2891 39.02C95.0357 39.3533 95.6091 39.8067 96.0091 40.38C96.4224 40.94 96.6291 41.5867 96.6291 42.32C96.6291 43.16 96.4091 43.8333 95.9691 44.34C95.5291 44.8467 94.9424 45.1933 94.2091 45.38V45.44C94.6891 45.52 95.1424 45.7 95.5691 45.98C95.9957 46.26 96.3424 46.64 96.6091 47.12C96.8757 47.6 97.0091 48.18 97.0091 48.86C97.0091 49.6867 96.7891 50.4267 96.3491 51.08C95.9224 51.7333 95.3024 52.2533 94.4891 52.64C93.6891 53.0133 92.7224 53.2 91.5891 53.2ZM104.171 53.2C102.518 53.2 101.245 52.74 100.351 51.82C99.4581 50.9 99.0114 49.5933 99.0114 47.9V42.8C99.0114 42.0533 99.1247 41.42 99.3514 40.9C99.5781 40.38 99.8847 39.96 100.271 39.64C100.671 39.32 101.118 39.0867 101.611 38.94C102.118 38.7933 102.638 38.72 103.171 38.72H108.571V41.2H103.491C103.051 41.2 102.705 41.3067 102.451 41.52C102.211 41.7333 102.091 42.0733 102.091 42.54V43.02C102.091 43.2067 102.078 43.42 102.051 43.66C102.025 43.8867 101.985 44.1067 101.931 44.32H102.031C102.258 44.0267 102.518 43.78 102.811 43.58C103.105 43.3667 103.445 43.2 103.831 43.08C104.231 42.96 104.685 42.9 105.191 42.9C106.058 42.9 106.818 43.1067 107.471 43.52C108.138 43.9333 108.651 44.52 109.011 45.28C109.385 46.04 109.571 46.94 109.571 47.98C109.571 49.0733 109.351 50.0133 108.911 50.8C108.485 51.5733 107.865 52.1667 107.051 52.58C106.251 52.9933 105.291 53.2 104.171 53.2ZM104.211 50.72C104.745 50.72 105.178 50.6 105.511 50.36C105.845 50.12 106.085 49.8 106.231 49.4C106.391 48.9867 106.471 48.5333 106.471 48.04C106.471 47.5067 106.385 47.0467 106.211 46.66C106.038 46.26 105.785 45.9533 105.451 45.74C105.131 45.5267 104.738 45.42 104.271 45.42C103.698 45.42 103.238 45.54 102.891 45.78C102.558 46.02 102.311 46.3333 102.151 46.72C102.005 47.1067 101.931 47.5333 101.931 48V48.32C101.931 48.7733 102.011 49.18 102.171 49.54C102.345 49.9 102.598 50.1867 102.931 50.4C103.265 50.6133 103.691 50.72 104.211 50.72ZM116.683 53.2C115.616 53.2 114.689 53.0067 113.903 52.62C113.116 52.2333 112.509 51.7 112.083 51.02C111.656 50.34 111.443 49.5733 111.443 48.72C111.443 48.4 111.463 48.0933 111.503 47.8C111.543 47.5067 111.609 47.22 111.703 46.94H114.783C114.729 47.1667 114.683 47.42 114.643 47.7C114.616 47.9667 114.603 48.2133 114.603 48.44C114.603 48.8533 114.676 49.2333 114.823 49.58C114.983 49.9133 115.223 50.18 115.543 50.38C115.863 50.58 116.256 50.68 116.723 50.68C117.243 50.68 117.656 50.5867 117.963 50.4C118.269 50.2 118.489 49.92 118.623 49.56C118.756 49.2 118.823 48.7867 118.823 48.32V42.98C118.823 42.3533 118.649 41.8733 118.303 41.54C117.969 41.2067 117.529 41.04 116.983 41.04C116.609 41.04 116.283 41.1067 116.003 41.24C115.723 41.3733 115.503 41.5733 115.343 41.84C115.196 42.1067 115.123 42.4333 115.123 42.82C115.123 42.98 115.129 43.1667 115.143 43.38C115.169 43.58 115.203 43.7933 115.243 44.02H112.163C112.109 43.7933 112.056 43.56 112.003 43.32C111.963 43.08 111.943 42.7933 111.943 42.46C111.943 41.6067 112.163 40.8933 112.603 40.32C113.043 39.7333 113.636 39.2867 114.383 38.98C115.143 38.6733 115.989 38.52 116.923 38.52C117.923 38.52 118.789 38.7 119.523 39.06C120.256 39.4067 120.823 39.9067 121.223 40.56C121.623 41.2133 121.823 41.9933 121.823 42.9V48.36C121.823 49.36 121.616 50.2267 121.203 50.96C120.803 51.68 120.223 52.2333 119.463 52.62C118.703 53.0067 117.776 53.2 116.683 53.2ZM129.481 53.2C128.734 53.2 128.034 53.08 127.381 52.84C126.741 52.6 126.174 52.2533 125.681 51.8C125.201 51.3333 124.821 50.7667 124.541 50.1C124.274 49.4333 124.141 48.6667 124.141 47.8C124.141 46.6667 124.367 45.7067 124.821 44.92C125.274 44.1333 125.901 43.5333 126.701 43.12C127.514 42.7067 128.461 42.5 129.541 42.5C130.541 42.5 131.441 42.7067 132.241 43.12C133.041 43.5333 133.674 44.1333 134.141 44.92C134.621 45.7067 134.861 46.6667 134.861 47.8C134.861 48.6667 134.727 49.44 134.461 50.12C134.207 50.7867 133.841 51.3533 133.361 51.82C132.894 52.2733 132.327 52.62 131.661 52.86C131.007 53.0867 130.281 53.2 129.481 53.2ZM129.521 50.68C129.987 50.68 130.381 50.5667 130.701 50.34C131.021 50.1 131.261 49.7667 131.421 49.34C131.594 48.9 131.681 48.3867 131.681 47.8C131.681 47.2267 131.594 46.7333 131.421 46.32C131.261 45.9067 131.014 45.5867 130.681 45.36C130.361 45.1333 129.967 45.02 129.501 45.02C128.807 45.02 128.267 45.2733 127.881 45.78C127.507 46.2733 127.321 46.9467 127.321 47.8C127.321 48.3867 127.407 48.9 127.581 49.34C127.754 49.7667 128.001 50.1 128.321 50.34C128.654 50.5667 129.054 50.68 129.521 50.68ZM131.081 43.06L128.181 42.86C128.314 42.7667 128.407 42.64 128.461 42.48C128.514 42.32 128.541 42.1667 128.541 42.02C128.541 41.78 128.461 41.5867 128.301 41.44C128.141 41.28 127.961 41.1333 127.761 41C127.574 40.88 127.387 40.7133 127.201 40.5C127.027 40.2867 126.887 40.0333 126.781 39.74C126.674 39.4333 126.647 39.0933 126.701 38.72H129.621C129.621 38.9733 129.701 39.1867 129.861 39.36C130.021 39.52 130.227 39.6933 130.481 39.88C130.774 40.08 131.021 40.3267 131.221 40.62C131.434 40.9133 131.541 41.26 131.541 41.66C131.541 41.9133 131.501 42.1533 131.421 42.38C131.341 42.5933 131.227 42.82 131.081 43.06ZM141.995 53.2C140.915 53.2 139.982 53.0067 139.195 52.62C138.409 52.2333 137.802 51.68 137.375 50.96C136.949 50.24 136.735 49.3867 136.735 48.4C136.735 48.0267 136.755 47.66 136.795 47.3C136.849 46.9267 136.969 46.48 137.155 45.96H140.235C140.089 46.44 139.995 46.8733 139.955 47.26C139.915 47.6333 139.895 47.9533 139.895 48.22C139.895 48.9267 140.069 49.5133 140.415 49.98C140.762 50.4467 141.289 50.68 141.995 50.68C142.502 50.68 142.909 50.5733 143.215 50.36C143.522 50.1333 143.742 49.8267 143.875 49.44C144.022 49.0533 144.095 48.6133 144.095 48.12C144.095 47.5467 144.015 47.0267 143.855 46.56C143.695 46.0933 143.489 45.66 143.235 45.26C142.995 44.8467 142.729 44.46 142.435 44.1C142.022 43.5533 141.635 43.0267 141.275 42.52C140.929 42 140.669 41.44 140.495 40.84C140.322 40.2267 140.289 39.52 140.395 38.72H143.495C143.442 39.2267 143.489 39.7 143.635 40.14C143.782 40.58 143.995 41.0067 144.275 41.42C144.569 41.82 144.875 42.24 145.195 42.68C145.529 43.12 145.855 43.6 146.175 44.12C146.495 44.6267 146.755 45.2 146.955 45.84C147.169 46.48 147.275 47.2133 147.275 48.04C147.275 49.08 147.062 49.9867 146.635 50.76C146.222 51.5333 145.622 52.1333 144.835 52.56C144.049 52.9867 143.102 53.2 141.995 53.2Z" fill="white"/>
<path d="M28.688 84.16C27.9413 84.16 27.28 83.9947 26.704 83.664C26.128 83.3333 25.68 82.8427 25.36 82.192C25.04 81.5307 24.88 80.7093 24.88 79.728C24.88 78.3307 25.2 77.264 25.84 76.528C26.4907 75.792 27.3493 75.424 28.416 75.424C28.864 75.424 29.2533 75.4827 29.584 75.6C29.9147 75.7067 30.2027 75.856 30.448 76.048C30.6933 76.24 30.9013 76.4533 31.072 76.688H31.168C31.1573 76.5707 31.136 76.4053 31.104 76.192C31.0827 75.968 31.072 75.7707 31.072 75.6V74.864C31.072 74.4693 30.9973 74.1173 30.848 73.808C30.6987 73.4987 30.4587 73.2533 30.128 73.072C29.808 72.8907 29.3867 72.8 28.864 72.8C28.4587 72.8 28.1013 72.864 27.792 72.992C27.4827 73.1093 27.2373 73.28 27.056 73.504C26.8853 73.7173 26.8 73.968 26.8 74.256C26.8 74.32 26.8 74.384 26.8 74.448C26.8107 74.512 26.8213 74.576 26.832 74.64H25.472C25.44 74.5333 25.4187 74.432 25.408 74.336C25.3973 74.24 25.392 74.1493 25.392 74.064C25.392 73.5947 25.5467 73.184 25.856 72.832C26.1653 72.4693 26.5813 72.1867 27.104 71.984C27.6373 71.7813 28.224 71.68 28.864 71.68C29.6213 71.68 30.2667 71.8187 30.8 72.096C31.344 72.3733 31.76 72.7627 32.048 73.264C32.336 73.7547 32.48 74.3307 32.48 74.992V79.728C32.48 81.2 32.1547 82.3093 31.504 83.056C30.8533 83.792 29.9147 84.16 28.688 84.16ZM28.688 82.992C29.5627 82.992 30.1813 82.72 30.544 82.176C30.9067 81.632 31.088 80.9067 31.088 80V79.744C31.088 78.7627 30.912 77.9947 30.56 77.44C30.208 76.8747 29.5573 76.592 28.608 76.592C27.8507 76.592 27.28 76.8853 26.896 77.472C26.5227 78.0587 26.336 78.8213 26.336 79.76C26.336 80.784 26.528 81.5787 26.912 82.144C27.296 82.7093 27.888 82.992 28.688 82.992ZM35.5435 84C35.3302 83.4987 35.1488 83.0187 34.9995 82.56C34.8502 82.1013 34.7382 81.632 34.6635 81.152C34.5995 80.6613 34.5675 80.1387 34.5675 79.584C34.5675 78.72 34.6902 77.968 34.9355 77.328C35.1808 76.6773 35.5435 76.1707 36.0235 75.808C36.5035 75.4453 37.1008 75.264 37.8155 75.264C38.4128 75.264 38.8928 75.4027 39.2555 75.68C39.6288 75.9467 39.9008 76.3147 40.0715 76.784H40.1515C40.3328 76.3147 40.6155 75.9467 40.9995 75.68C41.3835 75.4027 41.8582 75.264 42.4235 75.264C43.1382 75.264 43.7355 75.4453 44.2155 75.808C44.6955 76.1707 45.0582 76.6773 45.3035 77.328C45.5488 77.968 45.6715 78.72 45.6715 79.584C45.6715 80.1387 45.6342 80.6613 45.5595 81.152C45.4955 81.632 45.3888 82.1013 45.2395 82.56C45.1008 83.0187 44.9195 83.4987 44.6955 84H43.2555C43.5968 83.2427 43.8422 82.528 43.9915 81.856C44.1515 81.1733 44.2315 80.4107 44.2315 79.568C44.2315 78.8747 44.1568 78.2987 44.0075 77.84C43.8582 77.3707 43.6395 77.0187 43.3515 76.784C43.0742 76.5493 42.7275 76.432 42.3115 76.432C41.8315 76.432 41.4582 76.6133 41.1915 76.976C40.9248 77.3387 40.7915 77.8507 40.7915 78.512V81.088H39.4475V78.512C39.4475 77.9147 39.3248 77.4187 39.0795 77.024C38.8342 76.6293 38.4448 76.432 37.9115 76.432C37.3035 76.432 36.8342 76.6987 36.5035 77.232C36.1728 77.7547 36.0075 78.5333 36.0075 79.568C36.0075 80.1333 36.0395 80.656 36.1035 81.136C36.1782 81.616 36.2848 82.0907 36.4235 82.56C36.5728 83.0187 36.7595 83.4987 36.9835 84H35.5435ZM50.9629 88C50.2375 88 49.5922 87.8453 49.0269 87.536C48.4722 87.2373 48.0402 86.8267 47.7309 86.304C47.4215 85.7813 47.2669 85.1893 47.2669 84.528C47.2669 84.2187 47.2935 83.9307 47.3469 83.664C47.4109 83.3867 47.4802 83.1573 47.5549 82.976H48.8989C48.8455 83.1467 48.7922 83.3707 48.7389 83.648C48.6962 83.9147 48.6749 84.1653 48.6749 84.4C48.6749 84.816 48.7549 85.2053 48.9149 85.568C49.0855 85.9413 49.3415 86.2453 49.6829 86.48C50.0242 86.7147 50.4509 86.832 50.9629 86.832C51.5069 86.832 51.9549 86.7093 52.3069 86.464C52.6589 86.2293 52.9202 85.9093 53.0909 85.504C53.2615 85.0987 53.3469 84.6507 53.3469 84.16C53.3469 83.6267 53.2509 83.152 53.0589 82.736C52.8669 82.3093 52.5842 81.9733 52.2109 81.728C51.8375 81.472 51.3789 81.344 50.8349 81.344H50.2109V80.176H50.9469C51.4589 80.176 51.8695 80.0853 52.1789 79.904C52.4882 79.712 52.7122 79.472 52.8509 79.184C53.0002 78.896 53.0749 78.6027 53.0749 78.304C53.0749 77.9627 53.0002 77.6533 52.8509 77.376C52.7015 77.088 52.4882 76.8587 52.2109 76.688C51.9335 76.5173 51.6029 76.432 51.2189 76.432V75.264C51.8375 75.264 52.3922 75.3973 52.8829 75.664C53.3735 75.92 53.7629 76.2667 54.0509 76.704C54.3389 77.1307 54.4829 77.6 54.4829 78.112C54.4829 78.7733 54.2749 79.3387 53.8589 79.808C53.4535 80.2667 52.9149 80.5707 52.2429 80.72V80.784C52.6909 80.848 53.1069 81.0187 53.4909 81.296C53.8855 81.5627 54.2002 81.9413 54.4349 82.432C54.6802 82.912 54.8029 83.5093 54.8029 84.224C54.8029 84.9813 54.6429 85.6427 54.3229 86.208C54.0029 86.784 53.5549 87.2267 52.9789 87.536C52.4135 87.8453 51.7415 88 50.9629 88ZM66.7774 88C66.532 87.5947 66.2334 87.2373 65.8814 86.928C65.54 86.6293 65.1614 86.3787 64.7454 86.176C64.34 85.9733 63.908 85.8187 63.4494 85.712C62.9907 85.6053 62.5214 85.552 62.0414 85.552C61.5187 85.552 61.0067 85.6213 60.5054 85.76C60.004 85.9093 59.5187 86.1173 59.0494 86.384L58.4894 85.36C58.7134 85.2533 58.9427 85.152 59.1774 85.056C59.4227 84.9707 59.6734 84.896 59.9294 84.832C60.1854 84.7787 60.436 84.7467 60.6814 84.736V84.688C60.1054 84.5067 59.5614 84.2667 59.0494 83.968C58.548 83.6693 58.1054 83.3013 57.7214 82.864C57.3374 82.4267 57.0334 81.9147 56.8094 81.328C56.596 80.7413 56.4894 80.064 56.4894 79.296C56.4894 78.4853 56.6067 77.7813 56.8414 77.184C57.0867 76.576 57.444 76.1067 57.9134 75.776C58.3934 75.4347 58.9747 75.264 59.6574 75.264C60.2547 75.264 60.7347 75.4027 61.0974 75.68C61.4707 75.9467 61.7427 76.3147 61.9134 76.784H61.9934C62.1747 76.3147 62.4574 75.9467 62.8414 75.68C63.236 75.4027 63.7267 75.264 64.3134 75.264C64.9427 75.264 65.444 75.4027 65.8174 75.68C66.1907 75.9467 66.4627 76.3147 66.6334 76.784H66.7134C66.8947 76.3147 67.1774 75.9467 67.5614 75.68C67.9454 75.4027 68.42 75.264 68.9854 75.264C69.6787 75.264 70.26 75.4453 70.7294 75.808C71.1987 76.1707 71.5507 76.6773 71.7854 77.328C72.0307 77.968 72.1534 78.72 72.1534 79.584C72.1534 80.2667 72.0787 80.9013 71.9294 81.488C71.7907 82.0747 71.572 82.6507 71.2734 83.216L70.0574 82.768C70.3027 82.2453 70.4734 81.7387 70.5694 81.248C70.6654 80.7467 70.7134 80.1867 70.7134 79.568C70.7134 78.5333 70.548 77.7547 70.2174 77.232C69.8974 76.6987 69.4494 76.432 68.8734 76.432C68.3934 76.432 68.02 76.6133 67.7534 76.976C67.4867 77.3387 67.3534 77.8507 67.3534 78.512V81.088H66.0094V78.512C66.0094 77.9147 65.876 77.4187 65.6094 77.024C65.3534 76.6293 64.9214 76.432 64.3134 76.432C63.7587 76.432 63.3374 76.6133 63.0494 76.976C62.772 77.3387 62.6334 77.8507 62.6334 78.512V81.088H61.2894V78.512C61.2894 77.9147 61.1667 77.4187 60.9214 77.024C60.676 76.6293 60.2867 76.432 59.7534 76.432C59.188 76.432 58.74 76.6667 58.4094 77.136C58.0894 77.6053 57.9294 78.3253 57.9294 79.296C57.9294 80.0427 58.0467 80.6933 58.2814 81.248C58.5267 81.792 58.8574 82.256 59.2734 82.64C59.6894 83.024 60.1587 83.3387 60.6814 83.584C61.2147 83.8187 61.7694 84 62.3454 84.128C63.0707 84.2773 63.7907 84.48 64.5054 84.736C65.2307 85.0027 65.8867 85.3493 66.4734 85.776C67.0707 86.2133 67.5294 86.7627 67.8494 87.424L66.7774 88ZM77.371 88C76.827 88 76.3257 87.9093 75.867 87.728C75.419 87.5573 75.0297 87.3013 74.699 86.96C74.3683 86.6293 74.1123 86.2293 73.931 85.76C73.7603 85.3013 73.675 84.784 73.675 84.208C73.675 83.8987 73.7017 83.6107 73.755 83.344C73.819 83.0667 73.8883 82.8373 73.963 82.656H75.307C75.2537 82.8267 75.2003 83.0507 75.147 83.328C75.1043 83.5947 75.083 83.8453 75.083 84.08C75.083 84.6027 75.163 85.072 75.323 85.488C75.4937 85.904 75.7497 86.2293 76.091 86.464C76.4323 86.7093 76.859 86.832 77.371 86.832C77.9257 86.832 78.3683 86.7093 78.699 86.464C79.0403 86.2187 79.2857 85.872 79.435 85.424C79.595 84.976 79.675 84.448 79.675 83.84V78.976C79.675 78.1653 79.5097 77.5413 79.179 77.104C78.8483 76.656 78.3363 76.432 77.643 76.432C77.227 76.432 76.859 76.512 76.539 76.672C76.2297 76.832 75.9843 77.0667 75.803 77.376C75.6323 77.6747 75.547 78.0533 75.547 78.512C75.547 78.7467 75.5577 78.9707 75.579 79.184C75.611 79.3867 75.6483 79.5627 75.691 79.712H74.347C74.3043 79.584 74.2563 79.4133 74.203 79.2C74.1603 78.976 74.139 78.7467 74.139 78.512C74.139 77.7973 74.2937 77.2 74.603 76.72C74.923 76.24 75.3443 75.8773 75.867 75.632C76.4003 75.3867 76.9923 75.264 77.643 75.264C78.3363 75.264 78.939 75.408 79.451 75.696C79.9737 75.984 80.3737 76.4 80.651 76.944C80.939 77.4773 81.083 78.1333 81.083 78.912V83.904C81.083 84.768 80.9337 85.504 80.635 86.112C80.347 86.7307 79.9257 87.2 79.371 87.52C78.827 87.84 78.1603 88 77.371 88ZM90.7895 84.16C90.1282 84.16 89.5255 84.0373 88.9815 83.792C88.4482 83.5467 88.0215 83.184 87.7015 82.704C87.3922 82.224 87.2375 81.6267 87.2375 80.912C87.2375 80.6773 87.2588 80.4533 87.3015 80.24C87.3548 80.016 87.4028 79.84 87.4455 79.712H88.7895C88.7468 79.8507 88.7095 80.0267 88.6775 80.24C88.6562 80.4427 88.6455 80.6667 88.6455 80.912C88.6455 81.36 88.7308 81.7387 88.9015 82.048C89.0828 82.3573 89.3335 82.592 89.6535 82.752C89.9842 82.912 90.3628 82.992 90.7895 82.992C91.2268 82.992 91.6002 82.912 91.9095 82.752C92.2188 82.592 92.4588 82.352 92.6295 82.032C92.8002 81.712 92.8855 81.312 92.8855 80.832C92.8855 80.2773 92.7682 79.8293 92.5335 79.488C92.2988 79.136 92.0268 78.8107 91.7175 78.512C91.4615 78.256 91.2055 77.9893 90.9495 77.712C90.7042 77.424 90.4962 77.0987 90.3255 76.736C90.1548 76.3627 90.0695 75.9253 90.0695 75.424H91.4775C91.4775 75.8827 91.6002 76.288 91.8455 76.64C92.1015 76.9813 92.3948 77.3173 92.7255 77.648C92.9922 77.904 93.2482 78.1813 93.4935 78.48C93.7388 78.7787 93.9415 79.12 94.1015 79.504C94.2615 79.8773 94.3415 80.32 94.3415 80.832C94.3415 81.4933 94.1868 82.0747 93.8775 82.576C93.5682 83.0773 93.1468 83.4667 92.6135 83.744C92.0802 84.0213 91.4722 84.16 90.7895 84.16ZM103.507 88C103.272 87.552 102.973 87.1627 102.611 86.832C102.259 86.5013 101.875 86.2453 101.459 86.064C101.053 85.8933 100.643 85.808 100.227 85.808C99.7788 85.808 99.3734 85.856 99.0108 85.952C98.6481 86.048 98.2481 86.1973 97.8108 86.4L97.3307 85.408C97.5761 85.2907 97.8588 85.184 98.1788 85.088C98.5094 84.992 98.9254 84.9333 99.4268 84.912V84.864C98.3174 84.3413 97.4854 83.648 96.9308 82.784C96.3761 81.9093 96.0988 80.8533 96.0988 79.616C96.0988 78.7413 96.2214 77.9787 96.4668 77.328C96.7121 76.6773 97.0748 76.1707 97.5548 75.808C98.0348 75.4453 98.6321 75.264 99.3468 75.264C99.9441 75.264 100.424 75.4027 100.787 75.68C101.16 75.9467 101.432 76.3147 101.603 76.784H101.683C101.864 76.3147 102.147 75.9467 102.531 75.68C102.915 75.4027 103.389 75.264 103.955 75.264C104.669 75.264 105.267 75.4453 105.747 75.808C106.227 76.1707 106.589 76.6773 106.835 77.328C107.08 77.968 107.203 78.72 107.203 79.584C107.203 80.2667 107.128 80.9013 106.979 81.488C106.84 82.0747 106.621 82.6507 106.323 83.216L105.107 82.768C105.352 82.2453 105.523 81.7387 105.619 81.248C105.715 80.7467 105.763 80.1867 105.763 79.568C105.763 78.8747 105.688 78.2987 105.539 77.84C105.389 77.3707 105.171 77.0187 104.883 76.784C104.605 76.5493 104.259 76.432 103.843 76.432C103.363 76.432 102.989 76.6133 102.723 76.976C102.456 77.3387 102.323 77.8507 102.323 78.512V81.088H100.979V78.512C100.979 77.9147 100.856 77.4187 100.611 77.024C100.365 76.6293 99.9761 76.432 99.4427 76.432C98.8348 76.432 98.3654 76.6987 98.0348 77.232C97.7041 77.7547 97.5388 78.5387 97.5388 79.584C97.5388 80.2987 97.6241 80.9227 97.7948 81.456C97.9654 81.9787 98.2001 82.432 98.4988 82.816C98.8081 83.1893 99.1654 83.5093 99.5708 83.776C99.9761 84.0427 100.408 84.2773 100.867 84.48C101.485 84.7467 102.024 85.0027 102.483 85.248C102.941 85.504 103.336 85.7973 103.667 86.128C104.008 86.4693 104.312 86.9013 104.579 87.424L103.507 88ZM113.07 84.16C112.259 84.16 111.571 84 111.006 83.68C110.441 83.3493 110.009 82.8693 109.71 82.24C109.422 81.6 109.278 80.816 109.278 79.888V74.352C109.278 73.744 109.395 73.2427 109.63 72.848C109.865 72.4533 110.174 72.16 110.558 71.968C110.953 71.776 111.379 71.68 111.838 71.68C112.211 71.68 112.585 71.7547 112.958 71.904C113.331 72.0533 113.619 72.368 113.822 72.848H113.87C114.073 72.368 114.334 72.0533 114.654 71.904C114.974 71.7547 115.299 71.68 115.63 71.68C115.939 71.68 116.217 71.712 116.462 71.776C116.707 71.84 116.931 71.9147 117.134 72L116.782 73.072C116.611 73.0187 116.43 72.9653 116.238 72.912C116.046 72.8587 115.849 72.832 115.646 72.832C115.358 72.832 115.097 72.928 114.862 73.12C114.638 73.3013 114.526 73.5733 114.526 73.936V74.704H113.166V73.936C113.166 73.5947 113.054 73.3227 112.83 73.12C112.606 72.9067 112.313 72.8 111.95 72.8C111.694 72.8 111.47 72.864 111.278 72.992C111.086 73.1093 110.937 73.2853 110.83 73.52C110.734 73.7547 110.686 74.0427 110.686 74.384V75.92C110.686 76.0907 110.675 76.288 110.654 76.512C110.633 76.7253 110.611 76.8907 110.59 77.008H110.686C110.867 76.7733 111.075 76.56 111.31 76.368C111.555 76.176 111.843 76.0267 112.174 75.92C112.515 75.8027 112.905 75.744 113.342 75.744C114.057 75.744 114.675 75.9093 115.198 76.24C115.731 76.56 116.142 77.0293 116.43 77.648C116.729 78.2667 116.878 79.0133 116.878 79.888C116.878 80.816 116.718 81.6 116.398 82.24C116.078 82.8693 115.63 83.3493 115.054 83.68C114.489 84 113.827 84.16 113.07 84.16ZM113.07 82.992C113.603 82.992 114.041 82.8693 114.382 82.624C114.734 82.368 114.995 82.0107 115.166 81.552C115.337 81.0933 115.422 80.5493 115.422 79.92C115.422 79.344 115.337 78.832 115.166 78.384C115.006 77.9253 114.755 77.568 114.414 77.312C114.083 77.0453 113.662 76.912 113.15 76.912C112.521 76.912 112.025 77.0347 111.662 77.28C111.299 77.5253 111.043 77.872 110.894 78.32C110.745 78.768 110.67 79.296 110.67 79.904V80.16C110.67 80.9813 110.851 81.6587 111.214 82.192C111.577 82.7253 112.195 82.992 113.07 82.992ZM121.949 88C121.405 88 120.904 87.9093 120.445 87.728C119.997 87.5573 119.608 87.3013 119.277 86.96C118.946 86.6293 118.69 86.2293 118.509 85.76C118.338 85.3013 118.253 84.784 118.253 84.208C118.253 83.8987 118.28 83.6107 118.333 83.344C118.397 83.0667 118.466 82.8373 118.541 82.656H119.885C119.832 82.8267 119.778 83.0507 119.725 83.328C119.682 83.5947 119.661 83.8453 119.661 84.08C119.661 84.6027 119.741 85.072 119.901 85.488C120.072 85.904 120.328 86.2293 120.669 86.464C121.01 86.7093 121.437 86.832 121.949 86.832C122.504 86.832 122.946 86.7093 123.277 86.464C123.618 86.2187 123.864 85.872 124.013 85.424C124.173 84.976 124.253 84.448 124.253 83.84V78.976C124.253 78.1653 124.088 77.5413 123.757 77.104C123.426 76.656 122.914 76.432 122.221 76.432C121.805 76.432 121.437 76.512 121.117 76.672C120.808 76.832 120.562 77.0667 120.381 77.376C120.21 77.6747 120.125 78.0533 120.125 78.512C120.125 78.7467 120.136 78.9707 120.157 79.184C120.189 79.3867 120.226 79.5627 120.269 79.712H118.925C118.882 79.584 118.834 79.4133 118.781 79.2C118.738 78.976 118.717 78.7467 118.717 78.512C118.717 77.7973 118.872 77.2 119.181 76.72C119.501 76.24 119.922 75.8773 120.445 75.632C120.978 75.3867 121.57 75.264 122.221 75.264C122.914 75.264 123.517 75.408 124.029 75.696C124.552 75.984 124.952 76.4 125.229 76.944C125.517 77.4773 125.661 78.1333 125.661 78.912V83.904C125.661 84.768 125.512 85.504 125.213 86.112C124.925 86.7307 124.504 87.2 123.949 87.52C123.405 87.84 122.738 88 121.949 88ZM128.683 84C128.47 83.4987 128.289 83.0187 128.139 82.56C128.001 82.1013 127.899 81.632 127.835 81.152C127.771 80.6613 127.739 80.1387 127.739 79.584V78.976C127.739 77.6533 127.894 76.5387 128.203 75.632C128.513 74.7147 128.982 73.9893 129.611 73.456C130.241 72.912 131.03 72.5387 131.979 72.336C132.577 72.208 133.174 72.0907 133.771 71.984C134.369 71.8773 134.955 71.776 135.531 71.68L135.771 72.912C135.494 72.9547 135.19 73.0027 134.859 73.056C134.539 73.0987 134.219 73.1467 133.899 73.2C133.579 73.2533 133.275 73.3067 132.987 73.36C132.71 73.4027 132.465 73.4507 132.251 73.504C131.814 73.6 131.387 73.7493 130.971 73.952C130.555 74.144 130.182 74.4267 129.851 74.8C129.531 75.1733 129.27 75.6853 129.067 76.336H129.115C129.329 76.0373 129.537 75.8133 129.739 75.664C129.953 75.504 130.166 75.3973 130.379 75.344C130.603 75.2907 130.827 75.264 131.051 75.264C131.595 75.264 132.049 75.4027 132.411 75.68C132.774 75.9467 133.041 76.3147 133.211 76.784H133.291C133.473 76.3147 133.755 75.9467 134.139 75.68C134.523 75.4027 134.998 75.264 135.563 75.264C136.278 75.264 136.875 75.4453 137.355 75.808C137.835 76.1707 138.198 76.6773 138.443 77.328C138.689 77.968 138.811 78.72 138.811 79.584C138.811 80.1387 138.774 80.6613 138.699 81.152C138.635 81.632 138.529 82.1013 138.379 82.56C138.241 83.0187 138.059 83.4987 137.835 84H136.395C136.737 83.2427 136.982 82.528 137.131 81.856C137.291 81.1733 137.371 80.4107 137.371 79.568C137.371 78.8747 137.297 78.2987 137.147 77.84C136.998 77.3707 136.779 77.0187 136.491 76.784C136.214 76.5493 135.867 76.432 135.451 76.432C134.971 76.432 134.598 76.6133 134.331 76.976C134.065 77.3387 133.931 77.8507 133.931 78.512V81.088H132.587V78.512C132.587 77.9147 132.465 77.4187 132.219 77.024C131.974 76.6293 131.585 76.432 131.051 76.432C130.443 76.432 129.974 76.6987 129.643 77.232C129.313 77.7547 129.147 78.5333 129.147 79.568C129.147 80.1333 129.179 80.656 129.243 81.136C129.318 81.616 129.425 82.0907 129.563 82.56C129.713 83.0187 129.899 83.4987 130.123 84H128.683ZM144.04 84.16C143.378 84.16 142.776 84.0373 142.232 83.792C141.698 83.5467 141.272 83.184 140.952 82.704C140.642 82.224 140.488 81.6267 140.488 80.912C140.488 80.6773 140.509 80.4533 140.552 80.24C140.605 80.016 140.653 79.84 140.696 79.712H142.039C141.997 79.8507 141.96 80.0267 141.928 80.24C141.906 80.4427 141.896 80.6667 141.896 80.912C141.896 81.36 141.981 81.7387 142.152 82.048C142.333 82.3573 142.584 82.592 142.904 82.752C143.234 82.912 143.613 82.992 144.04 82.992C144.477 82.992 144.85 82.912 145.16 82.752C145.469 82.592 145.709 82.352 145.88 82.032C146.05 81.712 146.136 81.312 146.136 80.832C146.136 80.2773 146.018 79.8293 145.784 79.488C145.549 79.136 145.277 78.8107 144.968 78.512C144.712 78.256 144.456 77.9893 144.2 77.712C143.954 77.424 143.746 77.0987 143.576 76.736C143.405 76.3627 143.32 75.9253 143.32 75.424H144.728C144.728 75.8827 144.85 76.288 145.096 76.64C145.352 76.9813 145.645 77.3173 145.976 77.648C146.242 77.904 146.498 78.1813 146.744 78.48C146.989 78.7787 147.192 79.12 147.352 79.504C147.512 79.8773 147.592 80.32 147.592 80.832C147.592 81.4933 147.437 82.0747 147.128 82.576C146.818 83.0773 146.397 83.4667 145.864 83.744C145.33 84.0213 144.722 84.16 144.04 84.16Z" fill="white"/>
<g style="mix-blend-mode:soft-light">
<g style="mix-blend-mode:lighten">
<ellipse cx="316.156" cy="137.535" rx="19.0817" ry="19.5142" fill="url(#paint1_linear_399_27)"/>
</g>
<g style="mix-blend-mode:lighten">
<path d="M362.709 214.656C362.709 208.405 361.505 202.214 359.165 196.438C356.826 190.662 353.397 185.414 349.074 180.993C344.751 176.572 339.619 173.065 333.971 170.673C328.323 168.28 322.27 167.049 316.156 167.049C310.043 167.049 303.989 168.28 298.341 170.673C292.693 173.065 287.561 176.572 283.238 180.993C278.916 185.414 275.487 190.662 273.147 196.438C270.808 202.214 269.604 208.405 269.604 214.657L362.709 214.656Z" fill="url(#paint2_linear_399_27)"/>
</g>
</g>
<g style="mix-blend-mode:lighten">
<ellipse cx="259.245" cy="135.378" rx="33.6158" ry="34.3777" fill="url(#paint3_linear_399_27)"/>
</g>
<g style="mix-blend-mode:lighten">
<path d="M341.255 265.176C341.255 254.163 339.134 243.257 335.013 233.081C330.891 222.906 324.85 213.66 317.235 205.872C309.619 198.084 300.579 191.906 290.629 187.691C280.679 183.476 270.014 181.307 259.244 181.307C248.475 181.307 237.81 183.476 227.86 187.691C217.91 191.906 208.87 198.084 201.254 205.872C193.639 213.66 187.598 222.906 183.476 233.081C179.355 243.257 177.234 254.163 177.234 265.177L341.255 265.176Z" fill="url(#paint4_linear_399_27)"/>
</g>
</g>
<defs>
<linearGradient id="paint0_linear_399_27" x1="254.058" y1="-43.1845" x2="77.1521" y2="329.486" gradientUnits="userSpaceOnUse">
<stop stop-color="#35E45C"/>
<stop offset="1" stop-color="#038956"/>
</linearGradient>
<linearGradient id="paint1_linear_399_27" x1="316.156" y1="118.02" x2="316.156" y2="157.049" gradientUnits="userSpaceOnUse">
<stop stop-color="white"/>
<stop offset="1" stop-color="white" stop-opacity="0"/>
</linearGradient>
<linearGradient id="paint2_linear_399_27" x1="316.156" y1="167.049" x2="316.156" y2="214.657" gradientUnits="userSpaceOnUse">
<stop stop-color="white"/>
<stop offset="1" stop-color="white" stop-opacity="0"/>
</linearGradient>
<linearGradient id="paint3_linear_399_27" x1="176.588" y1="84.2153" x2="304.84" y2="182.486" gradientUnits="userSpaceOnUse">
<stop stop-color="white"/>
<stop offset="1" stop-color="white" stop-opacity="0"/>
</linearGradient>
<linearGradient id="paint4_linear_399_27" x1="138.858" y1="154.839" x2="360.603" y2="288.484" gradientUnits="userSpaceOnUse">
<stop stop-color="white"/>
<stop offset="1" stop-color="white" stop-opacity="0"/>
</linearGradient>
<clipPath id="clip0_399_27">
<rect width="344" height="259" rx="18" fill="white"/>
</clipPath>
</defs>
</svg>
