<svg width="344" height="259" viewBox="0 0 344 259" fill="none" xmlns="http://www.w3.org/2000/svg">
<g clip-path="url(#clip0_2_259)">
<rect width="344" height="259" rx="18" fill="url(#paint0_linear_2_259)"/>
<path d="M30.58 53.2C28.8867 53.2 27.5867 52.74 26.68 51.82C25.7733 50.8867 25.32 49.5933 25.32 47.94V38.72H28.34V48.14C28.34 48.66 28.42 49.1133 28.58 49.5C28.7533 49.8733 29.0067 50.1667 29.34 50.38C29.6733 50.58 30.0867 50.68 30.58 50.68C31.0467 50.68 31.4333 50.58 31.74 50.38C32.06 50.18 32.2933 49.92 32.44 49.6C32.6 49.2667 32.68 48.9067 32.68 48.52C32.68 47.92 32.5733 47.42 32.36 47.02C32.16 46.6067 31.9267 46.2133 31.66 45.84C31.38 45.44 31.1333 44.9933 30.92 44.5C30.72 44.0067 30.66 43.4067 30.74 42.7H33.88C33.8667 43.1933 33.9467 43.6067 34.12 43.94C34.2933 44.2733 34.5133 44.64 34.78 45.04C35.06 45.4533 35.3067 45.9133 35.52 46.42C35.7467 46.9267 35.86 47.5733 35.86 48.36C35.86 49.32 35.6467 50.1667 35.22 50.9C34.7933 51.62 34.18 52.1867 33.38 52.6C32.5933 53 31.66 53.2 30.58 53.2ZM42.9916 53.2C41.9116 53.2 40.9782 53.0067 40.1916 52.62C39.4049 52.2333 38.7982 51.68 38.3716 50.96C37.9449 50.24 37.7316 49.3867 37.7316 48.4C37.7316 47.9733 37.7649 47.5467 37.8316 47.12C37.8982 46.6933 38.0649 46.1533 38.3316 45.5L36.7116 45.96H42.5116L41.3716 45.58C41.1582 46.14 41.0249 46.6467 40.9716 47.1C40.9182 47.5533 40.8916 47.9267 40.8916 48.22C40.8916 48.9267 41.0649 49.5133 41.4116 49.98C41.7582 50.4467 42.2849 50.68 42.9916 50.68C43.4982 50.68 43.9049 50.5733 44.2116 50.36C44.5182 50.1333 44.7382 49.8267 44.8716 49.44C45.0182 49.0533 45.0916 48.6133 45.0916 48.12C45.0916 47.5467 45.0116 47.0267 44.8516 46.56C44.6916 46.0933 44.4849 45.66 44.2316 45.26C43.9916 44.8467 43.7249 44.46 43.4316 44.1C43.0182 43.5533 42.6316 43.0267 42.2716 42.52C41.9249 42 41.6649 41.44 41.4916 40.84C41.3182 40.2267 41.2849 39.52 41.3916 38.72H44.4916C44.4382 39.2267 44.4849 39.7 44.6316 40.14C44.7782 40.58 44.9916 41.0067 45.2716 41.42C45.5649 41.82 45.8716 42.24 46.1916 42.68C46.5249 43.12 46.8516 43.6 47.1716 44.12C47.4916 44.6267 47.7516 45.2 47.9516 45.84C48.1649 46.48 48.2716 47.2133 48.2716 48.04C48.2716 49.08 48.0582 49.9867 47.6316 50.76C47.2182 51.5333 46.6182 52.1333 45.8316 52.56C45.0449 52.9867 44.0982 53.2 42.9916 53.2ZM55.4134 53.2C54.3334 53.2 53.4001 53.0067 52.6134 52.62C51.8268 52.2333 51.2201 51.68 50.7934 50.96C50.3668 50.24 50.1534 49.3867 50.1534 48.4C50.1534 47.9733 50.1868 47.5467 50.2534 47.12C50.3201 46.6933 50.4868 46.1533 50.7534 45.5L49.1334 45.96H54.9334L53.7934 45.58C53.5801 46.14 53.4468 46.6467 53.3934 47.1C53.3401 47.5533 53.3134 47.9267 53.3134 48.22C53.3134 48.9267 53.4868 49.5133 53.8334 49.98C54.1801 50.4467 54.7068 50.68 55.4134 50.68C55.9201 50.68 56.3268 50.5733 56.6334 50.36C56.9401 50.1333 57.1601 49.8267 57.2934 49.44C57.4401 49.0533 57.5134 48.6133 57.5134 48.12C57.5134 47.5467 57.4334 47.0267 57.2734 46.56C57.1134 46.0933 56.9068 45.66 56.6534 45.26C56.4134 44.8467 56.1468 44.46 55.8534 44.1C55.4401 43.5533 55.0534 43.0267 54.6934 42.52C54.3468 42 54.0868 41.44 53.9134 40.84C53.7401 40.2267 53.7068 39.52 53.8134 38.72H56.9134C56.8601 39.2267 56.9068 39.7 57.0534 40.14C57.2001 40.58 57.4134 41.0067 57.6934 41.42C57.9868 41.82 58.2934 42.24 58.6134 42.68C58.9468 43.12 59.2734 43.6 59.5934 44.12C59.9134 44.6267 60.1734 45.2 60.3734 45.84C60.5868 46.48 60.6934 47.2133 60.6934 48.04C60.6934 49.08 60.4801 49.9867 60.0534 50.76C59.6401 51.5333 59.0401 52.1333 58.2534 52.56C57.4668 52.9867 56.5201 53.2 55.4134 53.2ZM71.3345 53C71.2679 52.56 71.0612 52.1933 70.7145 51.9C70.3679 51.6067 69.9479 51.3867 69.4545 51.24C68.9612 51.0933 68.4545 51.02 67.9345 51.02C67.3079 51.02 66.7212 51.0933 66.1745 51.24C65.6412 51.3733 65.1212 51.5733 64.6145 51.84L63.5745 49.92C63.8012 49.76 64.0945 49.6133 64.4545 49.48C64.8145 49.3467 65.1879 49.2667 65.5745 49.24V49.16C64.8145 48.8533 64.1612 48.4333 63.6145 47.9C63.0679 47.3533 62.6412 46.72 62.3345 46C62.0412 45.2667 61.8945 44.46 61.8945 43.58C61.8945 42.6067 62.0612 41.7467 62.3945 41C62.7412 40.24 63.2412 39.64 63.8945 39.2C64.5612 38.76 65.3745 38.54 66.3345 38.54C67.2145 38.54 67.9479 38.72 68.5345 39.08C69.1212 39.44 69.5345 39.9333 69.7745 40.56H69.8945C70.1612 39.8667 70.5745 39.36 71.1345 39.04C71.7079 38.7067 72.4012 38.54 73.2145 38.54C74.1879 38.54 75.0079 38.76 75.6745 39.2C76.3545 39.6267 76.8745 40.22 77.2345 40.98C77.5945 41.74 77.7745 42.6067 77.7745 43.58C77.7745 44.4733 77.6679 45.2867 77.4545 46.02C77.2545 46.7533 76.9212 47.5133 76.4545 48.3L73.8145 47.32C74.1079 46.7333 74.3145 46.1333 74.4345 45.52C74.5679 44.9067 74.6345 44.2867 74.6345 43.66C74.6345 43.1667 74.5745 42.7133 74.4545 42.3C74.3345 41.8867 74.1412 41.5533 73.8745 41.3C73.6212 41.0467 73.2745 40.92 72.8345 40.92C72.4745 40.92 72.1812 41.0067 71.9545 41.18C71.7279 41.3533 71.5612 41.6 71.4545 41.92C71.3612 42.24 71.3145 42.6333 71.3145 43.1V45.7H68.3545V43.1C68.3545 42.6333 68.3012 42.24 68.1945 41.92C68.1012 41.6 67.9412 41.3533 67.7145 41.18C67.5012 41.0067 67.2079 40.92 66.8345 40.92C66.2612 40.92 65.8145 41.1267 65.4945 41.54C65.1879 41.94 65.0345 42.6267 65.0345 43.6C65.0345 44.44 65.1612 45.1467 65.4145 45.72C65.6812 46.28 66.0412 46.7467 66.4945 47.12C66.9479 47.4933 67.4745 47.8 68.0745 48.04C68.6745 48.28 69.3145 48.4867 69.9945 48.66C70.7412 48.8467 71.4279 49.1267 72.0545 49.5C72.6945 49.8733 73.2145 50.3467 73.6145 50.92C74.0279 51.4933 74.2679 52.1867 74.3345 53H71.3345ZM85.3456 53.2C83.6523 53.2 82.3523 52.74 81.4456 51.82C80.539 50.8867 80.0856 49.5933 80.0856 47.94V38.72H83.1056V48.14C83.1056 48.66 83.1856 49.1133 83.3456 49.5C83.519 49.8733 83.7723 50.1667 84.1056 50.38C84.439 50.58 84.8523 50.68 85.3456 50.68C85.8123 50.68 86.199 50.58 86.5056 50.38C86.8256 50.18 87.059 49.92 87.2056 49.6C87.3656 49.2667 87.4456 48.9067 87.4456 48.52C87.4456 47.92 87.339 47.42 87.1256 47.02C86.9256 46.6067 86.6923 46.2133 86.4256 45.84C86.1456 45.44 85.899 44.9933 85.6856 44.5C85.4856 44.0067 85.4256 43.4067 85.5056 42.7H88.6456C88.6323 43.1933 88.7123 43.6067 88.8856 43.94C89.059 44.2733 89.279 44.64 89.5456 45.04C89.8256 45.4533 90.0723 45.9133 90.2856 46.42C90.5123 46.9267 90.6256 47.5733 90.6256 48.36C90.6256 49.32 90.4123 50.1667 89.9856 50.9C89.559 51.62 88.9456 52.1867 88.1456 52.6C87.359 53 86.4256 53.2 85.3456 53.2ZM93.4819 53C93.2285 52.3067 93.0219 51.66 92.8619 51.06C92.7152 50.4467 92.6019 49.8333 92.5219 49.22C92.4552 48.5933 92.4219 47.92 92.4219 47.2C92.4219 46.04 92.5285 45 92.7419 44.08C92.9552 43.16 93.3019 42.3667 93.7819 41.7C94.2752 41.02 94.9352 40.4667 95.7619 40.04C96.5885 39.6 97.6219 39.2867 98.8619 39.1C99.2885 39.0333 99.7419 38.9667 100.222 38.9C100.715 38.8333 101.242 38.7667 101.802 38.7C102.375 38.6333 102.989 38.5667 103.642 38.5L103.982 41.04C103.555 41.0933 103.115 41.1467 102.662 41.2C102.209 41.24 101.762 41.2867 101.322 41.34C100.882 41.3933 100.469 41.4467 100.082 41.5C99.6952 41.54 99.3552 41.58 99.0619 41.62C98.5419 41.6867 98.0019 41.7933 97.4419 41.94C96.8952 42.0733 96.3952 42.2733 95.9419 42.54C95.5019 42.8067 95.1685 43.1667 94.9419 43.62H95.0219C95.2219 43.4067 95.4419 43.24 95.6819 43.12C95.9219 43 96.1752 42.9133 96.4419 42.86C96.7219 42.8067 96.9952 42.78 97.2619 42.78C97.9819 42.78 98.6019 42.9733 99.1219 43.36C99.6552 43.7333 100.042 44.26 100.282 44.94H100.362C100.615 44.2333 101.029 43.7 101.602 43.34C102.175 42.9667 102.909 42.78 103.802 42.78C104.749 42.78 105.549 43.0067 106.202 43.46C106.869 43.9 107.369 44.5 107.702 45.26C108.049 46.02 108.222 46.88 108.222 47.84C108.222 48.4533 108.182 49.0467 108.102 49.62C108.022 50.18 107.895 50.74 107.722 51.3C107.562 51.8467 107.362 52.4133 107.122 53H104.022C104.355 52.1867 104.615 51.3733 104.802 50.56C104.989 49.7333 105.082 48.8467 105.082 47.9C105.082 47.42 105.029 46.9667 104.922 46.54C104.815 46.1133 104.635 45.7733 104.382 45.52C104.129 45.2533 103.782 45.12 103.342 45.12C102.982 45.12 102.689 45.2267 102.462 45.44C102.235 45.64 102.069 45.92 101.962 46.28C101.855 46.64 101.802 47.04 101.802 47.48V49.92H98.8219V47.48C98.8219 46.96 98.7619 46.5267 98.6419 46.18C98.5352 45.8333 98.3619 45.5733 98.1219 45.4C97.8952 45.2133 97.6085 45.12 97.2619 45.12C96.6885 45.12 96.2552 45.3467 95.9619 45.8C95.6819 46.2533 95.5419 46.9733 95.5419 47.96C95.5419 48.8533 95.6352 49.7133 95.8219 50.54C96.0085 51.3533 96.2685 52.1733 96.6019 53H93.4819ZM115.344 53.2C114.264 53.2 113.331 53.0067 112.544 52.62C111.771 52.2333 111.171 51.7 110.744 51.02C110.318 50.34 110.104 49.5733 110.104 48.72C110.104 48.3467 110.124 48.0267 110.164 47.76C110.204 47.4933 110.264 47.22 110.344 46.94H113.424C113.371 47.1533 113.331 47.3933 113.304 47.66C113.278 47.9133 113.264 48.1733 113.264 48.44C113.264 48.8533 113.338 49.2333 113.484 49.58C113.644 49.9133 113.878 50.18 114.184 50.38C114.504 50.58 114.898 50.68 115.364 50.68C115.884 50.68 116.298 50.58 116.604 50.38C116.924 50.18 117.151 49.9067 117.284 49.56C117.418 49.2 117.484 48.7867 117.484 48.32V42.5C117.484 42.1667 117.438 41.8867 117.344 41.66C117.251 41.4333 117.111 41.2667 116.924 41.16C116.751 41.04 116.524 40.98 116.244 40.98C115.871 40.98 115.564 41.1 115.324 41.34C115.098 41.5667 114.984 41.94 114.984 42.46V44.4H112.024V42.44C112.024 42.0133 111.911 41.6933 111.684 41.48C111.458 41.2533 111.144 41.14 110.744 41.14H109.564V38.62H110.824C111.491 38.62 112.051 38.7533 112.504 39.02C112.971 39.2867 113.324 39.7067 113.564 40.28H113.624C113.798 39.8933 114.031 39.5733 114.324 39.32C114.631 39.0533 114.984 38.8533 115.384 38.72C115.784 38.5867 116.211 38.52 116.664 38.52C117.491 38.52 118.191 38.6733 118.764 38.98C119.338 39.2867 119.771 39.7267 120.064 40.3C120.358 40.86 120.504 41.52 120.504 42.28V48.38C120.504 49.38 120.304 50.24 119.904 50.96C119.504 51.68 118.918 52.2333 118.144 52.62C117.384 53.0067 116.451 53.2 115.344 53.2ZM135.757 53C135.73 52.7067 135.61 52.4333 135.397 52.18C135.197 51.9267 134.937 51.7067 134.617 51.52C134.297 51.3333 133.93 51.1733 133.517 51.04C133.117 50.9067 132.69 50.8067 132.237 50.74C131.797 50.6733 131.363 50.64 130.937 50.64C129.95 50.64 129.09 50.76 128.357 51C127.637 51.2267 127.003 51.4867 126.457 51.78L125.297 49.94C125.497 49.82 125.703 49.7067 125.917 49.6C126.13 49.48 126.357 49.38 126.597 49.3C126.85 49.22 127.117 49.16 127.397 49.12V49.06C126.61 48.8467 125.917 48.56 125.317 48.2C124.73 47.84 124.237 47.42 123.837 46.94C123.437 46.4467 123.137 45.8933 122.937 45.28C122.737 44.6667 122.637 44 122.637 43.28C122.637 42.4 122.797 41.6 123.117 40.88C123.45 40.16 123.943 39.5867 124.597 39.16C125.25 38.7333 126.057 38.52 127.017 38.52C127.843 38.52 128.55 38.7067 129.137 39.08C129.737 39.44 130.157 39.9467 130.397 40.6H130.497C130.723 39.9333 131.09 39.42 131.597 39.06C132.117 38.7 132.757 38.52 133.517 38.52C134.277 38.52 134.917 38.7067 135.437 39.08C135.97 39.4533 136.337 39.96 136.537 40.6H136.657C136.91 39.9467 137.31 39.44 137.857 39.08C138.403 38.7067 139.083 38.52 139.897 38.52C140.87 38.52 141.69 38.74 142.357 39.18C143.037 39.62 143.557 40.2267 143.917 41C144.277 41.76 144.457 42.6333 144.457 43.62C144.457 44.46 144.357 45.2533 144.157 46C143.97 46.7333 143.677 47.4867 143.277 48.26L140.437 47.3C140.743 46.6733 140.963 46.0533 141.097 45.44C141.243 44.8267 141.317 44.2 141.317 43.56C141.317 42.6933 141.163 42.06 140.857 41.66C140.55 41.2467 140.143 41.04 139.637 41.04C139.29 41.04 139.003 41.1533 138.777 41.38C138.55 41.6067 138.383 41.9067 138.277 42.28C138.17 42.64 138.117 43.04 138.117 43.48V45.58H135.097V43.22C135.097 42.8467 135.043 42.4933 134.937 42.16C134.83 41.8267 134.663 41.56 134.437 41.36C134.21 41.1467 133.903 41.04 133.517 41.04C133.157 41.04 132.863 41.14 132.637 41.34C132.41 41.54 132.243 41.8067 132.137 42.14C132.03 42.4733 131.977 42.8333 131.977 43.22V45.58H128.957V43.48C128.957 43.0667 128.91 42.6733 128.817 42.3C128.723 41.9267 128.563 41.6267 128.337 41.4C128.123 41.16 127.823 41.04 127.437 41.04C126.93 41.04 126.523 41.24 126.217 41.64C125.91 42.0267 125.757 42.6467 125.757 43.5C125.757 44.22 125.89 44.8467 126.157 45.38C126.423 45.9133 126.803 46.3667 127.297 46.74C127.803 47.1133 128.417 47.4133 129.137 47.64C129.857 47.8533 130.67 48.0067 131.577 48.1C132.603 48.1933 133.537 48.36 134.377 48.6C135.23 48.8267 135.963 49.14 136.577 49.54C137.203 49.9267 137.703 50.4067 138.077 50.98C138.463 51.54 138.697 52.2133 138.777 53H135.757ZM151.194 53.2C150.128 53.2 149.201 53.0067 148.414 52.62C147.628 52.2333 147.021 51.7 146.594 51.02C146.168 50.34 145.954 49.5733 145.954 48.72C145.954 48.4 145.974 48.0933 146.014 47.8C146.054 47.5067 146.121 47.22 146.214 46.94H149.294C149.241 47.1667 149.194 47.42 149.154 47.7C149.128 47.9667 149.114 48.2133 149.114 48.44C149.114 48.8533 149.188 49.2333 149.334 49.58C149.494 49.9133 149.734 50.18 150.054 50.38C150.374 50.58 150.768 50.68 151.234 50.68C151.754 50.68 152.168 50.5867 152.474 50.4C152.781 50.2 153.001 49.92 153.134 49.56C153.268 49.2 153.334 48.7867 153.334 48.32V42.98C153.334 42.3533 153.161 41.8733 152.814 41.54C152.481 41.2067 152.041 41.04 151.494 41.04C151.121 41.04 150.794 41.1067 150.514 41.24C150.234 41.3733 150.014 41.5733 149.854 41.84C149.708 42.1067 149.634 42.4333 149.634 42.82C149.634 42.98 149.641 43.1667 149.654 43.38C149.681 43.58 149.714 43.7933 149.754 44.02H146.674C146.621 43.7933 146.568 43.56 146.514 43.32C146.474 43.08 146.454 42.7933 146.454 42.46C146.454 41.6067 146.674 40.8933 147.114 40.32C147.554 39.7333 148.148 39.2867 148.894 38.98C149.654 38.6733 150.501 38.52 151.434 38.52C152.434 38.52 153.301 38.7 154.034 39.06C154.768 39.4067 155.334 39.9067 155.734 40.56C156.134 41.2133 156.334 41.9933 156.334 42.9V48.36C156.334 49.36 156.128 50.2267 155.714 50.96C155.314 51.68 154.734 52.2333 153.974 52.62C153.214 53.0067 152.288 53.2 151.194 53.2ZM163.992 53.2C163.246 53.2 162.546 53.08 161.892 52.84C161.252 52.6 160.686 52.2533 160.192 51.8C159.712 51.3333 159.332 50.7667 159.052 50.1C158.786 49.4333 158.652 48.6667 158.652 47.8C158.652 46.6667 158.879 45.7067 159.332 44.92C159.786 44.1333 160.412 43.5333 161.212 43.12C162.026 42.7067 162.972 42.5 164.052 42.5C165.052 42.5 165.952 42.7067 166.752 43.12C167.552 43.5333 168.186 44.1333 168.652 44.92C169.132 45.7067 169.372 46.6667 169.372 47.8C169.372 48.6667 169.239 49.44 168.972 50.12C168.719 50.7867 168.352 51.3533 167.872 51.82C167.406 52.2733 166.839 52.62 166.172 52.86C165.519 53.0867 164.792 53.2 163.992 53.2ZM164.032 50.68C164.499 50.68 164.892 50.5667 165.212 50.34C165.532 50.1 165.772 49.7667 165.932 49.34C166.106 48.9 166.192 48.3867 166.192 47.8C166.192 47.2267 166.106 46.7333 165.932 46.32C165.772 45.9067 165.526 45.5867 165.192 45.36C164.872 45.1333 164.479 45.02 164.012 45.02C163.319 45.02 162.779 45.2733 162.392 45.78C162.019 46.2733 161.832 46.9467 161.832 47.8C161.832 48.3867 161.919 48.9 162.092 49.34C162.266 49.7667 162.512 50.1 162.832 50.34C163.166 50.5667 163.566 50.68 164.032 50.68ZM165.592 43.06L162.692 42.86C162.826 42.7667 162.919 42.64 162.972 42.48C163.026 42.32 163.052 42.1667 163.052 42.02C163.052 41.78 162.972 41.5867 162.812 41.44C162.652 41.28 162.472 41.1333 162.272 41C162.086 40.88 161.899 40.7133 161.712 40.5C161.539 40.2867 161.399 40.0333 161.292 39.74C161.186 39.4333 161.159 39.0933 161.212 38.72H164.132C164.132 38.9733 164.212 39.1867 164.372 39.36C164.532 39.52 164.739 39.6933 164.992 39.88C165.286 40.08 165.532 40.3267 165.732 40.62C165.946 40.9133 166.052 41.26 166.052 41.66C166.052 41.9133 166.012 42.1533 165.932 42.38C165.852 42.5933 165.739 42.82 165.592 43.06ZM172.712 53C172.499 52.44 172.299 51.8667 172.112 51.28C171.939 50.6933 171.785 50.08 171.652 49.44C171.519 48.7867 171.419 48.1 171.352 47.38C171.285 46.6467 171.252 45.86 171.252 45.02C171.252 43.46 171.472 42.2067 171.912 41.26C172.352 40.3 172.932 39.6067 173.652 39.18C174.385 38.74 175.185 38.52 176.052 38.52C176.452 38.52 176.872 38.58 177.312 38.7C177.752 38.82 178.159 39.0333 178.532 39.34C178.905 39.6467 179.199 40.08 179.412 40.64H179.472C179.699 40.0933 179.999 39.6667 180.372 39.36C180.745 39.0533 181.152 38.84 181.592 38.72C182.032 38.5867 182.472 38.52 182.912 38.52C183.752 38.52 184.525 38.74 185.232 39.18C185.952 39.62 186.525 40.32 186.952 41.28C187.392 42.2267 187.612 43.4733 187.612 45.02C187.612 46.2067 187.545 47.26 187.412 48.18C187.292 49.1 187.119 49.9467 186.892 50.72C186.679 51.48 186.432 52.24 186.152 53H183.032C183.299 52.24 183.532 51.4533 183.732 50.64C183.945 49.8133 184.112 48.94 184.232 48.02C184.352 47.0867 184.412 46.0733 184.412 44.98C184.412 44.0067 184.339 43.2333 184.192 42.66C184.045 42.0867 183.839 41.6733 183.572 41.42C183.305 41.1667 182.985 41.04 182.612 41.04C182.199 41.04 181.879 41.1667 181.652 41.42C181.425 41.66 181.265 41.9933 181.172 42.42C181.079 42.8333 181.032 43.2933 181.032 43.8V48.82H177.852V43.8C177.852 43.2133 177.792 42.7133 177.672 42.3C177.565 41.8867 177.392 41.5733 177.152 41.36C176.925 41.1467 176.619 41.04 176.232 41.04C175.872 41.04 175.552 41.1667 175.272 41.42C175.005 41.6733 174.799 42.0867 174.652 42.66C174.505 43.2333 174.432 44.0067 174.432 44.98C174.432 46.0733 174.492 47.0867 174.612 48.02C174.732 48.94 174.899 49.8067 175.112 50.62C175.325 51.4333 175.565 52.2267 175.832 53H172.712ZM30.58 80.2C28.8867 80.2 27.5867 79.74 26.68 78.82C25.7733 77.8867 25.32 76.5933 25.32 74.94V65.72H28.34V75.14C28.34 75.66 28.42 76.1133 28.58 76.5C28.7533 76.8733 29.0067 77.1667 29.34 77.38C29.6733 77.58 30.0867 77.68 30.58 77.68C31.0467 77.68 31.4333 77.58 31.74 77.38C32.06 77.18 32.2933 76.92 32.44 76.6C32.6 76.2667 32.68 75.9067 32.68 75.52C32.68 74.92 32.5733 74.42 32.36 74.02C32.16 73.6067 31.9267 73.2133 31.66 72.84C31.38 72.44 31.1333 71.9933 30.92 71.5C30.72 71.0067 30.66 70.4067 30.74 69.7H33.88C33.8667 70.1933 33.9467 70.6067 34.12 70.94C34.2933 71.2733 34.5133 71.64 34.78 72.04C35.06 72.4533 35.3067 72.9133 35.52 73.42C35.7467 73.9267 35.86 74.5733 35.86 75.36C35.86 76.32 35.6467 77.1667 35.22 77.9C34.7933 78.62 34.18 79.1867 33.38 79.6C32.5933 80 31.66 80.2 30.58 80.2ZM42.9716 80.2C41.9049 80.2 40.9782 80.0067 40.1916 79.62C39.4049 79.2333 38.7982 78.7 38.3716 78.02C37.9449 77.34 37.7316 76.5733 37.7316 75.72C37.7316 75.4 37.7516 75.0933 37.7916 74.8C37.8316 74.5067 37.8982 74.22 37.9916 73.94H41.0716C41.0182 74.1667 40.9716 74.42 40.9316 74.7C40.9049 74.9667 40.8916 75.2133 40.8916 75.44C40.8916 75.8533 40.9649 76.2333 41.1116 76.58C41.2716 76.9133 41.5116 77.18 41.8316 77.38C42.1516 77.58 42.5449 77.68 43.0116 77.68C43.5316 77.68 43.9449 77.5867 44.2516 77.4C44.5582 77.2 44.7782 76.92 44.9116 76.56C45.0449 76.2 45.1116 75.7867 45.1116 75.32V69.98C45.1116 69.3533 44.9382 68.8733 44.5916 68.54C44.2582 68.2067 43.8182 68.04 43.2716 68.04C42.8982 68.04 42.5716 68.1067 42.2916 68.24C42.0116 68.3733 41.7916 68.5733 41.6316 68.84C41.4849 69.1067 41.4116 69.4333 41.4116 69.82C41.4116 69.98 41.4182 70.1667 41.4316 70.38C41.4582 70.58 41.4916 70.7933 41.5316 71.02H38.4516C38.3982 70.7933 38.3449 70.56 38.2916 70.32C38.2516 70.08 38.2316 69.7933 38.2316 69.46C38.2316 68.6067 38.4516 67.8933 38.8916 67.32C39.3316 66.7333 39.9249 66.2867 40.6716 65.98C41.4316 65.6733 42.2782 65.52 43.2116 65.52C44.2116 65.52 45.0782 65.7 45.8116 66.06C46.5449 66.4067 47.1116 66.9067 47.5116 67.56C47.9116 68.2133 48.1116 68.9933 48.1116 69.9V75.36C48.1116 76.36 47.9049 77.2267 47.4916 77.96C47.0916 78.68 46.5116 79.2333 45.7516 79.62C44.9916 80.0067 44.0649 80.2 42.9716 80.2ZM51.4897 80C51.2364 79.3067 51.0297 78.66 50.8697 78.06C50.723 77.4467 50.6097 76.8333 50.5297 76.22C50.463 75.5933 50.4297 74.92 50.4297 74.2C50.4297 73.04 50.5364 72 50.7497 71.08C50.963 70.16 51.3097 69.3667 51.7897 68.7C52.283 68.02 52.943 67.4667 53.7697 67.04C54.5964 66.6 55.6297 66.2867 56.8697 66.1C57.2964 66.0333 57.7497 65.9667 58.2297 65.9C58.723 65.8333 59.2497 65.7667 59.8097 65.7C60.383 65.6333 60.9964 65.5667 61.6497 65.5L61.9897 68.04C61.563 68.0933 61.123 68.1467 60.6697 68.2C60.2164 68.24 59.7697 68.2867 59.3297 68.34C58.8897 68.3933 58.4764 68.4467 58.0897 68.5C57.703 68.54 57.363 68.58 57.0697 68.62C56.5497 68.6867 56.0097 68.7933 55.4497 68.94C54.903 69.0733 54.403 69.2733 53.9497 69.54C53.5097 69.8067 53.1764 70.1667 52.9497 70.62H53.0297C53.2297 70.4067 53.4497 70.24 53.6897 70.12C53.9297 70 54.183 69.9133 54.4497 69.86C54.7297 69.8067 55.003 69.78 55.2697 69.78C55.9897 69.78 56.6097 69.9733 57.1297 70.36C57.663 70.7333 58.0497 71.26 58.2897 71.94H58.3697C58.623 71.2333 59.0364 70.7 59.6097 70.34C60.183 69.9667 60.9164 69.78 61.8097 69.78C62.7564 69.78 63.5564 70.0067 64.2097 70.46C64.8764 70.9 65.3764 71.5 65.7097 72.26C66.0564 73.02 66.2297 73.88 66.2297 74.84C66.2297 75.4533 66.1897 76.0467 66.1097 76.62C66.0297 77.18 65.903 77.74 65.7297 78.3C65.5697 78.8467 65.3697 79.4133 65.1297 80H62.0297C62.363 79.1867 62.623 78.3733 62.8097 77.56C62.9964 76.7333 63.0897 75.8467 63.0897 74.9C63.0897 74.42 63.0364 73.9667 62.9297 73.54C62.823 73.1133 62.643 72.7733 62.3897 72.52C62.1364 72.2533 61.7897 72.12 61.3497 72.12C60.9897 72.12 60.6964 72.2267 60.4697 72.44C60.243 72.64 60.0764 72.92 59.9697 73.28C59.863 73.64 59.8097 74.04 59.8097 74.48V76.92H56.8297V74.48C56.8297 73.96 56.7697 73.5267 56.6497 73.18C56.543 72.8333 56.3697 72.5733 56.1297 72.4C55.903 72.2133 55.6164 72.12 55.2697 72.12C54.6964 72.12 54.263 72.3467 53.9697 72.8C53.6897 73.2533 53.5497 73.9733 53.5497 74.96C53.5497 75.8533 53.643 76.7133 53.8297 77.54C54.0164 78.3533 54.2764 79.1733 54.6097 80H51.4897ZM73.132 80.2C71.9854 80.2 71.0054 80.0133 70.192 79.64C69.392 79.2667 68.7787 78.7667 68.352 78.14C67.9254 77.5 67.712 76.8067 67.712 76.06C67.712 75.7667 67.732 75.5133 67.772 75.3C67.812 75.0733 67.872 74.84 67.952 74.6H70.972C70.9187 74.8133 70.8787 75.0067 70.852 75.18C70.8387 75.3533 70.832 75.5333 70.832 75.72C70.832 76.32 71.0187 76.82 71.392 77.22C71.7787 77.6067 72.3654 77.8 73.152 77.8C73.6854 77.8 74.112 77.7067 74.432 77.52C74.7654 77.32 75.0054 77.06 75.152 76.74C75.312 76.42 75.392 76.0733 75.392 75.7C75.392 75.22 75.292 74.8333 75.092 74.54C74.892 74.2333 74.6187 74.0133 74.272 73.88C73.9254 73.7467 73.5254 73.68 73.072 73.68H72.312V71.3H73.132C73.812 71.3 74.2987 71.1267 74.592 70.78C74.8854 70.4333 75.032 70.02 75.032 69.54C75.032 69.22 74.9587 68.94 74.812 68.7C74.6654 68.46 74.452 68.2733 74.172 68.14C73.9054 68.0067 73.5854 67.94 73.212 67.94C72.8254 67.94 72.492 68.0067 72.212 68.14C71.932 68.26 71.7187 68.44 71.572 68.68C71.4254 68.9067 71.352 69.1867 71.352 69.52C71.352 69.6667 71.3587 69.8067 71.372 69.94C71.3854 70.06 71.4054 70.2067 71.432 70.38H68.412C68.3454 70.1667 68.2987 69.9733 68.272 69.8C68.2454 69.6133 68.232 69.4133 68.232 69.2C68.232 68.4533 68.4454 67.8067 68.872 67.26C69.312 66.7 69.9054 66.2733 70.652 65.98C71.412 65.6733 72.272 65.52 73.232 65.52C74.232 65.52 75.0987 65.6867 75.832 66.02C76.5787 66.3533 77.152 66.8067 77.552 67.38C77.9654 67.94 78.172 68.5867 78.172 69.32C78.172 70.16 77.952 70.8333 77.512 71.34C77.072 71.8467 76.4854 72.1933 75.752 72.38V72.44C76.232 72.52 76.6854 72.7 77.112 72.98C77.5387 73.26 77.8854 73.64 78.152 74.12C78.4187 74.6 78.552 75.18 78.552 75.86C78.552 76.6867 78.332 77.4267 77.892 78.08C77.4654 78.7333 76.8454 79.2533 76.032 79.64C75.232 80.0133 74.2654 80.2 73.132 80.2ZM81.5697 80C81.3697 79.3733 81.1897 78.7 81.0297 77.98C80.8697 77.26 80.743 76.4333 80.6497 75.5C80.5564 74.5533 80.5097 73.4467 80.5097 72.18C80.5097 70.5933 80.743 69.3133 81.2097 68.34C81.6764 67.3667 82.3097 66.6533 83.1097 66.2C83.923 65.7467 84.8364 65.52 85.8497 65.52C86.8764 65.52 87.7897 65.7467 88.5897 66.2C89.403 66.6533 90.043 67.3667 90.5097 68.34C90.9764 69.3133 91.2097 70.5933 91.2097 72.18C91.2097 73.4333 91.163 74.5333 91.0697 75.48C90.9764 76.4133 90.8497 77.2467 90.6897 77.98C90.543 78.7 90.363 79.3733 90.1497 80H87.0697C87.2564 79.3733 87.4164 78.68 87.5497 77.92C87.6964 77.16 87.8097 76.3067 87.8897 75.36C87.983 74.4 88.0297 73.32 88.0297 72.12C88.0297 71.12 87.943 70.3267 87.7697 69.74C87.6097 69.14 87.363 68.7067 87.0297 68.44C86.7097 68.1733 86.3164 68.04 85.8497 68.04C85.3964 68.04 85.003 68.1733 84.6697 68.44C84.3497 68.6933 84.103 69.12 83.9297 69.72C83.7564 70.32 83.6697 71.12 83.6697 72.12C83.6697 73.3333 83.7097 74.42 83.7897 75.38C83.883 76.3267 84.003 77.18 84.1497 77.94C84.3097 78.6867 84.4764 79.3733 84.6497 80H81.5697ZM98.8613 80.2C97.1679 80.2 95.8679 79.74 94.9613 78.82C94.0546 77.8867 93.6012 76.5933 93.6012 74.94V65.72H96.6213V75.14C96.6213 75.66 96.7013 76.1133 96.8613 76.5C97.0346 76.8733 97.2879 77.1667 97.6213 77.38C97.9546 77.58 98.3679 77.68 98.8613 77.68C99.3279 77.68 99.7146 77.58 100.021 77.38C100.341 77.18 100.575 76.92 100.721 76.6C100.881 76.2667 100.961 75.9067 100.961 75.52C100.961 74.92 100.855 74.42 100.641 74.02C100.441 73.6067 100.208 73.2133 99.9413 72.84C99.6613 72.44 99.4146 71.9933 99.2013 71.5C99.0013 71.0067 98.9413 70.4067 99.0213 69.7H102.161C102.148 70.1933 102.228 70.6067 102.401 70.94C102.575 71.2733 102.795 71.64 103.061 72.04C103.341 72.4533 103.588 72.9133 103.801 73.42C104.028 73.9267 104.141 74.5733 104.141 75.36C104.141 76.32 103.928 77.1667 103.501 77.9C103.075 78.62 102.461 79.1867 101.661 79.6C100.875 80 99.9413 80.2 98.8613 80.2ZM111.253 80.2C110.186 80.2 109.259 80.0067 108.473 79.62C107.686 79.2333 107.079 78.7 106.653 78.02C106.226 77.34 106.013 76.5733 106.013 75.72C106.013 75.4 106.033 75.0933 106.073 74.8C106.113 74.5067 106.179 74.22 106.273 73.94H109.353C109.299 74.1667 109.253 74.42 109.213 74.7C109.186 74.9667 109.173 75.2133 109.173 75.44C109.173 75.8533 109.246 76.2333 109.393 76.58C109.553 76.9133 109.793 77.18 110.113 77.38C110.433 77.58 110.826 77.68 111.293 77.68C111.813 77.68 112.226 77.5867 112.533 77.4C112.839 77.2 113.059 76.92 113.193 76.56C113.326 76.2 113.393 75.7867 113.393 75.32V69.98C113.393 69.3533 113.219 68.8733 112.873 68.54C112.539 68.2067 112.099 68.04 111.553 68.04C111.179 68.04 110.853 68.1067 110.573 68.24C110.293 68.3733 110.073 68.5733 109.913 68.84C109.766 69.1067 109.693 69.4333 109.693 69.82C109.693 69.98 109.699 70.1667 109.713 70.38C109.739 70.58 109.773 70.7933 109.813 71.02H106.733C106.679 70.7933 106.626 70.56 106.573 70.32C106.533 70.08 106.513 69.7933 106.513 69.46C106.513 68.6067 106.733 67.8933 107.173 67.32C107.613 66.7333 108.206 66.2867 108.953 65.98C109.713 65.6733 110.559 65.52 111.493 65.52C112.493 65.52 113.359 65.7 114.093 66.06C114.826 66.4067 115.393 66.9067 115.793 67.56C116.193 68.2133 116.393 68.9933 116.393 69.9V75.36C116.393 76.36 116.186 77.2267 115.773 77.96C115.373 78.68 114.793 79.2333 114.033 79.62C113.273 80.0067 112.346 80.2 111.253 80.2ZM124.051 80.2C123.304 80.2 122.604 80.08 121.951 79.84C121.311 79.6 120.744 79.2533 120.251 78.8C119.771 78.3333 119.391 77.7667 119.111 77.1C118.844 76.4333 118.711 75.6667 118.711 74.8C118.711 73.6667 118.938 72.7067 119.391 71.92C119.844 71.1333 120.471 70.5333 121.271 70.12C122.084 69.7067 123.031 69.5 124.111 69.5C125.111 69.5 126.011 69.7067 126.811 70.12C127.611 70.5333 128.244 71.1333 128.711 71.92C129.191 72.7067 129.431 73.6667 129.431 74.8C129.431 75.6667 129.298 76.44 129.031 77.12C128.778 77.7867 128.411 78.3533 127.931 78.82C127.464 79.2733 126.898 79.62 126.231 79.86C125.578 80.0867 124.851 80.2 124.051 80.2ZM124.091 77.68C124.558 77.68 124.951 77.5667 125.271 77.34C125.591 77.1 125.831 76.7667 125.991 76.34C126.164 75.9 126.251 75.3867 126.251 74.8C126.251 74.2267 126.164 73.7333 125.991 73.32C125.831 72.9067 125.584 72.5867 125.251 72.36C124.931 72.1333 124.538 72.02 124.071 72.02C123.378 72.02 122.838 72.2733 122.451 72.78C122.078 73.2733 121.891 73.9467 121.891 74.8C121.891 75.3867 121.978 75.9 122.151 76.34C122.324 76.7667 122.571 77.1 122.891 77.34C123.224 77.5667 123.624 77.68 124.091 77.68ZM125.651 70.06L122.751 69.86C122.884 69.7667 122.978 69.64 123.031 69.48C123.084 69.32 123.111 69.1667 123.111 69.02C123.111 68.78 123.031 68.5867 122.871 68.44C122.711 68.28 122.531 68.1333 122.331 68C122.144 67.88 121.958 67.7133 121.771 67.5C121.598 67.2867 121.458 67.0333 121.351 66.74C121.244 66.4333 121.218 66.0933 121.271 65.72H124.191C124.191 65.9733 124.271 66.1867 124.431 66.36C124.591 66.52 124.798 66.6933 125.051 66.88C125.344 67.08 125.591 67.3267 125.791 67.62C126.004 67.9133 126.111 68.26 126.111 68.66C126.111 68.9133 126.071 69.1533 125.991 69.38C125.911 69.5933 125.798 69.82 125.651 70.06ZM132.37 80C132.17 79.3733 131.99 78.7 131.83 77.98C131.67 77.26 131.544 76.4333 131.45 75.5C131.357 74.5533 131.31 73.4467 131.31 72.18C131.31 70.5933 131.544 69.3133 132.01 68.34C132.477 67.3667 133.11 66.6533 133.91 66.2C134.724 65.7467 135.637 65.52 136.65 65.52C137.677 65.52 138.59 65.7467 139.39 66.2C140.204 66.6533 140.844 67.3667 141.31 68.34C141.777 69.3133 142.01 70.5933 142.01 72.18C142.01 73.4333 141.964 74.5333 141.87 75.48C141.777 76.4133 141.65 77.2467 141.49 77.98C141.344 78.7 141.164 79.3733 140.95 80H137.87C138.057 79.3733 138.217 78.68 138.35 77.92C138.497 77.16 138.61 76.3067 138.69 75.36C138.784 74.4 138.83 73.32 138.83 72.12C138.83 71.12 138.744 70.3267 138.57 69.74C138.41 69.14 138.164 68.7067 137.83 68.44C137.51 68.1733 137.117 68.04 136.65 68.04C136.197 68.04 135.804 68.1733 135.47 68.44C135.15 68.6933 134.904 69.12 134.73 69.72C134.557 70.32 134.47 71.12 134.47 72.12C134.47 73.3333 134.51 74.42 134.59 75.38C134.684 76.3267 134.804 77.18 134.95 77.94C135.11 78.6867 135.277 79.3733 135.45 80H132.37Z" fill="white"/>
<path d="M28.688 111.16C27.9413 111.16 27.28 110.995 26.704 110.664C26.128 110.333 25.68 109.843 25.36 109.192C25.04 108.531 24.88 107.709 24.88 106.728C24.88 105.331 25.2 104.264 25.84 103.528C26.4907 102.792 27.3493 102.424 28.416 102.424C28.864 102.424 29.2533 102.483 29.584 102.6C29.9147 102.707 30.2027 102.856 30.448 103.048C30.6933 103.24 30.9013 103.453 31.072 103.688H31.168C31.1573 103.571 31.136 103.405 31.104 103.192C31.0827 102.968 31.072 102.771 31.072 102.6V101.864C31.072 101.469 30.9973 101.117 30.848 100.808C30.6987 100.499 30.4587 100.253 30.128 100.072C29.808 99.8907 29.3867 99.8 28.864 99.8C28.4587 99.8 28.1013 99.864 27.792 99.992C27.4827 100.109 27.2373 100.28 27.056 100.504C26.8853 100.717 26.8 100.968 26.8 101.256C26.8 101.32 26.8 101.384 26.8 101.448C26.8107 101.512 26.8213 101.576 26.832 101.64H25.472C25.44 101.533 25.4187 101.432 25.408 101.336C25.3973 101.24 25.392 101.149 25.392 101.064C25.392 100.595 25.5467 100.184 25.856 99.832C26.1653 99.4693 26.5813 99.1867 27.104 98.984C27.6373 98.7813 28.224 98.68 28.864 98.68C29.6213 98.68 30.2667 98.8187 30.8 99.096C31.344 99.3733 31.76 99.7627 32.048 100.264C32.336 100.755 32.48 101.331 32.48 101.992V106.728C32.48 108.2 32.1547 109.309 31.504 110.056C30.8533 110.792 29.9147 111.16 28.688 111.16ZM28.688 109.992C29.5627 109.992 30.1813 109.72 30.544 109.176C30.9067 108.632 31.088 107.907 31.088 107V106.744C31.088 105.763 30.912 104.995 30.56 104.44C30.208 103.875 29.5573 103.592 28.608 103.592C27.8507 103.592 27.28 103.885 26.896 104.472C26.5227 105.059 26.336 105.821 26.336 106.76C26.336 107.784 26.528 108.579 26.912 109.144C27.296 109.709 27.888 109.992 28.688 109.992ZM35.5435 111C35.3302 110.499 35.1488 110.019 34.9995 109.56C34.8502 109.101 34.7382 108.632 34.6635 108.152C34.5995 107.661 34.5675 107.139 34.5675 106.584C34.5675 105.72 34.6902 104.968 34.9355 104.328C35.1808 103.677 35.5435 103.171 36.0235 102.808C36.5035 102.445 37.1008 102.264 37.8155 102.264C38.4128 102.264 38.8928 102.403 39.2555 102.68C39.6288 102.947 39.9008 103.315 40.0715 103.784H40.1515C40.3328 103.315 40.6155 102.947 40.9995 102.68C41.3835 102.403 41.8582 102.264 42.4235 102.264C43.1382 102.264 43.7355 102.445 44.2155 102.808C44.6955 103.171 45.0582 103.677 45.3035 104.328C45.5488 104.968 45.6715 105.72 45.6715 106.584C45.6715 107.139 45.6342 107.661 45.5595 108.152C45.4955 108.632 45.3888 109.101 45.2395 109.56C45.1008 110.019 44.9195 110.499 44.6955 111H43.2555C43.5968 110.243 43.8422 109.528 43.9915 108.856C44.1515 108.173 44.2315 107.411 44.2315 106.568C44.2315 105.875 44.1568 105.299 44.0075 104.84C43.8582 104.371 43.6395 104.019 43.3515 103.784C43.0742 103.549 42.7275 103.432 42.3115 103.432C41.8315 103.432 41.4582 103.613 41.1915 103.976C40.9248 104.339 40.7915 104.851 40.7915 105.512V108.088H39.4475V105.512C39.4475 104.915 39.3248 104.419 39.0795 104.024C38.8342 103.629 38.4448 103.432 37.9115 103.432C37.3035 103.432 36.8342 103.699 36.5035 104.232C36.1728 104.755 36.0075 105.533 36.0075 106.568C36.0075 107.133 36.0395 107.656 36.1035 108.136C36.1782 108.616 36.2848 109.091 36.4235 109.56C36.5728 110.019 36.7595 110.499 36.9835 111H35.5435ZM50.9629 115C50.2375 115 49.5922 114.845 49.0269 114.536C48.4722 114.237 48.0402 113.827 47.7309 113.304C47.4215 112.781 47.2669 112.189 47.2669 111.528C47.2669 111.219 47.2935 110.931 47.3469 110.664C47.4109 110.387 47.4802 110.157 47.5549 109.976H48.8989C48.8455 110.147 48.7922 110.371 48.7389 110.648C48.6962 110.915 48.6749 111.165 48.6749 111.4C48.6749 111.816 48.7549 112.205 48.9149 112.568C49.0855 112.941 49.3415 113.245 49.6829 113.48C50.0242 113.715 50.4509 113.832 50.9629 113.832C51.5069 113.832 51.9549 113.709 52.3069 113.464C52.6589 113.229 52.9202 112.909 53.0909 112.504C53.2615 112.099 53.3469 111.651 53.3469 111.16C53.3469 110.627 53.2509 110.152 53.0589 109.736C52.8669 109.309 52.5842 108.973 52.2109 108.728C51.8375 108.472 51.3789 108.344 50.8349 108.344H50.2109V107.176H50.9469C51.4589 107.176 51.8695 107.085 52.1789 106.904C52.4882 106.712 52.7122 106.472 52.8509 106.184C53.0002 105.896 53.0749 105.603 53.0749 105.304C53.0749 104.963 53.0002 104.653 52.8509 104.376C52.7015 104.088 52.4882 103.859 52.2109 103.688C51.9335 103.517 51.6029 103.432 51.2189 103.432V102.264C51.8375 102.264 52.3922 102.397 52.8829 102.664C53.3735 102.92 53.7629 103.267 54.0509 103.704C54.3389 104.131 54.4829 104.6 54.4829 105.112C54.4829 105.773 54.2749 106.339 53.8589 106.808C53.4535 107.267 52.9149 107.571 52.2429 107.72V107.784C52.6909 107.848 53.1069 108.019 53.4909 108.296C53.8855 108.563 54.2002 108.941 54.4349 109.432C54.6802 109.912 54.8029 110.509 54.8029 111.224C54.8029 111.981 54.6429 112.643 54.3229 113.208C54.0029 113.784 53.5549 114.227 52.9789 114.536C52.4135 114.845 51.7415 115 50.9629 115ZM66.7774 115C66.532 114.595 66.2334 114.237 65.8814 113.928C65.54 113.629 65.1614 113.379 64.7454 113.176C64.34 112.973 63.908 112.819 63.4494 112.712C62.9907 112.605 62.5214 112.552 62.0414 112.552C61.5187 112.552 61.0067 112.621 60.5054 112.76C60.004 112.909 59.5187 113.117 59.0494 113.384L58.4894 112.36C58.7134 112.253 58.9427 112.152 59.1774 112.056C59.4227 111.971 59.6734 111.896 59.9294 111.832C60.1854 111.779 60.436 111.747 60.6814 111.736V111.688C60.1054 111.507 59.5614 111.267 59.0494 110.968C58.548 110.669 58.1054 110.301 57.7214 109.864C57.3374 109.427 57.0334 108.915 56.8094 108.328C56.596 107.741 56.4894 107.064 56.4894 106.296C56.4894 105.485 56.6067 104.781 56.8414 104.184C57.0867 103.576 57.444 103.107 57.9134 102.776C58.3934 102.435 58.9747 102.264 59.6574 102.264C60.2547 102.264 60.7347 102.403 61.0974 102.68C61.4707 102.947 61.7427 103.315 61.9134 103.784H61.9934C62.1747 103.315 62.4574 102.947 62.8414 102.68C63.236 102.403 63.7267 102.264 64.3134 102.264C64.9427 102.264 65.444 102.403 65.8174 102.68C66.1907 102.947 66.4627 103.315 66.6334 103.784H66.7134C66.8947 103.315 67.1774 102.947 67.5614 102.68C67.9454 102.403 68.42 102.264 68.9854 102.264C69.6787 102.264 70.26 102.445 70.7294 102.808C71.1987 103.171 71.5507 103.677 71.7854 104.328C72.0307 104.968 72.1534 105.72 72.1534 106.584C72.1534 107.267 72.0787 107.901 71.9294 108.488C71.7907 109.075 71.572 109.651 71.2734 110.216L70.0574 109.768C70.3027 109.245 70.4734 108.739 70.5694 108.248C70.6654 107.747 70.7134 107.187 70.7134 106.568C70.7134 105.533 70.548 104.755 70.2174 104.232C69.8974 103.699 69.4494 103.432 68.8734 103.432C68.3934 103.432 68.02 103.613 67.7534 103.976C67.4867 104.339 67.3534 104.851 67.3534 105.512V108.088H66.0094V105.512C66.0094 104.915 65.876 104.419 65.6094 104.024C65.3534 103.629 64.9214 103.432 64.3134 103.432C63.7587 103.432 63.3374 103.613 63.0494 103.976C62.772 104.339 62.6334 104.851 62.6334 105.512V108.088H61.2894V105.512C61.2894 104.915 61.1667 104.419 60.9214 104.024C60.676 103.629 60.2867 103.432 59.7534 103.432C59.188 103.432 58.74 103.667 58.4094 104.136C58.0894 104.605 57.9294 105.325 57.9294 106.296C57.9294 107.043 58.0467 107.693 58.2814 108.248C58.5267 108.792 58.8574 109.256 59.2734 109.64C59.6894 110.024 60.1587 110.339 60.6814 110.584C61.2147 110.819 61.7694 111 62.3454 111.128C63.0707 111.277 63.7907 111.48 64.5054 111.736C65.2307 112.003 65.8867 112.349 66.4734 112.776C67.0707 113.213 67.5294 113.763 67.8494 114.424L66.7774 115ZM77.371 115C76.827 115 76.3257 114.909 75.867 114.728C75.419 114.557 75.0297 114.301 74.699 113.96C74.3683 113.629 74.1123 113.229 73.931 112.76C73.7603 112.301 73.675 111.784 73.675 111.208C73.675 110.899 73.7017 110.611 73.755 110.344C73.819 110.067 73.8883 109.837 73.963 109.656H75.307C75.2537 109.827 75.2003 110.051 75.147 110.328C75.1043 110.595 75.083 110.845 75.083 111.08C75.083 111.603 75.163 112.072 75.323 112.488C75.4937 112.904 75.7497 113.229 76.091 113.464C76.4323 113.709 76.859 113.832 77.371 113.832C77.9257 113.832 78.3683 113.709 78.699 113.464C79.0403 113.219 79.2857 112.872 79.435 112.424C79.595 111.976 79.675 111.448 79.675 110.84V105.976C79.675 105.165 79.5097 104.541 79.179 104.104C78.8483 103.656 78.3363 103.432 77.643 103.432C77.227 103.432 76.859 103.512 76.539 103.672C76.2297 103.832 75.9843 104.067 75.803 104.376C75.6323 104.675 75.547 105.053 75.547 105.512C75.547 105.747 75.5577 105.971 75.579 106.184C75.611 106.387 75.6483 106.563 75.691 106.712H74.347C74.3043 106.584 74.2563 106.413 74.203 106.2C74.1603 105.976 74.139 105.747 74.139 105.512C74.139 104.797 74.2937 104.2 74.603 103.72C74.923 103.24 75.3443 102.877 75.867 102.632C76.4003 102.387 76.9923 102.264 77.643 102.264C78.3363 102.264 78.939 102.408 79.451 102.696C79.9737 102.984 80.3737 103.4 80.651 103.944C80.939 104.477 81.083 105.133 81.083 105.912V110.904C81.083 111.768 80.9337 112.504 80.635 113.112C80.347 113.731 79.9257 114.2 79.371 114.52C78.827 114.84 78.1603 115 77.371 115ZM90.7895 111.16C90.1282 111.16 89.5255 111.037 88.9815 110.792C88.4482 110.547 88.0215 110.184 87.7015 109.704C87.3922 109.224 87.2375 108.627 87.2375 107.912C87.2375 107.677 87.2588 107.453 87.3015 107.24C87.3548 107.016 87.4028 106.84 87.4455 106.712H88.7895C88.7468 106.851 88.7095 107.027 88.6775 107.24C88.6562 107.443 88.6455 107.667 88.6455 107.912C88.6455 108.36 88.7308 108.739 88.9015 109.048C89.0828 109.357 89.3335 109.592 89.6535 109.752C89.9842 109.912 90.3628 109.992 90.7895 109.992C91.2268 109.992 91.6002 109.912 91.9095 109.752C92.2188 109.592 92.4588 109.352 92.6295 109.032C92.8002 108.712 92.8855 108.312 92.8855 107.832C92.8855 107.277 92.7682 106.829 92.5335 106.488C92.2988 106.136 92.0268 105.811 91.7175 105.512C91.4615 105.256 91.2055 104.989 90.9495 104.712C90.7042 104.424 90.4962 104.099 90.3255 103.736C90.1548 103.363 90.0695 102.925 90.0695 102.424H91.4775C91.4775 102.883 91.6002 103.288 91.8455 103.64C92.1015 103.981 92.3948 104.317 92.7255 104.648C92.9922 104.904 93.2482 105.181 93.4935 105.48C93.7388 105.779 93.9415 106.12 94.1015 106.504C94.2615 106.877 94.3415 107.32 94.3415 107.832C94.3415 108.493 94.1868 109.075 93.8775 109.576C93.5682 110.077 93.1468 110.467 92.6135 110.744C92.0802 111.021 91.4722 111.16 90.7895 111.16ZM103.507 115C103.272 114.552 102.973 114.163 102.611 113.832C102.259 113.501 101.875 113.245 101.459 113.064C101.053 112.893 100.643 112.808 100.227 112.808C99.7788 112.808 99.3734 112.856 99.0108 112.952C98.6481 113.048 98.2481 113.197 97.8108 113.4L97.3307 112.408C97.5761 112.291 97.8588 112.184 98.1788 112.088C98.5094 111.992 98.9254 111.933 99.4268 111.912V111.864C98.3174 111.341 97.4854 110.648 96.9308 109.784C96.3761 108.909 96.0988 107.853 96.0988 106.616C96.0988 105.741 96.2214 104.979 96.4668 104.328C96.7121 103.677 97.0748 103.171 97.5548 102.808C98.0348 102.445 98.6321 102.264 99.3468 102.264C99.9441 102.264 100.424 102.403 100.787 102.68C101.16 102.947 101.432 103.315 101.603 103.784H101.683C101.864 103.315 102.147 102.947 102.531 102.68C102.915 102.403 103.389 102.264 103.955 102.264C104.669 102.264 105.267 102.445 105.747 102.808C106.227 103.171 106.589 103.677 106.835 104.328C107.08 104.968 107.203 105.72 107.203 106.584C107.203 107.267 107.128 107.901 106.979 108.488C106.84 109.075 106.621 109.651 106.323 110.216L105.107 109.768C105.352 109.245 105.523 108.739 105.619 108.248C105.715 107.747 105.763 107.187 105.763 106.568C105.763 105.875 105.688 105.299 105.539 104.84C105.389 104.371 105.171 104.019 104.883 103.784C104.605 103.549 104.259 103.432 103.843 103.432C103.363 103.432 102.989 103.613 102.723 103.976C102.456 104.339 102.323 104.851 102.323 105.512V108.088H100.979V105.512C100.979 104.915 100.856 104.419 100.611 104.024C100.365 103.629 99.9761 103.432 99.4427 103.432C98.8348 103.432 98.3654 103.699 98.0348 104.232C97.7041 104.755 97.5388 105.539 97.5388 106.584C97.5388 107.299 97.6241 107.923 97.7948 108.456C97.9654 108.979 98.2001 109.432 98.4988 109.816C98.8081 110.189 99.1654 110.509 99.5708 110.776C99.9761 111.043 100.408 111.277 100.867 111.48C101.485 111.747 102.024 112.003 102.483 112.248C102.941 112.504 103.336 112.797 103.667 113.128C104.008 113.469 104.312 113.901 104.579 114.424L103.507 115ZM113.07 111.16C112.259 111.16 111.571 111 111.006 110.68C110.441 110.349 110.009 109.869 109.71 109.24C109.422 108.6 109.278 107.816 109.278 106.888V101.352C109.278 100.744 109.395 100.243 109.63 99.848C109.865 99.4533 110.174 99.16 110.558 98.968C110.953 98.776 111.379 98.68 111.838 98.68C112.211 98.68 112.585 98.7547 112.958 98.904C113.331 99.0533 113.619 99.368 113.822 99.848H113.87C114.073 99.368 114.334 99.0533 114.654 98.904C114.974 98.7547 115.299 98.68 115.63 98.68C115.939 98.68 116.217 98.712 116.462 98.776C116.707 98.84 116.931 98.9147 117.134 99L116.782 100.072C116.611 100.019 116.43 99.9653 116.238 99.912C116.046 99.8587 115.849 99.832 115.646 99.832C115.358 99.832 115.097 99.928 114.862 100.12C114.638 100.301 114.526 100.573 114.526 100.936V101.704H113.166V100.936C113.166 100.595 113.054 100.323 112.83 100.12C112.606 99.9067 112.313 99.8 111.95 99.8C111.694 99.8 111.47 99.864 111.278 99.992C111.086 100.109 110.937 100.285 110.83 100.52C110.734 100.755 110.686 101.043 110.686 101.384V102.92C110.686 103.091 110.675 103.288 110.654 103.512C110.633 103.725 110.611 103.891 110.59 104.008H110.686C110.867 103.773 111.075 103.56 111.31 103.368C111.555 103.176 111.843 103.027 112.174 102.92C112.515 102.803 112.905 102.744 113.342 102.744C114.057 102.744 114.675 102.909 115.198 103.24C115.731 103.56 116.142 104.029 116.43 104.648C116.729 105.267 116.878 106.013 116.878 106.888C116.878 107.816 116.718 108.6 116.398 109.24C116.078 109.869 115.63 110.349 115.054 110.68C114.489 111 113.827 111.16 113.07 111.16ZM113.07 109.992C113.603 109.992 114.041 109.869 114.382 109.624C114.734 109.368 114.995 109.011 115.166 108.552C115.337 108.093 115.422 107.549 115.422 106.92C115.422 106.344 115.337 105.832 115.166 105.384C115.006 104.925 114.755 104.568 114.414 104.312C114.083 104.045 113.662 103.912 113.15 103.912C112.521 103.912 112.025 104.035 111.662 104.28C111.299 104.525 111.043 104.872 110.894 105.32C110.745 105.768 110.67 106.296 110.67 106.904V107.16C110.67 107.981 110.851 108.659 111.214 109.192C111.577 109.725 112.195 109.992 113.07 109.992ZM121.949 115C121.405 115 120.904 114.909 120.445 114.728C119.997 114.557 119.608 114.301 119.277 113.96C118.946 113.629 118.69 113.229 118.509 112.76C118.338 112.301 118.253 111.784 118.253 111.208C118.253 110.899 118.28 110.611 118.333 110.344C118.397 110.067 118.466 109.837 118.541 109.656H119.885C119.832 109.827 119.778 110.051 119.725 110.328C119.682 110.595 119.661 110.845 119.661 111.08C119.661 111.603 119.741 112.072 119.901 112.488C120.072 112.904 120.328 113.229 120.669 113.464C121.01 113.709 121.437 113.832 121.949 113.832C122.504 113.832 122.946 113.709 123.277 113.464C123.618 113.219 123.864 112.872 124.013 112.424C124.173 111.976 124.253 111.448 124.253 110.84V105.976C124.253 105.165 124.088 104.541 123.757 104.104C123.426 103.656 122.914 103.432 122.221 103.432C121.805 103.432 121.437 103.512 121.117 103.672C120.808 103.832 120.562 104.067 120.381 104.376C120.21 104.675 120.125 105.053 120.125 105.512C120.125 105.747 120.136 105.971 120.157 106.184C120.189 106.387 120.226 106.563 120.269 106.712H118.925C118.882 106.584 118.834 106.413 118.781 106.2C118.738 105.976 118.717 105.747 118.717 105.512C118.717 104.797 118.872 104.2 119.181 103.72C119.501 103.24 119.922 102.877 120.445 102.632C120.978 102.387 121.57 102.264 122.221 102.264C122.914 102.264 123.517 102.408 124.029 102.696C124.552 102.984 124.952 103.4 125.229 103.944C125.517 104.477 125.661 105.133 125.661 105.912V110.904C125.661 111.768 125.512 112.504 125.213 113.112C124.925 113.731 124.504 114.2 123.949 114.52C123.405 114.84 122.738 115 121.949 115ZM128.683 111C128.47 110.499 128.289 110.019 128.139 109.56C128.001 109.101 127.899 108.632 127.835 108.152C127.771 107.661 127.739 107.139 127.739 106.584V105.976C127.739 104.653 127.894 103.539 128.203 102.632C128.513 101.715 128.982 100.989 129.611 100.456C130.241 99.912 131.03 99.5387 131.979 99.336C132.577 99.208 133.174 99.0907 133.771 98.984C134.369 98.8773 134.955 98.776 135.531 98.68L135.771 99.912C135.494 99.9547 135.19 100.003 134.859 100.056C134.539 100.099 134.219 100.147 133.899 100.2C133.579 100.253 133.275 100.307 132.987 100.36C132.71 100.403 132.465 100.451 132.251 100.504C131.814 100.6 131.387 100.749 130.971 100.952C130.555 101.144 130.182 101.427 129.851 101.8C129.531 102.173 129.27 102.685 129.067 103.336H129.115C129.329 103.037 129.537 102.813 129.739 102.664C129.953 102.504 130.166 102.397 130.379 102.344C130.603 102.291 130.827 102.264 131.051 102.264C131.595 102.264 132.049 102.403 132.411 102.68C132.774 102.947 133.041 103.315 133.211 103.784H133.291C133.473 103.315 133.755 102.947 134.139 102.68C134.523 102.403 134.998 102.264 135.563 102.264C136.278 102.264 136.875 102.445 137.355 102.808C137.835 103.171 138.198 103.677 138.443 104.328C138.689 104.968 138.811 105.72 138.811 106.584C138.811 107.139 138.774 107.661 138.699 108.152C138.635 108.632 138.529 109.101 138.379 109.56C138.241 110.019 138.059 110.499 137.835 111H136.395C136.737 110.243 136.982 109.528 137.131 108.856C137.291 108.173 137.371 107.411 137.371 106.568C137.371 105.875 137.297 105.299 137.147 104.84C136.998 104.371 136.779 104.019 136.491 103.784C136.214 103.549 135.867 103.432 135.451 103.432C134.971 103.432 134.598 103.613 134.331 103.976C134.065 104.339 133.931 104.851 133.931 105.512V108.088H132.587V105.512C132.587 104.915 132.465 104.419 132.219 104.024C131.974 103.629 131.585 103.432 131.051 103.432C130.443 103.432 129.974 103.699 129.643 104.232C129.313 104.755 129.147 105.533 129.147 106.568C129.147 107.133 129.179 107.656 129.243 108.136C129.318 108.616 129.425 109.091 129.563 109.56C129.713 110.019 129.899 110.499 130.123 111H128.683ZM144.04 111.16C143.378 111.16 142.776 111.037 142.232 110.792C141.698 110.547 141.272 110.184 140.952 109.704C140.642 109.224 140.488 108.627 140.488 107.912C140.488 107.677 140.509 107.453 140.552 107.24C140.605 107.016 140.653 106.84 140.696 106.712H142.039C141.997 106.851 141.96 107.027 141.928 107.24C141.906 107.443 141.896 107.667 141.896 107.912C141.896 108.36 141.981 108.739 142.152 109.048C142.333 109.357 142.584 109.592 142.904 109.752C143.234 109.912 143.613 109.992 144.04 109.992C144.477 109.992 144.85 109.912 145.16 109.752C145.469 109.592 145.709 109.352 145.88 109.032C146.05 108.712 146.136 108.312 146.136 107.832C146.136 107.277 146.018 106.829 145.784 106.488C145.549 106.136 145.277 105.811 144.968 105.512C144.712 105.256 144.456 104.989 144.2 104.712C143.954 104.424 143.746 104.099 143.576 103.736C143.405 103.363 143.32 102.925 143.32 102.424H144.728C144.728 102.883 144.85 103.288 145.096 103.64C145.352 103.981 145.645 104.317 145.976 104.648C146.242 104.904 146.498 105.181 146.744 105.48C146.989 105.779 147.192 106.12 147.352 106.504C147.512 106.877 147.592 107.32 147.592 107.832C147.592 108.493 147.437 109.075 147.128 109.576C146.818 110.077 146.397 110.467 145.864 110.744C145.33 111.021 144.722 111.16 144.04 111.16Z" fill="white"/>
<g style="mix-blend-mode:soft-light">
<g style="mix-blend-mode:lighten">
<ellipse cx="316.156" cy="138.652" rx="19.0817" ry="19.5142" fill="url(#paint1_linear_2_259)"/>
</g>
<g style="mix-blend-mode:lighten">
<path d="M362.709 215.774C362.709 209.522 361.505 203.331 359.165 197.555C356.826 191.779 353.397 186.531 349.074 182.11C344.751 177.69 339.619 174.183 333.971 171.79C328.323 169.398 322.27 168.166 316.156 168.166C310.043 168.166 303.989 169.398 298.341 171.79C292.693 174.183 287.561 177.69 283.238 182.11C278.916 186.531 275.487 191.779 273.147 197.555C270.808 203.331 269.604 209.522 269.604 215.774L362.709 215.774Z" fill="url(#paint2_linear_2_259)"/>
</g>
</g>
<g style="mix-blend-mode:lighten">
<ellipse cx="259.245" cy="136.495" rx="33.6158" ry="34.3777" fill="url(#paint3_linear_2_259)"/>
</g>
<g style="mix-blend-mode:lighten">
<path d="M341.255 266.294C341.255 255.28 339.134 244.374 335.013 234.199C330.891 224.023 324.85 214.777 317.235 206.989C309.619 199.201 300.579 193.024 290.629 188.809C280.679 184.594 270.014 182.425 259.244 182.425C248.475 182.425 237.81 184.594 227.86 188.809C217.91 193.024 208.87 199.201 201.254 206.989C193.639 214.777 187.598 224.023 183.476 234.199C179.355 244.374 177.234 255.28 177.234 266.294L341.255 266.294Z" fill="url(#paint4_linear_2_259)"/>
</g>
</g>
<defs>
<linearGradient id="paint0_linear_2_259" x1="254.058" y1="-43.1845" x2="77.1521" y2="329.486" gradientUnits="userSpaceOnUse">
<stop stop-color="#ED5B2A"/>
<stop offset="1" stop-color="#892303"/>
</linearGradient>
<linearGradient id="paint1_linear_2_259" x1="316.156" y1="119.138" x2="316.156" y2="158.166" gradientUnits="userSpaceOnUse">
<stop stop-color="white"/>
<stop offset="1" stop-color="white" stop-opacity="0"/>
</linearGradient>
<linearGradient id="paint2_linear_2_259" x1="316.156" y1="168.166" x2="316.156" y2="215.774" gradientUnits="userSpaceOnUse">
<stop stop-color="white"/>
<stop offset="1" stop-color="white" stop-opacity="0"/>
</linearGradient>
<linearGradient id="paint3_linear_2_259" x1="176.588" y1="85.3328" x2="304.84" y2="183.604" gradientUnits="userSpaceOnUse">
<stop stop-color="white"/>
<stop offset="1" stop-color="white" stop-opacity="0"/>
</linearGradient>
<linearGradient id="paint4_linear_2_259" x1="138.858" y1="155.957" x2="360.603" y2="289.601" gradientUnits="userSpaceOnUse">
<stop stop-color="white"/>
<stop offset="1" stop-color="white" stop-opacity="0"/>
</linearGradient>
<clipPath id="clip0_2_259">
<rect width="344" height="259" rx="18" fill="white"/>
</clipPath>
</defs>
</svg>
