<svg width="344" height="259" viewBox="0 0 344 259" fill="none" xmlns="http://www.w3.org/2000/svg">
<g clip-path="url(#clip0_2_270)">
<rect width="344" height="259" rx="18" fill="url(#paint0_linear_2_270)"/>
<path d="M30.58 53.2C28.8867 53.2 27.5867 52.74 26.68 51.82C25.7733 50.8867 25.32 49.5933 25.32 47.94V38.72H28.34V48.14C28.34 48.66 28.42 49.1133 28.58 49.5C28.7533 49.8733 29.0067 50.1667 29.34 50.38C29.6733 50.58 30.0867 50.68 30.58 50.68C31.0467 50.68 31.4333 50.58 31.74 50.38C32.06 50.18 32.2933 49.92 32.44 49.6C32.6 49.2667 32.68 48.9067 32.68 48.52C32.68 47.92 32.5733 47.42 32.36 47.02C32.16 46.6067 31.9267 46.2133 31.66 45.84C31.38 45.44 31.1333 44.9933 30.92 44.5C30.72 44.0067 30.66 43.4067 30.74 42.7H33.88C33.8667 43.1933 33.9467 43.6067 34.12 43.94C34.2933 44.2733 34.5133 44.64 34.78 45.04C35.06 45.4533 35.3067 45.9133 35.52 46.42C35.7467 46.9267 35.86 47.5733 35.86 48.36C35.86 49.32 35.6467 50.1667 35.22 50.9C34.7933 51.62 34.18 52.1867 33.38 52.6C32.5933 53 31.66 53.2 30.58 53.2ZM42.9916 53.2C41.9116 53.2 40.9782 53.0067 40.1916 52.62C39.4049 52.2333 38.7982 51.68 38.3716 50.96C37.9449 50.24 37.7316 49.3867 37.7316 48.4C37.7316 47.9733 37.7649 47.5467 37.8316 47.12C37.8982 46.6933 38.0649 46.1533 38.3316 45.5L36.7116 45.96H42.5116L41.3716 45.58C41.1582 46.14 41.0249 46.6467 40.9716 47.1C40.9182 47.5533 40.8916 47.9267 40.8916 48.22C40.8916 48.9267 41.0649 49.5133 41.4116 49.98C41.7582 50.4467 42.2849 50.68 42.9916 50.68C43.4982 50.68 43.9049 50.5733 44.2116 50.36C44.5182 50.1333 44.7382 49.8267 44.8716 49.44C45.0182 49.0533 45.0916 48.6133 45.0916 48.12C45.0916 47.5467 45.0116 47.0267 44.8516 46.56C44.6916 46.0933 44.4849 45.66 44.2316 45.26C43.9916 44.8467 43.7249 44.46 43.4316 44.1C43.0182 43.5533 42.6316 43.0267 42.2716 42.52C41.9249 42 41.6649 41.44 41.4916 40.84C41.3182 40.2267 41.2849 39.52 41.3916 38.72H44.4916C44.4382 39.2267 44.4849 39.7 44.6316 40.14C44.7782 40.58 44.9916 41.0067 45.2716 41.42C45.5649 41.82 45.8716 42.24 46.1916 42.68C46.5249 43.12 46.8516 43.6 47.1716 44.12C47.4916 44.6267 47.7516 45.2 47.9516 45.84C48.1649 46.48 48.2716 47.2133 48.2716 48.04C48.2716 49.08 48.0582 49.9867 47.6316 50.76C47.2182 51.5333 46.6182 52.1333 45.8316 52.56C45.0449 52.9867 44.0982 53.2 42.9916 53.2ZM55.4134 53.2C54.3334 53.2 53.4001 53.0067 52.6134 52.62C51.8268 52.2333 51.2201 51.68 50.7934 50.96C50.3668 50.24 50.1534 49.3867 50.1534 48.4C50.1534 47.9733 50.1868 47.5467 50.2534 47.12C50.3201 46.6933 50.4868 46.1533 50.7534 45.5L49.1334 45.96H54.9334L53.7934 45.58C53.5801 46.14 53.4468 46.6467 53.3934 47.1C53.3401 47.5533 53.3134 47.9267 53.3134 48.22C53.3134 48.9267 53.4868 49.5133 53.8334 49.98C54.1801 50.4467 54.7068 50.68 55.4134 50.68C55.9201 50.68 56.3268 50.5733 56.6334 50.36C56.9401 50.1333 57.1601 49.8267 57.2934 49.44C57.4401 49.0533 57.5134 48.6133 57.5134 48.12C57.5134 47.5467 57.4334 47.0267 57.2734 46.56C57.1134 46.0933 56.9068 45.66 56.6534 45.26C56.4134 44.8467 56.1468 44.46 55.8534 44.1C55.4401 43.5533 55.0534 43.0267 54.6934 42.52C54.3468 42 54.0868 41.44 53.9134 40.84C53.7401 40.2267 53.7068 39.52 53.8134 38.72H56.9134C56.8601 39.2267 56.9068 39.7 57.0534 40.14C57.2001 40.58 57.4134 41.0067 57.6934 41.42C57.9868 41.82 58.2934 42.24 58.6134 42.68C58.9468 43.12 59.2734 43.6 59.5934 44.12C59.9134 44.6267 60.1734 45.2 60.3734 45.84C60.5868 46.48 60.6934 47.2133 60.6934 48.04C60.6934 49.08 60.4801 49.9867 60.0534 50.76C59.6401 51.5333 59.0401 52.1333 58.2534 52.56C57.4668 52.9867 56.5201 53.2 55.4134 53.2ZM63.7553 53C63.502 52.3067 63.2953 51.66 63.1353 51.06C62.9886 50.4467 62.8753 49.8333 62.7953 49.22C62.7286 48.5933 62.6953 47.92 62.6953 47.2C62.6953 46.04 62.802 45 63.0153 44.08C63.2286 43.16 63.5753 42.3667 64.0553 41.7C64.5486 41.02 65.2086 40.4667 66.0353 40.04C66.862 39.6 67.8953 39.2867 69.1353 39.1C69.562 39.0333 70.0153 38.9667 70.4953 38.9C70.9886 38.8333 71.5153 38.7667 72.0753 38.7C72.6486 38.6333 73.262 38.5667 73.9153 38.5L74.2553 41.04C73.8286 41.0933 73.3886 41.1467 72.9353 41.2C72.482 41.24 72.0353 41.2867 71.5953 41.34C71.1553 41.3933 70.742 41.4467 70.3553 41.5C69.9686 41.54 69.6286 41.58 69.3353 41.62C68.8153 41.6867 68.2753 41.7933 67.7153 41.94C67.1686 42.0733 66.6686 42.2733 66.2153 42.54C65.7753 42.8067 65.442 43.1667 65.2153 43.62H65.2953C65.4953 43.4067 65.7153 43.24 65.9553 43.12C66.1953 43 66.4486 42.9133 66.7153 42.86C66.9953 42.8067 67.2686 42.78 67.5353 42.78C68.2553 42.78 68.8753 42.9733 69.3953 43.36C69.9286 43.7333 70.3153 44.26 70.5553 44.94H70.6353C70.8886 44.2333 71.302 43.7 71.8753 43.34C72.4486 42.9667 73.182 42.78 74.0753 42.78C75.022 42.78 75.822 43.0067 76.4753 43.46C77.142 43.9 77.642 44.5 77.9753 45.26C78.322 46.02 78.4953 46.88 78.4953 47.84C78.4953 48.4533 78.4553 49.0467 78.3753 49.62C78.2953 50.18 78.1686 50.74 77.9953 51.3C77.8353 51.8467 77.6353 52.4133 77.3953 53H74.2953C74.6286 52.1867 74.8886 51.3733 75.0753 50.56C75.262 49.7333 75.3553 48.8467 75.3553 47.9C75.3553 47.42 75.302 46.9667 75.1953 46.54C75.0886 46.1133 74.9086 45.7733 74.6553 45.52C74.402 45.2533 74.0553 45.12 73.6153 45.12C73.2553 45.12 72.962 45.2267 72.7353 45.44C72.5086 45.64 72.342 45.92 72.2353 46.28C72.1286 46.64 72.0753 47.04 72.0753 47.48V49.92H69.0953V47.48C69.0953 46.96 69.0353 46.5267 68.9153 46.18C68.8086 45.8333 68.6353 45.5733 68.3953 45.4C68.1686 45.2133 67.882 45.12 67.5353 45.12C66.962 45.12 66.5286 45.3467 66.2353 45.8C65.9553 46.2533 65.8153 46.9733 65.8153 47.96C65.8153 48.8533 65.9086 49.7133 66.0953 50.54C66.282 51.3533 66.542 52.1733 66.8753 53H63.7553ZM85.6083 53.2C84.5283 53.2 83.5949 53.0133 82.8083 52.64C82.0216 52.2667 81.4149 51.7667 80.9883 51.14C80.5749 50.5 80.3683 49.8067 80.3683 49.06C80.3683 48.7667 80.3883 48.5133 80.4283 48.3C80.4683 48.0733 80.5283 47.84 80.6083 47.6H83.6283C83.5749 47.8133 83.5349 48.0067 83.5083 48.18C83.4949 48.3533 83.4883 48.5333 83.4883 48.72C83.4883 49.32 83.6683 49.82 84.0283 50.22C84.3883 50.6067 84.9149 50.8 85.6083 50.8C86.1416 50.8 86.5616 50.6867 86.8683 50.46C87.1749 50.2333 87.3949 49.9267 87.5283 49.54C87.6749 49.14 87.7483 48.6933 87.7483 48.2V45.64C87.7483 45.1467 87.6816 44.7067 87.5483 44.32C87.4283 43.92 87.2216 43.6067 86.9283 43.38C86.6483 43.14 86.2616 43.02 85.7683 43.02C85.4083 43.02 85.0949 43.0867 84.8283 43.22C84.5616 43.3533 84.3549 43.5533 84.2083 43.82C84.0616 44.0733 83.9883 44.38 83.9883 44.74C83.9883 44.8467 83.9949 44.9667 84.0083 45.1C84.0216 45.2333 84.0349 45.3733 84.0483 45.52H81.0283C80.9883 45.36 80.9549 45.1867 80.9283 45C80.9016 44.8 80.8883 44.58 80.8883 44.34C80.8883 43.5933 81.0683 42.9467 81.4283 42.4C81.8016 41.84 82.2816 41.4133 82.8683 41.12C83.4549 40.8133 84.0749 40.66 84.7283 40.66C85.2616 40.66 85.7216 40.7267 86.1083 40.86C86.4949 40.98 86.8216 41.1467 87.0883 41.36C87.3683 41.5733 87.6016 41.8133 87.7883 42.08H87.8683C87.8283 41.84 87.7949 41.56 87.7683 41.24C87.7416 40.92 87.7283 40.5867 87.7283 40.24V38.72H90.7483V48.24C90.7483 49.2667 90.5483 50.1533 90.1483 50.9C89.7616 51.6467 89.1883 52.22 88.4283 52.62C87.6683 53.0067 86.7283 53.2 85.6083 53.2ZM94.2064 53C94.0064 52.3733 93.8264 51.7 93.6664 50.98C93.5064 50.26 93.3797 49.4333 93.2864 48.5C93.1931 47.5533 93.1464 46.4467 93.1464 45.18C93.1464 43.5933 93.3797 42.3133 93.8464 41.34C94.3131 40.3667 94.9464 39.6533 95.7464 39.2C96.5597 38.7467 97.4731 38.52 98.4864 38.52C99.5131 38.52 100.426 38.7467 101.226 39.2C102.04 39.6533 102.68 40.3667 103.146 41.34C103.613 42.3133 103.846 43.5933 103.846 45.18C103.846 46.4333 103.8 47.5333 103.706 48.48C103.613 49.4133 103.486 50.2467 103.326 50.98C103.18 51.7 103 52.3733 102.786 53H99.7064C99.8931 52.3733 100.053 51.68 100.186 50.92C100.333 50.16 100.446 49.3067 100.526 48.36C100.62 47.4 100.666 46.32 100.666 45.12C100.666 44.12 100.58 43.3267 100.406 42.74C100.246 42.14 99.9997 41.7067 99.6664 41.44C99.3464 41.1733 98.9531 41.04 98.4864 41.04C98.0331 41.04 97.6397 41.1733 97.3064 41.44C96.9864 41.6933 96.7397 42.12 96.5664 42.72C96.3931 43.32 96.3064 44.12 96.3064 45.12C96.3064 46.3333 96.3464 47.42 96.4264 48.38C96.5197 49.3267 96.6397 50.18 96.7864 50.94C96.9464 51.6867 97.1131 52.3733 97.2864 53H94.2064ZM111.218 53.2C110.071 53.2 109.091 53.0133 108.278 52.64C107.478 52.2667 106.865 51.7667 106.438 51.14C106.011 50.5 105.798 49.8067 105.798 49.06C105.798 48.7667 105.818 48.5133 105.858 48.3C105.898 48.0733 105.958 47.84 106.038 47.6H109.058C109.005 47.8133 108.965 48.0067 108.938 48.18C108.925 48.3533 108.918 48.5333 108.918 48.72C108.918 49.32 109.105 49.82 109.478 50.22C109.865 50.6067 110.451 50.8 111.238 50.8C111.771 50.8 112.198 50.7067 112.518 50.52C112.851 50.32 113.091 50.06 113.238 49.74C113.398 49.42 113.478 49.0733 113.478 48.7C113.478 48.22 113.378 47.8333 113.178 47.54C112.978 47.2333 112.705 47.0133 112.358 46.88C112.011 46.7467 111.611 46.68 111.158 46.68H110.398V44.3H111.218C111.898 44.3 112.385 44.1267 112.678 43.78C112.971 43.4333 113.118 43.02 113.118 42.54C113.118 42.22 113.045 41.94 112.898 41.7C112.751 41.46 112.538 41.2733 112.258 41.14C111.991 41.0067 111.671 40.94 111.298 40.94C110.911 40.94 110.578 41.0067 110.298 41.14C110.018 41.26 109.805 41.44 109.658 41.68C109.511 41.9067 109.438 42.1867 109.438 42.52C109.438 42.6667 109.445 42.8067 109.458 42.94C109.471 43.06 109.491 43.2067 109.518 43.38H106.498C106.431 43.1667 106.385 42.9733 106.358 42.8C106.331 42.6133 106.318 42.4133 106.318 42.2C106.318 41.4533 106.531 40.8067 106.958 40.26C107.398 39.7 107.991 39.2733 108.738 38.98C109.498 38.6733 110.358 38.52 111.318 38.52C112.318 38.52 113.185 38.6867 113.918 39.02C114.665 39.3533 115.238 39.8067 115.638 40.38C116.051 40.94 116.258 41.5867 116.258 42.32C116.258 43.16 116.038 43.8333 115.598 44.34C115.158 44.8467 114.571 45.1933 113.838 45.38V45.44C114.318 45.52 114.771 45.7 115.198 45.98C115.625 46.26 115.971 46.64 116.238 47.12C116.505 47.6 116.638 48.18 116.638 48.86C116.638 49.6867 116.418 50.4267 115.978 51.08C115.551 51.7333 114.931 52.2533 114.118 52.64C113.318 53.0133 112.351 53.2 111.218 53.2ZM120.056 53C119.842 52.44 119.642 51.8667 119.456 51.28C119.282 50.6933 119.129 50.08 118.996 49.44C118.862 48.7867 118.762 48.1 118.696 47.38C118.629 46.6467 118.596 45.86 118.596 45.02C118.596 43.46 118.816 42.2067 119.256 41.26C119.696 40.3 120.276 39.6067 120.996 39.18C121.729 38.74 122.529 38.52 123.396 38.52C123.796 38.52 124.216 38.58 124.656 38.7C125.096 38.82 125.502 39.0333 125.876 39.34C126.249 39.6467 126.542 40.08 126.756 40.64H126.816C127.042 40.0933 127.342 39.6667 127.716 39.36C128.089 39.0533 128.496 38.84 128.936 38.72C129.376 38.5867 129.816 38.52 130.256 38.52C131.096 38.52 131.869 38.74 132.576 39.18C133.296 39.62 133.869 40.32 134.296 41.28C134.736 42.2267 134.956 43.4733 134.956 45.02C134.956 46.2067 134.889 47.26 134.756 48.18C134.636 49.1 134.462 49.9467 134.236 50.72C134.022 51.48 133.776 52.24 133.496 53H130.376C130.642 52.24 130.876 51.4533 131.076 50.64C131.289 49.8133 131.456 48.94 131.576 48.02C131.696 47.0867 131.756 46.0733 131.756 44.98C131.756 44.0067 131.682 43.2333 131.536 42.66C131.389 42.0867 131.182 41.6733 130.916 41.42C130.649 41.1667 130.329 41.04 129.956 41.04C129.542 41.04 129.222 41.1667 128.996 41.42C128.769 41.66 128.609 41.9933 128.516 42.42C128.422 42.8333 128.376 43.2933 128.376 43.8V48.82H125.196V43.8C125.196 43.2133 125.136 42.7133 125.016 42.3C124.909 41.8867 124.736 41.5733 124.496 41.36C124.269 41.1467 123.962 41.04 123.576 41.04C123.216 41.04 122.896 41.1667 122.616 41.42C122.349 41.6733 122.142 42.0867 121.996 42.66C121.849 43.2333 121.776 44.0067 121.776 44.98C121.776 46.0733 121.836 47.0867 121.956 48.02C122.076 48.94 122.242 49.8067 122.456 50.62C122.669 51.4333 122.909 52.2267 123.176 53H120.056ZM147.807 53.2C146.113 53.2 144.813 52.74 143.907 51.82C143 50.8867 142.547 49.5933 142.547 47.94V38.72H145.567V48.14C145.567 48.66 145.647 49.1133 145.807 49.5C145.98 49.8733 146.233 50.1667 146.567 50.38C146.9 50.58 147.313 50.68 147.807 50.68C148.273 50.68 148.66 50.58 148.967 50.38C149.287 50.18 149.52 49.92 149.667 49.6C149.827 49.2667 149.907 48.9067 149.907 48.52C149.907 47.92 149.8 47.42 149.587 47.02C149.387 46.6067 149.153 46.2133 148.887 45.84C148.607 45.44 148.36 44.9933 148.147 44.5C147.947 44.0067 147.887 43.4067 147.967 42.7H151.107C151.093 43.1933 151.173 43.6067 151.347 43.94C151.52 44.2733 151.74 44.64 152.007 45.04C152.287 45.4533 152.533 45.9133 152.747 46.42C152.973 46.9267 153.087 47.5733 153.087 48.36C153.087 49.32 152.873 50.1667 152.447 50.9C152.02 51.62 151.407 52.1867 150.607 52.6C149.82 53 148.887 53.2 147.807 53.2ZM160.198 53.2C159.131 53.2 158.205 53.0067 157.418 52.62C156.631 52.2333 156.025 51.7 155.598 51.02C155.171 50.34 154.958 49.5733 154.958 48.72C154.958 48.4 154.978 48.0933 155.018 47.8C155.058 47.5067 155.125 47.22 155.218 46.94H158.298C158.245 47.1667 158.198 47.42 158.158 47.7C158.131 47.9667 158.118 48.2133 158.118 48.44C158.118 48.8533 158.191 49.2333 158.338 49.58C158.498 49.9133 158.738 50.18 159.058 50.38C159.378 50.58 159.771 50.68 160.238 50.68C160.758 50.68 161.171 50.5867 161.478 50.4C161.785 50.2 162.005 49.92 162.138 49.56C162.271 49.2 162.338 48.7867 162.338 48.32V42.98C162.338 42.3533 162.165 41.8733 161.818 41.54C161.485 41.2067 161.045 41.04 160.498 41.04C160.125 41.04 159.798 41.1067 159.518 41.24C159.238 41.3733 159.018 41.5733 158.858 41.84C158.711 42.1067 158.638 42.4333 158.638 42.82C158.638 42.98 158.645 43.1667 158.658 43.38C158.685 43.58 158.718 43.7933 158.758 44.02H155.678C155.625 43.7933 155.571 43.56 155.518 43.32C155.478 43.08 155.458 42.7933 155.458 42.46C155.458 41.6067 155.678 40.8933 156.118 40.32C156.558 39.7333 157.151 39.2867 157.898 38.98C158.658 38.6733 159.505 38.52 160.438 38.52C161.438 38.52 162.305 38.7 163.038 39.06C163.771 39.4067 164.338 39.9067 164.738 40.56C165.138 41.2133 165.338 41.9933 165.338 42.9V48.36C165.338 49.36 165.131 50.2267 164.718 50.96C164.318 51.68 163.738 52.2333 162.978 52.62C162.218 53.0067 161.291 53.2 160.198 53.2ZM168.716 53C168.463 52.3067 168.256 51.66 168.096 51.06C167.95 50.4467 167.836 49.8333 167.756 49.22C167.69 48.5933 167.656 47.92 167.656 47.2C167.656 46.04 167.763 45 167.976 44.08C168.19 43.16 168.536 42.3667 169.016 41.7C169.51 41.02 170.17 40.4667 170.996 40.04C171.823 39.6 172.856 39.2867 174.096 39.1C174.523 39.0333 174.976 38.9667 175.456 38.9C175.95 38.8333 176.476 38.7667 177.036 38.7C177.61 38.6333 178.223 38.5667 178.876 38.5L179.216 41.04C178.79 41.0933 178.35 41.1467 177.896 41.2C177.443 41.24 176.996 41.2867 176.556 41.34C176.116 41.3933 175.703 41.4467 175.316 41.5C174.93 41.54 174.59 41.58 174.296 41.62C173.776 41.6867 173.236 41.7933 172.676 41.94C172.13 42.0733 171.63 42.2733 171.176 42.54C170.736 42.8067 170.403 43.1667 170.176 43.62H170.256C170.456 43.4067 170.676 43.24 170.916 43.12C171.156 43 171.41 42.9133 171.676 42.86C171.956 42.8067 172.23 42.78 172.496 42.78C173.216 42.78 173.836 42.9733 174.356 43.36C174.89 43.7333 175.276 44.26 175.516 44.94H175.596C175.85 44.2333 176.263 43.7 176.836 43.34C177.41 42.9667 178.143 42.78 179.036 42.78C179.983 42.78 180.783 43.0067 181.436 43.46C182.103 43.9 182.603 44.5 182.936 45.26C183.283 46.02 183.456 46.88 183.456 47.84C183.456 48.4533 183.416 49.0467 183.336 49.62C183.256 50.18 183.13 50.74 182.956 51.3C182.796 51.8467 182.596 52.4133 182.356 53H179.256C179.59 52.1867 179.85 51.3733 180.036 50.56C180.223 49.7333 180.316 48.8467 180.316 47.9C180.316 47.42 180.263 46.9667 180.156 46.54C180.05 46.1133 179.87 45.7733 179.616 45.52C179.363 45.2533 179.016 45.12 178.576 45.12C178.216 45.12 177.923 45.2267 177.696 45.44C177.47 45.64 177.303 45.92 177.196 46.28C177.09 46.64 177.036 47.04 177.036 47.48V49.92H174.056V47.48C174.056 46.96 173.996 46.5267 173.876 46.18C173.77 45.8333 173.596 45.5733 173.356 45.4C173.13 45.2133 172.843 45.12 172.496 45.12C171.923 45.12 171.49 45.3467 171.196 45.8C170.916 46.2533 170.776 46.9733 170.776 47.96C170.776 48.8533 170.87 49.7133 171.056 50.54C171.243 51.3533 171.503 52.1733 171.836 53H168.716ZM190.359 53.2C189.212 53.2 188.232 53.0133 187.419 52.64C186.619 52.2667 186.005 51.7667 185.579 51.14C185.152 50.5 184.939 49.8067 184.939 49.06C184.939 48.7667 184.959 48.5133 184.999 48.3C185.039 48.0733 185.099 47.84 185.179 47.6H188.199C188.145 47.8133 188.105 48.0067 188.079 48.18C188.065 48.3533 188.059 48.5333 188.059 48.72C188.059 49.32 188.245 49.82 188.619 50.22C189.005 50.6067 189.592 50.8 190.379 50.8C190.912 50.8 191.339 50.7067 191.659 50.52C191.992 50.32 192.232 50.06 192.379 49.74C192.539 49.42 192.619 49.0733 192.619 48.7C192.619 48.22 192.519 47.8333 192.319 47.54C192.119 47.2333 191.845 47.0133 191.499 46.88C191.152 46.7467 190.752 46.68 190.299 46.68H189.539V44.3H190.359C191.039 44.3 191.525 44.1267 191.819 43.78C192.112 43.4333 192.259 43.02 192.259 42.54C192.259 42.22 192.185 41.94 192.039 41.7C191.892 41.46 191.679 41.2733 191.399 41.14C191.132 41.0067 190.812 40.94 190.439 40.94C190.052 40.94 189.719 41.0067 189.439 41.14C189.159 41.26 188.945 41.44 188.799 41.68C188.652 41.9067 188.579 42.1867 188.579 42.52C188.579 42.6667 188.585 42.8067 188.599 42.94C188.612 43.06 188.632 43.2067 188.659 43.38H185.639C185.572 43.1667 185.525 42.9733 185.499 42.8C185.472 42.6133 185.459 42.4133 185.459 42.2C185.459 41.4533 185.672 40.8067 186.099 40.26C186.539 39.7 187.132 39.2733 187.879 38.98C188.639 38.6733 189.499 38.52 190.459 38.52C191.459 38.52 192.325 38.6867 193.059 39.02C193.805 39.3533 194.379 39.8067 194.779 40.38C195.192 40.94 195.399 41.5867 195.399 42.32C195.399 43.16 195.179 43.8333 194.739 44.34C194.299 44.8467 193.712 45.1933 192.979 45.38V45.44C193.459 45.52 193.912 45.7 194.339 45.98C194.765 46.26 195.112 46.64 195.379 47.12C195.645 47.6 195.779 48.18 195.779 48.86C195.779 49.6867 195.559 50.4267 195.119 51.08C194.692 51.7333 194.072 52.2533 193.259 52.64C192.459 53.0133 191.492 53.2 190.359 53.2ZM198.796 53C198.596 52.3733 198.416 51.7 198.256 50.98C198.096 50.26 197.97 49.4333 197.876 48.5C197.783 47.5533 197.736 46.4467 197.736 45.18C197.736 43.5933 197.97 42.3133 198.436 41.34C198.903 40.3667 199.536 39.6533 200.336 39.2C201.15 38.7467 202.063 38.52 203.076 38.52C204.103 38.52 205.016 38.7467 205.816 39.2C206.63 39.6533 207.27 40.3667 207.736 41.34C208.203 42.3133 208.436 43.5933 208.436 45.18C208.436 46.4333 208.39 47.5333 208.296 48.48C208.203 49.4133 208.076 50.2467 207.916 50.98C207.77 51.7 207.59 52.3733 207.376 53H204.296C204.483 52.3733 204.643 51.68 204.776 50.92C204.923 50.16 205.036 49.3067 205.116 48.36C205.21 47.4 205.256 46.32 205.256 45.12C205.256 44.12 205.17 43.3267 204.996 42.74C204.836 42.14 204.59 41.7067 204.256 41.44C203.936 41.1733 203.543 41.04 203.076 41.04C202.623 41.04 202.23 41.1733 201.896 41.44C201.576 41.6933 201.33 42.12 201.156 42.72C200.983 43.32 200.896 44.12 200.896 45.12C200.896 46.3333 200.936 47.42 201.016 48.38C201.11 49.3267 201.23 50.18 201.376 50.94C201.536 51.6867 201.703 52.3733 201.876 53H198.796ZM216.088 53.2C214.394 53.2 213.094 52.74 212.188 51.82C211.281 50.8867 210.828 49.5933 210.828 47.94V38.72H213.848V48.14C213.848 48.66 213.928 49.1133 214.088 49.5C214.261 49.8733 214.514 50.1667 214.848 50.38C215.181 50.58 215.594 50.68 216.088 50.68C216.554 50.68 216.941 50.58 217.248 50.38C217.568 50.18 217.801 49.92 217.948 49.6C218.108 49.2667 218.188 48.9067 218.188 48.52C218.188 47.92 218.081 47.42 217.868 47.02C217.668 46.6067 217.434 46.2133 217.168 45.84C216.888 45.44 216.641 44.9933 216.428 44.5C216.228 44.0067 216.168 43.4067 216.248 42.7H219.388C219.374 43.1933 219.454 43.6067 219.628 43.94C219.801 44.2733 220.021 44.64 220.288 45.04C220.568 45.4533 220.814 45.9133 221.028 46.42C221.254 46.9267 221.368 47.5733 221.368 48.36C221.368 49.32 221.154 50.1667 220.728 50.9C220.301 51.62 219.688 52.1867 218.888 52.6C218.101 53 217.168 53.2 216.088 53.2ZM228.479 53.2C227.413 53.2 226.486 53.0067 225.699 52.62C224.913 52.2333 224.306 51.7 223.879 51.02C223.453 50.34 223.239 49.5733 223.239 48.72C223.239 48.4 223.259 48.0933 223.299 47.8C223.339 47.5067 223.406 47.22 223.499 46.94H226.579C226.526 47.1667 226.479 47.42 226.439 47.7C226.413 47.9667 226.399 48.2133 226.399 48.44C226.399 48.8533 226.473 49.2333 226.619 49.58C226.779 49.9133 227.019 50.18 227.339 50.38C227.659 50.58 228.053 50.68 228.519 50.68C229.039 50.68 229.453 50.5867 229.759 50.4C230.066 50.2 230.286 49.92 230.419 49.56C230.553 49.2 230.619 48.7867 230.619 48.32V42.98C230.619 42.3533 230.446 41.8733 230.099 41.54C229.766 41.2067 229.326 41.04 228.779 41.04C228.406 41.04 228.079 41.1067 227.799 41.24C227.519 41.3733 227.299 41.5733 227.139 41.84C226.993 42.1067 226.919 42.4333 226.919 42.82C226.919 42.98 226.926 43.1667 226.939 43.38C226.966 43.58 226.999 43.7933 227.039 44.02H223.959C223.906 43.7933 223.853 43.56 223.799 43.32C223.759 43.08 223.739 42.7933 223.739 42.46C223.739 41.6067 223.959 40.8933 224.399 40.32C224.839 39.7333 225.433 39.2867 226.179 38.98C226.939 38.6733 227.786 38.52 228.719 38.52C229.719 38.52 230.586 38.7 231.319 39.06C232.053 39.4067 232.619 39.9067 233.019 40.56C233.419 41.2133 233.619 41.9933 233.619 42.9V48.36C233.619 49.36 233.413 50.2267 232.999 50.96C232.599 51.68 232.019 52.2333 231.259 52.62C230.499 53.0067 229.573 53.2 228.479 53.2ZM241.278 53.2C240.531 53.2 239.831 53.08 239.178 52.84C238.538 52.6 237.971 52.2533 237.478 51.8C236.998 51.3333 236.618 50.7667 236.338 50.1C236.071 49.4333 235.938 48.6667 235.938 47.8C235.938 46.6667 236.164 45.7067 236.618 44.92C237.071 44.1333 237.698 43.5333 238.498 43.12C239.311 42.7067 240.258 42.5 241.338 42.5C242.338 42.5 243.238 42.7067 244.038 43.12C244.838 43.5333 245.471 44.1333 245.938 44.92C246.418 45.7067 246.658 46.6667 246.658 47.8C246.658 48.6667 246.524 49.44 246.258 50.12C246.004 50.7867 245.638 51.3533 245.158 51.82C244.691 52.2733 244.124 52.62 243.458 52.86C242.804 53.0867 242.078 53.2 241.278 53.2ZM241.318 50.68C241.784 50.68 242.178 50.5667 242.498 50.34C242.818 50.1 243.058 49.7667 243.218 49.34C243.391 48.9 243.478 48.3867 243.478 47.8C243.478 47.2267 243.391 46.7333 243.218 46.32C243.058 45.9067 242.811 45.5867 242.478 45.36C242.158 45.1333 241.764 45.02 241.298 45.02C240.604 45.02 240.064 45.2733 239.678 45.78C239.304 46.2733 239.118 46.9467 239.118 47.8C239.118 48.3867 239.204 48.9 239.378 49.34C239.551 49.7667 239.798 50.1 240.118 50.34C240.451 50.5667 240.851 50.68 241.318 50.68ZM242.878 43.06L239.978 42.86C240.111 42.7667 240.204 42.64 240.258 42.48C240.311 42.32 240.338 42.1667 240.338 42.02C240.338 41.78 240.258 41.5867 240.098 41.44C239.938 41.28 239.758 41.1333 239.558 41C239.371 40.88 239.184 40.7133 238.998 40.5C238.824 40.2867 238.684 40.0333 238.578 39.74C238.471 39.4333 238.444 39.0933 238.498 38.72H241.418C241.418 38.9733 241.498 39.1867 241.658 39.36C241.818 39.52 242.024 39.6933 242.278 39.88C242.571 40.08 242.818 40.3267 243.018 40.62C243.231 40.9133 243.338 41.26 243.338 41.66C243.338 41.9133 243.298 42.1533 243.218 42.38C243.138 42.5933 243.024 42.82 242.878 43.06ZM249.597 53C249.397 52.3733 249.217 51.7 249.057 50.98C248.897 50.26 248.77 49.4333 248.677 48.5C248.584 47.5533 248.537 46.4467 248.537 45.18C248.537 43.5933 248.77 42.3133 249.237 41.34C249.704 40.3667 250.337 39.6533 251.137 39.2C251.95 38.7467 252.864 38.52 253.877 38.52C254.904 38.52 255.817 38.7467 256.617 39.2C257.43 39.6533 258.07 40.3667 258.537 41.34C259.004 42.3133 259.237 43.5933 259.237 45.18C259.237 46.4333 259.19 47.5333 259.097 48.48C259.004 49.4133 258.877 50.2467 258.717 50.98C258.57 51.7 258.39 52.3733 258.177 53H255.097C255.284 52.3733 255.444 51.68 255.577 50.92C255.724 50.16 255.837 49.3067 255.917 48.36C256.01 47.4 256.057 46.32 256.057 45.12C256.057 44.12 255.97 43.3267 255.797 42.74C255.637 42.14 255.39 41.7067 255.057 41.44C254.737 41.1733 254.344 41.04 253.877 41.04C253.424 41.04 253.03 41.1733 252.697 41.44C252.377 41.6933 252.13 42.12 251.957 42.72C251.784 43.32 251.697 44.12 251.697 45.12C251.697 46.3333 251.737 47.42 251.817 48.38C251.91 49.3267 252.03 50.18 252.177 50.94C252.337 51.6867 252.504 52.3733 252.677 53H249.597Z" fill="white"/>
<path d="M28.688 84.16C27.9413 84.16 27.28 83.9947 26.704 83.664C26.128 83.3333 25.68 82.8427 25.36 82.192C25.04 81.5307 24.88 80.7093 24.88 79.728C24.88 78.3307 25.2 77.264 25.84 76.528C26.4907 75.792 27.3493 75.424 28.416 75.424C28.864 75.424 29.2533 75.4827 29.584 75.6C29.9147 75.7067 30.2027 75.856 30.448 76.048C30.6933 76.24 30.9013 76.4533 31.072 76.688H31.168C31.1573 76.5707 31.136 76.4053 31.104 76.192C31.0827 75.968 31.072 75.7707 31.072 75.6V74.864C31.072 74.4693 30.9973 74.1173 30.848 73.808C30.6987 73.4987 30.4587 73.2533 30.128 73.072C29.808 72.8907 29.3867 72.8 28.864 72.8C28.4587 72.8 28.1013 72.864 27.792 72.992C27.4827 73.1093 27.2373 73.28 27.056 73.504C26.8853 73.7173 26.8 73.968 26.8 74.256C26.8 74.32 26.8 74.384 26.8 74.448C26.8107 74.512 26.8213 74.576 26.832 74.64H25.472C25.44 74.5333 25.4187 74.432 25.408 74.336C25.3973 74.24 25.392 74.1493 25.392 74.064C25.392 73.5947 25.5467 73.184 25.856 72.832C26.1653 72.4693 26.5813 72.1867 27.104 71.984C27.6373 71.7813 28.224 71.68 28.864 71.68C29.6213 71.68 30.2667 71.8187 30.8 72.096C31.344 72.3733 31.76 72.7627 32.048 73.264C32.336 73.7547 32.48 74.3307 32.48 74.992V79.728C32.48 81.2 32.1547 82.3093 31.504 83.056C30.8533 83.792 29.9147 84.16 28.688 84.16ZM28.688 82.992C29.5627 82.992 30.1813 82.72 30.544 82.176C30.9067 81.632 31.088 80.9067 31.088 80V79.744C31.088 78.7627 30.912 77.9947 30.56 77.44C30.208 76.8747 29.5573 76.592 28.608 76.592C27.8507 76.592 27.28 76.8853 26.896 77.472C26.5227 78.0587 26.336 78.8213 26.336 79.76C26.336 80.784 26.528 81.5787 26.912 82.144C27.296 82.7093 27.888 82.992 28.688 82.992ZM35.5435 84C35.3302 83.4987 35.1488 83.0187 34.9995 82.56C34.8502 82.1013 34.7382 81.632 34.6635 81.152C34.5995 80.6613 34.5675 80.1387 34.5675 79.584C34.5675 78.72 34.6902 77.968 34.9355 77.328C35.1808 76.6773 35.5435 76.1707 36.0235 75.808C36.5035 75.4453 37.1008 75.264 37.8155 75.264C38.4128 75.264 38.8928 75.4027 39.2555 75.68C39.6288 75.9467 39.9008 76.3147 40.0715 76.784H40.1515C40.3328 76.3147 40.6155 75.9467 40.9995 75.68C41.3835 75.4027 41.8582 75.264 42.4235 75.264C43.1382 75.264 43.7355 75.4453 44.2155 75.808C44.6955 76.1707 45.0582 76.6773 45.3035 77.328C45.5488 77.968 45.6715 78.72 45.6715 79.584C45.6715 80.1387 45.6342 80.6613 45.5595 81.152C45.4955 81.632 45.3888 82.1013 45.2395 82.56C45.1008 83.0187 44.9195 83.4987 44.6955 84H43.2555C43.5968 83.2427 43.8422 82.528 43.9915 81.856C44.1515 81.1733 44.2315 80.4107 44.2315 79.568C44.2315 78.8747 44.1568 78.2987 44.0075 77.84C43.8582 77.3707 43.6395 77.0187 43.3515 76.784C43.0742 76.5493 42.7275 76.432 42.3115 76.432C41.8315 76.432 41.4582 76.6133 41.1915 76.976C40.9248 77.3387 40.7915 77.8507 40.7915 78.512V81.088H39.4475V78.512C39.4475 77.9147 39.3248 77.4187 39.0795 77.024C38.8342 76.6293 38.4448 76.432 37.9115 76.432C37.3035 76.432 36.8342 76.6987 36.5035 77.232C36.1728 77.7547 36.0075 78.5333 36.0075 79.568C36.0075 80.1333 36.0395 80.656 36.1035 81.136C36.1782 81.616 36.2848 82.0907 36.4235 82.56C36.5728 83.0187 36.7595 83.4987 36.9835 84H35.5435ZM50.9629 88C50.2375 88 49.5922 87.8453 49.0269 87.536C48.4722 87.2373 48.0402 86.8267 47.7309 86.304C47.4215 85.7813 47.2669 85.1893 47.2669 84.528C47.2669 84.2187 47.2935 83.9307 47.3469 83.664C47.4109 83.3867 47.4802 83.1573 47.5549 82.976H48.8989C48.8455 83.1467 48.7922 83.3707 48.7389 83.648C48.6962 83.9147 48.6749 84.1653 48.6749 84.4C48.6749 84.816 48.7549 85.2053 48.9149 85.568C49.0855 85.9413 49.3415 86.2453 49.6829 86.48C50.0242 86.7147 50.4509 86.832 50.9629 86.832C51.5069 86.832 51.9549 86.7093 52.3069 86.464C52.6589 86.2293 52.9202 85.9093 53.0909 85.504C53.2615 85.0987 53.3469 84.6507 53.3469 84.16C53.3469 83.6267 53.2509 83.152 53.0589 82.736C52.8669 82.3093 52.5842 81.9733 52.2109 81.728C51.8375 81.472 51.3789 81.344 50.8349 81.344H50.2109V80.176H50.9469C51.4589 80.176 51.8695 80.0853 52.1789 79.904C52.4882 79.712 52.7122 79.472 52.8509 79.184C53.0002 78.896 53.0749 78.6027 53.0749 78.304C53.0749 77.9627 53.0002 77.6533 52.8509 77.376C52.7015 77.088 52.4882 76.8587 52.2109 76.688C51.9335 76.5173 51.6029 76.432 51.2189 76.432V75.264C51.8375 75.264 52.3922 75.3973 52.8829 75.664C53.3735 75.92 53.7629 76.2667 54.0509 76.704C54.3389 77.1307 54.4829 77.6 54.4829 78.112C54.4829 78.7733 54.2749 79.3387 53.8589 79.808C53.4535 80.2667 52.9149 80.5707 52.2429 80.72V80.784C52.6909 80.848 53.1069 81.0187 53.4909 81.296C53.8855 81.5627 54.2002 81.9413 54.4349 82.432C54.6802 82.912 54.8029 83.5093 54.8029 84.224C54.8029 84.9813 54.6429 85.6427 54.3229 86.208C54.0029 86.784 53.5549 87.2267 52.9789 87.536C52.4135 87.8453 51.7415 88 50.9629 88ZM66.7774 88C66.532 87.5947 66.2334 87.2373 65.8814 86.928C65.54 86.6293 65.1614 86.3787 64.7454 86.176C64.34 85.9733 63.908 85.8187 63.4494 85.712C62.9907 85.6053 62.5214 85.552 62.0414 85.552C61.5187 85.552 61.0067 85.6213 60.5054 85.76C60.004 85.9093 59.5187 86.1173 59.0494 86.384L58.4894 85.36C58.7134 85.2533 58.9427 85.152 59.1774 85.056C59.4227 84.9707 59.6734 84.896 59.9294 84.832C60.1854 84.7787 60.436 84.7467 60.6814 84.736V84.688C60.1054 84.5067 59.5614 84.2667 59.0494 83.968C58.548 83.6693 58.1054 83.3013 57.7214 82.864C57.3374 82.4267 57.0334 81.9147 56.8094 81.328C56.596 80.7413 56.4894 80.064 56.4894 79.296C56.4894 78.4853 56.6067 77.7813 56.8414 77.184C57.0867 76.576 57.444 76.1067 57.9134 75.776C58.3934 75.4347 58.9747 75.264 59.6574 75.264C60.2547 75.264 60.7347 75.4027 61.0974 75.68C61.4707 75.9467 61.7427 76.3147 61.9134 76.784H61.9934C62.1747 76.3147 62.4574 75.9467 62.8414 75.68C63.236 75.4027 63.7267 75.264 64.3134 75.264C64.9427 75.264 65.444 75.4027 65.8174 75.68C66.1907 75.9467 66.4627 76.3147 66.6334 76.784H66.7134C66.8947 76.3147 67.1774 75.9467 67.5614 75.68C67.9454 75.4027 68.42 75.264 68.9854 75.264C69.6787 75.264 70.26 75.4453 70.7294 75.808C71.1987 76.1707 71.5507 76.6773 71.7854 77.328C72.0307 77.968 72.1534 78.72 72.1534 79.584C72.1534 80.2667 72.0787 80.9013 71.9294 81.488C71.7907 82.0747 71.572 82.6507 71.2734 83.216L70.0574 82.768C70.3027 82.2453 70.4734 81.7387 70.5694 81.248C70.6654 80.7467 70.7134 80.1867 70.7134 79.568C70.7134 78.5333 70.548 77.7547 70.2174 77.232C69.8974 76.6987 69.4494 76.432 68.8734 76.432C68.3934 76.432 68.02 76.6133 67.7534 76.976C67.4867 77.3387 67.3534 77.8507 67.3534 78.512V81.088H66.0094V78.512C66.0094 77.9147 65.876 77.4187 65.6094 77.024C65.3534 76.6293 64.9214 76.432 64.3134 76.432C63.7587 76.432 63.3374 76.6133 63.0494 76.976C62.772 77.3387 62.6334 77.8507 62.6334 78.512V81.088H61.2894V78.512C61.2894 77.9147 61.1667 77.4187 60.9214 77.024C60.676 76.6293 60.2867 76.432 59.7534 76.432C59.188 76.432 58.74 76.6667 58.4094 77.136C58.0894 77.6053 57.9294 78.3253 57.9294 79.296C57.9294 80.0427 58.0467 80.6933 58.2814 81.248C58.5267 81.792 58.8574 82.256 59.2734 82.64C59.6894 83.024 60.1587 83.3387 60.6814 83.584C61.2147 83.8187 61.7694 84 62.3454 84.128C63.0707 84.2773 63.7907 84.48 64.5054 84.736C65.2307 85.0027 65.8867 85.3493 66.4734 85.776C67.0707 86.2133 67.5294 86.7627 67.8494 87.424L66.7774 88ZM77.371 88C76.827 88 76.3257 87.9093 75.867 87.728C75.419 87.5573 75.0297 87.3013 74.699 86.96C74.3683 86.6293 74.1123 86.2293 73.931 85.76C73.7603 85.3013 73.675 84.784 73.675 84.208C73.675 83.8987 73.7017 83.6107 73.755 83.344C73.819 83.0667 73.8883 82.8373 73.963 82.656H75.307C75.2537 82.8267 75.2003 83.0507 75.147 83.328C75.1043 83.5947 75.083 83.8453 75.083 84.08C75.083 84.6027 75.163 85.072 75.323 85.488C75.4937 85.904 75.7497 86.2293 76.091 86.464C76.4323 86.7093 76.859 86.832 77.371 86.832C77.9257 86.832 78.3683 86.7093 78.699 86.464C79.0403 86.2187 79.2857 85.872 79.435 85.424C79.595 84.976 79.675 84.448 79.675 83.84V78.976C79.675 78.1653 79.5097 77.5413 79.179 77.104C78.8483 76.656 78.3363 76.432 77.643 76.432C77.227 76.432 76.859 76.512 76.539 76.672C76.2297 76.832 75.9843 77.0667 75.803 77.376C75.6323 77.6747 75.547 78.0533 75.547 78.512C75.547 78.7467 75.5577 78.9707 75.579 79.184C75.611 79.3867 75.6483 79.5627 75.691 79.712H74.347C74.3043 79.584 74.2563 79.4133 74.203 79.2C74.1603 78.976 74.139 78.7467 74.139 78.512C74.139 77.7973 74.2937 77.2 74.603 76.72C74.923 76.24 75.3443 75.8773 75.867 75.632C76.4003 75.3867 76.9923 75.264 77.643 75.264C78.3363 75.264 78.939 75.408 79.451 75.696C79.9737 75.984 80.3737 76.4 80.651 76.944C80.939 77.4773 81.083 78.1333 81.083 78.912V83.904C81.083 84.768 80.9337 85.504 80.635 86.112C80.347 86.7307 79.9257 87.2 79.371 87.52C78.827 87.84 78.1603 88 77.371 88ZM90.7895 84.16C90.1282 84.16 89.5255 84.0373 88.9815 83.792C88.4482 83.5467 88.0215 83.184 87.7015 82.704C87.3922 82.224 87.2375 81.6267 87.2375 80.912C87.2375 80.6773 87.2588 80.4533 87.3015 80.24C87.3548 80.016 87.4028 79.84 87.4455 79.712H88.7895C88.7468 79.8507 88.7095 80.0267 88.6775 80.24C88.6562 80.4427 88.6455 80.6667 88.6455 80.912C88.6455 81.36 88.7308 81.7387 88.9015 82.048C89.0828 82.3573 89.3335 82.592 89.6535 82.752C89.9842 82.912 90.3628 82.992 90.7895 82.992C91.2268 82.992 91.6002 82.912 91.9095 82.752C92.2188 82.592 92.4588 82.352 92.6295 82.032C92.8002 81.712 92.8855 81.312 92.8855 80.832C92.8855 80.2773 92.7682 79.8293 92.5335 79.488C92.2988 79.136 92.0268 78.8107 91.7175 78.512C91.4615 78.256 91.2055 77.9893 90.9495 77.712C90.7042 77.424 90.4962 77.0987 90.3255 76.736C90.1548 76.3627 90.0695 75.9253 90.0695 75.424H91.4775C91.4775 75.8827 91.6002 76.288 91.8455 76.64C92.1015 76.9813 92.3948 77.3173 92.7255 77.648C92.9922 77.904 93.2482 78.1813 93.4935 78.48C93.7388 78.7787 93.9415 79.12 94.1015 79.504C94.2615 79.8773 94.3415 80.32 94.3415 80.832C94.3415 81.4933 94.1868 82.0747 93.8775 82.576C93.5682 83.0773 93.1468 83.4667 92.6135 83.744C92.0802 84.0213 91.4722 84.16 90.7895 84.16ZM103.507 88C103.272 87.552 102.973 87.1627 102.611 86.832C102.259 86.5013 101.875 86.2453 101.459 86.064C101.053 85.8933 100.643 85.808 100.227 85.808C99.7788 85.808 99.3734 85.856 99.0108 85.952C98.6481 86.048 98.2481 86.1973 97.8108 86.4L97.3307 85.408C97.5761 85.2907 97.8588 85.184 98.1788 85.088C98.5094 84.992 98.9254 84.9333 99.4268 84.912V84.864C98.3174 84.3413 97.4854 83.648 96.9308 82.784C96.3761 81.9093 96.0988 80.8533 96.0988 79.616C96.0988 78.7413 96.2214 77.9787 96.4668 77.328C96.7121 76.6773 97.0748 76.1707 97.5548 75.808C98.0348 75.4453 98.6321 75.264 99.3468 75.264C99.9441 75.264 100.424 75.4027 100.787 75.68C101.16 75.9467 101.432 76.3147 101.603 76.784H101.683C101.864 76.3147 102.147 75.9467 102.531 75.68C102.915 75.4027 103.389 75.264 103.955 75.264C104.669 75.264 105.267 75.4453 105.747 75.808C106.227 76.1707 106.589 76.6773 106.835 77.328C107.08 77.968 107.203 78.72 107.203 79.584C107.203 80.2667 107.128 80.9013 106.979 81.488C106.84 82.0747 106.621 82.6507 106.323 83.216L105.107 82.768C105.352 82.2453 105.523 81.7387 105.619 81.248C105.715 80.7467 105.763 80.1867 105.763 79.568C105.763 78.8747 105.688 78.2987 105.539 77.84C105.389 77.3707 105.171 77.0187 104.883 76.784C104.605 76.5493 104.259 76.432 103.843 76.432C103.363 76.432 102.989 76.6133 102.723 76.976C102.456 77.3387 102.323 77.8507 102.323 78.512V81.088H100.979V78.512C100.979 77.9147 100.856 77.4187 100.611 77.024C100.365 76.6293 99.9761 76.432 99.4427 76.432C98.8348 76.432 98.3654 76.6987 98.0348 77.232C97.7041 77.7547 97.5388 78.5387 97.5388 79.584C97.5388 80.2987 97.6241 80.9227 97.7948 81.456C97.9654 81.9787 98.2001 82.432 98.4988 82.816C98.8081 83.1893 99.1654 83.5093 99.5708 83.776C99.9761 84.0427 100.408 84.2773 100.867 84.48C101.485 84.7467 102.024 85.0027 102.483 85.248C102.941 85.504 103.336 85.7973 103.667 86.128C104.008 86.4693 104.312 86.9013 104.579 87.424L103.507 88ZM113.07 84.16C112.259 84.16 111.571 84 111.006 83.68C110.441 83.3493 110.009 82.8693 109.71 82.24C109.422 81.6 109.278 80.816 109.278 79.888V74.352C109.278 73.744 109.395 73.2427 109.63 72.848C109.865 72.4533 110.174 72.16 110.558 71.968C110.953 71.776 111.379 71.68 111.838 71.68C112.211 71.68 112.585 71.7547 112.958 71.904C113.331 72.0533 113.619 72.368 113.822 72.848H113.87C114.073 72.368 114.334 72.0533 114.654 71.904C114.974 71.7547 115.299 71.68 115.63 71.68C115.939 71.68 116.217 71.712 116.462 71.776C116.707 71.84 116.931 71.9147 117.134 72L116.782 73.072C116.611 73.0187 116.43 72.9653 116.238 72.912C116.046 72.8587 115.849 72.832 115.646 72.832C115.358 72.832 115.097 72.928 114.862 73.12C114.638 73.3013 114.526 73.5733 114.526 73.936V74.704H113.166V73.936C113.166 73.5947 113.054 73.3227 112.83 73.12C112.606 72.9067 112.313 72.8 111.95 72.8C111.694 72.8 111.47 72.864 111.278 72.992C111.086 73.1093 110.937 73.2853 110.83 73.52C110.734 73.7547 110.686 74.0427 110.686 74.384V75.92C110.686 76.0907 110.675 76.288 110.654 76.512C110.633 76.7253 110.611 76.8907 110.59 77.008H110.686C110.867 76.7733 111.075 76.56 111.31 76.368C111.555 76.176 111.843 76.0267 112.174 75.92C112.515 75.8027 112.905 75.744 113.342 75.744C114.057 75.744 114.675 75.9093 115.198 76.24C115.731 76.56 116.142 77.0293 116.43 77.648C116.729 78.2667 116.878 79.0133 116.878 79.888C116.878 80.816 116.718 81.6 116.398 82.24C116.078 82.8693 115.63 83.3493 115.054 83.68C114.489 84 113.827 84.16 113.07 84.16ZM113.07 82.992C113.603 82.992 114.041 82.8693 114.382 82.624C114.734 82.368 114.995 82.0107 115.166 81.552C115.337 81.0933 115.422 80.5493 115.422 79.92C115.422 79.344 115.337 78.832 115.166 78.384C115.006 77.9253 114.755 77.568 114.414 77.312C114.083 77.0453 113.662 76.912 113.15 76.912C112.521 76.912 112.025 77.0347 111.662 77.28C111.299 77.5253 111.043 77.872 110.894 78.32C110.745 78.768 110.67 79.296 110.67 79.904V80.16C110.67 80.9813 110.851 81.6587 111.214 82.192C111.577 82.7253 112.195 82.992 113.07 82.992ZM121.949 88C121.405 88 120.904 87.9093 120.445 87.728C119.997 87.5573 119.608 87.3013 119.277 86.96C118.946 86.6293 118.69 86.2293 118.509 85.76C118.338 85.3013 118.253 84.784 118.253 84.208C118.253 83.8987 118.28 83.6107 118.333 83.344C118.397 83.0667 118.466 82.8373 118.541 82.656H119.885C119.832 82.8267 119.778 83.0507 119.725 83.328C119.682 83.5947 119.661 83.8453 119.661 84.08C119.661 84.6027 119.741 85.072 119.901 85.488C120.072 85.904 120.328 86.2293 120.669 86.464C121.01 86.7093 121.437 86.832 121.949 86.832C122.504 86.832 122.946 86.7093 123.277 86.464C123.618 86.2187 123.864 85.872 124.013 85.424C124.173 84.976 124.253 84.448 124.253 83.84V78.976C124.253 78.1653 124.088 77.5413 123.757 77.104C123.426 76.656 122.914 76.432 122.221 76.432C121.805 76.432 121.437 76.512 121.117 76.672C120.808 76.832 120.562 77.0667 120.381 77.376C120.21 77.6747 120.125 78.0533 120.125 78.512C120.125 78.7467 120.136 78.9707 120.157 79.184C120.189 79.3867 120.226 79.5627 120.269 79.712H118.925C118.882 79.584 118.834 79.4133 118.781 79.2C118.738 78.976 118.717 78.7467 118.717 78.512C118.717 77.7973 118.872 77.2 119.181 76.72C119.501 76.24 119.922 75.8773 120.445 75.632C120.978 75.3867 121.57 75.264 122.221 75.264C122.914 75.264 123.517 75.408 124.029 75.696C124.552 75.984 124.952 76.4 125.229 76.944C125.517 77.4773 125.661 78.1333 125.661 78.912V83.904C125.661 84.768 125.512 85.504 125.213 86.112C124.925 86.7307 124.504 87.2 123.949 87.52C123.405 87.84 122.738 88 121.949 88ZM128.683 84C128.47 83.4987 128.289 83.0187 128.139 82.56C128.001 82.1013 127.899 81.632 127.835 81.152C127.771 80.6613 127.739 80.1387 127.739 79.584V78.976C127.739 77.6533 127.894 76.5387 128.203 75.632C128.513 74.7147 128.982 73.9893 129.611 73.456C130.241 72.912 131.03 72.5387 131.979 72.336C132.577 72.208 133.174 72.0907 133.771 71.984C134.369 71.8773 134.955 71.776 135.531 71.68L135.771 72.912C135.494 72.9547 135.19 73.0027 134.859 73.056C134.539 73.0987 134.219 73.1467 133.899 73.2C133.579 73.2533 133.275 73.3067 132.987 73.36C132.71 73.4027 132.465 73.4507 132.251 73.504C131.814 73.6 131.387 73.7493 130.971 73.952C130.555 74.144 130.182 74.4267 129.851 74.8C129.531 75.1733 129.27 75.6853 129.067 76.336H129.115C129.329 76.0373 129.537 75.8133 129.739 75.664C129.953 75.504 130.166 75.3973 130.379 75.344C130.603 75.2907 130.827 75.264 131.051 75.264C131.595 75.264 132.049 75.4027 132.411 75.68C132.774 75.9467 133.041 76.3147 133.211 76.784H133.291C133.473 76.3147 133.755 75.9467 134.139 75.68C134.523 75.4027 134.998 75.264 135.563 75.264C136.278 75.264 136.875 75.4453 137.355 75.808C137.835 76.1707 138.198 76.6773 138.443 77.328C138.689 77.968 138.811 78.72 138.811 79.584C138.811 80.1387 138.774 80.6613 138.699 81.152C138.635 81.632 138.529 82.1013 138.379 82.56C138.241 83.0187 138.059 83.4987 137.835 84H136.395C136.737 83.2427 136.982 82.528 137.131 81.856C137.291 81.1733 137.371 80.4107 137.371 79.568C137.371 78.8747 137.297 78.2987 137.147 77.84C136.998 77.3707 136.779 77.0187 136.491 76.784C136.214 76.5493 135.867 76.432 135.451 76.432C134.971 76.432 134.598 76.6133 134.331 76.976C134.065 77.3387 133.931 77.8507 133.931 78.512V81.088H132.587V78.512C132.587 77.9147 132.465 77.4187 132.219 77.024C131.974 76.6293 131.585 76.432 131.051 76.432C130.443 76.432 129.974 76.6987 129.643 77.232C129.313 77.7547 129.147 78.5333 129.147 79.568C129.147 80.1333 129.179 80.656 129.243 81.136C129.318 81.616 129.425 82.0907 129.563 82.56C129.713 83.0187 129.899 83.4987 130.123 84H128.683ZM144.04 84.16C143.378 84.16 142.776 84.0373 142.232 83.792C141.698 83.5467 141.272 83.184 140.952 82.704C140.642 82.224 140.488 81.6267 140.488 80.912C140.488 80.6773 140.509 80.4533 140.552 80.24C140.605 80.016 140.653 79.84 140.696 79.712H142.039C141.997 79.8507 141.96 80.0267 141.928 80.24C141.906 80.4427 141.896 80.6667 141.896 80.912C141.896 81.36 141.981 81.7387 142.152 82.048C142.333 82.3573 142.584 82.592 142.904 82.752C143.234 82.912 143.613 82.992 144.04 82.992C144.477 82.992 144.85 82.912 145.16 82.752C145.469 82.592 145.709 82.352 145.88 82.032C146.05 81.712 146.136 81.312 146.136 80.832C146.136 80.2773 146.018 79.8293 145.784 79.488C145.549 79.136 145.277 78.8107 144.968 78.512C144.712 78.256 144.456 77.9893 144.2 77.712C143.954 77.424 143.746 77.0987 143.576 76.736C143.405 76.3627 143.32 75.9253 143.32 75.424H144.728C144.728 75.8827 144.85 76.288 145.096 76.64C145.352 76.9813 145.645 77.3173 145.976 77.648C146.242 77.904 146.498 78.1813 146.744 78.48C146.989 78.7787 147.192 79.12 147.352 79.504C147.512 79.8773 147.592 80.32 147.592 80.832C147.592 81.4933 147.437 82.0747 147.128 82.576C146.818 83.0773 146.397 83.4667 145.864 83.744C145.33 84.0213 144.722 84.16 144.04 84.16Z" fill="white"/>
<g style="mix-blend-mode:soft-light">
<g style="mix-blend-mode:lighten">
<ellipse cx="316.156" cy="137.652" rx="19.0817" ry="19.5142" fill="url(#paint1_linear_2_270)"/>
</g>
<g style="mix-blend-mode:lighten">
<path d="M362.709 214.774C362.709 208.522 361.505 202.331 359.165 196.555C356.826 190.779 353.397 185.531 349.074 181.11C344.751 176.69 339.619 173.183 333.971 170.79C328.323 168.398 322.27 167.166 316.156 167.166C310.043 167.166 303.989 168.398 298.341 170.79C292.693 173.183 287.561 176.69 283.238 181.11C278.916 185.531 275.487 190.779 273.147 196.555C270.808 202.331 269.604 208.522 269.604 214.774L362.709 214.774Z" fill="url(#paint2_linear_2_270)"/>
</g>
</g>
<g style="mix-blend-mode:lighten">
<ellipse cx="259.244" cy="135.495" rx="33.6158" ry="34.3777" fill="url(#paint3_linear_2_270)"/>
</g>
<g style="mix-blend-mode:lighten">
<path d="M341.255 265.294C341.255 254.28 339.134 243.374 335.013 233.199C330.891 223.023 324.85 213.777 317.235 205.989C309.619 198.201 300.579 192.024 290.629 187.809C280.679 183.594 270.014 181.425 259.244 181.425C248.475 181.425 237.81 183.594 227.86 187.809C217.91 192.024 208.869 198.201 201.254 205.989C193.639 213.777 187.598 223.023 183.476 233.199C179.355 243.374 177.234 254.28 177.234 265.294L341.255 265.294Z" fill="url(#paint4_linear_2_270)"/>
</g>
</g>
<defs>
<linearGradient id="paint0_linear_2_270" x1="356.054" y1="-32.7319" x2="80.7466" y2="354.232" gradientUnits="userSpaceOnUse">
<stop stop-color="#F39222"/>
<stop offset="1" stop-color="#965100"/>
</linearGradient>
<linearGradient id="paint1_linear_2_270" x1="316.156" y1="118.138" x2="316.156" y2="157.166" gradientUnits="userSpaceOnUse">
<stop stop-color="white"/>
<stop offset="1" stop-color="white" stop-opacity="0"/>
</linearGradient>
<linearGradient id="paint2_linear_2_270" x1="316.156" y1="167.166" x2="316.156" y2="214.774" gradientUnits="userSpaceOnUse">
<stop stop-color="white"/>
<stop offset="1" stop-color="white" stop-opacity="0"/>
</linearGradient>
<linearGradient id="paint3_linear_2_270" x1="176.588" y1="84.3328" x2="304.84" y2="182.604" gradientUnits="userSpaceOnUse">
<stop stop-color="white"/>
<stop offset="1" stop-color="white" stop-opacity="0"/>
</linearGradient>
<linearGradient id="paint4_linear_2_270" x1="138.858" y1="154.957" x2="360.603" y2="288.601" gradientUnits="userSpaceOnUse">
<stop stop-color="white"/>
<stop offset="1" stop-color="white" stop-opacity="0"/>
</linearGradient>
<clipPath id="clip0_2_270">
<rect width="344" height="259" rx="18" fill="white"/>
</clipPath>
</defs>
</svg>
