<svg width="344" height="259" viewBox="0 0 344 259" fill="none" xmlns="http://www.w3.org/2000/svg">
<g clip-path="url(#clip0_2_236)">
<rect width="344" height="259" rx="16" fill="url(#paint0_linear_2_236)"/>
<path d="M30.34 53.2C29.5933 53.2 28.8933 53.08 28.24 52.84C27.6 52.6 27.0333 52.2533 26.54 51.8C26.06 51.3333 25.68 50.7667 25.4 50.1C25.1333 49.4333 25 48.6667 25 47.8C25 46.6667 25.2267 45.7067 25.68 44.92C26.1333 44.1333 26.76 43.5333 27.56 43.12C28.3733 42.7067 29.32 42.5 30.4 42.5C31.4 42.5 32.3 42.7067 33.1 43.12C33.9 43.5333 34.5333 44.1333 35 44.92C35.48 45.7067 35.72 46.6667 35.72 47.8C35.72 48.6667 35.5867 49.44 35.32 50.12C35.0667 50.7867 34.7 51.3533 34.22 51.82C33.7533 52.2733 33.1867 52.62 32.52 52.86C31.8667 53.0867 31.14 53.2 30.34 53.2ZM30.38 50.68C30.8467 50.68 31.24 50.5667 31.56 50.34C31.88 50.1 32.12 49.7667 32.28 49.34C32.4533 48.9 32.54 48.3867 32.54 47.8C32.54 47.2267 32.4533 46.7333 32.28 46.32C32.12 45.9067 31.8733 45.5867 31.54 45.36C31.22 45.1333 30.8267 45.02 30.36 45.02C29.6667 45.02 29.1267 45.2733 28.74 45.78C28.3667 46.2733 28.18 46.9467 28.18 47.8C28.18 48.3867 28.2667 48.9 28.44 49.34C28.6133 49.7667 28.86 50.1 29.18 50.34C29.5133 50.5667 29.9133 50.68 30.38 50.68ZM31.94 43.06L29.04 42.86C29.1733 42.7667 29.2667 42.64 29.32 42.48C29.3733 42.32 29.4 42.1667 29.4 42.02C29.4 41.78 29.32 41.5867 29.16 41.44C29 41.28 28.82 41.1333 28.62 41C28.4333 40.88 28.2467 40.7133 28.06 40.5C27.8867 40.2867 27.7467 40.0333 27.64 39.74C27.5333 39.4333 27.5067 39.0933 27.56 38.72H30.48C30.48 38.9733 30.56 39.1867 30.72 39.36C30.88 39.52 31.0867 39.6933 31.34 39.88C31.6333 40.08 31.88 40.3267 32.08 40.62C32.2933 40.9133 32.4 41.26 32.4 41.66C32.4 41.9133 32.36 42.1533 32.28 42.38C32.2 42.5933 32.0867 42.82 31.94 43.06ZM38.6595 53C38.4595 52.3733 38.2795 51.7 38.1195 50.98C37.9595 50.26 37.8329 49.4333 37.7395 48.5C37.6462 47.5533 37.5995 46.4467 37.5995 45.18C37.5995 43.5933 37.8329 42.3133 38.2995 41.34C38.7662 40.3667 39.3995 39.6533 40.1995 39.2C41.0129 38.7467 41.9262 38.52 42.9395 38.52C43.9662 38.52 44.8795 38.7467 45.6795 39.2C46.4929 39.6533 47.1329 40.3667 47.5995 41.34C48.0662 42.3133 48.2995 43.5933 48.2995 45.18C48.2995 46.4333 48.2529 47.5333 48.1595 48.48C48.0662 49.4133 47.9395 50.2467 47.7795 50.98C47.6329 51.7 47.4529 52.3733 47.2395 53H44.1595C44.3462 52.3733 44.5062 51.68 44.6395 50.92C44.7862 50.16 44.8995 49.3067 44.9795 48.36C45.0729 47.4 45.1195 46.32 45.1195 45.12C45.1195 44.12 45.0329 43.3267 44.8595 42.74C44.6995 42.14 44.4529 41.7067 44.1195 41.44C43.7995 41.1733 43.4062 41.04 42.9395 41.04C42.4862 41.04 42.0929 41.1733 41.7595 41.44C41.4395 41.6933 41.1929 42.12 41.0195 42.72C40.8462 43.32 40.7595 44.12 40.7595 45.12C40.7595 46.3333 40.7995 47.42 40.8795 48.38C40.9729 49.3267 41.0929 50.18 41.2395 50.94C41.3995 51.6867 41.5662 52.3733 41.7395 53H38.6595ZM56.6111 53.2C55.8511 53.2 55.1444 53.0867 54.4911 52.86C53.8511 52.62 53.2911 52.2867 52.8111 51.86C52.3444 51.42 51.9778 50.9 51.7111 50.3C51.4578 49.6867 51.3311 49.0067 51.3311 48.26C51.3311 47.6867 51.4178 47.14 51.5911 46.62C51.7644 46.0867 52.0378 45.6467 52.4111 45.3V45.22C51.8511 45.06 51.3778 44.8333 50.9911 44.54C50.6044 44.2467 50.3111 43.8867 50.1111 43.46C49.9111 43.02 49.8111 42.5333 49.8111 42C49.8111 41.4267 49.9711 40.8733 50.2911 40.34C50.6111 39.8067 51.0844 39.3733 51.7111 39.04C52.3378 38.6933 53.1178 38.52 54.0511 38.52C54.9444 38.52 55.7044 38.68 56.3311 39C56.9578 39.3067 57.4378 39.7067 57.7711 40.2C58.1044 40.6933 58.2711 41.22 58.2711 41.78C58.2711 42.0733 58.2244 42.36 58.1311 42.64C58.0511 42.92 57.9378 43.1667 57.7911 43.38V43.44C57.8578 43.44 57.9178 43.4467 57.9711 43.46C58.0244 43.46 58.1111 43.4733 58.2311 43.5C58.9511 43.6067 59.5911 43.8733 60.1511 44.3C60.7111 44.7267 61.1444 45.2667 61.4511 45.92C61.7711 46.5733 61.9311 47.2933 61.9311 48.08C61.9311 48.88 61.8044 49.5933 61.5511 50.22C61.3111 50.8467 60.9578 51.3867 60.4911 51.84C60.0244 52.28 59.4644 52.62 58.8111 52.86C58.1578 53.0867 57.4244 53.2 56.6111 53.2ZM56.6511 50.7C57.1578 50.7 57.5644 50.5933 57.8711 50.38C58.1911 50.1533 58.4178 49.84 58.5511 49.44C58.6978 49.04 58.7711 48.5867 58.7711 48.08C58.7711 47.5733 58.6978 47.1267 58.5511 46.74C58.4178 46.3533 58.1911 46.0533 57.8711 45.84C57.5644 45.6267 57.1511 45.52 56.6311 45.52C55.8711 45.52 55.3244 45.76 54.9911 46.24C54.6711 46.7067 54.5111 47.32 54.5111 48.08C54.5111 48.5867 54.5778 49.04 54.7111 49.44C54.8578 49.84 55.0844 50.1533 55.3911 50.38C55.7111 50.5933 56.1311 50.7 56.6511 50.7ZM54.0511 43.58C54.5178 43.58 54.8578 43.44 55.0711 43.16C55.2978 42.8667 55.4111 42.5333 55.4111 42.16C55.4111 41.76 55.3044 41.42 55.0911 41.14C54.8778 40.86 54.5244 40.72 54.0311 40.72C53.5644 40.72 53.2178 40.86 52.9911 41.14C52.7644 41.42 52.6511 41.76 52.6511 42.16C52.6511 42.52 52.7578 42.8467 52.9711 43.14C53.1978 43.4333 53.5578 43.58 54.0511 43.58ZM69.2105 53.2C67.5571 53.2 66.2838 52.74 65.3905 51.82C64.4971 50.9 64.0505 49.5933 64.0505 47.9V42.8C64.0505 42.0533 64.1638 41.42 64.3905 40.9C64.6171 40.38 64.9238 39.96 65.3105 39.64C65.7105 39.32 66.1571 39.0867 66.6505 38.94C67.1571 38.7933 67.6771 38.72 68.2105 38.72H73.6105V41.2H68.5305C68.0905 41.2 67.7438 41.3067 67.4905 41.52C67.2505 41.7333 67.1305 42.0733 67.1305 42.54V43.02C67.1305 43.2067 67.1171 43.42 67.0905 43.66C67.0638 43.8867 67.0238 44.1067 66.9705 44.32H67.0705C67.2971 44.0267 67.5571 43.78 67.8505 43.58C68.1438 43.3667 68.4838 43.2 68.8705 43.08C69.2705 42.96 69.7238 42.9 70.2305 42.9C71.0971 42.9 71.8571 43.1067 72.5105 43.52C73.1771 43.9333 73.6905 44.52 74.0505 45.28C74.4238 46.04 74.6105 46.94 74.6105 47.98C74.6105 49.0733 74.3905 50.0133 73.9505 50.8C73.5238 51.5733 72.9038 52.1667 72.0905 52.58C71.2905 52.9933 70.3305 53.2 69.2105 53.2ZM69.2505 50.72C69.7838 50.72 70.2171 50.6 70.5505 50.36C70.8838 50.12 71.1238 49.8 71.2705 49.4C71.4305 48.9867 71.5105 48.5333 71.5105 48.04C71.5105 47.5067 71.4238 47.0467 71.2505 46.66C71.0771 46.26 70.8238 45.9533 70.4905 45.74C70.1705 45.5267 69.7771 45.42 69.3105 45.42C68.7371 45.42 68.2771 45.54 67.9305 45.78C67.5971 46.02 67.3505 46.3333 67.1905 46.72C67.0438 47.1067 66.9705 47.5333 66.9705 48V48.32C66.9705 48.7733 67.0505 49.18 67.2105 49.54C67.3838 49.9 67.6371 50.1867 67.9705 50.4C68.3038 50.6133 68.7305 50.72 69.2505 50.72ZM81.7216 53.2C80.6549 53.2 79.7282 53.0067 78.9416 52.62C78.1549 52.2333 77.5482 51.7 77.1216 51.02C76.6949 50.34 76.4816 49.5733 76.4816 48.72C76.4816 48.4 76.5016 48.0933 76.5416 47.8C76.5816 47.5067 76.6482 47.22 76.7416 46.94H79.8216C79.7682 47.1667 79.7216 47.42 79.6816 47.7C79.6549 47.9667 79.6416 48.2133 79.6416 48.44C79.6416 48.8533 79.7149 49.2333 79.8616 49.58C80.0216 49.9133 80.2616 50.18 80.5816 50.38C80.9016 50.58 81.2949 50.68 81.7616 50.68C82.2816 50.68 82.6949 50.5867 83.0016 50.4C83.3082 50.2 83.5282 49.92 83.6616 49.56C83.7949 49.2 83.8616 48.7867 83.8616 48.32V42.98C83.8616 42.3533 83.6882 41.8733 83.3416 41.54C83.0082 41.2067 82.5682 41.04 82.0216 41.04C81.6482 41.04 81.3216 41.1067 81.0416 41.24C80.7616 41.3733 80.5416 41.5733 80.3816 41.84C80.2349 42.1067 80.1616 42.4333 80.1616 42.82C80.1616 42.98 80.1682 43.1667 80.1816 43.38C80.2082 43.58 80.2416 43.7933 80.2816 44.02H77.2016C77.1482 43.7933 77.0949 43.56 77.0416 43.32C77.0016 43.08 76.9816 42.7933 76.9816 42.46C76.9816 41.6067 77.2016 40.8933 77.6416 40.32C78.0816 39.7333 78.6749 39.2867 79.4216 38.98C80.1816 38.6733 81.0282 38.52 81.9616 38.52C82.9616 38.52 83.8282 38.7 84.5616 39.06C85.2949 39.4067 85.8616 39.9067 86.2616 40.56C86.6616 41.2133 86.8616 41.9933 86.8616 42.9V48.36C86.8616 49.36 86.6549 50.2267 86.2416 50.96C85.8416 51.68 85.2616 52.2333 84.5016 52.62C83.7416 53.0067 82.8149 53.2 81.7216 53.2ZM94.7597 53.2C93.0664 53.2 91.7664 52.74 90.8597 51.82C89.953 50.8867 89.4997 49.5933 89.4997 47.94V38.72H92.5197V48.14C92.5197 48.66 92.5997 49.1133 92.7597 49.5C92.933 49.8733 93.1864 50.1667 93.5197 50.38C93.853 50.58 94.2664 50.68 94.7597 50.68C95.2264 50.68 95.613 50.58 95.9197 50.38C96.2397 50.18 96.473 49.92 96.6197 49.6C96.7797 49.2667 96.8597 48.9067 96.8597 48.52C96.8597 47.92 96.753 47.42 96.5397 47.02C96.3397 46.6067 96.1064 46.2133 95.8397 45.84C95.5597 45.44 95.313 44.9933 95.0997 44.5C94.8997 44.0067 94.8397 43.4067 94.9197 42.7H98.0597C98.0464 43.1933 98.1264 43.6067 98.2997 43.94C98.473 44.2733 98.693 44.64 98.9597 45.04C99.2397 45.4533 99.4864 45.9133 99.6997 46.42C99.9264 46.9267 100.04 47.5733 100.04 48.36C100.04 49.32 99.8264 50.1667 99.3997 50.9C98.973 51.62 98.3597 52.1867 97.5597 52.6C96.773 53 95.8397 53.2 94.7597 53.2ZM102.976 53C102.776 52.3733 102.596 51.7 102.436 50.98C102.276 50.26 102.149 49.4333 102.056 48.5C101.963 47.5533 101.916 46.4467 101.916 45.18C101.916 43.5933 102.149 42.3133 102.616 41.34C103.083 40.3667 103.716 39.6533 104.516 39.2C105.329 38.7467 106.243 38.52 107.256 38.52C108.283 38.52 109.196 38.7467 109.996 39.2C110.809 39.6533 111.449 40.3667 111.916 41.34C112.383 42.3133 112.616 43.5933 112.616 45.18C112.616 46.4333 112.569 47.5333 112.476 48.48C112.383 49.4133 112.256 50.2467 112.096 50.98C111.949 51.7 111.769 52.3733 111.556 53H108.476C108.663 52.3733 108.823 51.68 108.956 50.92C109.103 50.16 109.216 49.3067 109.296 48.36C109.389 47.4 109.436 46.32 109.436 45.12C109.436 44.12 109.349 43.3267 109.176 42.74C109.016 42.14 108.769 41.7067 108.436 41.44C108.116 41.1733 107.723 41.04 107.256 41.04C106.803 41.04 106.409 41.1733 106.076 41.44C105.756 41.6933 105.509 42.12 105.336 42.72C105.163 43.32 105.076 44.12 105.076 45.12C105.076 46.3333 105.116 47.42 105.196 48.38C105.289 49.3267 105.409 50.18 105.556 50.94C105.716 51.6867 105.883 52.3733 106.056 53H102.976ZM120.268 53.2C118.574 53.2 117.274 52.74 116.368 51.82C115.461 50.8867 115.007 49.5933 115.007 47.94V38.72H118.028V48.14C118.028 48.66 118.108 49.1133 118.268 49.5C118.441 49.8733 118.694 50.1667 119.028 50.38C119.361 50.58 119.774 50.68 120.268 50.68C120.734 50.68 121.121 50.58 121.428 50.38C121.748 50.18 121.981 49.92 122.128 49.6C122.288 49.2667 122.368 48.9067 122.368 48.52C122.368 47.92 122.261 47.42 122.048 47.02C121.848 46.6067 121.614 46.2133 121.348 45.84C121.068 45.44 120.821 44.9933 120.608 44.5C120.408 44.0067 120.348 43.4067 120.428 42.7H123.568C123.554 43.1933 123.634 43.6067 123.808 43.94C123.981 44.2733 124.201 44.64 124.468 45.04C124.748 45.4533 124.994 45.9133 125.208 46.42C125.434 46.9267 125.548 47.5733 125.548 48.36C125.548 49.32 125.334 50.1667 124.908 50.9C124.481 51.62 123.868 52.1867 123.068 52.6C122.281 53 121.348 53.2 120.268 53.2ZM133.794 53C133.541 52.3067 133.334 51.66 133.174 51.06C133.028 50.4467 132.914 49.8333 132.834 49.22C132.768 48.5933 132.734 47.92 132.734 47.2C132.734 46.04 132.841 45 133.054 44.08C133.268 43.16 133.614 42.3667 134.094 41.7C134.588 41.02 135.248 40.4667 136.074 40.04C136.901 39.6 137.934 39.2867 139.174 39.1C139.601 39.0333 140.054 38.9667 140.534 38.9C141.028 38.8333 141.554 38.7667 142.114 38.7C142.688 38.6333 143.301 38.5667 143.954 38.5L144.294 41.04C143.868 41.0933 143.428 41.1467 142.974 41.2C142.521 41.24 142.074 41.2867 141.634 41.34C141.194 41.3933 140.781 41.4467 140.394 41.5C140.008 41.54 139.668 41.58 139.374 41.62C138.854 41.6867 138.314 41.7933 137.754 41.94C137.208 42.0733 136.708 42.2733 136.254 42.54C135.814 42.8067 135.481 43.1667 135.254 43.62H135.334C135.534 43.4067 135.754 43.24 135.994 43.12C136.234 43 136.488 42.9133 136.754 42.86C137.034 42.8067 137.308 42.78 137.574 42.78C138.294 42.78 138.914 42.9733 139.434 43.36C139.968 43.7333 140.354 44.26 140.594 44.94H140.674C140.928 44.2333 141.341 43.7 141.914 43.34C142.488 42.9667 143.221 42.78 144.114 42.78C145.061 42.78 145.861 43.0067 146.514 43.46C147.181 43.9 147.681 44.5 148.014 45.26C148.361 46.02 148.534 46.88 148.534 47.84C148.534 48.4533 148.494 49.0467 148.414 49.62C148.334 50.18 148.208 50.74 148.034 51.3C147.874 51.8467 147.674 52.4133 147.434 53H144.334C144.668 52.1867 144.928 51.3733 145.114 50.56C145.301 49.7333 145.394 48.8467 145.394 47.9C145.394 47.42 145.341 46.9667 145.234 46.54C145.128 46.1133 144.948 45.7733 144.694 45.52C144.441 45.2533 144.094 45.12 143.654 45.12C143.294 45.12 143.001 45.2267 142.774 45.44C142.548 45.64 142.381 45.92 142.274 46.28C142.168 46.64 142.114 47.04 142.114 47.48V49.92H139.134V47.48C139.134 46.96 139.074 46.5267 138.954 46.18C138.848 45.8333 138.674 45.5733 138.434 45.4C138.208 45.2133 137.921 45.12 137.574 45.12C137.001 45.12 136.568 45.3467 136.274 45.8C135.994 46.2533 135.854 46.9733 135.854 47.96C135.854 48.8533 135.948 49.7133 136.134 50.54C136.321 51.3533 136.581 52.1733 136.914 53H133.794ZM155.257 53.2C154.19 53.2 153.263 53.0067 152.477 52.62C151.69 52.2333 151.083 51.7 150.657 51.02C150.23 50.34 150.017 49.5733 150.017 48.72C150.017 48.4 150.037 48.0933 150.077 47.8C150.117 47.5067 150.183 47.22 150.277 46.94H153.357C153.303 47.1667 153.257 47.42 153.217 47.7C153.19 47.9667 153.177 48.2133 153.177 48.44C153.177 48.8533 153.25 49.2333 153.397 49.58C153.557 49.9133 153.797 50.18 154.117 50.38C154.437 50.58 154.83 50.68 155.297 50.68C155.817 50.68 156.23 50.5867 156.537 50.4C156.843 50.2 157.063 49.92 157.197 49.56C157.33 49.2 157.397 48.7867 157.397 48.32V42.98C157.397 42.3533 157.223 41.8733 156.877 41.54C156.543 41.2067 156.103 41.04 155.557 41.04C155.183 41.04 154.857 41.1067 154.577 41.24C154.297 41.3733 154.077 41.5733 153.917 41.84C153.77 42.1067 153.697 42.4333 153.697 42.82C153.697 42.98 153.703 43.1667 153.717 43.38C153.743 43.58 153.777 43.7933 153.817 44.02H150.737C150.683 43.7933 150.63 43.56 150.577 43.32C150.537 43.08 150.517 42.7933 150.517 42.46C150.517 41.6067 150.737 40.8933 151.177 40.32C151.617 39.7333 152.21 39.2867 152.957 38.98C153.717 38.6733 154.563 38.52 155.497 38.52C156.497 38.52 157.363 38.7 158.097 39.06C158.83 39.4067 159.397 39.9067 159.797 40.56C160.197 41.2133 160.397 41.9933 160.397 42.9V48.36C160.397 49.36 160.19 50.2267 159.777 50.96C159.377 51.68 158.797 52.2333 158.037 52.62C157.277 53.0067 156.35 53.2 155.257 53.2ZM167.935 53.18C167.188 53.18 166.488 53.0667 165.835 52.84C165.195 52.6133 164.628 52.2867 164.135 51.86C163.655 51.42 163.275 50.8933 162.995 50.28C162.728 49.6533 162.595 48.9467 162.595 48.16C162.595 47.1467 162.795 46.2933 163.195 45.6C163.608 44.9067 164.188 44.3667 164.935 43.98C165.682 43.5933 166.548 43.3467 167.535 43.24C168.202 43.1733 168.675 43.0333 168.955 42.82C169.248 42.6067 169.395 42.3 169.395 41.9C169.395 41.5667 169.268 41.3 169.015 41.1C168.762 40.8867 168.408 40.78 167.955 40.78C167.502 40.78 167.142 40.8933 166.875 41.12C166.622 41.3333 166.495 41.62 166.495 41.98C166.495 42.0467 166.502 42.12 166.515 42.2C166.528 42.2667 166.542 42.3533 166.555 42.46H163.575C163.535 42.2733 163.508 42.1133 163.495 41.98C163.482 41.8333 163.475 41.7 163.475 41.58C163.475 40.98 163.662 40.4533 164.035 40C164.422 39.5333 164.948 39.1733 165.615 38.92C166.295 38.6533 167.075 38.52 167.955 38.52C168.888 38.52 169.688 38.6533 170.355 38.92C171.022 39.1867 171.535 39.5533 171.895 40.02C172.255 40.4867 172.435 41.0267 172.435 41.64C172.435 42.12 172.302 42.5733 172.035 43C171.782 43.4267 171.328 43.76 170.675 44V44.08C171.462 44.36 172.095 44.84 172.575 45.52C173.068 46.2 173.315 47.08 173.315 48.16C173.315 48.9467 173.182 49.6533 172.915 50.28C172.662 50.8933 172.295 51.42 171.815 51.86C171.348 52.2867 170.782 52.6133 170.115 52.84C169.462 53.0667 168.735 53.18 167.935 53.18ZM167.975 50.66C168.415 50.66 168.795 50.5533 169.115 50.34C169.435 50.1133 169.682 49.8133 169.855 49.44C170.042 49.0667 170.135 48.64 170.135 48.16C170.135 47.6533 170.042 47.2133 169.855 46.84C169.682 46.4667 169.428 46.18 169.095 45.98C168.775 45.78 168.395 45.68 167.955 45.68C167.515 45.68 167.128 45.7867 166.795 46C166.475 46.2 166.222 46.4867 166.035 46.86C165.862 47.22 165.775 47.6533 165.775 48.16C165.775 48.64 165.862 49.0667 166.035 49.44C166.222 49.8133 166.482 50.1133 166.815 50.34C167.148 50.5533 167.535 50.66 167.975 50.66ZM176.14 53C175.94 52.3733 175.76 51.7 175.6 50.98C175.44 50.26 175.313 49.4333 175.22 48.5C175.127 47.5533 175.08 46.4467 175.08 45.18C175.08 43.5933 175.313 42.3133 175.78 41.34C176.247 40.3667 176.88 39.6533 177.68 39.2C178.493 38.7467 179.407 38.52 180.42 38.52C181.447 38.52 182.36 38.7467 183.16 39.2C183.973 39.6533 184.613 40.3667 185.08 41.34C185.547 42.3133 185.78 43.5933 185.78 45.18C185.78 46.4333 185.733 47.5333 185.64 48.48C185.547 49.4133 185.42 50.2467 185.26 50.98C185.113 51.7 184.933 52.3733 184.72 53H181.64C181.827 52.3733 181.987 51.68 182.12 50.92C182.267 50.16 182.38 49.3067 182.46 48.36C182.553 47.4 182.6 46.32 182.6 45.12C182.6 44.12 182.513 43.3267 182.34 42.74C182.18 42.14 181.933 41.7067 181.6 41.44C181.28 41.1733 180.887 41.04 180.42 41.04C179.967 41.04 179.573 41.1733 179.24 41.44C178.92 41.6933 178.673 42.12 178.5 42.72C178.327 43.32 178.24 44.12 178.24 45.12C178.24 46.3333 178.28 47.42 178.36 48.38C178.453 49.3267 178.573 50.18 178.72 50.94C178.88 51.6867 179.047 52.3733 179.22 53H176.14ZM193.432 53.2C191.738 53.2 190.438 52.74 189.532 51.82C188.625 50.8867 188.172 49.5933 188.172 47.94V38.72H191.192V48.14C191.192 48.66 191.272 49.1133 191.432 49.5C191.605 49.8733 191.858 50.1667 192.192 50.38C192.525 50.58 192.938 50.68 193.432 50.68C193.898 50.68 194.285 50.58 194.592 50.38C194.912 50.18 195.145 49.92 195.292 49.6C195.452 49.2667 195.532 48.9067 195.532 48.52C195.532 47.92 195.425 47.42 195.212 47.02C195.012 46.6067 194.778 46.2133 194.512 45.84C194.232 45.44 193.985 44.9933 193.772 44.5C193.572 44.0067 193.512 43.4067 193.592 42.7H196.732C196.718 43.1933 196.798 43.6067 196.972 43.94C197.145 44.2733 197.365 44.64 197.632 45.04C197.912 45.4533 198.158 45.9133 198.372 46.42C198.598 46.9267 198.712 47.5733 198.712 48.36C198.712 49.32 198.498 50.1667 198.072 50.9C197.645 51.62 197.032 52.1867 196.232 52.6C195.445 53 194.512 53.2 193.432 53.2ZM207.728 53.2C206.581 53.2 205.561 53.0333 204.668 52.7C203.774 52.3533 203.014 51.86 202.388 51.22C201.774 50.58 201.308 49.8133 200.988 48.92C200.668 48.0267 200.508 47.0267 200.508 45.92C200.508 43.9733 200.994 42.3933 201.968 41.18C202.954 39.9533 204.374 39.2133 206.228 38.96C206.201 38.8 206.181 38.66 206.168 38.54C206.168 38.42 206.168 38.3 206.168 38.18V37.94H209.288V38.18C209.288 38.3 209.281 38.42 209.268 38.54C209.268 38.66 209.254 38.7933 209.228 38.94C211.081 39.1933 212.501 39.9267 213.488 41.14C214.474 42.3533 214.968 43.9533 214.968 45.94C214.968 47.02 214.808 48.0067 214.488 48.9C214.168 49.7933 213.694 50.56 213.068 51.2C212.454 51.84 211.694 52.3333 210.788 52.68C209.894 53.0267 208.874 53.2 207.728 53.2ZM207.708 50.64C208.588 50.64 209.321 50.4667 209.908 50.12C210.508 49.7733 210.961 49.2533 211.268 48.56C211.574 47.8533 211.728 46.9733 211.728 45.92C211.728 44.5333 211.501 43.4733 211.048 42.74C210.594 41.9933 209.934 41.52 209.068 41.32C209.094 41.4933 209.128 41.7267 209.168 42.02C209.208 42.3 209.228 42.6667 209.228 43.12V45.98H206.208V43.12C206.208 42.6933 206.221 42.3467 206.248 42.08C206.288 41.8 206.328 41.5467 206.368 41.32C205.488 41.5333 204.828 42.0267 204.388 42.8C203.948 43.5733 203.728 44.6133 203.728 45.92C203.728 46.9733 203.881 47.8533 204.188 48.56C204.508 49.2533 204.961 49.7733 205.548 50.12C206.148 50.4667 206.868 50.64 207.708 50.64ZM218.033 53C217.779 52.3067 217.573 51.66 217.413 51.06C217.266 50.4467 217.153 49.8333 217.073 49.22C217.006 48.5933 216.973 47.92 216.973 47.2C216.973 46.04 217.079 45 217.293 44.08C217.506 43.16 217.853 42.3667 218.333 41.7C218.826 41.02 219.486 40.4667 220.313 40.04C221.139 39.6 222.173 39.2867 223.413 39.1C223.839 39.0333 224.293 38.9667 224.773 38.9C225.266 38.8333 225.793 38.7667 226.353 38.7C226.926 38.6333 227.539 38.5667 228.193 38.5L228.533 41.04C228.106 41.0933 227.666 41.1467 227.213 41.2C226.759 41.24 226.313 41.2867 225.873 41.34C225.433 41.3933 225.019 41.4467 224.633 41.5C224.246 41.54 223.906 41.58 223.613 41.62C223.093 41.6867 222.553 41.7933 221.993 41.94C221.446 42.0733 220.946 42.2733 220.493 42.54C220.053 42.8067 219.719 43.1667 219.493 43.62H219.573C219.773 43.4067 219.993 43.24 220.233 43.12C220.473 43 220.726 42.9133 220.993 42.86C221.273 42.8067 221.546 42.78 221.813 42.78C222.533 42.78 223.153 42.9733 223.673 43.36C224.206 43.7333 224.593 44.26 224.833 44.94H224.913C225.166 44.2333 225.579 43.7 226.153 43.34C226.726 42.9667 227.459 42.78 228.353 42.78C229.299 42.78 230.099 43.0067 230.753 43.46C231.419 43.9 231.919 44.5 232.253 45.26C232.599 46.02 232.773 46.88 232.773 47.84C232.773 48.4533 232.733 49.0467 232.653 49.62C232.573 50.18 232.446 50.74 232.273 51.3C232.113 51.8467 231.913 52.4133 231.673 53H228.573C228.906 52.1867 229.166 51.3733 229.353 50.56C229.539 49.7333 229.633 48.8467 229.633 47.9C229.633 47.42 229.579 46.9667 229.473 46.54C229.366 46.1133 229.186 45.7733 228.933 45.52C228.679 45.2533 228.333 45.12 227.893 45.12C227.533 45.12 227.239 45.2267 227.013 45.44C226.786 45.64 226.619 45.92 226.513 46.28C226.406 46.64 226.353 47.04 226.353 47.48V49.92H223.373V47.48C223.373 46.96 223.313 46.5267 223.193 46.18C223.086 45.8333 222.913 45.5733 222.673 45.4C222.446 45.2133 222.159 45.12 221.813 45.12C221.239 45.12 220.806 45.3467 220.513 45.8C220.233 46.2533 220.093 46.9733 220.093 47.96C220.093 48.8533 220.186 49.7133 220.373 50.54C220.559 51.3533 220.819 52.1733 221.153 53H218.033ZM239.906 53.2C238.826 53.2 237.892 53.0067 237.106 52.62C236.319 52.2333 235.712 51.68 235.286 50.96C234.859 50.24 234.646 49.3867 234.646 48.4C234.646 47.9733 234.679 47.5467 234.746 47.12C234.812 46.6933 234.979 46.1533 235.246 45.5L233.626 45.96H239.426L238.286 45.58C238.072 46.14 237.939 46.6467 237.886 47.1C237.832 47.5533 237.806 47.9267 237.806 48.22C237.806 48.9267 237.979 49.5133 238.326 49.98C238.672 50.4467 239.199 50.68 239.906 50.68C240.412 50.68 240.819 50.5733 241.126 50.36C241.432 50.1333 241.652 49.8267 241.786 49.44C241.932 49.0533 242.006 48.6133 242.006 48.12C242.006 47.5467 241.926 47.0267 241.766 46.56C241.606 46.0933 241.399 45.66 241.146 45.26C240.906 44.8467 240.639 44.46 240.346 44.1C239.932 43.5533 239.546 43.0267 239.186 42.52C238.839 42 238.579 41.44 238.406 40.84C238.232 40.2267 238.199 39.52 238.306 38.72H241.406C241.352 39.2267 241.399 39.7 241.546 40.14C241.692 40.58 241.906 41.0067 242.186 41.42C242.479 41.82 242.786 42.24 243.106 42.68C243.439 43.12 243.766 43.6 244.086 44.12C244.406 44.6267 244.666 45.2 244.866 45.84C245.079 46.48 245.186 47.2133 245.186 48.04C245.186 49.08 244.972 49.9867 244.546 50.76C244.132 51.5333 243.532 52.1333 242.746 52.56C241.959 52.9867 241.012 53.2 239.906 53.2ZM253.788 53.2C252.748 53.2 251.821 53.0533 251.008 52.76C250.194 52.4533 249.501 51.9867 248.928 51.36C248.368 50.7333 247.934 49.9333 247.628 48.96C247.334 47.9733 247.188 46.7933 247.188 45.42C247.188 44.6067 247.248 43.8133 247.368 43.04C247.488 42.2667 247.654 41.52 247.868 40.8C248.094 40.08 248.361 39.3867 248.668 38.72H251.688C251.408 39.44 251.168 40.1467 250.968 40.84C250.781 41.52 250.634 42.2333 250.528 42.98C250.421 43.7133 250.368 44.5267 250.368 45.42C250.368 46.62 250.488 47.6133 250.728 48.4C250.968 49.1733 251.341 49.7467 251.848 50.12C252.354 50.4933 253.008 50.68 253.808 50.68C254.754 50.68 255.474 50.4867 255.968 50.1C256.474 49.7 256.728 49.1533 256.728 48.46C256.728 48.06 256.628 47.7067 256.428 47.4C256.228 47.08 255.934 46.8333 255.548 46.66C255.174 46.4733 254.701 46.38 254.128 46.38H253.448V43.94H254.728C255.101 43.94 255.414 43.9 255.668 43.82C255.934 43.7267 256.134 43.6067 256.268 43.46C256.401 43.3 256.467 43.1133 256.467 42.9C256.467 42.62 256.368 42.38 256.168 42.18C255.968 41.9667 255.748 41.7667 255.508 41.58C255.268 41.38 255.034 41.1667 254.808 40.94C254.581 40.7133 254.401 40.4267 254.268 40.08C254.134 39.72 254.081 39.2667 254.108 38.72H257.188C257.188 39.04 257.294 39.32 257.508 39.56C257.721 39.8 257.954 40.02 258.208 40.22C258.541 40.4733 258.854 40.78 259.148 41.14C259.454 41.5 259.608 42.0067 259.608 42.66C259.608 43.1133 259.508 43.5067 259.308 43.84C259.108 44.1733 258.834 44.4467 258.488 44.66C258.154 44.86 257.761 45 257.308 45.08V45.14C257.761 45.2333 258.181 45.42 258.568 45.7C258.954 45.98 259.268 46.3667 259.508 46.86C259.748 47.3533 259.868 47.96 259.868 48.68C259.868 49.6267 259.601 50.44 259.068 51.12C258.548 51.7867 257.828 52.3 256.908 52.66C256.001 53.02 254.961 53.2 253.788 53.2ZM262.683 53C262.483 52.3733 262.303 51.7 262.143 50.98C261.983 50.26 261.856 49.4333 261.763 48.5C261.67 47.5533 261.623 46.4467 261.623 45.18C261.623 43.5933 261.856 42.3133 262.323 41.34C262.79 40.3667 263.423 39.6533 264.223 39.2C265.036 38.7467 265.95 38.52 266.963 38.52C267.99 38.52 268.903 38.7467 269.703 39.2C270.516 39.6533 271.156 40.3667 271.623 41.34C272.09 42.3133 272.323 43.5933 272.323 45.18C272.323 46.4333 272.276 47.5333 272.183 48.48C272.09 49.4133 271.963 50.2467 271.803 50.98C271.656 51.7 271.476 52.3733 271.263 53H268.183C268.37 52.3733 268.53 51.68 268.663 50.92C268.81 50.16 268.923 49.3067 269.003 48.36C269.096 47.4 269.143 46.32 269.143 45.12C269.143 44.12 269.056 43.3267 268.883 42.74C268.723 42.14 268.476 41.7067 268.143 41.44C267.823 41.1733 267.43 41.04 266.963 41.04C266.51 41.04 266.116 41.1733 265.783 41.44C265.463 41.6933 265.216 42.12 265.043 42.72C264.87 43.32 264.783 44.12 264.783 45.12C264.783 46.3333 264.823 47.42 264.903 48.38C264.996 49.3267 265.116 50.18 265.263 50.94C265.423 51.6867 265.59 52.3733 265.763 53H262.683ZM279.535 53.2C278.455 53.2 277.521 53.0067 276.735 52.62C275.948 52.2333 275.341 51.68 274.915 50.96C274.488 50.24 274.275 49.3867 274.275 48.4C274.275 47.9733 274.308 47.5467 274.375 47.12C274.441 46.6933 274.608 46.1533 274.875 45.5L273.255 45.96H279.055L277.915 45.58C277.701 46.14 277.568 46.6467 277.515 47.1C277.461 47.5533 277.435 47.9267 277.435 48.22C277.435 48.9267 277.608 49.5133 277.955 49.98C278.301 50.4467 278.828 50.68 279.535 50.68C280.041 50.68 280.448 50.5733 280.755 50.36C281.061 50.1333 281.281 49.8267 281.415 49.44C281.561 49.0533 281.635 48.6133 281.635 48.12C281.635 47.5467 281.555 47.0267 281.395 46.56C281.235 46.0933 281.028 45.66 280.775 45.26C280.535 44.8467 280.268 44.46 279.975 44.1C279.561 43.5533 279.175 43.0267 278.815 42.52C278.468 42 278.208 41.44 278.035 40.84C277.861 40.2267 277.828 39.52 277.935 38.72H281.035C280.981 39.2267 281.028 39.7 281.175 40.14C281.321 40.58 281.535 41.0067 281.815 41.42C282.108 41.82 282.415 42.24 282.735 42.68C283.068 43.12 283.395 43.6 283.715 44.12C284.035 44.6267 284.295 45.2 284.495 45.84C284.708 46.48 284.815 47.2133 284.815 48.04C284.815 49.08 284.601 49.9867 284.175 50.76C283.761 51.5333 283.161 52.1333 282.375 52.56C281.588 52.9867 280.641 53.2 279.535 53.2Z" fill="white"/>
<path d="M28.688 84.16C27.9413 84.16 27.28 83.9947 26.704 83.664C26.128 83.3333 25.68 82.8427 25.36 82.192C25.04 81.5307 24.88 80.7093 24.88 79.728C24.88 78.3307 25.2 77.264 25.84 76.528C26.4907 75.792 27.3493 75.424 28.416 75.424C28.864 75.424 29.2533 75.4827 29.584 75.6C29.9147 75.7067 30.2027 75.856 30.448 76.048C30.6933 76.24 30.9013 76.4533 31.072 76.688H31.168C31.1573 76.5707 31.136 76.4053 31.104 76.192C31.0827 75.968 31.072 75.7707 31.072 75.6V74.864C31.072 74.4693 30.9973 74.1173 30.848 73.808C30.6987 73.4987 30.4587 73.2533 30.128 73.072C29.808 72.8907 29.3867 72.8 28.864 72.8C28.4587 72.8 28.1013 72.864 27.792 72.992C27.4827 73.1093 27.2373 73.28 27.056 73.504C26.8853 73.7173 26.8 73.968 26.8 74.256C26.8 74.32 26.8 74.384 26.8 74.448C26.8107 74.512 26.8213 74.576 26.832 74.64H25.472C25.44 74.5333 25.4187 74.432 25.408 74.336C25.3973 74.24 25.392 74.1493 25.392 74.064C25.392 73.5947 25.5467 73.184 25.856 72.832C26.1653 72.4693 26.5813 72.1867 27.104 71.984C27.6373 71.7813 28.224 71.68 28.864 71.68C29.6213 71.68 30.2667 71.8187 30.8 72.096C31.344 72.3733 31.76 72.7627 32.048 73.264C32.336 73.7547 32.48 74.3307 32.48 74.992V79.728C32.48 81.2 32.1547 82.3093 31.504 83.056C30.8533 83.792 29.9147 84.16 28.688 84.16ZM28.688 82.992C29.5627 82.992 30.1813 82.72 30.544 82.176C30.9067 81.632 31.088 80.9067 31.088 80V79.744C31.088 78.7627 30.912 77.9947 30.56 77.44C30.208 76.8747 29.5573 76.592 28.608 76.592C27.8507 76.592 27.28 76.8853 26.896 77.472C26.5227 78.0587 26.336 78.8213 26.336 79.76C26.336 80.784 26.528 81.5787 26.912 82.144C27.296 82.7093 27.888 82.992 28.688 82.992ZM35.5435 84C35.3302 83.4987 35.1488 83.0187 34.9995 82.56C34.8502 82.1013 34.7382 81.632 34.6635 81.152C34.5995 80.6613 34.5675 80.1387 34.5675 79.584C34.5675 78.72 34.6902 77.968 34.9355 77.328C35.1808 76.6773 35.5435 76.1707 36.0235 75.808C36.5035 75.4453 37.1008 75.264 37.8155 75.264C38.4128 75.264 38.8928 75.4027 39.2555 75.68C39.6288 75.9467 39.9008 76.3147 40.0715 76.784H40.1515C40.3328 76.3147 40.6155 75.9467 40.9995 75.68C41.3835 75.4027 41.8582 75.264 42.4235 75.264C43.1382 75.264 43.7355 75.4453 44.2155 75.808C44.6955 76.1707 45.0582 76.6773 45.3035 77.328C45.5488 77.968 45.6715 78.72 45.6715 79.584C45.6715 80.1387 45.6342 80.6613 45.5595 81.152C45.4955 81.632 45.3888 82.1013 45.2395 82.56C45.1008 83.0187 44.9195 83.4987 44.6955 84H43.2555C43.5968 83.2427 43.8422 82.528 43.9915 81.856C44.1515 81.1733 44.2315 80.4107 44.2315 79.568C44.2315 78.8747 44.1568 78.2987 44.0075 77.84C43.8582 77.3707 43.6395 77.0187 43.3515 76.784C43.0742 76.5493 42.7275 76.432 42.3115 76.432C41.8315 76.432 41.4582 76.6133 41.1915 76.976C40.9248 77.3387 40.7915 77.8507 40.7915 78.512V81.088H39.4475V78.512C39.4475 77.9147 39.3248 77.4187 39.0795 77.024C38.8342 76.6293 38.4448 76.432 37.9115 76.432C37.3035 76.432 36.8342 76.6987 36.5035 77.232C36.1728 77.7547 36.0075 78.5333 36.0075 79.568C36.0075 80.1333 36.0395 80.656 36.1035 81.136C36.1782 81.616 36.2848 82.0907 36.4235 82.56C36.5728 83.0187 36.7595 83.4987 36.9835 84H35.5435ZM50.9629 88C50.2375 88 49.5922 87.8453 49.0269 87.536C48.4722 87.2373 48.0402 86.8267 47.7309 86.304C47.4215 85.7813 47.2669 85.1893 47.2669 84.528C47.2669 84.2187 47.2935 83.9307 47.3469 83.664C47.4109 83.3867 47.4802 83.1573 47.5549 82.976H48.8989C48.8455 83.1467 48.7922 83.3707 48.7389 83.648C48.6962 83.9147 48.6749 84.1653 48.6749 84.4C48.6749 84.816 48.7549 85.2053 48.9149 85.568C49.0855 85.9413 49.3415 86.2453 49.6829 86.48C50.0242 86.7147 50.4509 86.832 50.9629 86.832C51.5069 86.832 51.9549 86.7093 52.3069 86.464C52.6589 86.2293 52.9202 85.9093 53.0909 85.504C53.2615 85.0987 53.3469 84.6507 53.3469 84.16C53.3469 83.6267 53.2509 83.152 53.0589 82.736C52.8669 82.3093 52.5842 81.9733 52.2109 81.728C51.8375 81.472 51.3789 81.344 50.8349 81.344H50.2109V80.176H50.9469C51.4589 80.176 51.8695 80.0853 52.1789 79.904C52.4882 79.712 52.7122 79.472 52.8509 79.184C53.0002 78.896 53.0749 78.6027 53.0749 78.304C53.0749 77.9627 53.0002 77.6533 52.8509 77.376C52.7015 77.088 52.4882 76.8587 52.2109 76.688C51.9335 76.5173 51.6029 76.432 51.2189 76.432V75.264C51.8375 75.264 52.3922 75.3973 52.8829 75.664C53.3735 75.92 53.7629 76.2667 54.0509 76.704C54.3389 77.1307 54.4829 77.6 54.4829 78.112C54.4829 78.7733 54.2749 79.3387 53.8589 79.808C53.4535 80.2667 52.9149 80.5707 52.2429 80.72V80.784C52.6909 80.848 53.1069 81.0187 53.4909 81.296C53.8855 81.5627 54.2002 81.9413 54.4349 82.432C54.6802 82.912 54.8029 83.5093 54.8029 84.224C54.8029 84.9813 54.6429 85.6427 54.3229 86.208C54.0029 86.784 53.5549 87.2267 52.9789 87.536C52.4135 87.8453 51.7415 88 50.9629 88ZM66.7774 88C66.532 87.5947 66.2334 87.2373 65.8814 86.928C65.54 86.6293 65.1614 86.3787 64.7454 86.176C64.34 85.9733 63.908 85.8187 63.4494 85.712C62.9907 85.6053 62.5214 85.552 62.0414 85.552C61.5187 85.552 61.0067 85.6213 60.5054 85.76C60.004 85.9093 59.5187 86.1173 59.0494 86.384L58.4894 85.36C58.7134 85.2533 58.9427 85.152 59.1774 85.056C59.4227 84.9707 59.6734 84.896 59.9294 84.832C60.1854 84.7787 60.436 84.7467 60.6814 84.736V84.688C60.1054 84.5067 59.5614 84.2667 59.0494 83.968C58.548 83.6693 58.1054 83.3013 57.7214 82.864C57.3374 82.4267 57.0334 81.9147 56.8094 81.328C56.596 80.7413 56.4894 80.064 56.4894 79.296C56.4894 78.4853 56.6067 77.7813 56.8414 77.184C57.0867 76.576 57.444 76.1067 57.9134 75.776C58.3934 75.4347 58.9747 75.264 59.6574 75.264C60.2547 75.264 60.7347 75.4027 61.0974 75.68C61.4707 75.9467 61.7427 76.3147 61.9134 76.784H61.9934C62.1747 76.3147 62.4574 75.9467 62.8414 75.68C63.236 75.4027 63.7267 75.264 64.3134 75.264C64.9427 75.264 65.444 75.4027 65.8174 75.68C66.1907 75.9467 66.4627 76.3147 66.6334 76.784H66.7134C66.8947 76.3147 67.1774 75.9467 67.5614 75.68C67.9454 75.4027 68.42 75.264 68.9854 75.264C69.6787 75.264 70.26 75.4453 70.7294 75.808C71.1987 76.1707 71.5507 76.6773 71.7854 77.328C72.0307 77.968 72.1534 78.72 72.1534 79.584C72.1534 80.2667 72.0787 80.9013 71.9294 81.488C71.7907 82.0747 71.572 82.6507 71.2734 83.216L70.0574 82.768C70.3027 82.2453 70.4734 81.7387 70.5694 81.248C70.6654 80.7467 70.7134 80.1867 70.7134 79.568C70.7134 78.5333 70.548 77.7547 70.2174 77.232C69.8974 76.6987 69.4494 76.432 68.8734 76.432C68.3934 76.432 68.02 76.6133 67.7534 76.976C67.4867 77.3387 67.3534 77.8507 67.3534 78.512V81.088H66.0094V78.512C66.0094 77.9147 65.876 77.4187 65.6094 77.024C65.3534 76.6293 64.9214 76.432 64.3134 76.432C63.7587 76.432 63.3374 76.6133 63.0494 76.976C62.772 77.3387 62.6334 77.8507 62.6334 78.512V81.088H61.2894V78.512C61.2894 77.9147 61.1667 77.4187 60.9214 77.024C60.676 76.6293 60.2867 76.432 59.7534 76.432C59.188 76.432 58.74 76.6667 58.4094 77.136C58.0894 77.6053 57.9294 78.3253 57.9294 79.296C57.9294 80.0427 58.0467 80.6933 58.2814 81.248C58.5267 81.792 58.8574 82.256 59.2734 82.64C59.6894 83.024 60.1587 83.3387 60.6814 83.584C61.2147 83.8187 61.7694 84 62.3454 84.128C63.0707 84.2773 63.7907 84.48 64.5054 84.736C65.2307 85.0027 65.8867 85.3493 66.4734 85.776C67.0707 86.2133 67.5294 86.7627 67.8494 87.424L66.7774 88ZM77.371 88C76.827 88 76.3257 87.9093 75.867 87.728C75.419 87.5573 75.0297 87.3013 74.699 86.96C74.3683 86.6293 74.1123 86.2293 73.931 85.76C73.7603 85.3013 73.675 84.784 73.675 84.208C73.675 83.8987 73.7017 83.6107 73.755 83.344C73.819 83.0667 73.8883 82.8373 73.963 82.656H75.307C75.2537 82.8267 75.2003 83.0507 75.147 83.328C75.1043 83.5947 75.083 83.8453 75.083 84.08C75.083 84.6027 75.163 85.072 75.323 85.488C75.4937 85.904 75.7497 86.2293 76.091 86.464C76.4323 86.7093 76.859 86.832 77.371 86.832C77.9257 86.832 78.3683 86.7093 78.699 86.464C79.0403 86.2187 79.2857 85.872 79.435 85.424C79.595 84.976 79.675 84.448 79.675 83.84V78.976C79.675 78.1653 79.5097 77.5413 79.179 77.104C78.8483 76.656 78.3363 76.432 77.643 76.432C77.227 76.432 76.859 76.512 76.539 76.672C76.2297 76.832 75.9843 77.0667 75.803 77.376C75.6323 77.6747 75.547 78.0533 75.547 78.512C75.547 78.7467 75.5577 78.9707 75.579 79.184C75.611 79.3867 75.6483 79.5627 75.691 79.712H74.347C74.3043 79.584 74.2563 79.4133 74.203 79.2C74.1603 78.976 74.139 78.7467 74.139 78.512C74.139 77.7973 74.2937 77.2 74.603 76.72C74.923 76.24 75.3443 75.8773 75.867 75.632C76.4003 75.3867 76.9923 75.264 77.643 75.264C78.3363 75.264 78.939 75.408 79.451 75.696C79.9737 75.984 80.3737 76.4 80.651 76.944C80.939 77.4773 81.083 78.1333 81.083 78.912V83.904C81.083 84.768 80.9337 85.504 80.635 86.112C80.347 86.7307 79.9257 87.2 79.371 87.52C78.827 87.84 78.1603 88 77.371 88ZM90.7895 84.16C90.1282 84.16 89.5255 84.0373 88.9815 83.792C88.4482 83.5467 88.0215 83.184 87.7015 82.704C87.3922 82.224 87.2375 81.6267 87.2375 80.912C87.2375 80.6773 87.2588 80.4533 87.3015 80.24C87.3548 80.016 87.4028 79.84 87.4455 79.712H88.7895C88.7468 79.8507 88.7095 80.0267 88.6775 80.24C88.6562 80.4427 88.6455 80.6667 88.6455 80.912C88.6455 81.36 88.7308 81.7387 88.9015 82.048C89.0828 82.3573 89.3335 82.592 89.6535 82.752C89.9842 82.912 90.3628 82.992 90.7895 82.992C91.2268 82.992 91.6002 82.912 91.9095 82.752C92.2188 82.592 92.4588 82.352 92.6295 82.032C92.8002 81.712 92.8855 81.312 92.8855 80.832C92.8855 80.2773 92.7682 79.8293 92.5335 79.488C92.2988 79.136 92.0268 78.8107 91.7175 78.512C91.4615 78.256 91.2055 77.9893 90.9495 77.712C90.7042 77.424 90.4962 77.0987 90.3255 76.736C90.1548 76.3627 90.0695 75.9253 90.0695 75.424H91.4775C91.4775 75.8827 91.6002 76.288 91.8455 76.64C92.1015 76.9813 92.3948 77.3173 92.7255 77.648C92.9922 77.904 93.2482 78.1813 93.4935 78.48C93.7388 78.7787 93.9415 79.12 94.1015 79.504C94.2615 79.8773 94.3415 80.32 94.3415 80.832C94.3415 81.4933 94.1868 82.0747 93.8775 82.576C93.5682 83.0773 93.1468 83.4667 92.6135 83.744C92.0802 84.0213 91.4722 84.16 90.7895 84.16ZM103.507 88C103.272 87.552 102.973 87.1627 102.611 86.832C102.259 86.5013 101.875 86.2453 101.459 86.064C101.053 85.8933 100.643 85.808 100.227 85.808C99.7788 85.808 99.3734 85.856 99.0108 85.952C98.6481 86.048 98.2481 86.1973 97.8108 86.4L97.3307 85.408C97.5761 85.2907 97.8588 85.184 98.1788 85.088C98.5094 84.992 98.9254 84.9333 99.4268 84.912V84.864C98.3174 84.3413 97.4854 83.648 96.9308 82.784C96.3761 81.9093 96.0988 80.8533 96.0988 79.616C96.0988 78.7413 96.2214 77.9787 96.4668 77.328C96.7121 76.6773 97.0748 76.1707 97.5548 75.808C98.0348 75.4453 98.6321 75.264 99.3468 75.264C99.9441 75.264 100.424 75.4027 100.787 75.68C101.16 75.9467 101.432 76.3147 101.603 76.784H101.683C101.864 76.3147 102.147 75.9467 102.531 75.68C102.915 75.4027 103.389 75.264 103.955 75.264C104.669 75.264 105.267 75.4453 105.747 75.808C106.227 76.1707 106.589 76.6773 106.835 77.328C107.08 77.968 107.203 78.72 107.203 79.584C107.203 80.2667 107.128 80.9013 106.979 81.488C106.84 82.0747 106.621 82.6507 106.323 83.216L105.107 82.768C105.352 82.2453 105.523 81.7387 105.619 81.248C105.715 80.7467 105.763 80.1867 105.763 79.568C105.763 78.8747 105.688 78.2987 105.539 77.84C105.389 77.3707 105.171 77.0187 104.883 76.784C104.605 76.5493 104.259 76.432 103.843 76.432C103.363 76.432 102.989 76.6133 102.723 76.976C102.456 77.3387 102.323 77.8507 102.323 78.512V81.088H100.979V78.512C100.979 77.9147 100.856 77.4187 100.611 77.024C100.365 76.6293 99.9761 76.432 99.4427 76.432C98.8348 76.432 98.3654 76.6987 98.0348 77.232C97.7041 77.7547 97.5388 78.5387 97.5388 79.584C97.5388 80.2987 97.6241 80.9227 97.7948 81.456C97.9654 81.9787 98.2001 82.432 98.4988 82.816C98.8081 83.1893 99.1654 83.5093 99.5708 83.776C99.9761 84.0427 100.408 84.2773 100.867 84.48C101.485 84.7467 102.024 85.0027 102.483 85.248C102.941 85.504 103.336 85.7973 103.667 86.128C104.008 86.4693 104.312 86.9013 104.579 87.424L103.507 88ZM113.07 84.16C112.259 84.16 111.571 84 111.006 83.68C110.441 83.3493 110.009 82.8693 109.71 82.24C109.422 81.6 109.278 80.816 109.278 79.888V74.352C109.278 73.744 109.395 73.2427 109.63 72.848C109.865 72.4533 110.174 72.16 110.558 71.968C110.953 71.776 111.379 71.68 111.838 71.68C112.211 71.68 112.585 71.7547 112.958 71.904C113.331 72.0533 113.619 72.368 113.822 72.848H113.87C114.073 72.368 114.334 72.0533 114.654 71.904C114.974 71.7547 115.299 71.68 115.63 71.68C115.939 71.68 116.217 71.712 116.462 71.776C116.707 71.84 116.931 71.9147 117.134 72L116.782 73.072C116.611 73.0187 116.43 72.9653 116.238 72.912C116.046 72.8587 115.849 72.832 115.646 72.832C115.358 72.832 115.097 72.928 114.862 73.12C114.638 73.3013 114.526 73.5733 114.526 73.936V74.704H113.166V73.936C113.166 73.5947 113.054 73.3227 112.83 73.12C112.606 72.9067 112.313 72.8 111.95 72.8C111.694 72.8 111.47 72.864 111.278 72.992C111.086 73.1093 110.937 73.2853 110.83 73.52C110.734 73.7547 110.686 74.0427 110.686 74.384V75.92C110.686 76.0907 110.675 76.288 110.654 76.512C110.633 76.7253 110.611 76.8907 110.59 77.008H110.686C110.867 76.7733 111.075 76.56 111.31 76.368C111.555 76.176 111.843 76.0267 112.174 75.92C112.515 75.8027 112.905 75.744 113.342 75.744C114.057 75.744 114.675 75.9093 115.198 76.24C115.731 76.56 116.142 77.0293 116.43 77.648C116.729 78.2667 116.878 79.0133 116.878 79.888C116.878 80.816 116.718 81.6 116.398 82.24C116.078 82.8693 115.63 83.3493 115.054 83.68C114.489 84 113.827 84.16 113.07 84.16ZM113.07 82.992C113.603 82.992 114.041 82.8693 114.382 82.624C114.734 82.368 114.995 82.0107 115.166 81.552C115.337 81.0933 115.422 80.5493 115.422 79.92C115.422 79.344 115.337 78.832 115.166 78.384C115.006 77.9253 114.755 77.568 114.414 77.312C114.083 77.0453 113.662 76.912 113.15 76.912C112.521 76.912 112.025 77.0347 111.662 77.28C111.299 77.5253 111.043 77.872 110.894 78.32C110.745 78.768 110.67 79.296 110.67 79.904V80.16C110.67 80.9813 110.851 81.6587 111.214 82.192C111.577 82.7253 112.195 82.992 113.07 82.992ZM121.949 88C121.405 88 120.904 87.9093 120.445 87.728C119.997 87.5573 119.608 87.3013 119.277 86.96C118.946 86.6293 118.69 86.2293 118.509 85.76C118.338 85.3013 118.253 84.784 118.253 84.208C118.253 83.8987 118.28 83.6107 118.333 83.344C118.397 83.0667 118.466 82.8373 118.541 82.656H119.885C119.832 82.8267 119.778 83.0507 119.725 83.328C119.682 83.5947 119.661 83.8453 119.661 84.08C119.661 84.6027 119.741 85.072 119.901 85.488C120.072 85.904 120.328 86.2293 120.669 86.464C121.01 86.7093 121.437 86.832 121.949 86.832C122.504 86.832 122.946 86.7093 123.277 86.464C123.618 86.2187 123.864 85.872 124.013 85.424C124.173 84.976 124.253 84.448 124.253 83.84V78.976C124.253 78.1653 124.088 77.5413 123.757 77.104C123.426 76.656 122.914 76.432 122.221 76.432C121.805 76.432 121.437 76.512 121.117 76.672C120.808 76.832 120.562 77.0667 120.381 77.376C120.21 77.6747 120.125 78.0533 120.125 78.512C120.125 78.7467 120.136 78.9707 120.157 79.184C120.189 79.3867 120.226 79.5627 120.269 79.712H118.925C118.882 79.584 118.834 79.4133 118.781 79.2C118.738 78.976 118.717 78.7467 118.717 78.512C118.717 77.7973 118.872 77.2 119.181 76.72C119.501 76.24 119.922 75.8773 120.445 75.632C120.978 75.3867 121.57 75.264 122.221 75.264C122.914 75.264 123.517 75.408 124.029 75.696C124.552 75.984 124.952 76.4 125.229 76.944C125.517 77.4773 125.661 78.1333 125.661 78.912V83.904C125.661 84.768 125.512 85.504 125.213 86.112C124.925 86.7307 124.504 87.2 123.949 87.52C123.405 87.84 122.738 88 121.949 88ZM128.683 84C128.47 83.4987 128.289 83.0187 128.139 82.56C128.001 82.1013 127.899 81.632 127.835 81.152C127.771 80.6613 127.739 80.1387 127.739 79.584V78.976C127.739 77.6533 127.894 76.5387 128.203 75.632C128.513 74.7147 128.982 73.9893 129.611 73.456C130.241 72.912 131.03 72.5387 131.979 72.336C132.577 72.208 133.174 72.0907 133.771 71.984C134.369 71.8773 134.955 71.776 135.531 71.68L135.771 72.912C135.494 72.9547 135.19 73.0027 134.859 73.056C134.539 73.0987 134.219 73.1467 133.899 73.2C133.579 73.2533 133.275 73.3067 132.987 73.36C132.71 73.4027 132.465 73.4507 132.251 73.504C131.814 73.6 131.387 73.7493 130.971 73.952C130.555 74.144 130.182 74.4267 129.851 74.8C129.531 75.1733 129.27 75.6853 129.067 76.336H129.115C129.329 76.0373 129.537 75.8133 129.739 75.664C129.953 75.504 130.166 75.3973 130.379 75.344C130.603 75.2907 130.827 75.264 131.051 75.264C131.595 75.264 132.049 75.4027 132.411 75.68C132.774 75.9467 133.041 76.3147 133.211 76.784H133.291C133.473 76.3147 133.755 75.9467 134.139 75.68C134.523 75.4027 134.998 75.264 135.563 75.264C136.278 75.264 136.875 75.4453 137.355 75.808C137.835 76.1707 138.198 76.6773 138.443 77.328C138.689 77.968 138.811 78.72 138.811 79.584C138.811 80.1387 138.774 80.6613 138.699 81.152C138.635 81.632 138.529 82.1013 138.379 82.56C138.241 83.0187 138.059 83.4987 137.835 84H136.395C136.737 83.2427 136.982 82.528 137.131 81.856C137.291 81.1733 137.371 80.4107 137.371 79.568C137.371 78.8747 137.297 78.2987 137.147 77.84C136.998 77.3707 136.779 77.0187 136.491 76.784C136.214 76.5493 135.867 76.432 135.451 76.432C134.971 76.432 134.598 76.6133 134.331 76.976C134.065 77.3387 133.931 77.8507 133.931 78.512V81.088H132.587V78.512C132.587 77.9147 132.465 77.4187 132.219 77.024C131.974 76.6293 131.585 76.432 131.051 76.432C130.443 76.432 129.974 76.6987 129.643 77.232C129.313 77.7547 129.147 78.5333 129.147 79.568C129.147 80.1333 129.179 80.656 129.243 81.136C129.318 81.616 129.425 82.0907 129.563 82.56C129.713 83.0187 129.899 83.4987 130.123 84H128.683ZM144.04 84.16C143.378 84.16 142.776 84.0373 142.232 83.792C141.698 83.5467 141.272 83.184 140.952 82.704C140.642 82.224 140.488 81.6267 140.488 80.912C140.488 80.6773 140.509 80.4533 140.552 80.24C140.605 80.016 140.653 79.84 140.696 79.712H142.039C141.997 79.8507 141.96 80.0267 141.928 80.24C141.906 80.4427 141.896 80.6667 141.896 80.912C141.896 81.36 141.981 81.7387 142.152 82.048C142.333 82.3573 142.584 82.592 142.904 82.752C143.234 82.912 143.613 82.992 144.04 82.992C144.477 82.992 144.85 82.912 145.16 82.752C145.469 82.592 145.709 82.352 145.88 82.032C146.05 81.712 146.136 81.312 146.136 80.832C146.136 80.2773 146.018 79.8293 145.784 79.488C145.549 79.136 145.277 78.8107 144.968 78.512C144.712 78.256 144.456 77.9893 144.2 77.712C143.954 77.424 143.746 77.0987 143.576 76.736C143.405 76.3627 143.32 75.9253 143.32 75.424H144.728C144.728 75.8827 144.85 76.288 145.096 76.64C145.352 76.9813 145.645 77.3173 145.976 77.648C146.242 77.904 146.498 78.1813 146.744 78.48C146.989 78.7787 147.192 79.12 147.352 79.504C147.512 79.8773 147.592 80.32 147.592 80.832C147.592 81.4933 147.437 82.0747 147.128 82.576C146.818 83.0773 146.397 83.4667 145.864 83.744C145.33 84.0213 144.722 84.16 144.04 84.16Z" fill="white"/>
<rect x="197" y="104.408" width="94.0735" height="154.592" fill="url(#paint1_linear_2_236)"/>
<rect x="276.693" y="182.902" width="94.0735" height="76.0976" fill="url(#paint2_linear_2_236)"/>
<rect x="267.795" y="88.1129" width="63.034" height="170.887" fill="url(#paint3_linear_2_236)"/>
</g>
<defs>
<linearGradient id="paint0_linear_2_236" x1="254.058" y1="-43.1845" x2="77.1521" y2="329.486" gradientUnits="userSpaceOnUse">
<stop stop-color="#048D59"/>
<stop offset="1" stop-color="#00472C"/>
</linearGradient>
<linearGradient id="paint1_linear_2_236" x1="174.99" y1="55.6218" x2="342.477" y2="87.0313" gradientUnits="userSpaceOnUse">
<stop stop-color="white"/>
<stop offset="1" stop-color="white" stop-opacity="0"/>
</linearGradient>
<linearGradient id="paint2_linear_2_236" x1="254.682" y1="158.887" x2="406.085" y2="216.568" gradientUnits="userSpaceOnUse">
<stop stop-color="white"/>
<stop offset="1" stop-color="white" stop-opacity="0"/>
</linearGradient>
<linearGradient id="paint3_linear_2_236" x1="253.047" y1="34.1843" x2="367.737" y2="47.2217" gradientUnits="userSpaceOnUse">
<stop stop-color="white"/>
<stop offset="1" stop-color="white" stop-opacity="0"/>
</linearGradient>
<clipPath id="clip0_2_236">
<rect width="344" height="259" rx="16" fill="white"/>
</clipPath>
</defs>
</svg>
