<svg width="344" height="259" viewBox="0 0 344 259" fill="none" xmlns="http://www.w3.org/2000/svg">
<g clip-path="url(#clip0_2_281)">
<rect width="344" height="259" rx="18" fill="url(#paint0_linear_2_281)"/>
<path d="M26.54 53C26.3267 52.44 26.1267 51.8667 25.94 51.28C25.7667 50.6933 25.6133 50.08 25.48 49.44C25.3467 48.7867 25.2467 48.1 25.18 47.38C25.1133 46.6467 25.08 45.86 25.08 45.02C25.08 43.46 25.3 42.2067 25.74 41.26C26.18 40.3 26.76 39.6067 27.48 39.18C28.2133 38.74 29.0133 38.52 29.88 38.52C30.28 38.52 30.7 38.58 31.14 38.7C31.58 38.82 31.9867 39.0333 32.36 39.34C32.7333 39.6467 33.0267 40.08 33.24 40.64H33.3C33.5267 40.0933 33.8267 39.6667 34.2 39.36C34.5733 39.0533 34.98 38.84 35.42 38.72C35.86 38.5867 36.3 38.52 36.74 38.52C37.58 38.52 38.3533 38.74 39.06 39.18C39.78 39.62 40.3533 40.32 40.78 41.28C41.22 42.2267 41.44 43.4733 41.44 45.02C41.44 46.2067 41.3733 47.26 41.24 48.18C41.12 49.1 40.9467 49.9467 40.72 50.72C40.5067 51.48 40.26 52.24 39.98 53H36.86C37.1267 52.24 37.36 51.4533 37.56 50.64C37.7733 49.8133 37.94 48.94 38.06 48.02C38.18 47.0867 38.24 46.0733 38.24 44.98C38.24 44.0067 38.1667 43.2333 38.02 42.66C37.8733 42.0867 37.6667 41.6733 37.4 41.42C37.1333 41.1667 36.8133 41.04 36.44 41.04C36.0267 41.04 35.7067 41.1667 35.48 41.42C35.2533 41.66 35.0933 41.9933 35 42.42C34.9067 42.8333 34.86 43.2933 34.86 43.8V48.82H31.68V43.8C31.68 43.2133 31.62 42.7133 31.5 42.3C31.3933 41.8867 31.22 41.5733 30.98 41.36C30.7533 41.1467 30.4467 41.04 30.06 41.04C29.7 41.04 29.38 41.1667 29.1 41.42C28.8333 41.6733 28.6267 42.0867 28.48 42.66C28.3333 43.2333 28.26 44.0067 28.26 44.98C28.26 46.0733 28.32 47.0867 28.44 48.02C28.56 48.94 28.7267 49.8067 28.94 50.62C29.1533 51.4333 29.3933 52.2267 29.66 53H26.54ZM48.9956 53.2C47.3423 53.2 46.069 52.74 45.1756 51.82C44.2823 50.9 43.8356 49.5933 43.8356 47.9V42.8C43.8356 42.0533 43.949 41.42 44.1756 40.9C44.4023 40.38 44.709 39.96 45.0956 39.64C45.4956 39.32 45.9423 39.0867 46.4356 38.94C46.9423 38.7933 47.4623 38.72 47.9956 38.72H53.3956V41.2H48.3156C47.8756 41.2 47.529 41.3067 47.2756 41.52C47.0356 41.7333 46.9156 42.0733 46.9156 42.54V43.02C46.9156 43.2067 46.9023 43.42 46.8756 43.66C46.849 43.8867 46.809 44.1067 46.7556 44.32H46.8556C47.0823 44.0267 47.3423 43.78 47.6356 43.58C47.929 43.3667 48.269 43.2 48.6556 43.08C49.0556 42.96 49.509 42.9 50.0156 42.9C50.8823 42.9 51.6423 43.1067 52.2956 43.52C52.9623 43.9333 53.4756 44.52 53.8356 45.28C54.209 46.04 54.3956 46.94 54.3956 47.98C54.3956 49.0733 54.1756 50.0133 53.7356 50.8C53.309 51.5733 52.689 52.1667 51.8756 52.58C51.0756 52.9933 50.1156 53.2 48.9956 53.2ZM49.0356 50.72C49.569 50.72 50.0023 50.6 50.3356 50.36C50.669 50.12 50.909 49.8 51.0556 49.4C51.2156 48.9867 51.2956 48.5333 51.2956 48.04C51.2956 47.5067 51.209 47.0467 51.0356 46.66C50.8623 46.26 50.609 45.9533 50.2756 45.74C49.9556 45.5267 49.5623 45.42 49.0956 45.42C48.5223 45.42 48.0623 45.54 47.7156 45.78C47.3823 46.02 47.1356 46.3333 46.9756 46.72C46.829 47.1067 46.7556 47.5333 46.7556 48V48.32C46.7556 48.7733 46.8356 49.18 46.9956 49.54C47.169 49.9 47.4223 50.1867 47.7556 50.4C48.089 50.6133 48.5156 50.72 49.0356 50.72ZM68.9013 53C68.8746 52.7067 68.7546 52.4333 68.5413 52.18C68.3413 51.9267 68.0813 51.7067 67.7613 51.52C67.4413 51.3333 67.0746 51.1733 66.6613 51.04C66.2613 50.9067 65.8346 50.8067 65.3813 50.74C64.9413 50.6733 64.5079 50.64 64.0813 50.64C63.0946 50.64 62.2346 50.76 61.5013 51C60.7813 51.2267 60.1479 51.4867 59.6013 51.78L58.4413 49.94C58.6413 49.82 58.8479 49.7067 59.0613 49.6C59.2746 49.48 59.5013 49.38 59.7413 49.3C59.9946 49.22 60.2613 49.16 60.5413 49.12V49.06C59.7546 48.8467 59.0613 48.56 58.4613 48.2C57.8746 47.84 57.3813 47.42 56.9813 46.94C56.5813 46.4467 56.2813 45.8933 56.0813 45.28C55.8813 44.6667 55.7813 44 55.7813 43.28C55.7813 42.4 55.9413 41.6 56.2613 40.88C56.5946 40.16 57.0879 39.5867 57.7413 39.16C58.3946 38.7333 59.2013 38.52 60.1613 38.52C60.9879 38.52 61.6946 38.7067 62.2813 39.08C62.8813 39.44 63.3013 39.9467 63.5413 40.6H63.6413C63.8679 39.9333 64.2346 39.42 64.7413 39.06C65.2613 38.7 65.9013 38.52 66.6613 38.52C67.4213 38.52 68.0613 38.7067 68.5813 39.08C69.1146 39.4533 69.4813 39.96 69.6813 40.6H69.8013C70.0546 39.9467 70.4546 39.44 71.0013 39.08C71.5479 38.7067 72.2279 38.52 73.0413 38.52C74.0146 38.52 74.8346 38.74 75.5013 39.18C76.1813 39.62 76.7013 40.2267 77.0613 41C77.4213 41.76 77.6013 42.6333 77.6013 43.62C77.6013 44.46 77.5013 45.2533 77.3013 46C77.1146 46.7333 76.8213 47.4867 76.4213 48.26L73.5813 47.3C73.8879 46.6733 74.1079 46.0533 74.2413 45.44C74.3879 44.8267 74.4613 44.2 74.4613 43.56C74.4613 42.6933 74.3079 42.06 74.0013 41.66C73.6946 41.2467 73.2879 41.04 72.7813 41.04C72.4346 41.04 72.1479 41.1533 71.9213 41.38C71.6946 41.6067 71.5279 41.9067 71.4213 42.28C71.3146 42.64 71.2613 43.04 71.2613 43.48V45.58H68.2413V43.22C68.2413 42.8467 68.1879 42.4933 68.0813 42.16C67.9746 41.8267 67.8079 41.56 67.5813 41.36C67.3546 41.1467 67.0479 41.04 66.6613 41.04C66.3013 41.04 66.0079 41.14 65.7813 41.34C65.5546 41.54 65.3879 41.8067 65.2813 42.14C65.1746 42.4733 65.1213 42.8333 65.1213 43.22V45.58H62.1013V43.48C62.1013 43.0667 62.0546 42.6733 61.9613 42.3C61.8679 41.9267 61.7079 41.6267 61.4813 41.4C61.2679 41.16 60.9679 41.04 60.5813 41.04C60.0746 41.04 59.6679 41.24 59.3613 41.64C59.0546 42.0267 58.9013 42.6467 58.9013 43.5C58.9013 44.22 59.0346 44.8467 59.3013 45.38C59.5679 45.9133 59.9479 46.3667 60.4413 46.74C60.9479 47.1133 61.5613 47.4133 62.2813 47.64C63.0013 47.8533 63.8146 48.0067 64.7213 48.1C65.7479 48.1933 66.6813 48.36 67.5213 48.6C68.3746 48.8267 69.1079 49.14 69.7213 49.54C70.3479 49.9267 70.8479 50.4067 71.2213 50.98C71.6079 51.54 71.8413 52.2133 71.9213 53H68.9013ZM84.1439 53.2C83.0639 53.2 82.1306 53.0067 81.3439 52.62C80.5572 52.2333 79.9506 51.68 79.5239 50.96C79.0972 50.24 78.8839 49.3867 78.8839 48.4C78.8839 47.9733 78.9172 47.5467 78.9839 47.12C79.0506 46.6933 79.2172 46.1533 79.4839 45.5L77.8639 45.96H83.6639L82.5239 45.58C82.3106 46.14 82.1772 46.6467 82.1239 47.1C82.0706 47.5533 82.0439 47.9267 82.0439 48.22C82.0439 48.9267 82.2172 49.5133 82.5639 49.98C82.9106 50.4467 83.4372 50.68 84.1439 50.68C84.6506 50.68 85.0572 50.5733 85.3639 50.36C85.6706 50.1333 85.8906 49.8267 86.0239 49.44C86.1706 49.0533 86.2439 48.6133 86.2439 48.12C86.2439 47.5467 86.1639 47.0267 86.0039 46.56C85.8439 46.0933 85.6372 45.66 85.3839 45.26C85.1439 44.8467 84.8772 44.46 84.5839 44.1C84.1706 43.5533 83.7839 43.0267 83.4239 42.52C83.0772 42 82.8172 41.44 82.6439 40.84C82.4706 40.2267 82.4372 39.52 82.5439 38.72H85.6439C85.5906 39.2267 85.6372 39.7 85.7839 40.14C85.9306 40.58 86.1439 41.0067 86.4239 41.42C86.7172 41.82 87.0239 42.24 87.3439 42.68C87.6772 43.12 88.0039 43.6 88.3239 44.12C88.6439 44.6267 88.9039 45.2 89.1039 45.84C89.3172 46.48 89.4239 47.2133 89.4239 48.04C89.4239 49.08 89.2106 49.9867 88.7839 50.76C88.3706 51.5333 87.7706 52.1333 86.9839 52.56C86.1972 52.9867 85.2506 53.2 84.1439 53.2ZM92.5658 53C92.3658 52.3733 92.1858 51.7 92.0258 50.98C91.8658 50.26 91.7391 49.4333 91.6458 48.5C91.5524 47.5533 91.5058 46.4467 91.5058 45.18C91.5058 43.5933 91.7391 42.3133 92.2058 41.34C92.6724 40.3667 93.3058 39.6533 94.1058 39.2C94.9191 38.7467 95.8324 38.52 96.8458 38.52C97.8724 38.52 98.7858 38.7467 99.5858 39.2C100.399 39.6533 101.039 40.3667 101.506 41.34C101.972 42.3133 102.206 43.5933 102.206 45.18C102.206 46.4333 102.159 47.5333 102.066 48.48C101.972 49.4133 101.846 50.2467 101.686 50.98C101.539 51.7 101.359 52.3733 101.146 53H98.0658C98.2524 52.3733 98.4124 51.68 98.5458 50.92C98.6924 50.16 98.8058 49.3067 98.8858 48.36C98.9791 47.4 99.0258 46.32 99.0258 45.12C99.0258 44.12 98.9391 43.3267 98.7658 42.74C98.6058 42.14 98.3591 41.7067 98.0258 41.44C97.7058 41.1733 97.3124 41.04 96.8458 41.04C96.3924 41.04 95.9991 41.1733 95.6658 41.44C95.3458 41.6933 95.0991 42.12 94.9258 42.72C94.7524 43.32 94.6658 44.12 94.6658 45.12C94.6658 46.3333 94.7058 47.42 94.7858 48.38C94.8791 49.3267 94.9991 50.18 95.1458 50.94C95.3058 51.6867 95.4724 52.3733 95.6458 53H92.5658ZM109.757 53.2C108.104 53.2 106.831 52.74 105.937 51.82C105.044 50.9 104.597 49.5933 104.597 47.9V42.8C104.597 42.0533 104.711 41.42 104.937 40.9C105.164 40.38 105.471 39.96 105.857 39.64C106.257 39.32 106.704 39.0867 107.197 38.94C107.704 38.7933 108.224 38.72 108.757 38.72H114.157V41.2H109.077C108.637 41.2 108.291 41.3067 108.037 41.52C107.797 41.7333 107.677 42.0733 107.677 42.54V43.02C107.677 43.2067 107.664 43.42 107.637 43.66C107.611 43.8867 107.571 44.1067 107.517 44.32H107.617C107.844 44.0267 108.104 43.78 108.397 43.58C108.691 43.3667 109.031 43.2 109.417 43.08C109.817 42.96 110.271 42.9 110.777 42.9C111.644 42.9 112.404 43.1067 113.057 43.52C113.724 43.9333 114.237 44.52 114.597 45.28C114.971 46.04 115.157 46.94 115.157 47.98C115.157 49.0733 114.937 50.0133 114.497 50.8C114.071 51.5733 113.451 52.1667 112.637 52.58C111.837 52.9933 110.877 53.2 109.757 53.2ZM109.797 50.72C110.331 50.72 110.764 50.6 111.097 50.36C111.431 50.12 111.671 49.8 111.817 49.4C111.977 48.9867 112.057 48.5333 112.057 48.04C112.057 47.5067 111.971 47.0467 111.797 46.66C111.624 46.26 111.371 45.9533 111.037 45.74C110.717 45.5267 110.324 45.42 109.857 45.42C109.284 45.42 108.824 45.54 108.477 45.78C108.144 46.02 107.897 46.3333 107.737 46.72C107.591 47.1067 107.517 47.5333 107.517 48V48.32C107.517 48.7733 107.597 49.18 107.757 49.54C107.931 49.9 108.184 50.1867 108.517 50.4C108.851 50.6133 109.277 50.72 109.797 50.72ZM127.924 53.2C126.23 53.2 124.93 52.74 124.024 51.82C123.117 50.8867 122.664 49.5933 122.664 47.94V38.72H125.684V48.14C125.684 48.66 125.764 49.1133 125.924 49.5C126.097 49.8733 126.35 50.1667 126.684 50.38C127.017 50.58 127.43 50.68 127.924 50.68C128.39 50.68 128.777 50.58 129.084 50.38C129.404 50.18 129.637 49.92 129.784 49.6C129.944 49.2667 130.024 48.9067 130.024 48.52C130.024 47.92 129.917 47.42 129.704 47.02C129.504 46.6067 129.27 46.2133 129.004 45.84C128.724 45.44 128.477 44.9933 128.264 44.5C128.064 44.0067 128.004 43.4067 128.084 42.7H131.224C131.21 43.1933 131.29 43.6067 131.464 43.94C131.637 44.2733 131.857 44.64 132.124 45.04C132.404 45.4533 132.65 45.9133 132.864 46.42C133.09 46.9267 133.204 47.5733 133.204 48.36C133.204 49.32 132.99 50.1667 132.564 50.9C132.137 51.62 131.524 52.1867 130.724 52.6C129.937 53 129.004 53.2 127.924 53.2ZM140.315 53.2C139.249 53.2 138.322 53.0067 137.535 52.62C136.749 52.2333 136.142 51.7 135.715 51.02C135.289 50.34 135.075 49.5733 135.075 48.72C135.075 48.4 135.095 48.0933 135.135 47.8C135.175 47.5067 135.242 47.22 135.335 46.94H138.415C138.362 47.1667 138.315 47.42 138.275 47.7C138.249 47.9667 138.235 48.2133 138.235 48.44C138.235 48.8533 138.309 49.2333 138.455 49.58C138.615 49.9133 138.855 50.18 139.175 50.38C139.495 50.58 139.889 50.68 140.355 50.68C140.875 50.68 141.289 50.5867 141.595 50.4C141.902 50.2 142.122 49.92 142.255 49.56C142.389 49.2 142.455 48.7867 142.455 48.32V42.98C142.455 42.3533 142.282 41.8733 141.935 41.54C141.602 41.2067 141.162 41.04 140.615 41.04C140.242 41.04 139.915 41.1067 139.635 41.24C139.355 41.3733 139.135 41.5733 138.975 41.84C138.829 42.1067 138.755 42.4333 138.755 42.82C138.755 42.98 138.762 43.1667 138.775 43.38C138.802 43.58 138.835 43.7933 138.875 44.02H135.795C135.742 43.7933 135.689 43.56 135.635 43.32C135.595 43.08 135.575 42.7933 135.575 42.46C135.575 41.6067 135.795 40.8933 136.235 40.32C136.675 39.7333 137.269 39.2867 138.015 38.98C138.775 38.6733 139.622 38.52 140.555 38.52C141.555 38.52 142.422 38.7 143.155 39.06C143.889 39.4067 144.455 39.9067 144.855 40.56C145.255 41.2133 145.455 41.9933 145.455 42.9V48.36C145.455 49.36 145.249 50.2267 144.835 50.96C144.435 51.68 143.855 52.2333 143.095 52.62C142.335 53.0067 141.409 53.2 140.315 53.2ZM148.833 53C148.58 52.3067 148.373 51.66 148.213 51.06C148.067 50.4467 147.953 49.8333 147.873 49.22C147.807 48.5933 147.773 47.92 147.773 47.2C147.773 46.04 147.88 45 148.093 44.08C148.307 43.16 148.653 42.3667 149.133 41.7C149.627 41.02 150.287 40.4667 151.113 40.04C151.94 39.6 152.973 39.2867 154.213 39.1C154.64 39.0333 155.093 38.9667 155.573 38.9C156.067 38.8333 156.593 38.7667 157.153 38.7C157.727 38.6333 158.34 38.5667 158.993 38.5L159.333 41.04C158.907 41.0933 158.467 41.1467 158.013 41.2C157.56 41.24 157.113 41.2867 156.673 41.34C156.233 41.3933 155.82 41.4467 155.433 41.5C155.047 41.54 154.707 41.58 154.413 41.62C153.893 41.6867 153.353 41.7933 152.793 41.94C152.247 42.0733 151.747 42.2733 151.293 42.54C150.853 42.8067 150.52 43.1667 150.293 43.62H150.373C150.573 43.4067 150.793 43.24 151.033 43.12C151.273 43 151.527 42.9133 151.793 42.86C152.073 42.8067 152.347 42.78 152.613 42.78C153.333 42.78 153.953 42.9733 154.473 43.36C155.007 43.7333 155.393 44.26 155.633 44.94H155.713C155.967 44.2333 156.38 43.7 156.953 43.34C157.527 42.9667 158.26 42.78 159.153 42.78C160.1 42.78 160.9 43.0067 161.553 43.46C162.22 43.9 162.72 44.5 163.053 45.26C163.4 46.02 163.573 46.88 163.573 47.84C163.573 48.4533 163.533 49.0467 163.453 49.62C163.373 50.18 163.247 50.74 163.073 51.3C162.913 51.8467 162.713 52.4133 162.473 53H159.373C159.707 52.1867 159.967 51.3733 160.153 50.56C160.34 49.7333 160.433 48.8467 160.433 47.9C160.433 47.42 160.38 46.9667 160.273 46.54C160.167 46.1133 159.987 45.7733 159.733 45.52C159.48 45.2533 159.133 45.12 158.693 45.12C158.333 45.12 158.04 45.2267 157.813 45.44C157.587 45.64 157.42 45.92 157.313 46.28C157.207 46.64 157.153 47.04 157.153 47.48V49.92H154.173V47.48C154.173 46.96 154.113 46.5267 153.993 46.18C153.887 45.8333 153.713 45.5733 153.473 45.4C153.247 45.2133 152.96 45.12 152.613 45.12C152.04 45.12 151.607 45.3467 151.313 45.8C151.033 46.2533 150.893 46.9733 150.893 47.96C150.893 48.8533 150.987 49.7133 151.173 50.54C151.36 51.3533 151.62 52.1733 151.953 53H148.833ZM170.476 53.2C169.329 53.2 168.349 53.0133 167.536 52.64C166.736 52.2667 166.122 51.7667 165.696 51.14C165.269 50.5 165.056 49.8067 165.056 49.06C165.056 48.7667 165.076 48.5133 165.116 48.3C165.156 48.0733 165.216 47.84 165.296 47.6H168.316C168.262 47.8133 168.222 48.0067 168.196 48.18C168.182 48.3533 168.176 48.5333 168.176 48.72C168.176 49.32 168.362 49.82 168.736 50.22C169.122 50.6067 169.709 50.8 170.496 50.8C171.029 50.8 171.456 50.7067 171.776 50.52C172.109 50.32 172.349 50.06 172.496 49.74C172.656 49.42 172.736 49.0733 172.736 48.7C172.736 48.22 172.636 47.8333 172.436 47.54C172.236 47.2333 171.962 47.0133 171.616 46.88C171.269 46.7467 170.869 46.68 170.416 46.68H169.656V44.3H170.476C171.156 44.3 171.642 44.1267 171.936 43.78C172.229 43.4333 172.376 43.02 172.376 42.54C172.376 42.22 172.302 41.94 172.156 41.7C172.009 41.46 171.796 41.2733 171.516 41.14C171.249 41.0067 170.929 40.94 170.556 40.94C170.169 40.94 169.836 41.0067 169.556 41.14C169.276 41.26 169.062 41.44 168.916 41.68C168.769 41.9067 168.696 42.1867 168.696 42.52C168.696 42.6667 168.702 42.8067 168.716 42.94C168.729 43.06 168.749 43.2067 168.776 43.38H165.756C165.689 43.1667 165.642 42.9733 165.616 42.8C165.589 42.6133 165.576 42.4133 165.576 42.2C165.576 41.4533 165.789 40.8067 166.216 40.26C166.656 39.7 167.249 39.2733 167.996 38.98C168.756 38.6733 169.616 38.52 170.576 38.52C171.576 38.52 172.442 38.6867 173.176 39.02C173.922 39.3533 174.496 39.8067 174.896 40.38C175.309 40.94 175.516 41.5867 175.516 42.32C175.516 43.16 175.296 43.8333 174.856 44.34C174.416 44.8467 173.829 45.1933 173.096 45.38V45.44C173.576 45.52 174.029 45.7 174.456 45.98C174.882 46.26 175.229 46.64 175.496 47.12C175.762 47.6 175.896 48.18 175.896 48.86C175.896 49.6867 175.676 50.4267 175.236 51.08C174.809 51.7333 174.189 52.2533 173.376 52.64C172.576 53.0133 171.609 53.2 170.476 53.2ZM178.913 53C178.713 52.3733 178.533 51.7 178.373 50.98C178.213 50.26 178.087 49.4333 177.993 48.5C177.9 47.5533 177.853 46.4467 177.853 45.18C177.853 43.5933 178.087 42.3133 178.553 41.34C179.02 40.3667 179.653 39.6533 180.453 39.2C181.267 38.7467 182.18 38.52 183.193 38.52C184.22 38.52 185.133 38.7467 185.933 39.2C186.747 39.6533 187.387 40.3667 187.853 41.34C188.32 42.3133 188.553 43.5933 188.553 45.18C188.553 46.4333 188.507 47.5333 188.413 48.48C188.32 49.4133 188.193 50.2467 188.033 50.98C187.887 51.7 187.707 52.3733 187.493 53H184.413C184.6 52.3733 184.76 51.68 184.893 50.92C185.04 50.16 185.153 49.3067 185.233 48.36C185.327 47.4 185.373 46.32 185.373 45.12C185.373 44.12 185.287 43.3267 185.113 42.74C184.953 42.14 184.707 41.7067 184.373 41.44C184.053 41.1733 183.66 41.04 183.193 41.04C182.74 41.04 182.347 41.1733 182.013 41.44C181.693 41.6933 181.447 42.12 181.273 42.72C181.1 43.32 181.013 44.12 181.013 45.12C181.013 46.3333 181.053 47.42 181.133 48.38C181.227 49.3267 181.347 50.18 181.493 50.94C181.653 51.6867 181.82 52.3733 181.993 53H178.913ZM196.205 53.2C194.512 53.2 193.212 52.74 192.305 51.82C191.398 50.8867 190.945 49.5933 190.945 47.94V38.72H193.965V48.14C193.965 48.66 194.045 49.1133 194.205 49.5C194.378 49.8733 194.632 50.1667 194.965 50.38C195.298 50.58 195.712 50.68 196.205 50.68C196.672 50.68 197.058 50.58 197.365 50.38C197.685 50.18 197.918 49.92 198.065 49.6C198.225 49.2667 198.305 48.9067 198.305 48.52C198.305 47.92 198.198 47.42 197.985 47.02C197.785 46.6067 197.552 46.2133 197.285 45.84C197.005 45.44 196.758 44.9933 196.545 44.5C196.345 44.0067 196.285 43.4067 196.365 42.7H199.505C199.492 43.1933 199.572 43.6067 199.745 43.94C199.918 44.2733 200.138 44.64 200.405 45.04C200.685 45.4533 200.932 45.9133 201.145 46.42C201.372 46.9267 201.485 47.5733 201.485 48.36C201.485 49.32 201.272 50.1667 200.845 50.9C200.418 51.62 199.805 52.1867 199.005 52.6C198.218 53 197.285 53.2 196.205 53.2ZM208.597 53.2C207.53 53.2 206.603 53.0067 205.817 52.62C205.03 52.2333 204.423 51.7 203.997 51.02C203.57 50.34 203.357 49.5733 203.357 48.72C203.357 48.4 203.377 48.0933 203.417 47.8C203.457 47.5067 203.523 47.22 203.617 46.94H206.697C206.643 47.1667 206.597 47.42 206.557 47.7C206.53 47.9667 206.517 48.2133 206.517 48.44C206.517 48.8533 206.59 49.2333 206.737 49.58C206.897 49.9133 207.137 50.18 207.457 50.38C207.777 50.58 208.17 50.68 208.637 50.68C209.157 50.68 209.57 50.5867 209.877 50.4C210.183 50.2 210.403 49.92 210.537 49.56C210.67 49.2 210.737 48.7867 210.737 48.32V42.98C210.737 42.3533 210.563 41.8733 210.217 41.54C209.883 41.2067 209.443 41.04 208.897 41.04C208.523 41.04 208.197 41.1067 207.917 41.24C207.637 41.3733 207.417 41.5733 207.257 41.84C207.11 42.1067 207.037 42.4333 207.037 42.82C207.037 42.98 207.043 43.1667 207.057 43.38C207.083 43.58 207.117 43.7933 207.157 44.02H204.077C204.023 43.7933 203.97 43.56 203.917 43.32C203.877 43.08 203.857 42.7933 203.857 42.46C203.857 41.6067 204.077 40.8933 204.517 40.32C204.957 39.7333 205.55 39.2867 206.297 38.98C207.057 38.6733 207.903 38.52 208.837 38.52C209.837 38.52 210.703 38.7 211.437 39.06C212.17 39.4067 212.737 39.9067 213.137 40.56C213.537 41.2133 213.737 41.9933 213.737 42.9V48.36C213.737 49.36 213.53 50.2267 213.117 50.96C212.717 51.68 212.137 52.2333 211.377 52.62C210.617 53.0067 209.69 53.2 208.597 53.2ZM221.395 53.2C220.648 53.2 219.948 53.08 219.295 52.84C218.655 52.6 218.088 52.2533 217.595 51.8C217.115 51.3333 216.735 50.7667 216.455 50.1C216.188 49.4333 216.055 48.6667 216.055 47.8C216.055 46.6667 216.281 45.7067 216.735 44.92C217.188 44.1333 217.815 43.5333 218.615 43.12C219.428 42.7067 220.375 42.5 221.455 42.5C222.455 42.5 223.355 42.7067 224.155 43.12C224.955 43.5333 225.588 44.1333 226.055 44.92C226.535 45.7067 226.775 46.6667 226.775 47.8C226.775 48.6667 226.641 49.44 226.375 50.12C226.121 50.7867 225.755 51.3533 225.275 51.82C224.808 52.2733 224.241 52.62 223.575 52.86C222.921 53.0867 222.195 53.2 221.395 53.2ZM221.435 50.68C221.901 50.68 222.295 50.5667 222.615 50.34C222.935 50.1 223.175 49.7667 223.335 49.34C223.508 48.9 223.595 48.3867 223.595 47.8C223.595 47.2267 223.508 46.7333 223.335 46.32C223.175 45.9067 222.928 45.5867 222.595 45.36C222.275 45.1333 221.881 45.02 221.415 45.02C220.721 45.02 220.181 45.2733 219.795 45.78C219.421 46.2733 219.235 46.9467 219.235 47.8C219.235 48.3867 219.321 48.9 219.495 49.34C219.668 49.7667 219.915 50.1 220.235 50.34C220.568 50.5667 220.968 50.68 221.435 50.68ZM222.995 43.06L220.095 42.86C220.228 42.7667 220.321 42.64 220.375 42.48C220.428 42.32 220.455 42.1667 220.455 42.02C220.455 41.78 220.375 41.5867 220.215 41.44C220.055 41.28 219.875 41.1333 219.675 41C219.488 40.88 219.301 40.7133 219.115 40.5C218.941 40.2867 218.801 40.0333 218.695 39.74C218.588 39.4333 218.561 39.0933 218.615 38.72H221.535C221.535 38.9733 221.615 39.1867 221.775 39.36C221.935 39.52 222.141 39.6933 222.395 39.88C222.688 40.08 222.935 40.3267 223.135 40.62C223.348 40.9133 223.455 41.26 223.455 41.66C223.455 41.9133 223.415 42.1533 223.335 42.38C223.255 42.5933 223.141 42.82 222.995 43.06ZM229.714 53C229.514 52.3733 229.334 51.7 229.174 50.98C229.014 50.26 228.888 49.4333 228.794 48.5C228.701 47.5533 228.654 46.4467 228.654 45.18C228.654 43.5933 228.888 42.3133 229.354 41.34C229.821 40.3667 230.454 39.6533 231.254 39.2C232.068 38.7467 232.981 38.52 233.994 38.52C235.021 38.52 235.934 38.7467 236.734 39.2C237.548 39.6533 238.188 40.3667 238.654 41.34C239.121 42.3133 239.354 43.5933 239.354 45.18C239.354 46.4333 239.308 47.5333 239.214 48.48C239.121 49.4133 238.994 50.2467 238.834 50.98C238.688 51.7 238.508 52.3733 238.294 53H235.214C235.401 52.3733 235.561 51.68 235.694 50.92C235.841 50.16 235.954 49.3067 236.034 48.36C236.128 47.4 236.174 46.32 236.174 45.12C236.174 44.12 236.088 43.3267 235.914 42.74C235.754 42.14 235.508 41.7067 235.174 41.44C234.854 41.1733 234.461 41.04 233.994 41.04C233.541 41.04 233.148 41.1733 232.814 41.44C232.494 41.6933 232.248 42.12 232.074 42.72C231.901 43.32 231.814 44.12 231.814 45.12C231.814 46.3333 231.854 47.42 231.934 48.38C232.028 49.3267 232.148 50.18 232.294 50.94C232.454 51.6867 232.621 52.3733 232.794 53H229.714Z" fill="white"/>
<path d="M28.688 84.16C27.9413 84.16 27.28 83.9947 26.704 83.664C26.128 83.3333 25.68 82.8427 25.36 82.192C25.04 81.5307 24.88 80.7093 24.88 79.728C24.88 78.3307 25.2 77.264 25.84 76.528C26.4907 75.792 27.3493 75.424 28.416 75.424C28.864 75.424 29.2533 75.4827 29.584 75.6C29.9147 75.7067 30.2027 75.856 30.448 76.048C30.6933 76.24 30.9013 76.4533 31.072 76.688H31.168C31.1573 76.5707 31.136 76.4053 31.104 76.192C31.0827 75.968 31.072 75.7707 31.072 75.6V74.864C31.072 74.4693 30.9973 74.1173 30.848 73.808C30.6987 73.4987 30.4587 73.2533 30.128 73.072C29.808 72.8907 29.3867 72.8 28.864 72.8C28.4587 72.8 28.1013 72.864 27.792 72.992C27.4827 73.1093 27.2373 73.28 27.056 73.504C26.8853 73.7173 26.8 73.968 26.8 74.256C26.8 74.32 26.8 74.384 26.8 74.448C26.8107 74.512 26.8213 74.576 26.832 74.64H25.472C25.44 74.5333 25.4187 74.432 25.408 74.336C25.3973 74.24 25.392 74.1493 25.392 74.064C25.392 73.5947 25.5467 73.184 25.856 72.832C26.1653 72.4693 26.5813 72.1867 27.104 71.984C27.6373 71.7813 28.224 71.68 28.864 71.68C29.6213 71.68 30.2667 71.8187 30.8 72.096C31.344 72.3733 31.76 72.7627 32.048 73.264C32.336 73.7547 32.48 74.3307 32.48 74.992V79.728C32.48 81.2 32.1547 82.3093 31.504 83.056C30.8533 83.792 29.9147 84.16 28.688 84.16ZM28.688 82.992C29.5627 82.992 30.1813 82.72 30.544 82.176C30.9067 81.632 31.088 80.9067 31.088 80V79.744C31.088 78.7627 30.912 77.9947 30.56 77.44C30.208 76.8747 29.5573 76.592 28.608 76.592C27.8507 76.592 27.28 76.8853 26.896 77.472C26.5227 78.0587 26.336 78.8213 26.336 79.76C26.336 80.784 26.528 81.5787 26.912 82.144C27.296 82.7093 27.888 82.992 28.688 82.992ZM35.5435 84C35.3302 83.4987 35.1488 83.0187 34.9995 82.56C34.8502 82.1013 34.7382 81.632 34.6635 81.152C34.5995 80.6613 34.5675 80.1387 34.5675 79.584C34.5675 78.72 34.6902 77.968 34.9355 77.328C35.1808 76.6773 35.5435 76.1707 36.0235 75.808C36.5035 75.4453 37.1008 75.264 37.8155 75.264C38.4128 75.264 38.8928 75.4027 39.2555 75.68C39.6288 75.9467 39.9008 76.3147 40.0715 76.784H40.1515C40.3328 76.3147 40.6155 75.9467 40.9995 75.68C41.3835 75.4027 41.8582 75.264 42.4235 75.264C43.1382 75.264 43.7355 75.4453 44.2155 75.808C44.6955 76.1707 45.0582 76.6773 45.3035 77.328C45.5488 77.968 45.6715 78.72 45.6715 79.584C45.6715 80.1387 45.6342 80.6613 45.5595 81.152C45.4955 81.632 45.3888 82.1013 45.2395 82.56C45.1008 83.0187 44.9195 83.4987 44.6955 84H43.2555C43.5968 83.2427 43.8422 82.528 43.9915 81.856C44.1515 81.1733 44.2315 80.4107 44.2315 79.568C44.2315 78.8747 44.1568 78.2987 44.0075 77.84C43.8582 77.3707 43.6395 77.0187 43.3515 76.784C43.0742 76.5493 42.7275 76.432 42.3115 76.432C41.8315 76.432 41.4582 76.6133 41.1915 76.976C40.9248 77.3387 40.7915 77.8507 40.7915 78.512V81.088H39.4475V78.512C39.4475 77.9147 39.3248 77.4187 39.0795 77.024C38.8342 76.6293 38.4448 76.432 37.9115 76.432C37.3035 76.432 36.8342 76.6987 36.5035 77.232C36.1728 77.7547 36.0075 78.5333 36.0075 79.568C36.0075 80.1333 36.0395 80.656 36.1035 81.136C36.1782 81.616 36.2848 82.0907 36.4235 82.56C36.5728 83.0187 36.7595 83.4987 36.9835 84H35.5435ZM50.9629 88C50.2375 88 49.5922 87.8453 49.0269 87.536C48.4722 87.2373 48.0402 86.8267 47.7309 86.304C47.4215 85.7813 47.2669 85.1893 47.2669 84.528C47.2669 84.2187 47.2935 83.9307 47.3469 83.664C47.4109 83.3867 47.4802 83.1573 47.5549 82.976H48.8989C48.8455 83.1467 48.7922 83.3707 48.7389 83.648C48.6962 83.9147 48.6749 84.1653 48.6749 84.4C48.6749 84.816 48.7549 85.2053 48.9149 85.568C49.0855 85.9413 49.3415 86.2453 49.6829 86.48C50.0242 86.7147 50.4509 86.832 50.9629 86.832C51.5069 86.832 51.9549 86.7093 52.3069 86.464C52.6589 86.2293 52.9202 85.9093 53.0909 85.504C53.2615 85.0987 53.3469 84.6507 53.3469 84.16C53.3469 83.6267 53.2509 83.152 53.0589 82.736C52.8669 82.3093 52.5842 81.9733 52.2109 81.728C51.8375 81.472 51.3789 81.344 50.8349 81.344H50.2109V80.176H50.9469C51.4589 80.176 51.8695 80.0853 52.1789 79.904C52.4882 79.712 52.7122 79.472 52.8509 79.184C53.0002 78.896 53.0749 78.6027 53.0749 78.304C53.0749 77.9627 53.0002 77.6533 52.8509 77.376C52.7015 77.088 52.4882 76.8587 52.2109 76.688C51.9335 76.5173 51.6029 76.432 51.2189 76.432V75.264C51.8375 75.264 52.3922 75.3973 52.8829 75.664C53.3735 75.92 53.7629 76.2667 54.0509 76.704C54.3389 77.1307 54.4829 77.6 54.4829 78.112C54.4829 78.7733 54.2749 79.3387 53.8589 79.808C53.4535 80.2667 52.9149 80.5707 52.2429 80.72V80.784C52.6909 80.848 53.1069 81.0187 53.4909 81.296C53.8855 81.5627 54.2002 81.9413 54.4349 82.432C54.6802 82.912 54.8029 83.5093 54.8029 84.224C54.8029 84.9813 54.6429 85.6427 54.3229 86.208C54.0029 86.784 53.5549 87.2267 52.9789 87.536C52.4135 87.8453 51.7415 88 50.9629 88ZM66.7774 88C66.532 87.5947 66.2334 87.2373 65.8814 86.928C65.54 86.6293 65.1614 86.3787 64.7454 86.176C64.34 85.9733 63.908 85.8187 63.4494 85.712C62.9907 85.6053 62.5214 85.552 62.0414 85.552C61.5187 85.552 61.0067 85.6213 60.5054 85.76C60.004 85.9093 59.5187 86.1173 59.0494 86.384L58.4894 85.36C58.7134 85.2533 58.9427 85.152 59.1774 85.056C59.4227 84.9707 59.6734 84.896 59.9294 84.832C60.1854 84.7787 60.436 84.7467 60.6814 84.736V84.688C60.1054 84.5067 59.5614 84.2667 59.0494 83.968C58.548 83.6693 58.1054 83.3013 57.7214 82.864C57.3374 82.4267 57.0334 81.9147 56.8094 81.328C56.596 80.7413 56.4894 80.064 56.4894 79.296C56.4894 78.4853 56.6067 77.7813 56.8414 77.184C57.0867 76.576 57.444 76.1067 57.9134 75.776C58.3934 75.4347 58.9747 75.264 59.6574 75.264C60.2547 75.264 60.7347 75.4027 61.0974 75.68C61.4707 75.9467 61.7427 76.3147 61.9134 76.784H61.9934C62.1747 76.3147 62.4574 75.9467 62.8414 75.68C63.236 75.4027 63.7267 75.264 64.3134 75.264C64.9427 75.264 65.444 75.4027 65.8174 75.68C66.1907 75.9467 66.4627 76.3147 66.6334 76.784H66.7134C66.8947 76.3147 67.1774 75.9467 67.5614 75.68C67.9454 75.4027 68.42 75.264 68.9854 75.264C69.6787 75.264 70.26 75.4453 70.7294 75.808C71.1987 76.1707 71.5507 76.6773 71.7854 77.328C72.0307 77.968 72.1534 78.72 72.1534 79.584C72.1534 80.2667 72.0787 80.9013 71.9294 81.488C71.7907 82.0747 71.572 82.6507 71.2734 83.216L70.0574 82.768C70.3027 82.2453 70.4734 81.7387 70.5694 81.248C70.6654 80.7467 70.7134 80.1867 70.7134 79.568C70.7134 78.5333 70.548 77.7547 70.2174 77.232C69.8974 76.6987 69.4494 76.432 68.8734 76.432C68.3934 76.432 68.02 76.6133 67.7534 76.976C67.4867 77.3387 67.3534 77.8507 67.3534 78.512V81.088H66.0094V78.512C66.0094 77.9147 65.876 77.4187 65.6094 77.024C65.3534 76.6293 64.9214 76.432 64.3134 76.432C63.7587 76.432 63.3374 76.6133 63.0494 76.976C62.772 77.3387 62.6334 77.8507 62.6334 78.512V81.088H61.2894V78.512C61.2894 77.9147 61.1667 77.4187 60.9214 77.024C60.676 76.6293 60.2867 76.432 59.7534 76.432C59.188 76.432 58.74 76.6667 58.4094 77.136C58.0894 77.6053 57.9294 78.3253 57.9294 79.296C57.9294 80.0427 58.0467 80.6933 58.2814 81.248C58.5267 81.792 58.8574 82.256 59.2734 82.64C59.6894 83.024 60.1587 83.3387 60.6814 83.584C61.2147 83.8187 61.7694 84 62.3454 84.128C63.0707 84.2773 63.7907 84.48 64.5054 84.736C65.2307 85.0027 65.8867 85.3493 66.4734 85.776C67.0707 86.2133 67.5294 86.7627 67.8494 87.424L66.7774 88ZM77.371 88C76.827 88 76.3257 87.9093 75.867 87.728C75.419 87.5573 75.0297 87.3013 74.699 86.96C74.3683 86.6293 74.1123 86.2293 73.931 85.76C73.7603 85.3013 73.675 84.784 73.675 84.208C73.675 83.8987 73.7017 83.6107 73.755 83.344C73.819 83.0667 73.8883 82.8373 73.963 82.656H75.307C75.2537 82.8267 75.2003 83.0507 75.147 83.328C75.1043 83.5947 75.083 83.8453 75.083 84.08C75.083 84.6027 75.163 85.072 75.323 85.488C75.4937 85.904 75.7497 86.2293 76.091 86.464C76.4323 86.7093 76.859 86.832 77.371 86.832C77.9257 86.832 78.3683 86.7093 78.699 86.464C79.0403 86.2187 79.2857 85.872 79.435 85.424C79.595 84.976 79.675 84.448 79.675 83.84V78.976C79.675 78.1653 79.5097 77.5413 79.179 77.104C78.8483 76.656 78.3363 76.432 77.643 76.432C77.227 76.432 76.859 76.512 76.539 76.672C76.2297 76.832 75.9843 77.0667 75.803 77.376C75.6323 77.6747 75.547 78.0533 75.547 78.512C75.547 78.7467 75.5577 78.9707 75.579 79.184C75.611 79.3867 75.6483 79.5627 75.691 79.712H74.347C74.3043 79.584 74.2563 79.4133 74.203 79.2C74.1603 78.976 74.139 78.7467 74.139 78.512C74.139 77.7973 74.2937 77.2 74.603 76.72C74.923 76.24 75.3443 75.8773 75.867 75.632C76.4003 75.3867 76.9923 75.264 77.643 75.264C78.3363 75.264 78.939 75.408 79.451 75.696C79.9737 75.984 80.3737 76.4 80.651 76.944C80.939 77.4773 81.083 78.1333 81.083 78.912V83.904C81.083 84.768 80.9337 85.504 80.635 86.112C80.347 86.7307 79.9257 87.2 79.371 87.52C78.827 87.84 78.1603 88 77.371 88ZM90.7895 84.16C90.1282 84.16 89.5255 84.0373 88.9815 83.792C88.4482 83.5467 88.0215 83.184 87.7015 82.704C87.3922 82.224 87.2375 81.6267 87.2375 80.912C87.2375 80.6773 87.2588 80.4533 87.3015 80.24C87.3548 80.016 87.4028 79.84 87.4455 79.712H88.7895C88.7468 79.8507 88.7095 80.0267 88.6775 80.24C88.6562 80.4427 88.6455 80.6667 88.6455 80.912C88.6455 81.36 88.7308 81.7387 88.9015 82.048C89.0828 82.3573 89.3335 82.592 89.6535 82.752C89.9842 82.912 90.3628 82.992 90.7895 82.992C91.2268 82.992 91.6002 82.912 91.9095 82.752C92.2188 82.592 92.4588 82.352 92.6295 82.032C92.8002 81.712 92.8855 81.312 92.8855 80.832C92.8855 80.2773 92.7682 79.8293 92.5335 79.488C92.2988 79.136 92.0268 78.8107 91.7175 78.512C91.4615 78.256 91.2055 77.9893 90.9495 77.712C90.7042 77.424 90.4962 77.0987 90.3255 76.736C90.1548 76.3627 90.0695 75.9253 90.0695 75.424H91.4775C91.4775 75.8827 91.6002 76.288 91.8455 76.64C92.1015 76.9813 92.3948 77.3173 92.7255 77.648C92.9922 77.904 93.2482 78.1813 93.4935 78.48C93.7388 78.7787 93.9415 79.12 94.1015 79.504C94.2615 79.8773 94.3415 80.32 94.3415 80.832C94.3415 81.4933 94.1868 82.0747 93.8775 82.576C93.5682 83.0773 93.1468 83.4667 92.6135 83.744C92.0802 84.0213 91.4722 84.16 90.7895 84.16ZM103.507 88C103.272 87.552 102.973 87.1627 102.611 86.832C102.259 86.5013 101.875 86.2453 101.459 86.064C101.053 85.8933 100.643 85.808 100.227 85.808C99.7788 85.808 99.3734 85.856 99.0108 85.952C98.6481 86.048 98.2481 86.1973 97.8108 86.4L97.3307 85.408C97.5761 85.2907 97.8588 85.184 98.1788 85.088C98.5094 84.992 98.9254 84.9333 99.4268 84.912V84.864C98.3174 84.3413 97.4854 83.648 96.9308 82.784C96.3761 81.9093 96.0988 80.8533 96.0988 79.616C96.0988 78.7413 96.2214 77.9787 96.4668 77.328C96.7121 76.6773 97.0748 76.1707 97.5548 75.808C98.0348 75.4453 98.6321 75.264 99.3468 75.264C99.9441 75.264 100.424 75.4027 100.787 75.68C101.16 75.9467 101.432 76.3147 101.603 76.784H101.683C101.864 76.3147 102.147 75.9467 102.531 75.68C102.915 75.4027 103.389 75.264 103.955 75.264C104.669 75.264 105.267 75.4453 105.747 75.808C106.227 76.1707 106.589 76.6773 106.835 77.328C107.08 77.968 107.203 78.72 107.203 79.584C107.203 80.2667 107.128 80.9013 106.979 81.488C106.84 82.0747 106.621 82.6507 106.323 83.216L105.107 82.768C105.352 82.2453 105.523 81.7387 105.619 81.248C105.715 80.7467 105.763 80.1867 105.763 79.568C105.763 78.8747 105.688 78.2987 105.539 77.84C105.389 77.3707 105.171 77.0187 104.883 76.784C104.605 76.5493 104.259 76.432 103.843 76.432C103.363 76.432 102.989 76.6133 102.723 76.976C102.456 77.3387 102.323 77.8507 102.323 78.512V81.088H100.979V78.512C100.979 77.9147 100.856 77.4187 100.611 77.024C100.365 76.6293 99.9761 76.432 99.4427 76.432C98.8348 76.432 98.3654 76.6987 98.0348 77.232C97.7041 77.7547 97.5388 78.5387 97.5388 79.584C97.5388 80.2987 97.6241 80.9227 97.7948 81.456C97.9654 81.9787 98.2001 82.432 98.4988 82.816C98.8081 83.1893 99.1654 83.5093 99.5708 83.776C99.9761 84.0427 100.408 84.2773 100.867 84.48C101.485 84.7467 102.024 85.0027 102.483 85.248C102.941 85.504 103.336 85.7973 103.667 86.128C104.008 86.4693 104.312 86.9013 104.579 87.424L103.507 88ZM113.07 84.16C112.259 84.16 111.571 84 111.006 83.68C110.441 83.3493 110.009 82.8693 109.71 82.24C109.422 81.6 109.278 80.816 109.278 79.888V74.352C109.278 73.744 109.395 73.2427 109.63 72.848C109.865 72.4533 110.174 72.16 110.558 71.968C110.953 71.776 111.379 71.68 111.838 71.68C112.211 71.68 112.585 71.7547 112.958 71.904C113.331 72.0533 113.619 72.368 113.822 72.848H113.87C114.073 72.368 114.334 72.0533 114.654 71.904C114.974 71.7547 115.299 71.68 115.63 71.68C115.939 71.68 116.217 71.712 116.462 71.776C116.707 71.84 116.931 71.9147 117.134 72L116.782 73.072C116.611 73.0187 116.43 72.9653 116.238 72.912C116.046 72.8587 115.849 72.832 115.646 72.832C115.358 72.832 115.097 72.928 114.862 73.12C114.638 73.3013 114.526 73.5733 114.526 73.936V74.704H113.166V73.936C113.166 73.5947 113.054 73.3227 112.83 73.12C112.606 72.9067 112.313 72.8 111.95 72.8C111.694 72.8 111.47 72.864 111.278 72.992C111.086 73.1093 110.937 73.2853 110.83 73.52C110.734 73.7547 110.686 74.0427 110.686 74.384V75.92C110.686 76.0907 110.675 76.288 110.654 76.512C110.633 76.7253 110.611 76.8907 110.59 77.008H110.686C110.867 76.7733 111.075 76.56 111.31 76.368C111.555 76.176 111.843 76.0267 112.174 75.92C112.515 75.8027 112.905 75.744 113.342 75.744C114.057 75.744 114.675 75.9093 115.198 76.24C115.731 76.56 116.142 77.0293 116.43 77.648C116.729 78.2667 116.878 79.0133 116.878 79.888C116.878 80.816 116.718 81.6 116.398 82.24C116.078 82.8693 115.63 83.3493 115.054 83.68C114.489 84 113.827 84.16 113.07 84.16ZM113.07 82.992C113.603 82.992 114.041 82.8693 114.382 82.624C114.734 82.368 114.995 82.0107 115.166 81.552C115.337 81.0933 115.422 80.5493 115.422 79.92C115.422 79.344 115.337 78.832 115.166 78.384C115.006 77.9253 114.755 77.568 114.414 77.312C114.083 77.0453 113.662 76.912 113.15 76.912C112.521 76.912 112.025 77.0347 111.662 77.28C111.299 77.5253 111.043 77.872 110.894 78.32C110.745 78.768 110.67 79.296 110.67 79.904V80.16C110.67 80.9813 110.851 81.6587 111.214 82.192C111.577 82.7253 112.195 82.992 113.07 82.992ZM121.949 88C121.405 88 120.904 87.9093 120.445 87.728C119.997 87.5573 119.608 87.3013 119.277 86.96C118.946 86.6293 118.69 86.2293 118.509 85.76C118.338 85.3013 118.253 84.784 118.253 84.208C118.253 83.8987 118.28 83.6107 118.333 83.344C118.397 83.0667 118.466 82.8373 118.541 82.656H119.885C119.832 82.8267 119.778 83.0507 119.725 83.328C119.682 83.5947 119.661 83.8453 119.661 84.08C119.661 84.6027 119.741 85.072 119.901 85.488C120.072 85.904 120.328 86.2293 120.669 86.464C121.01 86.7093 121.437 86.832 121.949 86.832C122.504 86.832 122.946 86.7093 123.277 86.464C123.618 86.2187 123.864 85.872 124.013 85.424C124.173 84.976 124.253 84.448 124.253 83.84V78.976C124.253 78.1653 124.088 77.5413 123.757 77.104C123.426 76.656 122.914 76.432 122.221 76.432C121.805 76.432 121.437 76.512 121.117 76.672C120.808 76.832 120.562 77.0667 120.381 77.376C120.21 77.6747 120.125 78.0533 120.125 78.512C120.125 78.7467 120.136 78.9707 120.157 79.184C120.189 79.3867 120.226 79.5627 120.269 79.712H118.925C118.882 79.584 118.834 79.4133 118.781 79.2C118.738 78.976 118.717 78.7467 118.717 78.512C118.717 77.7973 118.872 77.2 119.181 76.72C119.501 76.24 119.922 75.8773 120.445 75.632C120.978 75.3867 121.57 75.264 122.221 75.264C122.914 75.264 123.517 75.408 124.029 75.696C124.552 75.984 124.952 76.4 125.229 76.944C125.517 77.4773 125.661 78.1333 125.661 78.912V83.904C125.661 84.768 125.512 85.504 125.213 86.112C124.925 86.7307 124.504 87.2 123.949 87.52C123.405 87.84 122.738 88 121.949 88ZM128.683 84C128.47 83.4987 128.289 83.0187 128.139 82.56C128.001 82.1013 127.899 81.632 127.835 81.152C127.771 80.6613 127.739 80.1387 127.739 79.584V78.976C127.739 77.6533 127.894 76.5387 128.203 75.632C128.513 74.7147 128.982 73.9893 129.611 73.456C130.241 72.912 131.03 72.5387 131.979 72.336C132.577 72.208 133.174 72.0907 133.771 71.984C134.369 71.8773 134.955 71.776 135.531 71.68L135.771 72.912C135.494 72.9547 135.19 73.0027 134.859 73.056C134.539 73.0987 134.219 73.1467 133.899 73.2C133.579 73.2533 133.275 73.3067 132.987 73.36C132.71 73.4027 132.465 73.4507 132.251 73.504C131.814 73.6 131.387 73.7493 130.971 73.952C130.555 74.144 130.182 74.4267 129.851 74.8C129.531 75.1733 129.27 75.6853 129.067 76.336H129.115C129.329 76.0373 129.537 75.8133 129.739 75.664C129.953 75.504 130.166 75.3973 130.379 75.344C130.603 75.2907 130.827 75.264 131.051 75.264C131.595 75.264 132.049 75.4027 132.411 75.68C132.774 75.9467 133.041 76.3147 133.211 76.784H133.291C133.473 76.3147 133.755 75.9467 134.139 75.68C134.523 75.4027 134.998 75.264 135.563 75.264C136.278 75.264 136.875 75.4453 137.355 75.808C137.835 76.1707 138.198 76.6773 138.443 77.328C138.689 77.968 138.811 78.72 138.811 79.584C138.811 80.1387 138.774 80.6613 138.699 81.152C138.635 81.632 138.529 82.1013 138.379 82.56C138.241 83.0187 138.059 83.4987 137.835 84H136.395C136.737 83.2427 136.982 82.528 137.131 81.856C137.291 81.1733 137.371 80.4107 137.371 79.568C137.371 78.8747 137.297 78.2987 137.147 77.84C136.998 77.3707 136.779 77.0187 136.491 76.784C136.214 76.5493 135.867 76.432 135.451 76.432C134.971 76.432 134.598 76.6133 134.331 76.976C134.065 77.3387 133.931 77.8507 133.931 78.512V81.088H132.587V78.512C132.587 77.9147 132.465 77.4187 132.219 77.024C131.974 76.6293 131.585 76.432 131.051 76.432C130.443 76.432 129.974 76.6987 129.643 77.232C129.313 77.7547 129.147 78.5333 129.147 79.568C129.147 80.1333 129.179 80.656 129.243 81.136C129.318 81.616 129.425 82.0907 129.563 82.56C129.713 83.0187 129.899 83.4987 130.123 84H128.683ZM144.04 84.16C143.378 84.16 142.776 84.0373 142.232 83.792C141.698 83.5467 141.272 83.184 140.952 82.704C140.642 82.224 140.488 81.6267 140.488 80.912C140.488 80.6773 140.509 80.4533 140.552 80.24C140.605 80.016 140.653 79.84 140.696 79.712H142.039C141.997 79.8507 141.96 80.0267 141.928 80.24C141.906 80.4427 141.896 80.6667 141.896 80.912C141.896 81.36 141.981 81.7387 142.152 82.048C142.333 82.3573 142.584 82.592 142.904 82.752C143.234 82.912 143.613 82.992 144.04 82.992C144.477 82.992 144.85 82.912 145.16 82.752C145.469 82.592 145.709 82.352 145.88 82.032C146.05 81.712 146.136 81.312 146.136 80.832C146.136 80.2773 146.018 79.8293 145.784 79.488C145.549 79.136 145.277 78.8107 144.968 78.512C144.712 78.256 144.456 77.9893 144.2 77.712C143.954 77.424 143.746 77.0987 143.576 76.736C143.405 76.3627 143.32 75.9253 143.32 75.424H144.728C144.728 75.8827 144.85 76.288 145.096 76.64C145.352 76.9813 145.645 77.3173 145.976 77.648C146.242 77.904 146.498 78.1813 146.744 78.48C146.989 78.7787 147.192 79.12 147.352 79.504C147.512 79.8773 147.592 80.32 147.592 80.832C147.592 81.4933 147.437 82.0747 147.128 82.576C146.818 83.0773 146.397 83.4667 145.864 83.744C145.33 84.0213 144.722 84.16 144.04 84.16Z" fill="white"/>
<g style="mix-blend-mode:soft-light">
<g style="mix-blend-mode:lighten">
<ellipse cx="316.156" cy="136.652" rx="19.0817" ry="19.5142" fill="url(#paint1_linear_2_281)"/>
</g>
<g style="mix-blend-mode:lighten">
<path d="M362.709 213.774C362.709 207.522 361.505 201.331 359.165 195.555C356.826 189.779 353.397 184.531 349.074 180.11C344.751 175.69 339.619 172.183 333.971 169.79C328.323 167.398 322.27 166.166 316.156 166.166C310.043 166.166 303.989 167.398 298.341 169.79C292.693 172.183 287.561 175.69 283.238 180.11C278.916 184.531 275.487 189.779 273.147 195.555C270.808 201.331 269.604 207.522 269.604 213.774L362.709 213.774Z" fill="url(#paint2_linear_2_281)"/>
</g>
</g>
<g style="mix-blend-mode:lighten">
<ellipse cx="259.244" cy="134.495" rx="33.6158" ry="34.3777" fill="url(#paint3_linear_2_281)"/>
</g>
<g style="mix-blend-mode:lighten">
<path d="M341.255 264.294C341.255 253.28 339.134 242.374 335.013 232.199C330.891 222.023 324.85 212.777 317.235 204.989C309.619 197.201 300.579 191.024 290.629 186.809C280.679 182.594 270.014 180.425 259.244 180.425C248.475 180.425 237.81 182.594 227.86 186.809C217.91 191.024 208.869 197.201 201.254 204.989C193.639 212.777 187.598 222.023 183.476 232.199C179.355 242.374 177.234 253.28 177.234 264.294L341.255 264.294Z" fill="url(#paint4_linear_2_281)"/>
</g>
</g>
<defs>
<linearGradient id="paint0_linear_2_281" x1="254.058" y1="-43.1845" x2="77.1521" y2="329.486" gradientUnits="userSpaceOnUse">
<stop stop-color="#FDD833"/>
<stop offset="1" stop-color="#C98500"/>
</linearGradient>
<linearGradient id="paint1_linear_2_281" x1="316.156" y1="117.138" x2="316.156" y2="156.166" gradientUnits="userSpaceOnUse">
<stop stop-color="white"/>
<stop offset="1" stop-color="white" stop-opacity="0"/>
</linearGradient>
<linearGradient id="paint2_linear_2_281" x1="316.156" y1="166.166" x2="316.156" y2="213.774" gradientUnits="userSpaceOnUse">
<stop stop-color="white"/>
<stop offset="1" stop-color="white" stop-opacity="0"/>
</linearGradient>
<linearGradient id="paint3_linear_2_281" x1="176.588" y1="83.3328" x2="304.84" y2="181.604" gradientUnits="userSpaceOnUse">
<stop stop-color="white"/>
<stop offset="1" stop-color="white" stop-opacity="0"/>
</linearGradient>
<linearGradient id="paint4_linear_2_281" x1="138.858" y1="153.957" x2="360.603" y2="287.601" gradientUnits="userSpaceOnUse">
<stop stop-color="white"/>
<stop offset="1" stop-color="white" stop-opacity="0"/>
</linearGradient>
<clipPath id="clip0_2_281">
<rect width="344" height="259" rx="18" fill="white"/>
</clipPath>
</defs>
</svg>
