<svg width="341" height="350" viewBox="0 0 341 350" fill="none" xmlns="http://www.w3.org/2000/svg">
<rect y="0.843018" width="341" height="349" rx="18" fill="#048D59" fill-opacity="0.08"/>
<path d="M86.352 41.843C86.1493 41.3524 85.968 40.8617 85.808 40.371C85.648 39.8804 85.5093 39.379 85.392 38.867C85.2853 38.3444 85.2 37.7897 85.136 37.203C85.0827 36.6057 85.056 35.955 85.056 35.251C85.056 34.035 85.2267 33.0644 85.568 32.339C85.9093 31.603 86.3467 31.075 86.88 30.755C87.424 30.4244 87.9893 30.259 88.576 30.259C88.9173 30.259 89.2587 30.3124 89.6 30.419C89.9413 30.515 90.2507 30.691 90.528 30.947C90.816 31.1924 91.0347 31.539 91.184 31.987H91.232C91.3813 31.539 91.5893 31.1924 91.856 30.947C92.1333 30.691 92.4373 30.515 92.768 30.419C93.1093 30.3124 93.4507 30.259 93.792 30.259C94.4 30.259 94.976 30.4244 95.52 30.755C96.064 31.075 96.5013 31.603 96.832 32.339C97.1733 33.0644 97.344 34.035 97.344 35.251C97.344 36.2004 97.2907 37.0484 97.184 37.795C97.0773 38.5417 96.928 39.2404 96.736 39.891C96.544 40.531 96.3147 41.1817 96.048 41.843H94.544C94.8213 41.1497 95.0507 40.4777 95.232 39.827C95.424 39.1657 95.568 38.4724 95.664 37.747C95.7707 37.0217 95.824 36.2164 95.824 35.331C95.824 34.3817 95.7227 33.6297 95.52 33.075C95.3173 32.5097 95.056 32.1097 94.736 31.875C94.416 31.6297 94.0747 31.507 93.712 31.507C93.3707 31.507 93.0667 31.603 92.8 31.795C92.5333 31.9764 92.3253 32.2644 92.176 32.659C92.0267 33.0537 91.952 33.571 91.952 34.211V38.483H90.448V34.211C90.448 33.571 90.368 33.0537 90.208 32.659C90.0587 32.2537 89.8507 31.9604 89.584 31.779C89.3173 31.5977 89.008 31.507 88.656 31.507C88.3147 31.507 87.984 31.6244 87.664 31.859C87.344 32.0937 87.0827 32.4937 86.88 33.059C86.6773 33.6137 86.576 34.371 86.576 35.331C86.576 36.1844 86.624 36.979 86.72 37.715C86.816 38.4404 86.96 39.139 87.152 39.811C87.344 40.4724 87.5787 41.1497 87.856 41.843H86.352ZM103.59 42.003C102.353 42.003 101.398 41.651 100.726 40.947C100.065 40.243 99.7343 39.2084 99.7343 37.843V33.395C99.7343 32.8617 99.8089 32.4084 99.9583 32.035C100.108 31.651 100.316 31.3417 100.582 31.107C100.849 30.8724 101.158 30.7017 101.51 30.595C101.862 30.4777 102.241 30.419 102.646 30.419H106.742V31.667H102.838C102.326 31.667 101.921 31.795 101.622 32.051C101.324 32.2964 101.174 32.7177 101.174 33.315V33.955C101.174 34.1364 101.164 34.3284 101.142 34.531C101.121 34.7337 101.1 34.8937 101.078 35.011H101.174C101.356 34.787 101.574 34.5844 101.83 34.403C102.086 34.211 102.385 34.0564 102.726 33.939C103.068 33.8217 103.457 33.763 103.894 33.763C104.63 33.763 105.276 33.923 105.83 34.243C106.385 34.5524 106.812 35.011 107.11 35.619C107.42 36.227 107.574 36.9684 107.574 37.843C107.574 38.7497 107.409 39.5124 107.078 40.131C106.748 40.7497 106.284 41.219 105.686 41.539C105.089 41.8484 104.39 42.003 103.59 42.003ZM103.59 40.787C104.156 40.787 104.62 40.6697 104.982 40.435C105.345 40.2004 105.612 39.8644 105.782 39.427C105.964 38.9897 106.054 38.4724 106.054 37.875C106.054 37.299 105.964 36.7977 105.782 36.371C105.601 35.9337 105.334 35.5924 104.982 35.347C104.63 35.1017 104.193 34.979 103.67 34.979C103.052 34.979 102.556 35.107 102.182 35.363C101.82 35.619 101.558 35.9657 101.398 36.403C101.238 36.8297 101.158 37.3097 101.158 37.843V38.083C101.158 38.6164 101.238 39.091 101.398 39.507C101.569 39.9124 101.83 40.227 102.182 40.451C102.545 40.675 103.014 40.787 103.59 40.787ZM119.679 41.843C119.636 41.5444 119.513 41.2777 119.311 41.043C119.119 40.8084 118.868 40.6057 118.559 40.435C118.249 40.2537 117.903 40.1044 117.519 39.987C117.135 39.8697 116.735 39.7844 116.319 39.731C115.913 39.667 115.519 39.635 115.135 39.635C114.409 39.635 113.769 39.715 113.215 39.875C112.66 40.0244 112.148 40.2164 111.679 40.451L111.103 39.411C111.305 39.3044 111.513 39.2084 111.727 39.123C111.951 39.027 112.18 38.9524 112.415 38.899C112.66 38.835 112.911 38.7977 113.167 38.787V38.739C112.569 38.611 112.015 38.4244 111.503 38.179C111.001 37.9337 110.564 37.619 110.191 37.235C109.828 36.851 109.545 36.3924 109.343 35.859C109.14 35.315 109.039 34.691 109.039 33.987C109.039 33.2404 109.161 32.5897 109.407 32.035C109.663 31.4804 110.036 31.0484 110.527 30.739C111.017 30.419 111.62 30.259 112.335 30.259C112.964 30.259 113.471 30.4084 113.855 30.707C114.249 30.995 114.532 31.3897 114.703 31.891H114.783C114.975 31.3577 115.279 30.9524 115.695 30.675C116.111 30.3977 116.612 30.259 117.199 30.259C117.849 30.259 118.372 30.4084 118.767 30.707C119.161 30.995 119.444 31.3897 119.615 31.891H119.695C119.876 31.3897 120.169 30.995 120.575 30.707C120.98 30.4084 121.481 30.259 122.079 30.259C122.793 30.259 123.396 30.4297 123.887 30.771C124.377 31.1017 124.745 31.5657 124.991 32.163C125.247 32.7604 125.375 33.4537 125.375 34.243C125.375 34.8724 125.3 35.4644 125.151 36.019C125.012 36.5737 124.799 37.1177 124.51 37.651L123.183 37.187C123.449 36.6537 123.631 36.1524 123.727 35.683C123.823 35.203 123.871 34.691 123.871 34.147C123.871 33.2937 123.7 32.643 123.359 32.195C123.028 31.7364 122.564 31.507 121.967 31.507C121.636 31.507 121.348 31.603 121.103 31.795C120.868 31.9764 120.687 32.2324 120.559 32.563C120.431 32.8937 120.367 33.283 120.367 33.731V35.683H118.959V33.699C118.959 33.2724 118.895 32.899 118.767 32.579C118.639 32.2484 118.447 31.987 118.191 31.795C117.935 31.603 117.604 31.507 117.199 31.507C116.836 31.507 116.521 31.5977 116.255 31.779C115.999 31.9497 115.801 32.2004 115.663 32.531C115.524 32.851 115.455 33.2404 115.455 33.699V35.683H114.047V33.731C114.047 33.3257 113.988 32.9577 113.871 32.627C113.764 32.2857 113.593 32.0137 113.359 31.811C113.124 31.6084 112.82 31.507 112.447 31.507C111.86 31.507 111.396 31.7097 111.055 32.115C110.713 32.5097 110.543 33.139 110.543 34.003C110.543 34.739 110.671 35.3684 110.927 35.891C111.193 36.403 111.567 36.8297 112.047 37.171C112.527 37.5017 113.092 37.7684 113.743 37.971C114.404 38.163 115.129 38.307 115.919 38.403C116.527 38.4777 117.119 38.6004 117.695 38.771C118.271 38.931 118.799 39.1497 119.279 39.427C119.769 39.6937 120.175 40.0297 120.495 40.435C120.815 40.8297 121.012 41.299 121.087 41.843H119.679ZM130.611 41.987C129.843 41.987 129.166 41.8377 128.579 41.539C128.003 41.2297 127.55 40.7977 127.219 40.243C126.899 39.6884 126.739 39.0484 126.739 38.323C126.739 38.003 126.755 37.6884 126.787 37.379C126.819 37.059 126.926 36.6697 127.107 36.211H128.579C128.43 36.6164 128.334 36.9897 128.291 37.331C128.249 37.6617 128.227 37.9497 128.227 38.195C128.227 38.9204 128.425 39.5284 128.819 40.019C129.225 40.499 129.822 40.739 130.611 40.739C131.177 40.739 131.63 40.6217 131.971 40.387C132.323 40.1417 132.579 39.811 132.739 39.395C132.91 38.979 132.995 38.5097 132.995 37.987C132.995 37.4537 132.926 36.979 132.787 36.563C132.659 36.1364 132.483 35.7524 132.259 35.411C132.046 35.059 131.817 34.7284 131.571 34.419C131.273 34.0244 130.99 33.635 130.723 33.251C130.457 32.8564 130.249 32.4297 130.099 31.971C129.961 31.5124 129.923 30.995 129.987 30.419H131.427C131.395 30.8777 131.443 31.2937 131.571 31.667C131.699 32.0404 131.875 32.3924 132.099 32.723C132.334 33.0537 132.579 33.395 132.835 33.747C133.113 34.099 133.379 34.483 133.635 34.899C133.891 35.3044 134.099 35.763 134.259 36.275C134.43 36.787 134.515 37.379 134.515 38.051C134.515 38.8404 134.355 39.5337 134.035 40.131C133.726 40.7177 133.278 41.1764 132.691 41.507C132.115 41.827 131.422 41.987 130.611 41.987ZM137.564 41.843C137.362 41.2884 137.18 40.7124 137.02 40.115C136.871 39.5177 136.754 38.851 136.668 38.115C136.583 37.3684 136.54 36.5204 136.54 35.571C136.54 34.3017 136.722 33.2777 137.084 32.499C137.447 31.7204 137.932 31.155 138.54 30.803C139.148 30.4404 139.826 30.259 140.572 30.259C141.319 30.259 141.996 30.4404 142.604 30.803C143.212 31.155 143.698 31.7204 144.06 32.499C144.423 33.2777 144.604 34.3017 144.604 35.571C144.604 36.5204 144.562 37.3684 144.476 38.115C144.391 38.851 144.274 39.5177 144.124 40.115C143.975 40.7124 143.794 41.2884 143.58 41.843H142.108C142.322 41.2564 142.498 40.6697 142.636 40.083C142.786 39.4857 142.898 38.835 142.972 38.131C143.047 37.4164 143.084 36.5897 143.084 35.651C143.084 34.6377 142.978 33.827 142.764 33.219C142.562 32.611 142.268 32.1737 141.884 31.907C141.511 31.6404 141.074 31.507 140.572 31.507C140.071 31.507 139.628 31.6404 139.244 31.907C138.871 32.1737 138.578 32.611 138.364 33.219C138.162 33.827 138.06 34.6377 138.06 35.651C138.06 36.5897 138.098 37.4164 138.172 38.131C138.247 38.835 138.354 39.4857 138.492 40.083C138.642 40.6697 138.823 41.2564 139.036 41.843H137.564ZM150.84 42.003C149.603 42.003 148.648 41.651 147.976 40.947C147.315 40.243 146.984 39.2084 146.984 37.843V33.395C146.984 32.8617 147.059 32.4084 147.208 32.035C147.358 31.651 147.566 31.3417 147.832 31.107C148.099 30.8724 148.408 30.7017 148.76 30.595C149.112 30.4777 149.491 30.419 149.896 30.419H153.992V31.667H150.088C149.576 31.667 149.171 31.795 148.872 32.051C148.574 32.2964 148.424 32.7177 148.424 33.315V33.955C148.424 34.1364 148.414 34.3284 148.392 34.531C148.371 34.7337 148.35 34.8937 148.328 35.011H148.424C148.606 34.787 148.824 34.5844 149.08 34.403C149.336 34.211 149.635 34.0564 149.976 33.939C150.318 33.8217 150.707 33.763 151.144 33.763C151.88 33.763 152.526 33.923 153.08 34.243C153.635 34.5524 154.062 35.011 154.36 35.619C154.67 36.227 154.824 36.9684 154.824 37.843C154.824 38.7497 154.659 39.5124 154.328 40.131C153.998 40.7497 153.534 41.219 152.936 41.539C152.339 41.8484 151.64 42.003 150.84 42.003ZM150.84 40.787C151.406 40.787 151.87 40.6697 152.232 40.435C152.595 40.2004 152.862 39.8644 153.032 39.427C153.214 38.9897 153.304 38.4724 153.304 37.875C153.304 37.299 153.214 36.7977 153.032 36.371C152.851 35.9337 152.584 35.5924 152.232 35.347C151.88 35.1017 151.443 34.979 150.92 34.979C150.302 34.979 149.806 35.107 149.432 35.363C149.07 35.619 148.808 35.9657 148.648 36.403C148.488 36.8297 148.408 37.3097 148.408 37.843V38.083C148.408 38.6164 148.488 39.091 148.648 39.507C148.819 39.9124 149.08 40.227 149.432 40.451C149.795 40.675 150.264 40.787 150.84 40.787ZM169.169 41.843C169.105 41.5657 168.956 41.3204 168.721 41.107C168.497 40.8937 168.214 40.7177 167.873 40.579C167.542 40.4297 167.18 40.3177 166.785 40.243C166.39 40.1684 165.996 40.131 165.601 40.131C165.132 40.131 164.673 40.179 164.225 40.275C163.788 40.371 163.398 40.515 163.057 40.707L162.529 39.683C162.753 39.5657 163.009 39.459 163.297 39.363C163.585 39.267 163.958 39.2084 164.417 39.187V39.139C163.692 38.8724 163.068 38.5044 162.545 38.035C162.022 37.5657 161.622 37.0057 161.345 36.355C161.068 35.7044 160.929 34.9844 160.929 34.195C160.929 33.4484 161.052 32.7817 161.297 32.195C161.542 31.5977 161.91 31.1284 162.401 30.787C162.902 30.435 163.516 30.259 164.241 30.259C164.7 30.259 165.11 30.323 165.473 30.451C165.836 30.579 166.145 30.771 166.401 31.027C166.657 31.2723 166.844 31.5817 166.961 31.955H167.041C167.19 31.5924 167.409 31.2884 167.697 31.043C167.996 30.787 168.337 30.595 168.721 30.467C169.116 30.3284 169.532 30.259 169.969 30.259C170.737 30.259 171.404 30.419 171.969 30.739C172.545 31.059 172.988 31.5124 173.297 32.099C173.606 32.6857 173.761 33.3737 173.761 34.163C173.761 34.7604 173.665 35.299 173.473 35.779C173.292 36.2484 173.03 36.6537 172.689 36.995C172.348 37.3257 171.948 37.5817 171.489 37.763C171.03 37.9444 170.529 38.035 169.985 38.035C169.409 38.035 168.886 37.9497 168.417 37.779C167.948 37.5977 167.548 37.3364 167.217 36.995C166.886 36.6537 166.63 36.2484 166.449 35.779C166.278 35.299 166.193 34.7657 166.193 34.179V33.667C166.193 33.187 166.113 32.787 165.953 32.467C165.804 32.147 165.585 31.907 165.297 31.747C165.02 31.587 164.694 31.507 164.321 31.507C163.926 31.507 163.585 31.6137 163.297 31.827C163.02 32.0404 162.806 32.3497 162.657 32.755C162.508 33.1497 162.433 33.6244 162.433 34.179C162.433 34.979 162.566 35.651 162.833 36.195C163.1 36.739 163.452 37.187 163.889 37.539C164.326 37.891 164.817 38.179 165.361 38.403C165.916 38.6164 166.47 38.803 167.025 38.963C167.462 39.091 167.878 39.2297 168.273 39.379C168.678 39.5284 169.041 39.715 169.361 39.939C169.681 40.1524 169.942 40.4137 170.145 40.723C170.358 41.0324 170.486 41.4057 170.529 41.843H169.169ZM169.953 36.803C170.476 36.803 170.902 36.691 171.233 36.467C171.574 36.2324 171.825 35.9177 171.985 35.523C172.156 35.1284 172.241 34.675 172.241 34.163C172.241 33.651 172.161 33.1977 172.001 32.803C171.841 32.3977 171.59 32.083 171.249 31.859C170.918 31.635 170.492 31.523 169.969 31.523C169.457 31.523 169.03 31.635 168.689 31.859C168.358 32.083 168.113 32.3977 167.953 32.803C167.793 33.1977 167.713 33.651 167.713 34.163C167.713 34.6644 167.793 35.1177 167.953 35.523C168.113 35.9177 168.358 36.2324 168.689 36.467C169.02 36.691 169.441 36.803 169.953 36.803ZM178.69 41.987C177.922 41.987 177.244 41.8377 176.658 41.539C176.082 41.2297 175.628 40.7977 175.298 40.243C174.978 39.6884 174.818 39.0484 174.818 38.323C174.818 38.003 174.834 37.6884 174.866 37.379C174.898 37.059 175.004 36.6697 175.186 36.211H176.658C176.508 36.6164 176.412 36.9897 176.37 37.331C176.327 37.6617 176.306 37.9497 176.306 38.195C176.306 38.9204 176.503 39.5284 176.898 40.019C177.303 40.499 177.9 40.739 178.69 40.739C179.255 40.739 179.708 40.6217 180.05 40.387C180.402 40.1417 180.658 39.811 180.818 39.395C180.988 38.979 181.074 38.5097 181.074 37.987C181.074 37.4537 181.004 36.979 180.866 36.563C180.738 36.1364 180.562 35.7524 180.338 35.411C180.124 35.059 179.895 34.7284 179.65 34.419C179.351 34.0244 179.068 33.635 178.802 33.251C178.535 32.8564 178.327 32.4297 178.178 31.971C178.039 31.5124 178.002 30.995 178.066 30.419H179.506C179.474 30.8777 179.522 31.2937 179.65 31.667C179.778 32.0404 179.954 32.3924 180.178 32.723C180.412 33.0537 180.658 33.395 180.914 33.747C181.191 34.099 181.458 34.483 181.714 34.899C181.97 35.3044 182.178 35.763 182.338 36.275C182.508 36.787 182.594 37.379 182.594 38.051C182.594 38.8404 182.434 39.5337 182.114 40.131C181.804 40.7177 181.356 41.1764 180.77 41.507C180.194 41.827 179.5 41.987 178.69 41.987ZM188.795 42.003C187.568 42.003 186.608 41.651 185.914 40.947C185.232 40.243 184.891 39.203 184.891 37.827V30.419H186.331V33.571C186.331 33.731 186.32 33.9497 186.299 34.227C186.277 34.4937 186.256 34.6964 186.235 34.835H186.331C186.512 34.611 186.725 34.4084 186.971 34.227C187.227 34.035 187.525 33.8857 187.867 33.779C188.219 33.6617 188.608 33.603 189.035 33.603C189.76 33.603 190.4 33.763 190.955 34.083C191.52 34.3924 191.963 34.8617 192.283 35.491C192.603 36.1097 192.763 36.883 192.763 37.811C192.763 38.7284 192.592 39.5017 192.251 40.131C191.909 40.7497 191.44 41.219 190.843 41.539C190.245 41.8484 189.563 42.003 188.795 42.003ZM188.795 40.755C189.584 40.755 190.187 40.4937 190.603 39.971C191.029 39.4484 191.243 38.739 191.243 37.843C191.243 37.2244 191.147 36.691 190.955 36.243C190.773 35.7844 190.507 35.4324 190.155 35.187C189.803 34.9417 189.376 34.819 188.875 34.819C188.171 34.819 187.632 34.9577 187.259 35.235C186.896 35.5124 186.645 35.8804 186.507 36.339C186.368 36.7977 186.299 37.2937 186.299 37.827V38.067C186.299 38.5897 186.384 39.0537 186.555 39.459C186.736 39.8644 187.013 40.1844 187.387 40.419C187.76 40.643 188.229 40.755 188.795 40.755ZM198.694 42.003C197.894 42.003 197.196 41.8484 196.598 41.539C196.001 41.219 195.537 40.7497 195.206 40.131C194.876 39.5124 194.71 38.7497 194.71 37.843C194.71 36.5417 195.046 35.539 195.718 34.835C196.401 34.131 197.292 33.779 198.39 33.779C198.838 33.779 199.228 33.8377 199.558 33.955C199.9 34.0617 200.198 34.2057 200.454 34.387C200.71 34.5684 200.929 34.771 201.11 34.995H201.206C201.196 34.8777 201.174 34.7177 201.142 34.515C201.121 34.3124 201.11 34.1204 201.11 33.939V33.251C201.11 32.899 201.025 32.5897 200.854 32.323C200.684 32.0564 200.428 31.8484 200.086 31.699C199.745 31.539 199.308 31.459 198.774 31.459C198.38 31.459 198.012 31.5177 197.67 31.635C197.34 31.7417 197.073 31.907 196.87 32.131C196.678 32.3444 196.582 32.611 196.582 32.931C196.582 32.963 196.582 32.9897 196.582 33.011C196.582 33.0217 196.582 33.043 196.582 33.075H195.174C195.164 32.9897 195.158 32.9257 195.158 32.883C195.158 32.8404 195.158 32.7924 195.158 32.739C195.158 32.2377 195.329 31.8004 195.67 31.427C196.012 31.0537 196.46 30.7657 197.014 30.563C197.569 30.3604 198.161 30.259 198.79 30.259C199.569 30.259 200.236 30.3924 200.79 30.659C201.356 30.915 201.788 31.2777 202.086 31.747C202.396 32.2164 202.55 32.7657 202.55 33.395V37.843C202.55 39.2084 202.214 40.243 201.542 40.947C200.881 41.651 199.932 42.003 198.694 42.003ZM198.694 40.787C199.281 40.787 199.75 40.675 200.102 40.451C200.454 40.227 200.71 39.9124 200.87 39.507C201.041 39.091 201.126 38.6164 201.126 38.083V37.843C201.126 37.3204 201.057 36.8457 200.918 36.419C200.78 35.9817 200.529 35.635 200.166 35.379C199.814 35.123 199.297 34.995 198.614 34.995C197.836 34.995 197.244 35.2617 196.838 35.795C196.433 36.3284 196.23 37.0217 196.23 37.875C196.23 38.7817 196.428 39.4964 196.822 40.019C197.228 40.531 197.852 40.787 198.694 40.787ZM208.315 41.987C207.547 41.987 206.869 41.8377 206.283 41.539C205.707 41.2297 205.253 40.7977 204.923 40.243C204.603 39.6884 204.443 39.0484 204.443 38.323C204.443 38.003 204.459 37.6884 204.491 37.379C204.523 37.059 204.629 36.6697 204.811 36.211H206.283C206.133 36.6164 206.037 36.9897 205.995 37.331C205.952 37.6617 205.931 37.9497 205.931 38.195C205.931 38.9204 206.128 39.5284 206.523 40.019C206.928 40.499 207.525 40.739 208.315 40.739C208.88 40.739 209.333 40.6217 209.675 40.387C210.027 40.1417 210.283 39.811 210.443 39.395C210.613 38.979 210.699 38.5097 210.699 37.987C210.699 37.4537 210.629 36.979 210.491 36.563C210.363 36.1364 210.187 35.7524 209.963 35.411C209.749 35.059 209.52 34.7284 209.275 34.419C208.976 34.0244 208.693 33.635 208.427 33.251C208.16 32.8564 207.952 32.4297 207.803 31.971C207.664 31.5124 207.627 30.995 207.691 30.419H209.131C209.099 30.8777 209.147 31.2937 209.275 31.667C209.403 32.0404 209.579 32.3924 209.803 32.723C210.037 33.0537 210.283 33.395 210.539 33.747C210.816 34.099 211.083 34.483 211.339 34.899C211.595 35.3044 211.803 35.763 211.963 36.275C212.133 36.787 212.219 37.379 212.219 38.051C212.219 38.8404 212.059 39.5337 211.739 40.131C211.429 40.7177 210.981 41.1764 210.395 41.507C209.819 41.827 209.125 41.987 208.315 41.987ZM214.996 41.843C214.782 41.299 214.612 40.7977 214.484 40.339C214.366 39.8804 214.281 39.4004 214.228 38.899C214.185 38.387 214.164 37.7897 214.164 37.107C214.164 36.179 214.249 35.3577 214.42 34.643C214.601 33.9284 214.868 33.3204 215.22 32.819C215.582 32.307 216.03 31.891 216.564 31.571C217.108 31.2404 217.748 31.0057 218.484 30.867C218.9 30.7817 219.316 30.707 219.732 30.643C220.158 30.5684 220.585 30.499 221.012 30.435C221.438 30.371 221.865 30.3124 222.292 30.259L222.532 31.539C222.148 31.5817 221.774 31.6297 221.411 31.683C221.06 31.7257 220.724 31.7737 220.404 31.827C220.084 31.8697 219.785 31.9124 219.508 31.955C219.23 31.9977 218.98 32.0404 218.756 32.083C218.308 32.1684 217.87 32.3017 217.444 32.483C217.028 32.6537 216.654 32.9097 216.324 33.251C215.993 33.5817 215.732 34.0297 215.539 34.595H215.588C215.801 34.3284 216.02 34.1257 216.244 33.987C216.478 33.8484 216.713 33.7577 216.948 33.715C217.193 33.6617 217.428 33.635 217.652 33.635C218.217 33.635 218.692 33.7684 219.076 34.035C219.47 34.3017 219.753 34.6857 219.924 35.187H219.972C220.142 34.6857 220.441 34.3017 220.868 34.035C221.305 33.7684 221.833 33.635 222.452 33.635C223.198 33.635 223.812 33.811 224.292 34.163C224.772 34.5044 225.129 34.979 225.364 35.587C225.609 36.195 225.732 36.899 225.732 37.699C225.732 38.211 225.694 38.6964 225.62 39.155C225.556 39.603 225.46 40.0457 225.332 40.483C225.204 40.9204 225.049 41.3737 224.868 41.843H223.364C223.641 41.1177 223.854 40.435 224.004 39.795C224.153 39.1444 224.228 38.4404 224.228 37.683C224.228 37.0644 224.158 36.547 224.02 36.131C223.881 35.715 223.673 35.4004 223.396 35.187C223.118 34.963 222.766 34.851 222.34 34.851C222.009 34.851 221.71 34.931 221.444 35.091C221.188 35.251 220.985 35.4964 220.836 35.827C220.697 36.147 220.628 36.547 220.628 37.027V39.283H219.22V37.027C219.22 36.547 219.15 36.147 219.012 35.827C218.884 35.4964 218.692 35.251 218.436 35.091C218.18 34.931 217.87 34.851 217.508 34.851C216.878 34.851 216.409 35.091 216.1 35.571C215.79 36.0404 215.636 36.7497 215.636 37.699C215.636 38.4777 215.71 39.1924 215.86 39.843C216.009 40.483 216.217 41.1497 216.484 41.843H214.996ZM231.455 41.987C230.687 41.987 230.01 41.843 229.423 41.555C228.847 41.2564 228.394 40.8457 228.063 40.323C227.743 39.8004 227.583 39.187 227.583 38.483C227.583 38.2057 227.604 37.9497 227.647 37.715C227.69 37.4804 227.743 37.2777 227.807 37.107H229.215C229.172 37.267 229.135 37.4644 229.103 37.699C229.082 37.9337 229.071 38.1524 229.071 38.355C229.071 38.8137 229.156 39.2244 229.327 39.587C229.508 39.939 229.775 40.2217 230.127 40.435C230.49 40.6377 230.932 40.739 231.455 40.739C232.031 40.739 232.495 40.6324 232.847 40.419C233.21 40.2057 233.471 39.907 233.631 39.523C233.802 39.1284 233.887 38.6697 233.887 38.147V33.667C233.887 32.995 233.69 32.467 233.295 32.083C232.911 31.699 232.388 31.507 231.727 31.507C231.3 31.507 230.922 31.5764 230.591 31.715C230.26 31.8537 230.004 32.0617 229.823 32.339C229.642 32.6164 229.551 32.9737 229.551 33.411C229.551 33.5924 229.562 33.779 229.583 33.971C229.604 34.1524 229.631 34.3337 229.663 34.515H228.223C228.191 34.3764 228.159 34.2057 228.127 34.003C228.095 33.7897 228.079 33.5817 228.079 33.379C228.079 32.675 228.239 32.0937 228.559 31.635C228.89 31.1764 229.327 30.835 229.871 30.611C230.426 30.3764 231.044 30.259 231.727 30.259C232.42 30.259 233.039 30.3924 233.583 30.659C234.127 30.9257 234.554 31.3097 234.863 31.811C235.172 32.3017 235.327 32.9044 235.327 33.619V38.211C235.327 39.011 235.172 39.6937 234.863 40.259C234.564 40.8244 234.127 41.2564 233.551 41.555C232.975 41.843 232.276 41.987 231.455 41.987ZM241.648 41.987C241.126 41.987 240.619 41.8964 240.128 41.715C239.648 41.523 239.222 41.251 238.848 40.899C238.475 40.5364 238.176 40.0937 237.952 39.571C237.739 39.0484 237.632 38.451 237.632 37.779C237.632 36.883 237.814 36.1257 238.176 35.507C238.539 34.8884 239.024 34.419 239.632 34.099C240.251 33.7684 240.939 33.603 241.696 33.603C242.411 33.603 243.072 33.7684 243.68 34.099C244.288 34.419 244.779 34.8937 245.152 35.523C245.526 36.1417 245.712 36.8937 245.712 37.779C245.712 38.451 245.606 39.0484 245.392 39.571C245.19 40.0937 244.902 40.5364 244.528 40.899C244.155 41.251 243.723 41.523 243.232 41.715C242.742 41.8964 242.214 41.987 241.648 41.987ZM241.68 40.739C242.182 40.739 242.619 40.6217 242.992 40.387C243.366 40.1417 243.659 39.8004 243.872 39.363C244.086 38.915 244.192 38.387 244.192 37.779C244.192 37.1604 244.086 36.6377 243.872 36.211C243.659 35.7737 243.36 35.4377 242.976 35.203C242.603 34.9684 242.166 34.851 241.664 34.851C240.918 34.851 240.31 35.1124 239.84 35.635C239.382 36.147 239.152 36.8617 239.152 37.779C239.152 38.3764 239.254 38.899 239.456 39.347C239.67 39.795 239.968 40.1417 240.352 40.387C240.736 40.6217 241.179 40.739 241.68 40.739ZM242.464 33.907L241.136 33.811C241.222 33.7044 241.286 33.587 241.328 33.459C241.382 33.331 241.408 33.187 241.408 33.027C241.408 32.7924 241.334 32.6004 241.184 32.451C241.046 32.3017 240.896 32.1737 240.736 32.067C240.587 31.9604 240.438 31.8324 240.288 31.683C240.15 31.5337 240.038 31.3577 239.952 31.155C239.878 30.9417 239.856 30.6964 239.888 30.419H241.328C241.318 30.6537 241.371 30.8457 241.488 30.995C241.616 31.1337 241.766 31.267 241.936 31.395C242.182 31.5657 242.39 31.763 242.56 31.987C242.742 32.211 242.832 32.483 242.832 32.803C242.832 33.027 242.8 33.2297 242.736 33.411C242.672 33.5924 242.582 33.7577 242.464 33.907ZM251.44 41.987C250.672 41.987 249.994 41.8377 249.408 41.539C248.832 41.2297 248.378 40.7977 248.048 40.243C247.728 39.6884 247.568 39.0484 247.568 38.323C247.568 38.003 247.584 37.6884 247.616 37.379C247.648 37.059 247.754 36.6697 247.936 36.211H249.408C249.258 36.6164 249.162 36.9897 249.12 37.331C249.077 37.6617 249.056 37.9497 249.056 38.195C249.056 38.9204 249.253 39.5284 249.648 40.019C250.053 40.499 250.65 40.739 251.44 40.739C252.005 40.739 252.458 40.6217 252.8 40.387C253.152 40.1417 253.408 39.811 253.568 39.395C253.738 38.979 253.824 38.5097 253.824 37.987C253.824 37.4537 253.754 36.979 253.616 36.563C253.488 36.1364 253.312 35.7524 253.088 35.411C252.874 35.059 252.645 34.7284 252.4 34.419C252.101 34.0244 251.818 33.635 251.552 33.251C251.285 32.8564 251.077 32.4297 250.928 31.971C250.789 31.5124 250.752 30.995 250.816 30.419H252.256C252.224 30.8777 252.272 31.2937 252.4 31.667C252.528 32.0404 252.704 32.3924 252.928 32.723C253.162 33.0537 253.408 33.395 253.664 33.747C253.941 34.099 254.208 34.483 254.464 34.899C254.72 35.3044 254.928 35.763 255.088 36.275C255.258 36.787 255.344 37.379 255.344 38.051C255.344 38.8404 255.184 39.5337 254.864 40.131C254.554 40.7177 254.106 41.1764 253.52 41.507C252.944 41.827 252.25 41.987 251.44 41.987Z" fill="black"/>
<rect x="32.5" y="71.343" width="276" height="47" rx="23.5" fill="white"/>
<path d="M53.248 101.003C51.968 101.003 50.992 100.656 50.32 99.963C49.6587 99.259 49.328 98.2457 49.328 96.923V89.419H50.768V97.067C50.768 97.6004 50.8533 98.0697 51.024 98.475C51.2053 98.8804 51.4773 99.195 51.84 99.419C52.2027 99.643 52.672 99.755 53.248 99.755C53.8027 99.755 54.256 99.6484 54.608 99.435C54.9707 99.2217 55.2373 98.939 55.408 98.587C55.5893 98.2244 55.68 97.835 55.68 97.419C55.68 96.971 55.6 96.603 55.44 96.315C55.2907 96.0164 55.1093 95.7337 54.896 95.467C54.6187 95.1044 54.368 94.715 54.144 94.299C53.92 93.8724 53.8293 93.3604 53.872 92.763H55.36C55.3493 93.2217 55.44 93.6164 55.632 93.947C55.8347 94.2777 56.064 94.6137 56.32 94.955C56.5653 95.275 56.7733 95.6324 56.944 96.027C57.1147 96.411 57.2 96.8857 57.2 97.451C57.2 98.155 57.0347 98.7737 56.704 99.307C56.3733 99.8404 55.9093 100.256 55.312 100.555C54.7253 100.854 54.0373 101.003 53.248 101.003ZM62.9239 100.987C62.1559 100.987 61.4785 100.838 60.8919 100.539C60.3159 100.23 59.8625 99.7977 59.5319 99.243C59.2119 98.6884 59.0519 98.0484 59.0519 97.323C59.0519 97.003 59.0679 96.6884 59.0999 96.379C59.1319 96.059 59.2385 95.6697 59.4199 95.211H60.8919C60.7425 95.6164 60.6465 95.9897 60.6039 96.331C60.5612 96.6617 60.5399 96.9497 60.5399 97.195C60.5399 97.9204 60.7372 98.5284 61.1319 99.019C61.5372 99.499 62.1345 99.739 62.9239 99.739C63.4892 99.739 63.9425 99.6217 64.2839 99.387C64.6359 99.1417 64.8919 98.811 65.0519 98.395C65.2225 97.979 65.3079 97.5097 65.3079 96.987C65.3079 96.4537 65.2385 95.979 65.0999 95.563C64.9719 95.1364 64.7959 94.7524 64.5719 94.411C64.3585 94.059 64.1292 93.7284 63.8839 93.419C63.5852 93.0244 63.3025 92.635 63.0359 92.251C62.7692 91.8564 62.5612 91.4297 62.4119 90.971C62.2732 90.5124 62.2359 89.995 62.2999 89.419H63.7399C63.7079 89.8777 63.7559 90.2937 63.8839 90.667C64.0119 91.0404 64.1879 91.3924 64.4119 91.723C64.6465 92.0537 64.8919 92.395 65.1479 92.747C65.4252 93.099 65.6919 93.483 65.9479 93.899C66.2039 94.3044 66.4119 94.763 66.5719 95.275C66.7425 95.787 66.8279 96.379 66.8279 97.051C66.8279 97.8404 66.6679 98.5337 66.3479 99.131C66.0385 99.7177 65.5905 100.176 65.0039 100.507C64.4279 100.827 63.7345 100.987 62.9239 100.987ZM73.0289 101.003C71.8022 101.003 70.8422 100.651 70.1489 99.947C69.4662 99.243 69.1249 98.203 69.1249 96.827V89.419H70.5649V92.571C70.5649 92.731 70.5542 92.9497 70.5329 93.227C70.5115 93.4937 70.4902 93.6964 70.4689 93.835H70.5649C70.7462 93.611 70.9595 93.4084 71.2049 93.227C71.4609 93.035 71.7595 92.8857 72.1009 92.779C72.4529 92.6617 72.8422 92.603 73.2689 92.603C73.9942 92.603 74.6342 92.763 75.1889 93.083C75.7542 93.3924 76.1969 93.8617 76.5169 94.491C76.8369 95.1097 76.9969 95.883 76.9969 96.811C76.9969 97.7284 76.8262 98.5017 76.4849 99.131C76.1435 99.7497 75.6742 100.219 75.0769 100.539C74.4795 100.848 73.7969 101.003 73.0289 101.003ZM73.0289 99.755C73.8182 99.755 74.4209 99.4937 74.8369 98.971C75.2635 98.4484 75.4769 97.739 75.4769 96.843C75.4769 96.2244 75.3809 95.691 75.1889 95.243C75.0075 94.7844 74.7409 94.4324 74.3889 94.187C74.0369 93.9417 73.6102 93.819 73.1089 93.819C72.4049 93.819 71.8662 93.9577 71.4929 94.235C71.1302 94.5124 70.8795 94.8804 70.7409 95.339C70.6022 95.7977 70.5329 96.2937 70.5329 96.827V97.067C70.5329 97.5897 70.6182 98.0537 70.7889 98.459C70.9702 98.8644 71.2475 99.1844 71.6209 99.419C71.9942 99.643 72.4635 99.755 73.0289 99.755ZM82.7208 100.987C81.9528 100.987 81.2754 100.843 80.6888 100.555C80.1128 100.256 79.6594 99.8457 79.3288 99.323C79.0088 98.8004 78.8488 98.187 78.8488 97.483C78.8488 97.2057 78.8701 96.9497 78.9128 96.715C78.9554 96.4804 79.0088 96.2777 79.0728 96.107H80.4808C80.4381 96.267 80.4008 96.4644 80.3688 96.699C80.3474 96.9337 80.3368 97.1524 80.3368 97.355C80.3368 97.8137 80.4221 98.2244 80.5928 98.587C80.7741 98.939 81.0408 99.2217 81.3928 99.435C81.7554 99.6377 82.1981 99.739 82.7208 99.739C83.2968 99.739 83.7608 99.6324 84.1128 99.419C84.4754 99.2057 84.7368 98.907 84.8968 98.523C85.0674 98.1284 85.1528 97.6697 85.1528 97.147V92.667C85.1528 91.995 84.9554 91.467 84.5608 91.083C84.1768 90.699 83.6541 90.507 82.9928 90.507C82.5661 90.507 82.1874 90.5764 81.8568 90.715C81.5261 90.8537 81.2701 91.0617 81.0888 91.339C80.9074 91.6164 80.8168 91.9737 80.8168 92.411C80.8168 92.5924 80.8274 92.779 80.8488 92.971C80.8701 93.1524 80.8968 93.3337 80.9288 93.515H79.4888C79.4568 93.3764 79.4248 93.2057 79.3928 93.003C79.3608 92.7897 79.3448 92.5817 79.3448 92.379C79.3448 91.675 79.5048 91.0937 79.8248 90.635C80.1554 90.1764 80.5928 89.835 81.1368 89.611C81.6914 89.3764 82.3101 89.259 82.9928 89.259C83.6861 89.259 84.3048 89.3924 84.8488 89.659C85.3928 89.9257 85.8194 90.3097 86.1288 90.811C86.4381 91.3017 86.5928 91.9044 86.5928 92.619V97.211C86.5928 98.011 86.4381 98.6937 86.1288 99.259C85.8301 99.8244 85.3928 100.256 84.8168 100.555C84.2408 100.843 83.5421 100.987 82.7208 100.987ZM99.2254 100.843C99.1827 100.544 99.06 100.278 98.8574 100.043C98.6654 99.8084 98.4147 99.6057 98.1054 99.435C97.796 99.2537 97.4494 99.1044 97.0654 98.987C96.6814 98.8697 96.2814 98.7844 95.8654 98.731C95.46 98.667 95.0654 98.635 94.6814 98.635C93.956 98.635 93.316 98.715 92.7614 98.875C92.2067 99.0244 91.6947 99.2164 91.2254 99.451L90.6494 98.411C90.852 98.3044 91.06 98.2084 91.2734 98.123C91.4974 98.027 91.7267 97.9524 91.9614 97.899C92.2067 97.835 92.4574 97.7977 92.7134 97.787V97.739C92.116 97.611 91.5614 97.4244 91.0494 97.179C90.548 96.9337 90.1107 96.619 89.7374 96.235C89.3747 95.851 89.092 95.3924 88.8894 94.859C88.6867 94.315 88.5854 93.691 88.5854 92.987C88.5854 92.2404 88.708 91.5897 88.9534 91.035C89.2094 90.4804 89.5827 90.0484 90.0734 89.739C90.564 89.419 91.1667 89.259 91.8814 89.259C92.5107 89.259 93.0174 89.4084 93.4014 89.707C93.796 89.995 94.0787 90.3897 94.2494 90.891H94.3294C94.5214 90.3577 94.8254 89.9524 95.2414 89.675C95.6574 89.3977 96.1587 89.259 96.7454 89.259C97.396 89.259 97.9187 89.4084 98.3134 89.707C98.708 89.995 98.9907 90.3897 99.1614 90.891H99.2414C99.4227 90.3897 99.716 89.995 100.121 89.707C100.527 89.4084 101.028 89.259 101.625 89.259C102.34 89.259 102.943 89.4297 103.433 89.771C103.924 90.1017 104.292 90.5657 104.537 91.163C104.793 91.7604 104.921 92.4537 104.921 93.243C104.921 93.8724 104.847 94.4644 104.697 95.019C104.559 95.5737 104.345 96.1177 104.057 96.651L102.729 96.187C102.996 95.6537 103.177 95.1524 103.273 94.683C103.369 94.203 103.417 93.691 103.417 93.147C103.417 92.2937 103.247 91.643 102.905 91.195C102.575 90.7364 102.111 90.507 101.513 90.507C101.183 90.507 100.895 90.603 100.649 90.795C100.415 90.9764 100.233 91.2324 100.105 91.563C99.9774 91.8937 99.9134 92.283 99.9134 92.731V94.683H98.5054V92.699C98.5054 92.2724 98.4414 91.899 98.3134 91.579C98.1854 91.2484 97.9934 90.987 97.7374 90.795C97.4814 90.603 97.1507 90.507 96.7454 90.507C96.3827 90.507 96.068 90.5977 95.8014 90.779C95.5454 90.9497 95.348 91.2004 95.2094 91.531C95.0707 91.851 95.0014 92.2404 95.0014 92.699V94.683H93.5934V92.731C93.5934 92.3257 93.5347 91.9577 93.4174 91.627C93.3107 91.2857 93.14 91.0137 92.9054 90.811C92.6707 90.6084 92.3667 90.507 91.9934 90.507C91.4067 90.507 90.9427 90.7097 90.6014 91.115C90.26 91.5097 90.0894 92.139 90.0894 93.003C90.0894 93.739 90.2174 94.3684 90.4734 94.891C90.74 95.403 91.1134 95.8297 91.5934 96.171C92.0734 96.5017 92.6387 96.7684 93.2894 96.971C93.9507 97.163 94.676 97.307 95.4654 97.403C96.0734 97.4777 96.6654 97.6004 97.2414 97.771C97.8174 97.931 98.3454 98.1497 98.8254 98.427C99.316 98.6937 99.7214 99.0297 100.041 99.435C100.361 99.8297 100.559 100.299 100.633 100.843H99.2254ZM107.971 100.843C107.768 100.288 107.587 99.7124 107.427 99.115C107.277 98.5177 107.16 97.851 107.075 97.115C106.989 96.3684 106.947 95.5204 106.947 94.571C106.947 93.3017 107.128 92.2777 107.491 91.499C107.853 90.7204 108.339 90.155 108.947 89.803C109.555 89.4404 110.232 89.259 110.979 89.259C111.725 89.259 112.403 89.4404 113.011 89.803C113.619 90.155 114.104 90.7204 114.467 91.499C114.829 92.2777 115.011 93.3017 115.011 94.571C115.011 95.5204 114.968 96.3684 114.883 97.115C114.797 97.851 114.68 98.5177 114.531 99.115C114.381 99.7124 114.2 100.288 113.987 100.843H112.515C112.728 100.256 112.904 99.6697 113.043 99.083C113.192 98.4857 113.304 97.835 113.379 97.131C113.453 96.4164 113.491 95.5897 113.491 94.651C113.491 93.6377 113.384 92.827 113.171 92.219C112.968 91.611 112.675 91.1737 112.291 90.907C111.917 90.6404 111.48 90.507 110.979 90.507C110.477 90.507 110.035 90.6404 109.651 90.907C109.277 91.1737 108.984 91.611 108.771 92.219C108.568 92.827 108.467 93.6377 108.467 94.651C108.467 95.5897 108.504 96.4164 108.579 97.131C108.653 97.835 108.76 98.4857 108.899 99.083C109.048 99.6697 109.229 100.256 109.443 100.843H107.971Z" fill="#333333"/>
<rect x="32.5" y="71.343" width="276" height="47" rx="23.5" stroke="white"/>
<rect x="32.5" y="132.343" width="276" height="47" rx="23.5" fill="white"/>
<path d="M52.896 161.987C52.3733 161.987 51.8667 161.896 51.376 161.715C50.896 161.523 50.4693 161.256 50.096 160.915C49.7227 160.563 49.424 160.136 49.2 159.635C48.9867 159.134 48.88 158.574 48.88 157.955C48.88 157.112 49.0453 156.408 49.376 155.843C49.7067 155.267 50.16 154.824 50.736 154.515C51.312 154.195 51.9627 154.003 52.688 153.939C53.3173 153.886 53.776 153.747 54.064 153.523C54.352 153.299 54.496 152.995 54.496 152.611C54.496 152.248 54.352 151.96 54.064 151.747C53.776 151.523 53.3973 151.411 52.928 151.411C52.4373 151.411 52.048 151.528 51.76 151.763C51.472 151.998 51.328 152.312 51.328 152.707C51.328 152.771 51.3333 152.84 51.344 152.915C51.3547 152.979 51.3653 153.054 51.376 153.139H49.92C49.8987 153.022 49.8773 152.915 49.856 152.819C49.8453 152.712 49.84 152.606 49.84 152.499C49.84 152.051 49.9733 151.662 50.24 151.331C50.5173 150.99 50.8853 150.728 51.344 150.547C51.8133 150.355 52.3413 150.259 52.928 150.259C53.5147 150.259 54.0373 150.355 54.496 150.547C54.9547 150.739 55.3173 151.011 55.584 151.363C55.8507 151.715 55.984 152.126 55.984 152.595C55.984 153.022 55.8773 153.4 55.664 153.731C55.4507 154.051 55.1093 154.291 54.64 154.451V154.499C55.28 154.68 55.824 155.059 56.272 155.635C56.7307 156.2 56.96 156.974 56.96 157.955C56.96 158.574 56.8533 159.134 56.64 159.635C56.4373 160.136 56.1493 160.563 55.776 160.915C55.4027 161.256 54.9707 161.523 54.48 161.715C53.9893 161.896 53.4613 161.987 52.896 161.987ZM52.928 160.739C53.4293 160.739 53.8667 160.622 54.24 160.387C54.6133 160.142 54.9067 159.811 55.12 159.395C55.3333 158.979 55.44 158.499 55.44 157.955C55.44 157.358 55.3333 156.851 55.12 156.435C54.9067 156.019 54.608 155.704 54.224 155.491C53.8507 155.278 53.4133 155.171 52.912 155.171C52.4107 155.171 51.968 155.283 51.584 155.507C51.2107 155.72 50.9173 156.035 50.704 156.451C50.5013 156.856 50.4 157.358 50.4 157.955C50.4 158.488 50.5013 158.968 50.704 159.395C50.9173 159.811 51.216 160.142 51.6 160.387C51.984 160.622 52.4267 160.739 52.928 160.739ZM62.7558 162.003C61.9344 162.003 61.2198 161.859 60.6118 161.571C60.0144 161.283 59.5504 160.888 59.2198 160.387C58.8891 159.875 58.7238 159.288 58.7238 158.627C58.7238 158.424 58.7398 158.222 58.7718 158.019C58.8038 157.806 58.8518 157.592 58.9158 157.379H60.3718C60.3291 157.582 60.2918 157.774 60.2598 157.955C60.2384 158.136 60.2278 158.307 60.2278 158.467C60.2278 159.203 60.4411 159.768 60.8678 160.163C61.3051 160.558 61.9344 160.755 62.7558 160.755C63.3104 160.755 63.7691 160.654 64.1318 160.451C64.4944 160.238 64.7664 159.955 64.9478 159.603C65.1291 159.251 65.2198 158.862 65.2198 158.435C65.2198 158.03 65.1238 157.667 64.9318 157.347C64.7504 157.027 64.4784 156.776 64.1158 156.595C63.7638 156.403 63.3211 156.307 62.7878 156.307H61.9718V155.075H62.8998C63.5931 155.075 64.1051 154.888 64.4358 154.515C64.7664 154.142 64.9318 153.704 64.9318 153.203C64.9318 152.872 64.8464 152.579 64.6758 152.323C64.5158 152.067 64.2811 151.864 63.9718 151.715C63.6624 151.566 63.2891 151.491 62.8518 151.491C62.4038 151.491 62.0198 151.56 61.6998 151.699C61.3798 151.838 61.1344 152.035 60.9638 152.291C60.8038 152.536 60.7238 152.83 60.7238 153.171C60.7238 153.31 60.7291 153.448 60.7398 153.587C60.7611 153.715 60.7878 153.854 60.8198 154.003H59.3638C59.3211 153.843 59.2891 153.688 59.2678 153.539C59.2464 153.379 59.2358 153.219 59.2358 153.059C59.2358 152.526 59.3851 152.051 59.6838 151.635C59.9931 151.208 60.4198 150.872 60.9638 150.627C61.5078 150.382 62.1371 150.259 62.8518 150.259C63.5664 150.259 64.1904 150.387 64.7238 150.643C65.2571 150.888 65.6731 151.23 65.9718 151.667C66.2811 152.094 66.4358 152.59 66.4358 153.155C66.4358 153.806 66.2544 154.35 65.8918 154.787C65.5398 155.224 65.0544 155.512 64.4358 155.651V155.699C64.8411 155.763 65.2144 155.912 65.5558 156.147C65.9078 156.371 66.1904 156.68 66.4038 157.075C66.6278 157.47 66.7398 157.95 66.7398 158.515C66.7398 159.208 66.5744 159.822 66.2438 160.355C65.9238 160.878 65.4651 161.283 64.8678 161.571C64.2704 161.859 63.5664 162.003 62.7558 162.003ZM72.377 161.987C71.609 161.987 70.9317 161.838 70.345 161.539C69.769 161.23 69.3157 160.798 68.985 160.243C68.665 159.688 68.505 159.048 68.505 158.323C68.505 158.003 68.521 157.688 68.553 157.379C68.585 157.059 68.6917 156.67 68.873 156.211H70.345C70.1957 156.616 70.0997 156.99 70.057 157.331C70.0143 157.662 69.993 157.95 69.993 158.195C69.993 158.92 70.1903 159.528 70.585 160.019C70.9903 160.499 71.5877 160.739 72.377 160.739C72.9423 160.739 73.3957 160.622 73.737 160.387C74.089 160.142 74.345 159.811 74.505 159.395C74.6757 158.979 74.761 158.51 74.761 157.987C74.761 157.454 74.6917 156.979 74.553 156.563C74.425 156.136 74.249 155.752 74.025 155.411C73.8117 155.059 73.5823 154.728 73.337 154.419C73.0383 154.024 72.7557 153.635 72.489 153.251C72.2223 152.856 72.0143 152.43 71.865 151.971C71.7263 151.512 71.689 150.995 71.753 150.419H73.193C73.161 150.878 73.209 151.294 73.337 151.667C73.465 152.04 73.641 152.392 73.865 152.723C74.0997 153.054 74.345 153.395 74.601 153.747C74.8783 154.099 75.145 154.483 75.401 154.899C75.657 155.304 75.865 155.763 76.025 156.275C76.1957 156.787 76.281 157.379 76.281 158.051C76.281 158.84 76.121 159.534 75.801 160.131C75.4917 160.718 75.0437 161.176 74.457 161.507C73.881 161.827 73.1877 161.987 72.377 161.987ZM79.058 161.843C78.8447 161.299 78.674 160.798 78.546 160.339C78.4287 159.88 78.3433 159.4 78.29 158.899C78.2473 158.387 78.226 157.79 78.226 157.107C78.226 156.179 78.3113 155.358 78.482 154.643C78.6633 153.928 78.93 153.32 79.282 152.819C79.6447 152.307 80.0927 151.891 80.626 151.571C81.17 151.24 81.81 151.006 82.546 150.867C82.962 150.782 83.378 150.707 83.794 150.643C84.2207 150.568 84.6473 150.499 85.074 150.435C85.5007 150.371 85.9273 150.312 86.354 150.259L86.594 151.539C86.21 151.582 85.8367 151.63 85.474 151.683C85.122 151.726 84.786 151.774 84.466 151.827C84.146 151.87 83.8473 151.912 83.57 151.955C83.2927 151.998 83.042 152.04 82.818 152.083C82.37 152.168 81.9327 152.302 81.506 152.483C81.09 152.654 80.7167 152.91 80.386 153.251C80.0553 153.582 79.794 154.03 79.602 154.595H79.65C79.8633 154.328 80.082 154.126 80.306 153.987C80.5407 153.848 80.7753 153.758 81.01 153.715C81.2553 153.662 81.49 153.635 81.714 153.635C82.2793 153.635 82.754 153.768 83.138 154.035C83.5327 154.302 83.8153 154.686 83.986 155.187H84.034C84.2047 154.686 84.5033 154.302 84.93 154.035C85.3673 153.768 85.8953 153.635 86.514 153.635C87.2607 153.635 87.874 153.811 88.354 154.163C88.834 154.504 89.1913 154.979 89.426 155.587C89.6713 156.195 89.794 156.899 89.794 157.699C89.794 158.211 89.7567 158.696 89.682 159.155C89.618 159.603 89.522 160.046 89.394 160.483C89.266 160.92 89.1113 161.374 88.93 161.843H87.426C87.7033 161.118 87.9167 160.435 88.066 159.795C88.2153 159.144 88.29 158.44 88.29 157.683C88.29 157.064 88.2207 156.547 88.082 156.131C87.9433 155.715 87.7353 155.4 87.458 155.187C87.1807 154.963 86.8287 154.851 86.402 154.851C86.0713 154.851 85.7727 154.931 85.506 155.091C85.25 155.251 85.0473 155.496 84.898 155.827C84.7593 156.147 84.69 156.547 84.69 157.027V159.283H83.282V157.027C83.282 156.547 83.2127 156.147 83.074 155.827C82.946 155.496 82.754 155.251 82.498 155.091C82.242 154.931 81.9327 154.851 81.57 154.851C80.9407 154.851 80.4713 155.091 80.162 155.571C79.8527 156.04 79.698 156.75 79.698 157.699C79.698 158.478 79.7727 159.192 79.922 159.843C80.0713 160.483 80.2793 161.15 80.546 161.843H79.058ZM92.6894 161.843C92.4867 161.288 92.3054 160.712 92.1454 160.115C91.996 159.518 91.8787 158.851 91.7934 158.115C91.708 157.368 91.6654 156.52 91.6654 155.571C91.6654 154.302 91.8467 153.278 92.2094 152.499C92.572 151.72 93.0574 151.155 93.6654 150.803C94.2734 150.44 94.9507 150.259 95.6974 150.259C96.444 150.259 97.1214 150.44 97.7294 150.803C98.3374 151.155 98.8227 151.72 99.1854 152.499C99.548 153.278 99.7294 154.302 99.7294 155.571C99.7294 156.52 99.6867 157.368 99.6014 158.115C99.516 158.851 99.3987 159.518 99.2494 160.115C99.1 160.712 98.9187 161.288 98.7054 161.843H97.2334C97.4467 161.256 97.6227 160.67 97.7614 160.083C97.9107 159.486 98.0227 158.835 98.0974 158.131C98.172 157.416 98.2094 156.59 98.2094 155.651C98.2094 154.638 98.1027 153.827 97.8894 153.219C97.6867 152.611 97.3934 152.174 97.0094 151.907C96.636 151.64 96.1987 151.507 95.6974 151.507C95.196 151.507 94.7534 151.64 94.3694 151.907C93.996 152.174 93.7027 152.611 93.4894 153.219C93.2867 153.827 93.1854 154.638 93.1854 155.651C93.1854 156.59 93.2227 157.416 93.2974 158.131C93.372 158.835 93.4787 159.486 93.6174 160.083C93.7667 160.67 93.948 161.256 94.1614 161.843H92.6894Z" fill="#333333"/>
<rect x="32.5" y="132.343" width="276" height="47" rx="23.5" stroke="white"/>
<rect x="32" y="192.843" width="277" height="48" rx="24" fill="white"/>
<path d="M52.752 222.987C51.984 222.987 51.3067 222.838 50.72 222.539C50.144 222.23 49.6907 221.798 49.36 221.243C49.04 220.688 48.88 220.048 48.88 219.323C48.88 219.003 48.896 218.688 48.928 218.379C48.96 218.059 49.0667 217.67 49.248 217.211H50.72C50.5707 217.616 50.4747 217.99 50.432 218.331C50.3893 218.662 50.368 218.95 50.368 219.195C50.368 219.92 50.5653 220.528 50.96 221.019C51.3653 221.499 51.9627 221.739 52.752 221.739C53.3173 221.739 53.7707 221.622 54.112 221.387C54.464 221.142 54.72 220.811 54.88 220.395C55.0507 219.979 55.136 219.51 55.136 218.987C55.136 218.454 55.0667 217.979 54.928 217.563C54.8 217.136 54.624 216.752 54.4 216.411C54.1867 216.059 53.9573 215.728 53.712 215.419C53.4133 215.024 53.1307 214.635 52.864 214.251C52.5973 213.856 52.3893 213.43 52.24 212.971C52.1013 212.512 52.064 211.995 52.128 211.419H53.568C53.536 211.878 53.584 212.294 53.712 212.667C53.84 213.04 54.016 213.392 54.24 213.723C54.4747 214.054 54.72 214.395 54.976 214.747C55.2533 215.099 55.52 215.483 55.776 215.899C56.032 216.304 56.24 216.763 56.4 217.275C56.5707 217.787 56.656 218.379 56.656 219.051C56.656 219.84 56.496 220.534 56.176 221.131C55.8667 221.718 55.4187 222.176 54.832 222.507C54.256 222.827 53.5627 222.987 52.752 222.987ZM59.705 222.843C59.5023 222.288 59.321 221.712 59.161 221.115C59.0117 220.518 58.8943 219.851 58.809 219.115C58.7237 218.368 58.681 217.52 58.681 216.571C58.681 215.302 58.8623 214.278 59.225 213.499C59.5877 212.72 60.073 212.155 60.681 211.803C61.289 211.44 61.9663 211.259 62.713 211.259C63.4597 211.259 64.137 211.44 64.745 211.803C65.353 212.155 65.8383 212.72 66.201 213.499C66.5637 214.278 66.745 215.302 66.745 216.571C66.745 217.52 66.7023 218.368 66.617 219.115C66.5317 219.851 66.4143 220.518 66.265 221.115C66.1157 221.712 65.9343 222.288 65.721 222.843H64.249C64.4623 222.256 64.6383 221.67 64.777 221.083C64.9263 220.486 65.0383 219.835 65.113 219.131C65.1877 218.416 65.225 217.59 65.225 216.651C65.225 215.638 65.1183 214.827 64.905 214.219C64.7023 213.611 64.409 213.174 64.025 212.907C63.6517 212.64 63.2143 212.507 62.713 212.507C62.2117 212.507 61.769 212.64 61.385 212.907C61.0117 213.174 60.7183 213.611 60.505 214.219C60.3023 214.827 60.201 215.638 60.201 216.651C60.201 217.59 60.2383 218.416 60.313 219.131C60.3877 219.835 60.4943 220.486 60.633 221.083C60.7823 221.67 60.9637 222.256 61.177 222.843H59.705ZM69.6049 222.843C69.3915 222.299 69.2209 221.798 69.0929 221.339C68.9755 220.88 68.8902 220.4 68.8369 219.899C68.7942 219.387 68.7729 218.79 68.7729 218.107C68.7729 217.179 68.8582 216.358 69.0289 215.643C69.2102 214.928 69.4769 214.32 69.8289 213.819C70.1915 213.307 70.6395 212.891 71.1729 212.571C71.7169 212.24 72.3569 212.006 73.0929 211.867C73.5089 211.782 73.9249 211.707 74.3409 211.643C74.7675 211.568 75.1942 211.499 75.6209 211.435C76.0475 211.371 76.4742 211.312 76.9009 211.259L77.1409 212.539C76.7569 212.582 76.3835 212.63 76.0209 212.683C75.6689 212.726 75.3329 212.774 75.0129 212.827C74.6929 212.87 74.3942 212.912 74.1169 212.955C73.8395 212.998 73.5889 213.04 73.3649 213.083C72.9169 213.168 72.4795 213.302 72.0529 213.483C71.6369 213.654 71.2635 213.91 70.9329 214.251C70.6022 214.582 70.3409 215.03 70.1489 215.595H70.1969C70.4102 215.328 70.6289 215.126 70.8529 214.987C71.0875 214.848 71.3222 214.758 71.5569 214.715C71.8022 214.662 72.0369 214.635 72.2609 214.635C72.8262 214.635 73.3009 214.768 73.6849 215.035C74.0795 215.302 74.3622 215.686 74.5329 216.187H74.5809C74.7515 215.686 75.0502 215.302 75.4769 215.035C75.9142 214.768 76.4422 214.635 77.0609 214.635C77.8075 214.635 78.4209 214.811 78.9009 215.163C79.3809 215.504 79.7382 215.979 79.9729 216.587C80.2182 217.195 80.3409 217.899 80.3409 218.699C80.3409 219.211 80.3035 219.696 80.2289 220.155C80.1649 220.603 80.0689 221.046 79.9409 221.483C79.8129 221.92 79.6582 222.374 79.4769 222.843H77.9729C78.2502 222.118 78.4635 221.435 78.6129 220.795C78.7622 220.144 78.8369 219.44 78.8369 218.683C78.8369 218.064 78.7675 217.547 78.6289 217.131C78.4902 216.715 78.2822 216.4 78.0049 216.187C77.7275 215.963 77.3755 215.851 76.9489 215.851C76.6182 215.851 76.3195 215.931 76.0529 216.091C75.7969 216.251 75.5942 216.496 75.4449 216.827C75.3062 217.147 75.2369 217.547 75.2369 218.027V220.283H73.8289V218.027C73.8289 217.547 73.7595 217.147 73.6209 216.827C73.4929 216.496 73.3009 216.251 73.0449 216.091C72.7889 215.931 72.4795 215.851 72.1169 215.851C71.4875 215.851 71.0182 216.091 70.7089 216.571C70.3995 217.04 70.2449 217.75 70.2449 218.699C70.2449 219.478 70.3195 220.192 70.4689 220.843C70.6182 221.483 70.8262 222.15 71.0929 222.843H69.6049ZM82.6405 222.843V214.251C82.6405 213.643 82.7632 213.115 83.0085 212.667C83.2538 212.219 83.6112 211.872 84.0805 211.627C84.5498 211.382 85.1152 211.259 85.7765 211.259C86.6405 211.259 87.3498 211.456 87.9045 211.851C88.4698 212.246 88.7525 212.8 88.7525 213.515C88.7525 213.846 88.6778 214.155 88.5285 214.443C88.3898 214.72 88.1392 214.96 87.7765 215.163V215.211C88.5978 215.414 89.2112 215.84 89.6165 216.491C90.0218 217.142 90.2245 217.931 90.2245 218.859C90.2245 219.36 90.1872 219.867 90.1125 220.379C90.0485 220.891 89.9632 221.366 89.8565 221.803C89.7498 222.23 89.6325 222.576 89.5045 222.843H88.0325C88.1712 222.534 88.2885 222.176 88.3845 221.771C88.4805 221.355 88.5552 220.902 88.6085 220.411C88.6725 219.91 88.7045 219.392 88.7045 218.859C88.7045 218.038 88.5125 217.382 88.1285 216.891C87.7552 216.4 87.2218 216.155 86.5285 216.155C86.0378 216.155 85.6058 216.267 85.2325 216.491C84.8698 216.704 84.5872 217.019 84.3845 217.435C84.1818 217.84 84.0805 218.342 84.0805 218.939V222.843H82.6405ZM84.0005 216.315H84.0965C84.2778 216.048 84.5018 215.814 84.7685 215.611C85.0458 215.408 85.3658 215.238 85.7285 215.099C86.0272 214.971 86.2938 214.843 86.5285 214.715C86.7738 214.587 86.9658 214.432 87.1045 214.251C87.2432 214.07 87.3125 213.851 87.3125 213.595C87.3125 213.232 87.1685 212.955 86.8805 212.763C86.6032 212.56 86.2298 212.459 85.7605 212.459C85.2592 212.459 84.8538 212.608 84.5445 212.907C84.2352 213.206 84.0805 213.616 84.0805 214.139V215.323C84.0805 215.408 84.0752 215.51 84.0645 215.627C84.0645 215.734 84.0592 215.846 84.0485 215.963C84.0378 216.08 84.0218 216.198 84.0005 216.315ZM93.2831 222.843C93.0805 222.288 92.8991 221.712 92.7391 221.115C92.5898 220.518 92.4725 219.851 92.3871 219.115C92.3018 218.368 92.2591 217.52 92.2591 216.571C92.2591 215.302 92.4405 214.278 92.8031 213.499C93.1658 212.72 93.6511 212.155 94.2591 211.803C94.8671 211.44 95.5445 211.259 96.2911 211.259C97.0378 211.259 97.7151 211.44 98.3231 211.803C98.9311 212.155 99.4165 212.72 99.7791 213.499C100.142 214.278 100.323 215.302 100.323 216.571C100.323 217.52 100.28 218.368 100.195 219.115C100.11 219.851 99.9925 220.518 99.8431 221.115C99.6938 221.712 99.5125 222.288 99.2991 222.843H97.8271C98.0405 222.256 98.2165 221.67 98.3551 221.083C98.5045 220.486 98.6165 219.835 98.6911 219.131C98.7658 218.416 98.8031 217.59 98.8031 216.651C98.8031 215.638 98.6965 214.827 98.4831 214.219C98.2805 213.611 97.9871 213.174 97.6031 212.907C97.2298 212.64 96.7925 212.507 96.2911 212.507C95.7898 212.507 95.3471 212.64 94.9631 212.907C94.5898 213.174 94.2965 213.611 94.0831 214.219C93.8805 214.827 93.7791 215.638 93.7791 216.651C93.7791 217.59 93.8165 218.416 93.8911 219.131C93.9658 219.835 94.0725 220.486 94.2111 221.083C94.3605 221.67 94.5418 222.256 94.7551 222.843H93.2831ZM106.127 222.987C105.359 222.987 104.682 222.843 104.095 222.555C103.519 222.256 103.066 221.846 102.735 221.323C102.415 220.8 102.255 220.187 102.255 219.483C102.255 219.206 102.276 218.95 102.319 218.715C102.362 218.48 102.415 218.278 102.479 218.107H103.887C103.844 218.267 103.807 218.464 103.775 218.699C103.754 218.934 103.743 219.152 103.743 219.355C103.743 219.814 103.828 220.224 103.999 220.587C104.18 220.939 104.447 221.222 104.799 221.435C105.162 221.638 105.604 221.739 106.127 221.739C106.703 221.739 107.167 221.632 107.519 221.419C107.882 221.206 108.143 220.907 108.303 220.523C108.474 220.128 108.559 219.67 108.559 219.147V214.667C108.559 213.995 108.362 213.467 107.967 213.083C107.583 212.699 107.06 212.507 106.399 212.507C105.972 212.507 105.594 212.576 105.263 212.715C104.932 212.854 104.676 213.062 104.495 213.339C104.314 213.616 104.223 213.974 104.223 214.411C104.223 214.592 104.234 214.779 104.255 214.971C104.276 215.152 104.303 215.334 104.335 215.515H102.895C102.863 215.376 102.831 215.206 102.799 215.003C102.767 214.79 102.751 214.582 102.751 214.379C102.751 213.675 102.911 213.094 103.231 212.635C103.562 212.176 103.999 211.835 104.543 211.611C105.098 211.376 105.716 211.259 106.399 211.259C107.092 211.259 107.711 211.392 108.255 211.659C108.799 211.926 109.226 212.31 109.535 212.811C109.844 213.302 109.999 213.904 109.999 214.619V219.211C109.999 220.011 109.844 220.694 109.535 221.259C109.236 221.824 108.799 222.256 108.223 222.555C107.647 222.843 106.948 222.987 106.127 222.987ZM122.352 211.259C122.971 211.259 123.541 211.424 124.064 211.755C124.597 212.075 125.024 212.603 125.344 213.339C125.675 214.064 125.84 215.035 125.84 216.251C125.84 217.2 125.787 218.048 125.68 218.795C125.573 219.542 125.424 220.24 125.232 220.891C125.04 221.531 124.811 222.182 124.544 222.843H123.04C123.317 222.15 123.547 221.478 123.728 220.827C123.92 220.166 124.064 219.472 124.16 218.747C124.267 218.022 124.32 217.216 124.32 216.331C124.32 215.382 124.224 214.63 124.032 214.075C123.851 213.51 123.6 213.11 123.28 212.875C122.971 212.63 122.619 212.507 122.224 212.507C121.819 212.507 121.472 212.603 121.184 212.795C120.907 212.987 120.693 213.254 120.544 213.595C120.405 213.936 120.336 214.336 120.336 214.795C120.336 215.072 120.347 215.35 120.368 215.627C120.389 215.894 120.405 216.155 120.416 216.411C120.437 216.656 120.448 216.896 120.448 217.131C120.448 218.432 120.299 219.52 120 220.395C119.701 221.259 119.253 221.91 118.656 222.347C118.059 222.784 117.312 223.003 116.416 223.003C115.52 223.003 114.773 222.784 114.176 222.347C113.579 221.899 113.131 221.243 112.832 220.379C112.533 219.504 112.384 218.422 112.384 217.131C112.384 215.83 112.533 214.747 112.832 213.883C113.131 213.008 113.579 212.352 114.176 211.915C114.773 211.478 115.52 211.259 116.416 211.259C116.907 211.259 117.344 211.328 117.728 211.467C118.123 211.595 118.464 211.792 118.752 212.059C119.051 212.326 119.291 212.662 119.472 213.067H119.52C119.68 212.64 119.904 212.294 120.192 212.027C120.491 211.76 120.827 211.568 121.2 211.451C121.573 211.323 121.957 211.259 122.352 211.259ZM116.416 221.755C117.003 221.755 117.477 221.59 117.84 221.259C118.213 220.918 118.485 220.406 118.656 219.723C118.837 219.04 118.928 218.176 118.928 217.131C118.928 216.064 118.837 215.195 118.656 214.523C118.485 213.84 118.213 213.334 117.84 213.003C117.467 212.672 116.992 212.507 116.416 212.507C115.829 212.507 115.349 212.678 114.976 213.019C114.613 213.35 114.341 213.856 114.16 214.539C113.989 215.222 113.904 216.086 113.904 217.131C113.904 218.187 113.995 219.056 114.176 219.739C114.357 220.422 114.629 220.928 114.992 221.259C115.365 221.59 115.84 221.755 116.416 221.755ZM136.295 223.003C135.015 223.003 134.039 222.656 133.367 221.963C132.706 221.259 132.375 220.246 132.375 218.923V211.419H133.815V219.067C133.815 219.6 133.9 220.07 134.071 220.475C134.252 220.88 134.524 221.195 134.887 221.419C135.25 221.643 135.719 221.755 136.295 221.755C136.85 221.755 137.303 221.648 137.655 221.435C138.018 221.222 138.284 220.939 138.455 220.587C138.636 220.224 138.727 219.835 138.727 219.419C138.727 218.971 138.647 218.603 138.487 218.315C138.338 218.016 138.156 217.734 137.943 217.467C137.666 217.104 137.415 216.715 137.191 216.299C136.967 215.872 136.876 215.36 136.919 214.763H138.407C138.396 215.222 138.487 215.616 138.679 215.947C138.882 216.278 139.111 216.614 139.367 216.955C139.612 217.275 139.82 217.632 139.991 218.027C140.162 218.411 140.247 218.886 140.247 219.451C140.247 220.155 140.082 220.774 139.751 221.307C139.42 221.84 138.956 222.256 138.359 222.555C137.772 222.854 137.084 223.003 136.295 223.003ZM145.971 222.987C145.203 222.987 144.525 222.843 143.939 222.555C143.363 222.256 142.909 221.846 142.579 221.323C142.259 220.8 142.099 220.187 142.099 219.483C142.099 219.206 142.12 218.95 142.163 218.715C142.205 218.48 142.259 218.278 142.323 218.107H143.731C143.688 218.267 143.651 218.464 143.619 218.699C143.597 218.934 143.587 219.152 143.587 219.355C143.587 219.814 143.672 220.224 143.843 220.587C144.024 220.939 144.291 221.222 144.643 221.435C145.005 221.638 145.448 221.739 145.971 221.739C146.547 221.739 147.011 221.632 147.363 221.419C147.725 221.206 147.987 220.907 148.147 220.523C148.317 220.128 148.403 219.67 148.403 219.147V214.667C148.403 213.995 148.205 213.467 147.811 213.083C147.427 212.699 146.904 212.507 146.243 212.507C145.816 212.507 145.437 212.576 145.107 212.715C144.776 212.854 144.52 213.062 144.339 213.339C144.157 213.616 144.067 213.974 144.067 214.411C144.067 214.592 144.077 214.779 144.099 214.971C144.12 215.152 144.147 215.334 144.179 215.515H142.739C142.707 215.376 142.675 215.206 142.643 215.003C142.611 214.79 142.595 214.582 142.595 214.379C142.595 213.675 142.755 213.094 143.075 212.635C143.405 212.176 143.843 211.835 144.387 211.611C144.941 211.376 145.56 211.259 146.243 211.259C146.936 211.259 147.555 211.392 148.099 211.659C148.643 211.926 149.069 212.31 149.379 212.811C149.688 213.302 149.843 213.904 149.843 214.619V219.211C149.843 220.011 149.688 220.694 149.379 221.259C149.08 221.824 148.643 222.256 148.067 222.555C147.491 222.843 146.792 222.987 145.971 222.987ZM152.98 222.843C152.767 222.299 152.596 221.798 152.468 221.339C152.351 220.88 152.265 220.4 152.212 219.899C152.169 219.387 152.148 218.79 152.148 218.107C152.148 217.179 152.233 216.358 152.404 215.643C152.585 214.928 152.852 214.32 153.204 213.819C153.567 213.307 154.015 212.891 154.548 212.571C155.092 212.24 155.732 212.006 156.468 211.867C156.884 211.782 157.3 211.707 157.716 211.643C158.143 211.568 158.569 211.499 158.996 211.435C159.423 211.371 159.849 211.312 160.276 211.259L160.516 212.539C160.132 212.582 159.759 212.63 159.396 212.683C159.044 212.726 158.708 212.774 158.388 212.827C158.068 212.87 157.769 212.912 157.492 212.955C157.215 212.998 156.964 213.04 156.74 213.083C156.292 213.168 155.855 213.302 155.428 213.483C155.012 213.654 154.639 213.91 154.308 214.251C153.977 214.582 153.716 215.03 153.524 215.595H153.572C153.785 215.328 154.004 215.126 154.228 214.987C154.463 214.848 154.697 214.758 154.932 214.715C155.177 214.662 155.412 214.635 155.636 214.635C156.201 214.635 156.676 214.768 157.06 215.035C157.455 215.302 157.737 215.686 157.908 216.187H157.956C158.127 215.686 158.425 215.302 158.852 215.035C159.289 214.768 159.817 214.635 160.436 214.635C161.183 214.635 161.796 214.811 162.276 215.163C162.756 215.504 163.113 215.979 163.348 216.587C163.593 217.195 163.716 217.899 163.716 218.699C163.716 219.211 163.679 219.696 163.604 220.155C163.54 220.603 163.444 221.046 163.316 221.483C163.188 221.92 163.033 222.374 162.852 222.843H161.348C161.625 222.118 161.839 221.435 161.988 220.795C162.137 220.144 162.212 219.44 162.212 218.683C162.212 218.064 162.143 217.547 162.004 217.131C161.865 216.715 161.657 216.4 161.38 216.187C161.103 215.963 160.751 215.851 160.324 215.851C159.993 215.851 159.695 215.931 159.428 216.091C159.172 216.251 158.969 216.496 158.82 216.827C158.681 217.147 158.612 217.547 158.612 218.027V220.283H157.204V218.027C157.204 217.547 157.135 217.147 156.996 216.827C156.868 216.496 156.676 216.251 156.42 216.091C156.164 215.931 155.855 215.851 155.492 215.851C154.863 215.851 154.393 216.091 154.084 216.571C153.775 217.04 153.62 217.75 153.62 218.699C153.62 219.478 153.695 220.192 153.844 220.843C153.993 221.483 154.201 222.15 154.468 222.843H152.98ZM169.6 223.003C168.778 223.003 168.064 222.859 167.456 222.571C166.858 222.283 166.394 221.888 166.064 221.387C165.733 220.875 165.568 220.288 165.568 219.627C165.568 219.424 165.584 219.222 165.616 219.019C165.648 218.806 165.696 218.592 165.76 218.379H167.216C167.173 218.582 167.136 218.774 167.104 218.955C167.082 219.136 167.072 219.307 167.072 219.467C167.072 220.203 167.285 220.768 167.712 221.163C168.149 221.558 168.778 221.755 169.6 221.755C170.154 221.755 170.613 221.654 170.976 221.451C171.338 221.238 171.61 220.955 171.792 220.603C171.973 220.251 172.064 219.862 172.064 219.435C172.064 219.03 171.968 218.667 171.776 218.347C171.594 218.027 171.322 217.776 170.96 217.595C170.608 217.403 170.165 217.307 169.632 217.307H168.816V216.075H169.744C170.437 216.075 170.949 215.888 171.28 215.515C171.61 215.142 171.776 214.704 171.776 214.203C171.776 213.872 171.69 213.579 171.52 213.323C171.36 213.067 171.125 212.864 170.816 212.715C170.506 212.566 170.133 212.491 169.696 212.491C169.248 212.491 168.864 212.56 168.544 212.699C168.224 212.838 167.978 213.035 167.808 213.291C167.648 213.536 167.568 213.83 167.568 214.171C167.568 214.31 167.573 214.448 167.584 214.587C167.605 214.715 167.632 214.854 167.664 215.003H166.208C166.165 214.843 166.133 214.688 166.112 214.539C166.09 214.379 166.08 214.219 166.08 214.059C166.08 213.526 166.229 213.051 166.528 212.635C166.837 212.208 167.264 211.872 167.808 211.627C168.352 211.382 168.981 211.259 169.696 211.259C170.41 211.259 171.034 211.387 171.568 211.643C172.101 211.888 172.517 212.23 172.816 212.667C173.125 213.094 173.28 213.59 173.28 214.155C173.28 214.806 173.098 215.35 172.736 215.787C172.384 216.224 171.898 216.512 171.28 216.651V216.699C171.685 216.763 172.058 216.912 172.4 217.147C172.752 217.371 173.034 217.68 173.248 218.075C173.472 218.47 173.584 218.95 173.584 219.515C173.584 220.208 173.418 220.822 173.088 221.355C172.768 221.878 172.309 222.283 171.712 222.571C171.114 222.859 170.41 223.003 169.6 223.003ZM176.549 222.843C176.346 222.288 176.165 221.712 176.005 221.115C175.855 220.518 175.738 219.851 175.653 219.115C175.567 218.368 175.525 217.52 175.525 216.571C175.525 215.302 175.706 214.278 176.069 213.499C176.431 212.72 176.917 212.155 177.525 211.803C178.133 211.44 178.81 211.259 179.557 211.259C180.303 211.259 180.981 211.44 181.589 211.803C182.197 212.155 182.682 212.72 183.045 213.499C183.407 214.278 183.589 215.302 183.589 216.571C183.589 217.52 183.546 218.368 183.461 219.115C183.375 219.851 183.258 220.518 183.109 221.115C182.959 221.712 182.778 222.288 182.565 222.843H181.093C181.306 222.256 181.482 221.67 181.621 221.083C181.77 220.486 181.882 219.835 181.957 219.131C182.031 218.416 182.069 217.59 182.069 216.651C182.069 215.638 181.962 214.827 181.749 214.219C181.546 213.611 181.253 213.174 180.869 212.907C180.495 212.64 180.058 212.507 179.557 212.507C179.055 212.507 178.613 212.64 178.229 212.907C177.855 213.174 177.562 213.611 177.349 214.219C177.146 214.827 177.045 215.638 177.045 216.651C177.045 217.59 177.082 218.416 177.157 219.131C177.231 219.835 177.338 220.486 177.477 221.083C177.626 221.67 177.807 222.256 178.021 222.843H176.549ZM189.889 223.003C188.609 223.003 187.633 222.656 186.961 221.963C186.299 221.259 185.969 220.246 185.969 218.923V211.419H187.409V219.067C187.409 219.6 187.494 220.07 187.665 220.475C187.846 220.88 188.118 221.195 188.481 221.419C188.843 221.643 189.313 221.755 189.889 221.755C190.443 221.755 190.897 221.648 191.249 221.435C191.611 221.222 191.878 220.939 192.049 220.587C192.23 220.224 192.321 219.835 192.321 219.419C192.321 218.971 192.241 218.603 192.081 218.315C191.931 218.016 191.75 217.734 191.537 217.467C191.259 217.104 191.009 216.715 190.785 216.299C190.561 215.872 190.47 215.36 190.513 214.763H192.001C191.99 215.222 192.081 215.616 192.273 215.947C192.475 216.278 192.705 216.614 192.961 216.955C193.206 217.275 193.414 217.632 193.585 218.027C193.755 218.411 193.841 218.886 193.841 219.451C193.841 220.155 193.675 220.774 193.345 221.307C193.014 221.84 192.55 222.256 191.953 222.555C191.366 222.854 190.678 223.003 189.889 223.003ZM196.736 222.843C196.534 222.288 196.352 221.712 196.192 221.115C196.043 220.518 195.926 219.851 195.84 219.115C195.755 218.368 195.712 217.52 195.712 216.571C195.712 215.302 195.894 214.278 196.256 213.499C196.619 212.72 197.104 212.155 197.712 211.803C198.32 211.44 198.998 211.259 199.744 211.259C200.491 211.259 201.168 211.44 201.776 211.803C202.384 212.155 202.87 212.72 203.232 213.499C203.595 214.278 203.776 215.302 203.776 216.571C203.776 217.52 203.734 218.368 203.648 219.115C203.563 219.851 203.446 220.518 203.296 221.115C203.147 221.712 202.966 222.288 202.752 222.843H201.28C201.494 222.256 201.67 221.67 201.808 221.083C201.958 220.486 202.07 219.835 202.144 219.131C202.219 218.416 202.256 217.59 202.256 216.651C202.256 215.638 202.15 214.827 201.936 214.219C201.734 213.611 201.44 213.174 201.056 212.907C200.683 212.64 200.246 212.507 199.744 212.507C199.243 212.507 198.8 212.64 198.416 212.907C198.043 213.174 197.75 213.611 197.536 214.219C197.334 214.827 197.232 215.638 197.232 216.651C197.232 217.59 197.27 218.416 197.344 219.131C197.419 219.835 197.526 220.486 197.664 221.083C197.814 221.67 197.995 222.256 198.208 222.843H196.736Z" fill="#333333"/>
<path d="M291.59 213.138L287 217.718L282.41 213.138L281 214.548L287 220.548L293 214.548L291.59 213.138Z" fill="#333333"/>
<g opacity="0.5">
<rect x="32.5" y="254.343" width="276" height="47" rx="23.5" fill="#048D59"/>
<path d="M135.412 283.987C134.868 283.987 134.351 283.896 133.86 283.715C133.369 283.523 132.932 283.256 132.548 282.915C132.175 282.563 131.876 282.142 131.652 281.651C131.439 281.15 131.332 280.584 131.332 279.955C131.332 279.123 131.492 278.424 131.812 277.859C132.143 277.294 132.601 276.856 133.188 276.547C133.775 276.227 134.436 276.035 135.172 275.971C135.78 275.918 136.217 275.79 136.484 275.587C136.761 275.374 136.9 275.08 136.9 274.707C136.9 274.376 136.767 274.11 136.5 273.907C136.233 273.704 135.881 273.603 135.444 273.603C134.996 273.603 134.639 273.715 134.372 273.939C134.105 274.152 133.972 274.44 133.972 274.803C133.972 274.867 133.977 274.931 133.988 274.995C133.999 275.059 134.009 275.134 134.02 275.219H132.292C132.271 275.091 132.249 274.979 132.228 274.883C132.217 274.776 132.212 274.67 132.212 274.563C132.212 274.104 132.351 273.704 132.628 273.363C132.916 273.011 133.3 272.739 133.78 272.547C134.271 272.355 134.825 272.259 135.444 272.259C136.084 272.259 136.644 272.36 137.124 272.563C137.604 272.755 137.977 273.032 138.244 273.395C138.521 273.747 138.66 274.163 138.66 274.643C138.66 275.059 138.553 275.432 138.34 275.763C138.127 276.094 137.78 276.344 137.3 276.515V276.563C137.929 276.755 138.463 277.134 138.9 277.699C139.337 278.264 139.556 279.016 139.556 279.955C139.556 280.584 139.449 281.15 139.236 281.651C139.033 282.142 138.745 282.563 138.372 282.915C137.999 283.256 137.561 283.523 137.06 283.715C136.559 283.896 136.009 283.987 135.412 283.987ZM135.444 282.515C135.903 282.515 136.303 282.403 136.644 282.179C136.985 281.955 137.252 281.656 137.444 281.283C137.636 280.899 137.732 280.456 137.732 279.955C137.732 279.422 137.636 278.963 137.444 278.579C137.252 278.195 136.98 277.907 136.628 277.715C136.287 277.512 135.887 277.411 135.428 277.411C134.98 277.411 134.58 277.512 134.228 277.715C133.887 277.918 133.62 278.211 133.428 278.595C133.247 278.968 133.156 279.422 133.156 279.955C133.156 280.446 133.247 280.883 133.428 281.267C133.62 281.651 133.892 281.955 134.244 282.179C134.596 282.403 134.996 282.515 135.444 282.515ZM145.191 283.987C144.391 283.987 143.692 283.838 143.095 283.539C142.508 283.23 142.049 282.798 141.719 282.243C141.388 281.678 141.223 281.022 141.223 280.275C141.223 279.966 141.239 279.656 141.271 279.347C141.303 279.038 141.404 278.659 141.575 278.211H143.335C143.196 278.606 143.105 278.968 143.063 279.299C143.031 279.63 143.015 279.912 143.015 280.147C143.015 280.819 143.196 281.384 143.559 281.843C143.921 282.291 144.465 282.515 145.191 282.515C145.713 282.515 146.129 282.408 146.439 282.195C146.759 281.971 146.993 281.667 147.143 281.283C147.292 280.899 147.367 280.462 147.367 279.971C147.367 279.459 147.297 279 147.159 278.595C147.031 278.19 146.86 277.816 146.647 277.475C146.433 277.134 146.209 276.814 145.975 276.515C145.665 276.099 145.372 275.694 145.095 275.299C144.828 274.904 144.62 274.478 144.471 274.019C144.332 273.55 144.3 273.016 144.375 272.419H146.119C146.087 272.867 146.129 273.272 146.247 273.635C146.375 273.998 146.551 274.344 146.775 274.675C147.009 275.006 147.255 275.347 147.511 275.699C147.788 276.051 148.055 276.435 148.311 276.851C148.567 277.256 148.775 277.715 148.935 278.227C149.105 278.739 149.191 279.331 149.191 280.003C149.191 280.803 149.031 281.502 148.711 282.099C148.391 282.696 147.932 283.16 147.335 283.491C146.737 283.822 146.023 283.987 145.191 283.987ZM155.037 283.987C154.493 283.987 153.976 283.896 153.485 283.715C152.994 283.523 152.557 283.256 152.173 282.915C151.8 282.563 151.501 282.142 151.277 281.651C151.064 281.15 150.957 280.584 150.957 279.955C150.957 279.123 151.117 278.424 151.437 277.859C151.768 277.294 152.226 276.856 152.813 276.547C153.4 276.227 154.061 276.035 154.797 275.971C155.405 275.918 155.842 275.79 156.109 275.587C156.386 275.374 156.525 275.08 156.525 274.707C156.525 274.376 156.392 274.11 156.125 273.907C155.858 273.704 155.506 273.603 155.069 273.603C154.621 273.603 154.264 273.715 153.997 273.939C153.73 274.152 153.597 274.44 153.597 274.803C153.597 274.867 153.602 274.931 153.613 274.995C153.624 275.059 153.634 275.134 153.645 275.219H151.917C151.896 275.091 151.874 274.979 151.853 274.883C151.842 274.776 151.837 274.67 151.837 274.563C151.837 274.104 151.976 273.704 152.253 273.363C152.541 273.011 152.925 272.739 153.405 272.547C153.896 272.355 154.45 272.259 155.069 272.259C155.709 272.259 156.269 272.36 156.749 272.563C157.229 272.755 157.602 273.032 157.869 273.395C158.146 273.747 158.285 274.163 158.285 274.643C158.285 275.059 158.178 275.432 157.965 275.763C157.752 276.094 157.405 276.344 156.925 276.515V276.563C157.554 276.755 158.088 277.134 158.525 277.699C158.962 278.264 159.181 279.016 159.181 279.955C159.181 280.584 159.074 281.15 158.861 281.651C158.658 282.142 158.37 282.563 157.997 282.915C157.624 283.256 157.186 283.523 156.685 283.715C156.184 283.896 155.634 283.987 155.037 283.987ZM155.069 282.515C155.528 282.515 155.928 282.403 156.269 282.179C156.61 281.955 156.877 281.656 157.069 281.283C157.261 280.899 157.357 280.456 157.357 279.955C157.357 279.422 157.261 278.963 157.069 278.579C156.877 278.195 156.605 277.907 156.253 277.715C155.912 277.512 155.512 277.411 155.053 277.411C154.605 277.411 154.205 277.512 153.853 277.715C153.512 277.918 153.245 278.211 153.053 278.595C152.872 278.968 152.781 279.422 152.781 279.955C152.781 280.446 152.872 280.883 153.053 281.267C153.245 281.651 153.517 281.955 153.869 282.179C154.221 282.403 154.621 282.515 155.069 282.515ZM165.333 284.003C164.747 284.003 164.208 283.912 163.717 283.731C163.227 283.539 162.8 283.272 162.437 282.931C162.085 282.579 161.808 282.158 161.605 281.667C161.403 281.176 161.301 280.627 161.301 280.019C161.301 279.475 161.376 278.979 161.525 278.531C161.675 278.083 161.909 277.704 162.229 277.395V277.331C161.835 277.224 161.488 277.059 161.189 276.835C160.891 276.611 160.661 276.328 160.501 275.987C160.341 275.646 160.261 275.272 160.261 274.867C160.261 274.43 160.373 274.014 160.597 273.619C160.832 273.214 161.168 272.888 161.605 272.643C162.053 272.387 162.597 272.259 163.237 272.259C163.867 272.259 164.4 272.376 164.837 272.611C165.285 272.835 165.627 273.134 165.861 273.507C166.107 273.88 166.229 274.275 166.229 274.691C166.229 274.926 166.197 275.155 166.133 275.379C166.069 275.603 165.973 275.795 165.845 275.955V276.003C165.877 276.003 165.909 276.003 165.941 276.003C165.984 276.003 166.037 276.014 166.101 276.035C166.752 276.099 167.323 276.302 167.813 276.643C168.315 276.974 168.704 277.416 168.981 277.971C169.259 278.515 169.397 279.155 169.397 279.891C169.397 280.531 169.301 281.107 169.109 281.619C168.917 282.131 168.64 282.563 168.277 282.915C167.925 283.267 167.499 283.539 166.997 283.731C166.507 283.912 165.952 284.003 165.333 284.003ZM165.365 282.531C165.888 282.531 166.309 282.424 166.629 282.211C166.96 281.987 167.2 281.678 167.349 281.283C167.509 280.888 167.589 280.424 167.589 279.891C167.589 279.368 167.509 278.915 167.349 278.531C167.2 278.136 166.96 277.832 166.629 277.619C166.309 277.406 165.883 277.299 165.349 277.299C164.571 277.299 164.005 277.539 163.653 278.019C163.312 278.488 163.141 279.112 163.141 279.891C163.141 280.424 163.216 280.888 163.365 281.283C163.515 281.678 163.755 281.987 164.085 282.211C164.416 282.424 164.843 282.531 165.365 282.531ZM163.237 276.323C163.664 276.323 163.989 276.195 164.213 275.939C164.437 275.683 164.549 275.358 164.549 274.963C164.549 274.59 164.443 274.275 164.229 274.019C164.016 273.752 163.685 273.619 163.237 273.619C162.8 273.619 162.475 273.752 162.261 274.019C162.048 274.275 161.941 274.59 161.941 274.963C161.941 275.315 162.043 275.63 162.245 275.907C162.459 276.184 162.789 276.323 163.237 276.323ZM175.128 283.987C174.328 283.987 173.629 283.838 173.032 283.539C172.445 283.23 171.987 282.798 171.656 282.243C171.325 281.678 171.16 281.022 171.16 280.275C171.16 279.966 171.176 279.656 171.208 279.347C171.24 279.038 171.341 278.659 171.512 278.211H173.272C173.133 278.606 173.043 278.968 173 279.299C172.968 279.63 172.952 279.912 172.952 280.147C172.952 280.819 173.133 281.384 173.496 281.843C173.859 282.291 174.403 282.515 175.128 282.515C175.651 282.515 176.067 282.408 176.376 282.195C176.696 281.971 176.931 281.667 177.08 281.283C177.229 280.899 177.304 280.462 177.304 279.971C177.304 279.459 177.235 279 177.096 278.595C176.968 278.19 176.797 277.816 176.584 277.475C176.371 277.134 176.147 276.814 175.912 276.515C175.603 276.099 175.309 275.694 175.032 275.299C174.765 274.904 174.557 274.478 174.408 274.019C174.269 273.55 174.237 273.016 174.312 272.419H176.056C176.024 272.867 176.067 273.272 176.184 273.635C176.312 273.998 176.488 274.344 176.712 274.675C176.947 275.006 177.192 275.347 177.448 275.699C177.725 276.051 177.992 276.435 178.248 276.851C178.504 277.256 178.712 277.715 178.872 278.227C179.043 278.739 179.128 279.331 179.128 280.003C179.128 280.803 178.968 281.502 178.648 282.099C178.328 282.696 177.869 283.16 177.272 283.491C176.675 283.822 175.96 283.987 175.128 283.987ZM184.96 284.003C184.117 284.003 183.386 283.859 182.768 283.571C182.149 283.272 181.674 282.872 181.344 282.371C181.013 281.859 180.848 281.283 180.848 280.643C180.848 280.43 180.864 280.227 180.896 280.035C180.928 279.832 180.976 279.63 181.04 279.427H182.768C182.725 279.619 182.693 279.8 182.672 279.971C182.65 280.131 182.64 280.291 182.64 280.451C182.64 281.112 182.837 281.63 183.232 282.003C183.626 282.376 184.208 282.563 184.976 282.563C185.488 282.563 185.909 282.467 186.24 282.275C186.581 282.083 186.832 281.827 186.992 281.507C187.152 281.176 187.232 280.814 187.232 280.419C187.232 280.024 187.141 279.678 186.96 279.379C186.789 279.08 186.533 278.851 186.192 278.691C185.861 278.531 185.456 278.451 184.976 278.451H184.224V277.011H185.072C185.722 277.011 186.197 276.84 186.496 276.499C186.794 276.158 186.944 275.752 186.944 275.283C186.944 274.974 186.869 274.702 186.72 274.467C186.57 274.232 186.352 274.046 186.064 273.907C185.786 273.768 185.45 273.699 185.056 273.699C184.65 273.699 184.298 273.763 184 273.891C183.712 274.019 183.493 274.2 183.344 274.435C183.194 274.659 183.12 274.931 183.12 275.251C183.12 275.39 183.125 275.523 183.136 275.651C183.146 275.768 183.168 275.902 183.2 276.051H181.456C181.413 275.88 181.381 275.72 181.36 275.571C181.338 275.422 181.328 275.267 181.328 275.107C181.328 274.552 181.482 274.062 181.792 273.635C182.112 273.208 182.554 272.872 183.12 272.627C183.685 272.382 184.33 272.259 185.056 272.259C185.792 272.259 186.437 272.387 186.992 272.643C187.546 272.899 187.978 273.246 188.288 273.683C188.597 274.12 188.752 274.627 188.752 275.203C188.752 275.854 188.57 276.392 188.208 276.819C187.856 277.246 187.376 277.534 186.768 277.683V277.731C187.162 277.795 187.53 277.939 187.872 278.163C188.224 278.387 188.506 278.696 188.72 279.091C188.944 279.486 189.056 279.96 189.056 280.515C189.056 281.198 188.89 281.806 188.56 282.339C188.229 282.862 187.754 283.272 187.136 283.571C186.528 283.859 185.802 284.003 184.96 284.003ZM194.918 284.003C193.66 284.003 192.689 283.646 192.006 282.931C191.324 282.216 190.982 281.182 190.982 279.827V275.475C190.982 274.931 191.062 274.462 191.222 274.067C191.382 273.672 191.601 273.358 191.878 273.123C192.156 272.878 192.476 272.702 192.838 272.595C193.212 272.478 193.606 272.419 194.022 272.419H198.182V273.891H194.23C193.761 273.891 193.393 274.003 193.126 274.227C192.86 274.451 192.726 274.83 192.726 275.363V275.923C192.726 276.094 192.716 276.28 192.694 276.483C192.673 276.675 192.646 276.84 192.614 276.979H192.71C192.892 276.755 193.105 276.552 193.35 276.371C193.606 276.19 193.9 276.046 194.23 275.939C194.561 275.822 194.94 275.763 195.366 275.763C196.092 275.763 196.726 275.923 197.27 276.243C197.825 276.563 198.252 277.027 198.55 277.635C198.849 278.243 198.998 278.979 198.998 279.843C198.998 280.739 198.828 281.496 198.486 282.115C198.156 282.734 197.686 283.203 197.078 283.523C196.47 283.843 195.75 284.003 194.918 284.003ZM194.934 282.563C195.457 282.563 195.884 282.451 196.214 282.227C196.545 282.003 196.79 281.688 196.95 281.283C197.11 280.878 197.19 280.408 197.19 279.875C197.19 279.342 197.105 278.878 196.934 278.483C196.774 278.088 196.529 277.779 196.198 277.555C195.878 277.331 195.478 277.219 194.998 277.219C194.422 277.219 193.964 277.336 193.622 277.571C193.292 277.806 193.052 278.12 192.902 278.515C192.753 278.91 192.678 279.352 192.678 279.843V280.083C192.678 280.574 192.753 281.006 192.902 281.379C193.062 281.752 193.308 282.046 193.638 282.259C193.969 282.462 194.401 282.563 194.934 282.563ZM204.722 283.987C203.922 283.987 203.223 283.838 202.626 283.539C202.039 283.23 201.581 282.798 201.25 282.243C200.919 281.678 200.754 281.022 200.754 280.275C200.754 279.966 200.77 279.656 200.802 279.347C200.834 279.038 200.935 278.659 201.106 278.211H202.866C202.727 278.606 202.637 278.968 202.594 279.299C202.562 279.63 202.546 279.912 202.546 280.147C202.546 280.819 202.727 281.384 203.09 281.843C203.453 282.291 203.997 282.515 204.722 282.515C205.245 282.515 205.661 282.408 205.97 282.195C206.29 281.971 206.525 281.667 206.674 281.283C206.823 280.899 206.898 280.462 206.898 279.971C206.898 279.459 206.829 279 206.69 278.595C206.562 278.19 206.391 277.816 206.178 277.475C205.965 277.134 205.741 276.814 205.506 276.515C205.197 276.099 204.903 275.694 204.626 275.299C204.359 274.904 204.151 274.478 204.002 274.019C203.863 273.55 203.831 273.016 203.906 272.419H205.65C205.618 272.867 205.661 273.272 205.778 273.635C205.906 273.998 206.082 274.344 206.306 274.675C206.541 275.006 206.786 275.347 207.042 275.699C207.319 276.051 207.586 276.435 207.842 276.851C208.098 277.256 208.306 277.715 208.466 278.227C208.637 278.739 208.722 279.331 208.722 280.003C208.722 280.803 208.562 281.502 208.242 282.099C207.922 282.696 207.463 283.16 206.866 283.491C206.269 283.822 205.554 283.987 204.722 283.987Z" fill="white"/>
<rect x="32.5" y="254.343" width="276" height="47" rx="23.5" stroke="#038956"/>
</g>
</svg>
