<svg width="19" height="12" viewBox="0 0 19 12" fill="none" xmlns="http://www.w3.org/2000/svg">
<path d="M5.27929 5.44001H9.59929V11.248C8.99129 11.4507 8.36729 11.6053 7.72729 11.712C7.08729 11.8187 6.36196 11.872 5.55129 11.872C4.39929 11.872 3.42329 11.6427 2.62329 11.184C1.82329 10.7253 1.21529 10.0587 0.799293 9.18401C0.383293 8.30934 0.175293 7.24267 0.175293 5.98401C0.175293 4.78934 0.40996 3.75467 0.879293 2.88001C1.34863 2.00534 2.02063 1.32801 2.89529 0.848006C3.78063 0.368006 4.85796 0.128006 6.12729 0.128006C6.74596 0.128006 7.34329 0.192006 7.91929 0.320006C8.50596 0.437339 9.03929 0.602673 9.51929 0.816006L8.81529 2.49601C8.45263 2.31467 8.03129 2.16534 7.55129 2.04801C7.08196 1.92001 6.59129 1.85601 6.07929 1.85601C5.30063 1.85601 4.62863 2.02667 4.06329 2.36801C3.49796 2.70934 3.06063 3.19467 2.75129 3.82401C2.45263 4.44267 2.30329 5.17334 2.30329 6.01601C2.30329 6.82667 2.42063 7.54667 2.65529 8.17601C2.88996 8.79467 3.26329 9.28001 3.77529 9.63201C4.28729 9.97334 4.95396 10.144 5.77529 10.144C6.18063 10.144 6.52196 10.128 6.79929 10.096C7.08729 10.0533 7.34863 10 7.58329 9.93601V7.18401H5.27929V5.44001Z" fill="black"/>
<path d="M18.8247 11.712H12.3287V0.288006H18.8247V2.00001H14.3767V4.91201H18.5367V6.62401H14.3767V9.98401H18.8247V11.712Z" fill="black"/>
</svg>
