<svg width="41" height="40" viewBox="0 0 41 40" fill="none" xmlns="http://www.w3.org/2000/svg">
<path d="M28.8068 39.3932C27.3506 40.2134 25.1897 40.2489 23.4125 39.2109C21.6721 38.1884 20.884 36.5261 20.5576 34.512C20.3272 35.2575 20.1837 35.9419 19.9084 36.5662C19.1355 38.3233 17.8345 39.4351 15.947 39.847C14.7984 40.1004 13.7054 39.9801 12.6088 39.632C12.3174 39.5408 12.2259 39.416 12.3515 39.1097C13.301 36.794 14.577 34.7006 16.3918 32.9773C17.3781 32.044 18.4585 31.2521 19.799 30.9522C20.8311 30.7207 21.8102 31.0051 22.7069 31.5136C24.2769 32.404 25.5044 33.6863 26.5418 35.159C27.478 36.4622 28.2396 37.8861 28.8068 39.3932Z" fill="#FDD833"/>
<path d="M11.1518 38.9385C9.45888 37.936 8.356 36.5452 8.05024 34.6241C7.75255 32.7495 8.30489 31.0653 9.54854 29.6007L9.4257 29.5379C8.92806 29.6992 8.43401 29.8714 7.93188 30.0181C5.68308 30.6789 3.52844 29.927 2.066 28.0934C1.63292 27.5465 1.33344 26.8858 1.03575 26.2479C0.810691 25.7676 0.871663 25.7384 1.38813 25.5844C3.27778 25.0172 5.24884 24.782 7.21636 24.889C8.57478 24.961 9.91168 25.219 11.1383 25.8305C12.6949 26.606 13.4221 27.9703 13.5637 29.691C13.7368 31.7871 13.3772 33.8075 12.6501 35.7551C12.286 36.7284 11.7973 37.6535 11.3607 38.5985C11.2978 38.716 11.2281 38.8295 11.1518 38.9385Z" fill="#D3DC25"/>
<path d="M31.4214 29.475C31.4919 29.6219 31.5715 29.764 31.6599 29.9006C33.9607 32.8415 33.3277 36.7166 30.2253 38.7407C29.9366 38.9284 29.8057 38.9503 29.621 38.6003C28.2832 36.0649 27.3901 33.4056 27.4233 30.4948C27.4367 29.331 27.6178 28.1991 28.2993 27.2139C28.9485 26.2725 29.889 25.7703 30.9301 25.4486C32.7763 24.8687 34.729 24.728 36.6372 25.0376C37.6352 25.1989 38.626 25.4076 39.6159 25.6145C40.1925 25.7348 40.196 25.7694 39.9925 26.3317C39.3935 27.9803 38.3104 29.1797 36.7206 29.8614C35.1918 30.5166 33.6595 30.3745 32.1477 29.7383C32.0787 29.7101 32.0186 29.66 31.9487 29.6363C31.8294 29.5852 31.7012 29.5542 31.4214 29.475Z" fill="#F39222"/>
<path d="M14.4048 7.6326C14.3994 6.63558 14.2667 5.6176 14.4156 4.64518C14.8074 2.08519 17.3745 -0.00271494 19.9308 0.0446754C19.9588 0.0900317 19.9789 0.139988 19.99 0.192314C20.1622 3.22712 19.8161 6.16896 18.4039 8.90211C17.7762 10.1124 16.9611 11.144 15.6045 11.5669C14.5563 11.8932 13.4992 11.7938 12.4573 11.5459C9.63462 10.8734 7.2567 9.37146 5.1442 7.40476C5.10952 7.35937 5.07947 7.31051 5.05453 7.25894C6.19238 5.99763 7.57501 5.24485 9.26878 5.16283C11.2064 5.0717 12.7657 5.85272 13.9753 7.37104C14.0873 7.49377 14.2071 7.60885 14.334 7.71553C14.3949 7.80666 14.4559 7.8978 14.5133 7.98893L14.5967 7.93426L14.4048 7.6326Z" fill="#048D59"/>
<path d="M36.0311 7.33092C34.7101 8.61013 33.2031 9.67493 31.5631 10.4878C30.1849 11.1714 28.7485 11.6498 27.2045 11.7637C25.3448 11.8968 23.99 11.0893 23.001 9.52819C21.3135 6.86431 20.806 2.7131 21.1485 0C23.1041 0.142171 24.7064 0.946895 25.8299 2.59553C26.9669 4.26331 27.0126 6.09421 26.5006 8.04177C26.6247 7.9206 26.742 7.79251 26.8521 7.6581C28.3836 5.57839 30.5902 4.74632 33.0094 5.38427C34.1948 5.69322 35.1873 6.34848 36.0311 7.33092Z" fill="#E81C2F"/>
<path d="M7.24864 17.5964C6.54028 17.1589 5.84359 16.809 5.23566 16.3387C2.80305 14.455 2.51522 10.9918 4.13726 8.47739C4.27804 8.25958 4.41791 8.24409 4.61428 8.38626C7.13118 10.2482 9.22306 12.4673 10.3779 15.4711C11.1849 17.58 10.7106 19.4401 8.9989 20.9702C7.41183 22.3892 5.5719 23.3334 3.56341 23.944C2.72235 24.1991 1.8535 24.3586 0.996299 24.5582C0.86177 24.5809 0.726206 24.5967 0.590117 24.6056C0.287946 22.5833 0.735374 20.8098 2.08842 19.3261C3.46926 17.8115 5.25808 17.4241 7.24864 17.5964Z" fill="#8CC341"/>
<path d="M40.5 23.254V23.7735C40.4507 23.9366 40.4005 24.1007 40.3467 24.2766L39.6787 24.5117C39.6625 24.4707 39.6446 24.3923 39.6311 24.3932C39.1174 24.4288 38.6959 23.871 38.1463 24.1536C37.7993 23.8072 37.3617 23.7635 36.9089 23.7717C34.9363 23.1046 33.143 22.113 31.6752 20.5911C30.1688 19.0299 29.8819 17.2081 30.7973 15.2095C31.0365 14.7204 31.2735 14.2314 31.5084 13.7423L31.9612 13.0132L32.4857 12.2695C32.9663 12.059 33.1932 11.6316 33.3869 11.1759L33.4012 11.1941L33.386 11.1768L33.9132 10.62L33.932 10.6437L33.9159 10.6181C34.2898 10.5188 34.6099 10.3621 34.6511 9.9082L35.4707 9.19096L36.7448 8.18848C37.8934 9.9246 38.2808 11.7245 37.6738 13.673C37.0667 15.6215 35.641 16.7716 33.8244 17.5317C35.5137 17.4688 37.0981 17.7076 38.426 18.854L38.5157 18.9361L38.7928 19.204C38.8528 19.266 38.9138 19.327 38.9721 19.3863C39.0199 19.5087 39.0737 19.6285 39.1335 19.7453C39.4025 20.222 39.7468 20.6695 39.9405 21.1762C40.1862 21.8506 40.3171 22.5623 40.5 23.254Z" fill="#ED5B2A"/>
<path d="M40.5 23.254C40.3207 22.5623 40.1862 21.8506 39.936 21.1853C39.7459 20.6786 39.4025 20.2311 39.129 19.7545C39.0692 19.6376 39.0154 19.5178 38.9676 19.3954C40.0113 20.4644 40.5027 21.7585 40.5 23.254Z" fill="#DC754F"/>
<path d="M38.1463 24.1581C38.6959 23.8756 39.1174 24.4315 39.6311 24.3978C39.6446 24.3978 39.6625 24.4753 39.6787 24.5163L38.1463 24.1581Z" fill="#DC754F"/>
<path d="M39.6787 24.5117L40.3467 24.2766C40.4005 24.1007 40.4507 23.9366 40.5 23.7735L40.4991 24.7168L39.6787 24.5117Z" fill="#DC754F"/>
<path d="M33.3869 11.1841C33.1932 11.6398 32.9663 12.0654 32.4857 12.2778L33.3869 11.1841Z" fill="#DF7D5A"/>
<path d="M36.9125 23.7744C37.3653 23.7662 37.8029 23.81 38.1499 24.1563L36.9125 23.7744Z" fill="#DC754F"/>
<path d="M34.6494 9.91644C34.6081 10.3721 34.2907 10.527 33.9141 10.6264L34.6494 9.91644Z" fill="#DF7D5A"/>
</svg>
