<svg width="18" height="18" viewBox="0 0 18 18" fill="none" xmlns="http://www.w3.org/2000/svg">
<path d="M13 11.255H12.21L11.93 10.985C12.91 9.845 13.5 8.365 13.5 6.755C13.5 3.165 10.59 0.254997 7 0.254997C3.41 0.254997 0.5 3.165 0.5 6.755C0.5 10.345 3.41 13.255 7 13.255C8.61 13.255 10.09 12.665 11.23 11.685L11.5 11.965V12.755L16.5 17.745L17.99 16.255L13 11.255ZM7 11.255C4.51 11.255 2.5 9.245 2.5 6.755C2.5 4.265 4.51 2.255 7 2.255C9.49 2.255 11.5 4.265 11.5 6.755C11.5 9.245 9.49 11.255 7 11.255Z" fill="#323232"/>
</svg>
